<?xml version="1.0" encoding="UTF-8"?>
<svg xmlns="http://www.w3.org/2000/svg" xmlns:xlink="http://www.w3.org/1999/xlink" width="193pt" height="193pt" viewBox="0 0 193 193" version="1.1">
<g id="surface1">
<path style=" stroke:none;fill-rule:evenodd;fill:rgb(100%,100%,100%);fill-opacity:1;" d="M 0 0.242188 L 192.757813 0.242188 L 192.757813 193 L 0 193 L 0 0.242188 "/>
<path style=" stroke:none;fill-rule:evenodd;fill:rgb(13.699341%,12.199402%,12.5%);fill-opacity:1;" d="M 96.378906 181.164063 L 93.078125 177.730469 L 91.261719 176.226563 L 89.246094 174.785156 L 87.074219 173.511719 L 84.707031 172.277344 L 82.234375 171.074219 L 79.53125 170.003906 L 76.746094 168.949219 L 73.871094 167.953125 L 70.859375 167.023438 L 67.726563 166.136719 L 64.609375 165.207031 L 61.378906 164.316406 L 58.117188 163.347656 L 54.898438 162.421875 L 51.601563 161.433594 L 48.273438 160.367188 L 45.042969 159.242188 L 41.855469 157.996094 L 38.664063 156.695313 L 35.542969 155.292969 L 32.480469 153.710938 L 29.609375 152.03125 L 26.753906 150.144531 L 24.046875 148.160156 L 21.480469 145.929688 L 19.03125 143.5 L 16.878906 140.851563 L 14.824219 138.039063 L 13.027344 134.90625 L 11.445313 131.550781 L 10.152344 127.953125 L 9.433594 125.546875 L 8.988281 123.105469 L 8.613281 120.707031 L 8.503906 118.414063 L 8.574219 116.042969 L 8.742188 113.8125 L 9.097656 111.542969 L 9.570313 109.390625 L 10.152344 107.195313 L 10.792969 105.0625 L 11.625 103.007813 L 12.453125 100.933594 L 13.402344 98.960938 L 14.410156 96.925781 L 15.398438 95.011719 L 16.523438 93.054688 L 17.570313 91.097656 L 18.695313 89.203125 L 19.820313 87.328125 L 20.925781 85.429688 L 22.054688 83.582031 L 23.121094 81.730469 L 24.1875 79.914063 L 25.175781 78.09375 L 26.140625 76.273438 L 27 74.488281 L 27.820313 72.675781 L 28.550781 70.894531 L 29.191406 69.140625 L 29.71875 67.351563 L 30.132813 65.601563 L 30.425781 63.820313 L 30.527344 63.0625 L 30.605469 62.277344 L 30.675781 61.527344 L 30.675781 59.121094 L 30.605469 58.332031 L 30.527344 57.507813 L 30.425781 56.753906 L 30.300781 55.925781 L 30.191406 55.175781 L 30.011719 54.351563 L 29.855469 53.527344 L 29.675781 52.738281 L 29.441406 51.980469 L 29.191406 51.160156 L 28.886719 50.371094 L 28.609375 49.617188 L 28.304688 48.859375 L 27.960938 48.035156 L 27.582031 47.320313 L 27.238281 46.5625 L 26.832031 45.773438 L 26.417969 45.019531 L 26.003906 44.339844 L 25.519531 43.617188 L 25.074219 42.886719 L 24.601563 42.199219 L 24.046875 41.484375 L 23.535156 40.828125 L 22.980469 40.144531 L 20.988281 37.851563 L 47.335938 12.078125 L 50.230469 13.554688 L 51.601563 14.207031 L 53.003906 14.894531 L 54.414063 15.515625 L 55.808594 16.128906 L 57.230469 16.75 L 58.703125 17.328125 L 60.144531 17.914063 L 61.613281 18.425781 L 63.019531 18.976563 L 64.5 19.484375 L 67.460938 20.453125 L 68.921875 20.867188 L 70.40625 21.273438 L 71.917969 21.6875 L 73.386719 22.027344 L 74.929688 22.410156 L 76.410156 22.6875 L 77.921875 23.03125 L 79.460938 23.269531 L 80.941406 23.574219 L 82.472656 23.8125 L 83.992188 23.988281 L 85.535156 24.160156 L 87.113281 24.328125 L 88.65625 24.46875 L 90.195313 24.566406 L 91.707031 24.703125 L 93.316406 24.738281 L 94.828125 24.808594 L 97.917969 24.808594 L 99.429688 24.738281 L 101.039063 24.703125 L 102.558594 24.566406 L 104.089844 24.46875 L 105.640625 24.328125 L 107.222656 24.160156 L 108.761719 23.988281 L 110.261719 23.8125 L 111.824219 23.574219 L 113.285156 23.269531 L 114.84375 23.03125 L 116.347656 22.6875 L 117.816406 22.410156 L 119.367188 22.027344 L 120.847656 21.6875 L 122.351563 21.273438 L 123.832031 20.867188 L 125.304688 20.453125 L 126.773438 19.96875 L 128.257813 19.484375 L 129.71875 18.976563 L 131.128906 18.425781 L 132.601563 17.914063 L 134.054688 17.328125 L 135.523438 16.75 L 136.925781 16.128906 L 138.339844 15.515625 L 139.730469 14.894531 L 141.15625 14.207031 L 142.535156 13.554688 L 145.410156 12.078125 L 171.757813 37.851563 L 169.773438 40.144531 L 169.21875 40.828125 L 168.707031 41.484375 L 168.152344 42.199219 L 167.671875 42.886719 L 167.226563 43.617188 L 166.753906 44.339844 L 166.335938 45.019531 L 165.921875 45.773438 L 165.507813 46.5625 L 165.171875 47.320313 L 164.796875 48.035156 L 164.441406 48.859375 L 164.144531 49.617188 L 163.867188 50.371094 L 163.550781 51.160156 L 163.316406 51.980469 L 163.078125 52.738281 L 162.898438 53.527344 L 162.742188 54.351563 L 162.5625 55.175781 L 162.457031 55.925781 L 162.316406 56.753906 L 162.210938 57.507813 L 162.148438 58.332031 L 162.078125 59.121094 L 162.078125 61.527344 L 162.148438 62.277344 L 162.210938 63.0625 L 162.316406 63.820313 L 162.632813 65.601563 L 163.039063 67.351563 L 163.550781 69.140625 L 164.203125 70.894531 L 164.925781 72.675781 L 165.753906 74.488281 L 166.613281 76.273438 L 167.5625 78.09375 L 168.566406 79.914063 L 169.636719 81.730469 L 170.691406 83.582031 L 171.828125 85.429688 L 172.914063 87.328125 L 174.0625 89.203125 L 175.1875 91.097656 L 176.214844 93.054688 L 177.359375 95.011719 L 178.347656 96.925781 L 179.34375 98.960938 L 180.300781 100.933594 L 181.132813 103.007813 L 181.941406 105.0625 L 182.613281 107.195313 L 183.1875 109.390625 L 183.660156 111.542969 L 184.003906 113.8125 L 184.171875 116.042969 L 184.253906 118.414063 L 184.144531 120.707031 L 183.769531 123.105469 L 183.324219 125.546875 L 182.613281 127.953125 L 181.289063 131.550781 L 179.71875 134.90625 L 177.929688 138.039063 L 175.878906 140.851563 L 173.714844 143.5 L 171.273438 145.929688 L 168.707031 148.160156 L 165.992188 150.144531 L 163.15625 152.03125 L 160.195313 153.710938 L 157.210938 155.292969 L 154.09375 156.695313 L 150.890625 157.996094 L 147.710938 159.242188 L 144.472656 160.367188 L 141.15625 161.433594 L 137.855469 162.421875 L 134.636719 163.347656 L 131.378906 164.316406 L 128.136719 165.207031 L 125.027344 166.136719 L 121.90625 167.023438 L 118.886719 167.953125 L 115.992188 168.949219 L 113.226563 170.003906 L 110.519531 171.074219 L 108.03125 172.277344 L 105.679688 173.511719 L 103.519531 174.785156 L 101.492188 176.226563 L 99.675781 177.730469 L 96.378906 181.164063 "/>
<path style=" stroke:none;fill-rule:evenodd;fill:rgb(100%,100%,100%);fill-opacity:1;" d="M 90.265625 171.347656 L 88.792969 170.460938 L 86.246094 169.117188 L 83.539063 167.882813 L 80.765625 166.746094 L 77.890625 165.699219 L 76.707031 165.277344 L 76.707031 110.347656 L 90.265625 100.15625 Z M 62.75 120.914063 L 62.75 161.097656 L 62.347656 160.988281 L 59.078125 160.03125 L 55.859375 159.101563 L 52.589844 158.117188 L 50.296875 157.324219 L 50.296875 130.285156 Z M 36.976563 140.300781 L 36.976563 152.140625 L 34.171875 150.667969 L 31.394531 149.089844 L 28.75 147.300781 L 28.175781 146.886719 Z M 12.414063 112.785156 L 12.484375 112.152344 L 12.929688 110.179688 L 13.480469 108.222656 L 14.074219 106.226563 L 14.824219 104.273438 L 15.632813 102.355469 L 16.523438 100.460938 L 17.488281 98.507813 L 18.488281 96.628906 L 19.484375 94.734375 L 20.613281 92.855469 L 21.679688 90.960938 L 22.773438 89.0625 L 23.910156 87.257813 L 25.054688 85.371094 L 26.140625 83.480469 L 27.207031 81.59375 L 28.195313 79.777344 L 29.191406 77.890625 L 30.152344 75.933594 L 30.980469 74.042969 L 31.800781 72.15625 L 32.460938 70.203125 L 33.035156 68.28125 L 33.527344 66.328125 L 33.855469 64.335938 L 34.003906 63.441406 L 34.03125 62.554688 L 34.101563 61.664063 L 34.171875 60.804688 L 34.171875 59.84375 L 34.101563 58.949219 L 34.03125 58.089844 L 34.003906 57.199219 L 33.855469 56.308594 L 33.746094 55.378906 L 33.589844 54.484375 L 33.371094 53.597656 L 33.214844 52.703125 L 32.964844 51.847656 L 32.757813 50.953125 L 32.460938 50.066406 L 32.148438 49.167969 L 31.800781 48.347656 L 31.464844 47.457031 L 31.078125 46.628906 L 30.734375 45.804688 L 30.25 44.953125 L 29.855469 44.125 L 29.402344 43.335938 L 28.925781 42.515625 L 28.441406 41.695313 L 27.929688 40.9375 L 27.375 40.144531 L 26.210938 38.636719 L 25.726563 38.050781 L 47.957031 16.300781 L 48.648438 16.640625 L 50.082031 17.363281 L 51.503906 18.046875 L 52.984375 18.703125 L 54.445313 19.351563 L 55.925781 19.933594 L 57.398438 20.585938 L 58.839844 21.175781 L 60.3125 21.71875 L 61.851563 22.242188 L 63.394531 22.785156 L 64.875 23.300781 L 66.394531 23.78125 L 67.9375 24.191406 L 69.476563 24.671875 L 70.976563 25.015625 L 72.597656 25.425781 L 74.109375 25.769531 L 75.65625 26.152344 L 77.226563 26.421875 L 78.839844 26.726563 L 80.347656 27.011719 L 81.960938 27.246094 L 83.539063 27.414063 L 85.160156 27.65625 L 86.738281 27.824219 L 88.308594 27.964844 L 89.917969 28.066406 L 91.5 28.136719 L 93.078125 28.238281 L 99.558594 28.238281 L 101.175781 28.136719 L 102.757813 28.066406 L 104.378906 27.964844 L 105.949219 27.824219 L 107.535156 27.65625 L 109.136719 27.414063 L 110.71875 27.246094 L 112.296875 27.011719 L 113.90625 26.726563 L 115.496094 26.421875 L 117.027344 26.152344 L 118.617188 25.769531 L 120.15625 25.425781 L 121.699219 25.015625 L 123.199219 24.671875 L 124.820313 24.191406 L 126.300781 23.78125 L 127.8125 23.300781 L 129.34375 22.785156 L 130.863281 22.242188 L 132.324219 21.71875 L 133.804688 21.175781 L 135.347656 20.585938 L 136.828125 19.933594 L 137.34375 19.765625 Z M 151.375 54.074219 L 151.375 154.027344 L 149.628906 154.777344 L 146.507813 155.984375 L 143.308594 157.046875 L 140.128906 158.117188 L 136.886719 159.101563 L 136.355469 159.203125 L 136.355469 65.398438 Z M 120.324219 77.476563 L 120.324219 163.871094 L 117.777344 164.691406 L 114.84375 165.699219 L 111.882813 166.746094 L 109.136719 167.882813 L 106.472656 169.117188 L 105.304688 169.769531 L 105.304688 88.796875 Z M 167.542969 85.132813 L 167.640625 85.371094 L 168.777344 87.257813 L 169.902344 89.0625 L 171.007813 90.960938 L 172.132813 92.855469 L 173.191406 94.734375 L 174.257813 96.628906 L 175.253906 98.507813 L 176.183594 100.460938 L 177.0625 102.355469 L 177.902344 104.273438 L 178.621094 106.226563 L 179.273438 108.222656 L 179.789063 110.179688 L 180.203125 112.152344 L 180.496094 114.1875 L 180.675781 116.242188 L 180.757813 118.304688 L 180.609375 120.429688 L 180.34375 122.5625 L 179.917969 124.695313 L 179.292969 126.917969 L 178.070313 130.207031 L 176.589844 133.269531 L 174.949219 136.113281 L 173.132813 138.757813 L 171.066406 141.1875 L 168.882813 143.421875 L 167.542969 144.527344 L 167.542969 85.132813 "/>
<path style=" stroke:none;fill-rule:evenodd;fill:rgb(13.699341%,12.199402%,12.5%);fill-opacity:1;" d="M 56.300781 31.277344 C 66.207031 31.277344 74.265625 39.207031 74.265625 48.96875 C 74.265625 58.796875 66.207031 66.789063 56.300781 66.789063 C 46.542969 66.789063 38.605469 58.796875 38.605469 48.96875 C 38.605469 39.207031 46.542969 31.277344 56.300781 31.277344 L 56.300781 30.21875 C 45.960938 30.21875 37.546875 38.625 37.546875 48.96875 C 37.546875 59.378906 45.960938 67.851563 56.300781 67.851563 C 66.789063 67.851563 75.324219 59.378906 75.324219 48.96875 C 75.324219 38.625 66.789063 30.21875 56.300781 30.21875 L 56.300781 31.277344 "/>
<path style=" stroke:none;fill-rule:evenodd;fill:rgb(13.699341%,12.199402%,12.5%);fill-opacity:1;" d="M 62.40625 53.515625 C 64.378906 52.132813 66.53125 51.894531 67.285156 52.972656 L 67.5 54.167969 C 67.304688 55.25 66.375 56.453125 65.101563 57.304688 C 63.214844 58.660156 61.042969 58.898438 60.253906 57.84375 C 59.539063 56.800781 60.488281 54.851563 62.40625 53.515625 L 61.792969 52.644531 C 59.324219 54.371094 58.296875 56.871094 59.394531 58.460938 C 60.558594 60.023438 63.324219 59.890625 65.703125 58.179688 C 67.207031 57.191406 68.292969 55.71875 68.546875 54.355469 L 68.152344 52.355469 C 67.019531 50.746094 64.339844 50.863281 61.792969 52.644531 L 62.40625 53.515625 "/>
<path style=" stroke:none;fill-rule:evenodd;fill:rgb(13.699341%,12.199402%,12.5%);fill-opacity:1;" d="M 62.917969 58.894531 C 63.332031 61.433594 63.039063 63.84375 62.03125 66.070313 L 62.996094 66.511719 C 64.105469 64.09375 64.417969 61.472656 63.964844 58.726563 L 62.917969 58.894531 "/>
<path style=" stroke:none;fill-rule:evenodd;fill:rgb(13.699341%,12.199402%,12.5%);fill-opacity:1;" d="M 66.96875 56.828125 L 68.539063 57.175781 C 70.167969 57.550781 71.582031 57.871094 73.050781 57.757813 L 72.972656 56.703125 C 71.660156 56.804688 70.324219 56.496094 68.765625 56.140625 L 67.183594 55.789063 L 66.96875 56.828125 "/>
<path style=" stroke:none;fill-rule:evenodd;fill:rgb(13.699341%,12.199402%,12.5%);fill-opacity:1;" d="M 67.976563 53.171875 C 72.003906 51.753906 74.472656 48.292969 75.144531 47.261719 L 74.246094 46.683594 C 72.980469 48.652344 70.5625 51.132813 67.621094 52.164063 L 67.976563 53.171875 "/>
<path style=" stroke:none;fill-rule:evenodd;fill:rgb(13.699341%,12.199402%,12.5%);fill-opacity:1;" d="M 66.554688 51.75 C 68.566406 44.386719 68.015625 38.300781 64.835938 32.574219 L 63.898438 33.09375 C 66.949219 38.554688 67.460938 44.394531 65.527344 51.46875 L 66.554688 51.75 "/>
<path style=" stroke:none;fill-rule:evenodd;fill:rgb(13.699341%,12.199402%,12.5%);fill-opacity:1;" d="M 63.789063 52.335938 C 61.101563 45.496094 58.039063 37.746094 52.351563 31.050781 L 51.542969 31.742188 C 57.113281 38.300781 60.132813 45.96875 62.800781 52.726563 L 63.789063 52.335938 "/>
<path style=" stroke:none;fill-rule:evenodd;fill:rgb(13.699341%,12.199402%,12.5%);fill-opacity:1;" d="M 60.550781 54.660156 C 53.003906 50.96875 46.585938 45.726563 41.488281 39.0625 L 40.648438 39.714844 C 45.835938 46.503906 52.382813 51.851563 60.085938 55.617188 L 60.550781 54.660156 "/>
<path style=" stroke:none;fill-rule:evenodd;fill:rgb(13.699341%,12.199402%,12.5%);fill-opacity:1;" d="M 59.628906 56.859375 C 50.960938 59.199219 44.046875 55.832031 38.4375 52.222656 L 37.855469 53.117188 C 43.671875 56.851563 50.832031 60.335938 59.898438 57.882813 L 59.628906 56.859375 "/>
<path style=" stroke:none;fill-rule:evenodd;fill:rgb(13.699341%,12.199402%,12.5%);fill-opacity:1;" d="M 60.054688 58.300781 C 57.507813 62.601563 52.578125 64.917969 49.113281 65.25 L 49.210938 66.3125 C 52.945313 65.949219 58.21875 63.460938 60.984375 58.84375 L 60.054688 58.300781 "/>
<path style=" stroke:none;fill-rule:evenodd;fill:rgb(100%,100%,100%);fill-opacity:1;" d="M 19.882813 117.515625 L 35.050781 106.121094 L 38.050781 110.109375 L 32.957031 113.941406 L 42.0625 126.078125 L 37.082031 129.8125 L 27.980469 117.683594 L 22.882813 121.507813 L 19.882813 117.515625 "/>
<path style=" stroke:none;fill-rule:evenodd;fill:rgb(100%,100%,100%);fill-opacity:1;" d="M 55.789063 111.621094 L 50.148438 115.847656 L 51.335938 119.105469 L 46.25 122.929688 L 40.183594 102.257813 L 45.648438 98.152344 L 63.808594 109.742188 L 58.582031 113.65625 Z M 52.113281 108.90625 L 45.992188 104.429688 L 48.578125 111.5625 Z M 52.113281 108.90625 "/>
<path style=" stroke:none;fill-rule:evenodd;fill:rgb(100%,100%,100%);fill-opacity:1;" d="M 70.78125 94.179688 L 76.132813 92.222656 C 76.765625 93.667969 77.058594 95.039063 77.058594 96.332031 C 77.042969 97.636719 76.726563 98.839844 76.101563 99.957031 C 75.480469 101.082031 74.445313 102.179688 73.003906 103.265625 C 71.242188 104.589844 69.625 105.410156 68.125 105.734375 C 66.632813 106.050781 65.003906 105.894531 63.234375 105.210938 C 61.457031 104.53125 59.808594 103.1875 58.308594 101.191406 C 56.300781 98.527344 55.472656 95.9375 55.808594 93.429688 C 56.164063 90.941406 57.625 88.710938 60.234375 86.765625 C 62.246094 85.234375 64.164063 84.441406 65.941406 84.394531 C 67.71875 84.335938 69.535156 84.957031 71.371094 86.21875 L 67.679688 90.507813 L 66.394531 89.796875 L 64.734375 89.695313 L 63.144531 90.40625 C 62.019531 91.257813 61.496094 92.363281 61.585938 93.707031 C 61.636719 94.734375 62.207031 95.957031 63.292969 97.398438 C 64.636719 99.195313 65.832031 100.222656 66.871094 100.480469 C 67.914063 100.738281 68.921875 100.5 69.910156 99.75 C 70.867188 99.039063 71.390625 98.230469 71.472656 97.320313 C 71.570313 96.410156 71.332031 95.363281 70.78125 94.179688 "/>
<path style=" stroke:none;fill-rule:evenodd;fill:rgb(100%,100%,100%);fill-opacity:1;" d="M 80.914063 71.664063 L 85.890625 67.921875 L 93.097656 77.53125 C 93.828125 78.480469 94.34375 79.5 94.679688 80.566406 C 95.023438 81.640625 95.113281 82.730469 94.957031 83.835938 C 94.796875 84.945313 94.460938 85.894531 93.96875 86.675781 C 93.269531 87.761719 92.230469 88.808594 90.867188 89.835938 C 90.097656 90.425781 89.1875 91.019531 88.179688 91.601563 C 87.171875 92.183594 86.226563 92.558594 85.355469 92.699219 C 84.496094 92.835938 83.578125 92.796875 82.609375 92.597656 C 81.644531 92.382813 80.8125 92.027344 80.144531 91.53125 C 79.074219 90.742188 78.226563 89.941406 77.632813 89.152344 L 70.414063 79.546875 L 75.394531 75.804688 L 82.789063 85.648438 L 85.082031 87.167969 L 87.667969 86.378906 L 89.128906 84.132813 L 88.308594 81.503906 L 80.914063 71.664063 "/>
<path style=" stroke:none;fill-rule:evenodd;fill:rgb(100%,100%,100%);fill-opacity:1;" d="M 108.425781 72.0625 L 102.789063 76.296875 L 103.972656 79.554688 L 98.886719 83.375 L 92.824219 62.710938 L 98.285156 58.597656 L 116.445313 70.1875 L 111.230469 74.105469 Z M 104.753906 69.355469 L 98.628906 64.878906 L 101.21875 72.003906 Z M 104.753906 69.355469 "/>
<path style=" stroke:none;fill-rule:evenodd;fill:rgb(100%,100%,100%);fill-opacity:1;" d="M 118.105469 68.9375 L 105.976563 52.816406 L 114.300781 46.5625 C 115.855469 45.402344 117.117188 44.652344 118.132813 44.3125 C 119.152344 43.957031 120.179688 43.957031 121.203125 44.292969 C 122.242188 44.632813 123.140625 45.3125 123.910156 46.34375 C 124.59375 47.234375 124.976563 48.148438 125.078125 49.082031 C 125.195313 50.019531 125.058594 50.945313 124.703125 51.847656 L 123.417969 53.804688 L 125.15625 53.429688 L 126.597656 53.683594 L 128.050781 54.160156 L 133.984375 56.996094 L 128.355469 61.230469 L 121.976563 58.316406 L 120.140625 57.75 L 118.617188 58.304688 L 118.171875 58.632813 L 123.101563 65.183594 Z M 115.894531 55.585938 L 118.003906 53.996094 L 119.171875 52.769531 L 119.605469 51.65625 L 119.222656 50.492188 L 117.816406 49.675781 C 117.285156 49.644531 116.554688 49.976563 115.636719 50.664063 L 113.421875 52.324219 L 115.894531 55.585938 "/>
<path style=" stroke:none;fill-rule:evenodd;fill:rgb(100%,100%,100%);fill-opacity:1;" d="M 120.847656 41.644531 L 126.378906 37.488281 L 133.71875 40.472656 L 132.898438 32.589844 L 138.398438 28.457031 L 139.179688 42.535156 L 144.253906 49.285156 L 139.257813 53.042969 L 134.183594 46.289063 L 120.847656 41.644531 "/>
</g>
</svg>
