<?xml version="1.0" encoding="UTF-8"?>
<svg xmlns="http://www.w3.org/2000/svg" xmlns:xlink="http://www.w3.org/1999/xlink" width="484.88pt" height="566pt" viewBox="0 0 484.88 566" version="1.1">
<defs>
<clipPath id="clip1">
  <path d="M 0 0 L 484.878906 0 L 484.878906 566 L 0 566 Z M 0 0 "/>
</clipPath>
</defs>
<g id="surface1">
<path style=" stroke:none;fill-rule:nonzero;fill:rgb(100%,100%,100%);fill-opacity:1;" d="M 42.351563 111.492188 L 42.351563 220.699219 C 42.351563 273.132813 60.011719 333.3125 92.089844 390.195313 C 101.382813 406.679688 111.785156 422.710938 123.171875 438.230469 C 161.429688 447.269531 201.351563 451.933594 242.4375 451.933594 C 283.472656 451.933594 323.390625 447.269531 361.613281 438.25 C 373.015625 422.757813 383.421875 406.679688 392.714844 390.195313 C 424.753906 333.3125 442.433594 273.132813 442.433594 220.699219 L 442.433594 111.492188 L 360.710938 89.613281 L 338.808594 54.753906 C 347.683594 51.726563 359.464844 43.332031 361.726563 40.324219 C 356.375 41.324219 348.25 44.660156 324.636719 43.753906 C 333.511719 41.285156 361.21875 28.101563 369.625 13.496094 C 364.914063 14.746094 350.664063 17.972656 333.71875 17.972656 C 310.140625 17.972656 306.972656 9.039063 242.402344 9.039063 C 177.808594 9.039063 174.664063 17.972656 151.085938 17.972656 C 134.160156 17.972656 119.871094 14.746094 115.140625 13.496094 C 123.566406 28.101563 151.273438 41.285156 160.132813 43.753906 C 136.589844 44.660156 128.449219 41.324219 123.074219 40.324219 C 125.355469 43.332031 137.117188 51.726563 145.996094 54.753906 L 124.074219 89.613281 L 42.351563 111.492188 "/>
<path style=" stroke:none;fill-rule:nonzero;fill:rgb(100%,100%,100%);fill-opacity:1;" d="M 242.441406 518.464844 C 226.117188 518.464844 209.984375 517.804688 194.019531 516.515625 C 207.871094 529.019531 222.441406 540.847656 237.632813 551.949219 L 242.402344 555.417969 L 247.132813 551.949219 C 262.324219 540.847656 276.914063 529.019531 290.746094 516.535156 C 274.839844 517.824219 258.722656 518.464844 242.441406 518.464844 "/>
<g clip-path="url(#clip1)" clip-rule="nonzero">
<path style=" stroke:none;fill-rule:nonzero;fill:rgb(0%,0%,0%);fill-opacity:1;" d="M 483.503906 349.628906 L 466.917969 374.15625 L 478.828125 387.011719 L 459.28125 406.234375 L 412.957031 404.898438 L 442.433594 411.675781 L 469.480469 472.5625 C 418.046875 494.707031 362.652344 509.203125 304.710938 515.242188 C 288.203125 530.753906 270.636719 545.351563 252.144531 558.820313 C 252.183594 558.800781 242.402344 566 242.402344 566 C 242.402344 566 232.601563 558.800781 232.640625 558.820313 C 214.148438 545.351563 196.5625 530.753906 180.109375 515.242188 C 122.191406 509.183594 66.835938 494.707031 15.398438 472.5625 L 42.445313 411.675781 L 71.90625 404.898438 L 25.59375 406.234375 L 6.050781 387.011719 L 17.945313 374.15625 L 1.355469 349.628906 L 16.511719 340.789063 L 0 307.953125 L 28.480469 301.453125 L 48.964844 312.488281 C 39.070313 280.824219 33.851563 249.648438 33.851563 220.699219 L 33.8125 104.972656 L 118.648438 82.261719 L 133.632813 58.398438 C 116.214844 50.277344 103.039063 27.886719 103.039063 27.886719 L 119.53125 30.996094 C 107 22.410156 97.574219 0 97.574219 0 L 117.347656 5.25 C 119.984375 5.964844 134.027344 9.480469 151.085938 9.480469 C 159.058594 9.480469 164.335938 8.359375 171.628906 6.796875 C 184.125 4.15625 201.257813 0.5 242.402344 0.5 C 283.546875 0.5 300.679688 4.15625 313.15625 6.796875 C 320.46875 8.359375 325.746094 9.480469 333.71875 9.480469 C 350.738281 9.480469 364.800781 5.964844 367.496094 5.25 L 387.226563 0 C 387.226563 0 377.824219 22.410156 365.253906 30.996094 L 381.761719 27.886719 C 381.761719 27.886719 368.570313 50.277344 351.152344 58.398438 L 366.136719 82.261719 L 451.007813 104.972656 L 450.972656 220.699219 C 450.972656 249.648438 445.730469 280.859375 435.835938 312.542969 L 456.382813 301.453125 L 484.878906 307.953125 L 468.347656 340.789063 L 483.503906 349.628906 M 42.351563 111.492188 L 42.351563 220.699219 C 42.351563 273.132813 60.011719 333.316406 92.089844 390.195313 C 101.382813 406.679688 111.785156 422.710938 123.171875 438.230469 C 161.429688 447.269531 201.351563 451.933594 242.441406 451.933594 C 283.472656 451.933594 323.390625 447.269531 361.613281 438.25 C 373.015625 422.757813 383.421875 406.679688 392.714844 390.195313 C 424.753906 333.316406 442.433594 273.132813 442.433594 220.699219 L 442.433594 111.492188 L 360.710938 89.613281 L 338.808594 54.753906 C 347.6875 51.726563 359.464844 43.332031 361.726563 40.324219 C 356.375 41.324219 348.25 44.660156 324.636719 43.753906 C 333.511719 41.285156 361.21875 28.101563 369.625 13.496094 C 364.914063 14.75 350.664063 17.972656 333.71875 17.972656 C 310.140625 17.972656 306.972656 9.039063 242.402344 9.039063 C 177.808594 9.039063 174.664063 17.972656 151.085938 17.972656 C 134.160156 17.972656 119.871094 14.75 115.140625 13.496094 C 123.566406 28.101563 151.273438 41.285156 160.132813 43.753906 C 136.589844 44.660156 128.449219 41.324219 123.074219 40.324219 C 125.355469 43.332031 137.117188 51.726563 145.996094 54.753906 L 124.074219 89.613281 L 42.351563 111.492188 M 242.441406 518.464844 C 226.117188 518.464844 209.984375 517.804688 194.019531 516.515625 C 207.871094 529.019531 222.441406 540.847656 237.632813 551.949219 L 242.402344 555.417969 L 247.132813 551.949219 C 262.324219 540.847656 276.910156 529.019531 290.746094 516.535156 C 274.839844 517.824219 258.722656 518.464844 242.441406 518.464844 "/>
</g>
<path style=" stroke:none;fill-rule:nonzero;fill:rgb(2.352905%,35.293579%,45.097351%);fill-opacity:1;" d="M 242.441406 161.695313 L 129.558594 96.558594 L 50.511719 117.753906 L 50.511719 220.699219 C 50.511719 236.371094 52.113281 252.796875 55.28125 269.738281 L 242.441406 161.695313 "/>
<path style=" stroke:none;fill-rule:nonzero;fill:rgb(2.352905%,35.293579%,45.097351%);fill-opacity:1;" d="M 434.386719 132.441406 L 76.238281 339.101563 C 83.25 356.167969 91.714844 373.363281 101.589844 390.441406 C 103.8125 394.285156 106.132813 398.121094 108.488281 401.96875 L 242.4375 324.671875 L 242.4375 309.171875 L 434.386719 198.429688 L 434.386719 132.441406 "/>
<path style=" stroke:none;fill-rule:nonzero;fill:rgb(2.352905%,35.293579%,45.097351%);fill-opacity:1;" d="M 277.515625 450.792969 L 383.855469 389.425781 C 400.515625 360.453125 413.089844 331.195313 421.53125 302.78125 L 171.308594 447.144531 C 194.546875 450.3125 218.296875 451.953125 242.4375 451.953125 C 254.238281 451.953125 265.925781 451.566406 277.515625 450.792969 "/>
<path style=" stroke:none;fill-rule:nonzero;fill:rgb(84.312439%,9.803772%,12.548828%);fill-opacity:1;" d="M 433.480469 117.480469 L 355.320313 96.558594 L 55.300781 269.742188 C 58.75 288.171875 64.0625 307.199219 71.246094 326.480469 C 72.828125 330.695313 74.484375 334.898438 76.238281 339.101563 L 242.441406 243.203125 L 242.441406 227.730469 L 433.480469 117.480469 "/>
<path style=" stroke:none;fill-rule:nonzero;fill:rgb(84.312439%,9.803772%,12.548828%);fill-opacity:1;" d="M 277.535156 517.4375 C 265.925781 518.117188 254.21875 518.464844 242.4375 518.464844 C 230.679688 518.464844 218.953125 518.117188 207.363281 517.4375 C 218.484375 527.089844 230.148438 536.410156 242.4375 545.390625 C 254.730469 536.410156 266.414063 527.089844 277.535156 517.4375 "/>
<path style=" stroke:none;fill-rule:nonzero;fill:rgb(84.312439%,9.803772%,12.548828%);fill-opacity:1;" d="M 367.910156 415.1875 L 312.175781 447.363281 C 324.785156 445.683594 337.246094 443.535156 349.511719 440.972656 C 355.996094 432.464844 362.121094 423.851563 367.910156 415.1875 "/>
<path style=" stroke:none;fill-rule:nonzero;fill:rgb(84.312439%,9.803772%,12.548828%);fill-opacity:1;" d="M 242.441406 406.132813 L 242.441406 390.640625 L 426.449219 284.46875 C 431.746094 262.296875 434.386719 240.847656 434.386719 220.699219 L 434.386719 213.902344 L 108.488281 401.96875 C 116.59375 415.09375 125.5625 428.136719 135.363281 440.972656 C 147.203125 443.460938 159.1875 445.523438 171.308594 447.144531 L 242.441406 406.132813 "/>
<path style=" stroke:none;fill-rule:nonzero;fill:rgb(84.312439%,9.803772%,12.548828%);fill-opacity:1;" d="M 231.339844 80.09375 C 206.855469 86.3125 203.011719 86.136719 190.34375 81.753906 C 177.695313 77.378906 175.546875 65.816406 182.164063 52.707031 L 231.339844 80.09375 "/>
<path style=" stroke:none;fill-rule:nonzero;fill:rgb(84.312439%,9.803772%,12.548828%);fill-opacity:1;" d="M 253.429688 80.09375 C 277.929688 86.3125 281.792969 86.136719 294.460938 81.753906 C 307.125 77.378906 309.234375 65.816406 302.640625 52.707031 L 253.429688 80.09375 "/>
<path style=" stroke:none;fill-rule:nonzero;fill:rgb(100%,100%,100%);fill-opacity:1;" d="M 52.71875 415.960938 C 71.433594 423.464844 90.695313 429.835938 110.410156 435.046875 C 103.925781 425.839844 97.78125 416.460938 92.035156 406.945313 L 52.71875 415.960938 "/>
<path style=" stroke:none;fill-rule:nonzero;fill:rgb(100%,100%,100%);fill-opacity:1;" d="M 20.941406 345.414063 L 10.234375 351.652344 L 23.578125 371.378906 L 76.484375 379.210938 C 73.148438 372.648438 69.945313 366.054688 66.929688 359.429688 L 20.941406 345.414063 "/>
<path style=" stroke:none;fill-rule:nonzero;fill:rgb(100%,100%,100%);fill-opacity:1;" d="M 27.59375 308.011719 L 9.121094 312.242188 L 22.691406 339.28125 L 63.515625 351.726563 C 59.125 341.492188 55.207031 331.269531 51.757813 321.082031 L 27.59375 308.011719 "/>
<path style=" stroke:none;fill-rule:nonzero;fill:rgb(100%,100%,100%);fill-opacity:1;" d="M 80.027344 385.910156 L 23.164063 377.683594 L 14.703125 386.8125 L 28.046875 399.941406 L 86.90625 398.246094 C 86.152344 396.945313 85.417969 395.671875 84.664063 394.363281 C 83.082031 391.5625 81.554688 388.746094 80.027344 385.910156 "/>
<path style=" stroke:none;fill-rule:nonzero;fill:rgb(100%,100%,100%);fill-opacity:1;" d="M 463.957031 345.414063 L 474.625 351.652344 L 461.261719 371.378906 L 408.394531 379.210938 C 411.75 372.648438 414.933594 366.054688 417.949219 359.429688 L 463.957031 345.414063 "/>
<path style=" stroke:none;fill-rule:nonzero;fill:rgb(100%,100%,100%);fill-opacity:1;" d="M 457.285156 308.011719 L 475.757813 312.242188 L 462.167969 339.28125 L 421.363281 351.726563 C 425.734375 341.492188 429.65625 331.269531 433.105469 321.082031 L 457.285156 308.011719 "/>
<path style=" stroke:none;fill-rule:nonzero;fill:rgb(100%,100%,100%);fill-opacity:1;" d="M 404.832031 385.910156 L 461.714844 377.683594 L 470.179688 386.8125 L 456.832031 399.941406 L 397.988281 398.246094 C 398.726563 396.945313 399.480469 395.671875 400.195313 394.363281 C 401.777344 391.5625 403.324219 388.746094 404.832031 385.910156 "/>
<path style=" stroke:none;fill-rule:nonzero;fill:rgb(100%,100%,100%);fill-opacity:1;" d="M 432.144531 415.960938 C 413.445313 423.464844 394.183594 429.835938 374.449219 435.046875 C 380.933594 425.839844 387.078125 416.460938 392.828125 406.945313 L 432.144531 415.960938 "/>
<path style=" stroke:none;fill-rule:nonzero;fill:rgb(100%,100%,100%);fill-opacity:1;" d="M 65.101563 435.488281 L 60.578125 447.144531 L 53.585938 444.421875 L 55.335938 439.945313 C 55.335938 439.945313 56.601563 436.628906 54.261719 435.6875 C 51.925781 434.734375 50.570313 438.269531 50.570313 438.269531 L 42.050781 460.019531 C 42.050781 460.019531 40.316406 463.882813 42.652344 465.003906 C 45.234375 466.257813 46.875 461.621094 46.875 461.621094 L 49.191406 455.691406 L 56.183594 458.433594 L 50.570313 472.761719 C 50.570313 472.761719 45.386719 476.113281 39.070313 473.203125 C 32.777344 470.253906 31.851563 464.691406 34.472656 458.03125 L 43.59375 434.640625 C 43.59375 434.640625 47.609375 423.753906 56.390625 426.847656 C 62.933594 429.117188 64.402344 434.355469 65.101563 435.488281 "/>
<path style=" stroke:none;fill-rule:nonzero;fill:rgb(100%,100%,100%);fill-opacity:1;" d="M 66.777344 442.886719 C 66.777344 442.886719 68.90625 438.597656 70.152344 437.363281 C 71.414063 436.128906 74.222656 433.234375 80.347656 435.375 C 86.457031 437.496094 86.925781 441.472656 86.925781 441.472656 C 86.925781 441.472656 87.773438 445.722656 86.605469 449.5 L 78.746094 472.871094 C 78.746094 472.871094 76.859375 477.640625 75.371094 479.40625 C 73.902344 481.136719 71.300781 484.710938 64.175781 482.0625 C 57.070313 479.441406 57.5625 474.324219 57.5625 474.324219 C 57.5625 474.324219 57.597656 469.554688 58.957031 465.738281 L 66.777344 442.886719 M 66.082031 469.460938 C 66.082031 469.460938 65.101563 472.996094 67.15625 473.628906 C 70.09375 474.53125 71.09375 470.882813 71.09375 470.882813 L 78.746094 448.191406 C 78.746094 448.191406 79.78125 444.65625 77.445313 443.867188 C 75.109375 443.074219 73.847656 446.390625 73.847656 446.390625 L 66.082031 469.460938 "/>
<path style=" stroke:none;fill-rule:nonzero;fill:rgb(100%,100%,100%);fill-opacity:1;" d="M 93.390625 440.679688 L 101.910156 443.019531 L 100.949219 465.851563 L 102.285156 466.21875 L 105.472656 454.988281 C 105.472656 454.988281 106.074219 453.367188 105.339844 451.878906 L 107.394531 444.5625 L 115.160156 446.683594 L 113.050781 454.035156 C 113.050781 454.035156 111.691406 455.230469 111.277344 456.71875 L 101.289063 492.277344 L 93.84375 490.109375 L 94.390625 467.472656 L 92.996094 467.03125 L 89.921875 477.988281 C 89.921875 477.988281 89.359375 479.847656 90.074219 481.136719 L 87.980469 488.488281 L 80.480469 486.292969 L 82.515625 479.054688 C 82.515625 479.054688 83.535156 478.894531 84.25 476.5 L 91.355469 451.601563 C 91.355469 451.601563 92.089844 449.332031 91.316406 447.9375 L 93.390625 440.679688 "/>
<path style=" stroke:none;fill-rule:nonzero;fill:rgb(100%,100%,100%);fill-opacity:1;" d="M 137.929688 455.410156 L 135.574219 465.539063 L 128.542969 463.996094 L 129.015625 461.433594 C 129.015625 461.433594 129.992188 458.066406 127.28125 457.417969 C 124.886719 456.796875 123.941406 460.289063 123.941406 460.289063 C 123.941406 460.289063 122.398438 464.269531 125.714844 466.484375 C 128.957031 468.726563 134.027344 471.769531 133.160156 479.074219 C 132.253906 486.367188 131.03125 489.703125 129.128906 492.671875 C 127.222656 495.652344 123.792969 498.542969 117.894531 496.847656 C 110.84375 494.820313 109.507813 490.148438 109.507813 490.148438 L 112.164063 478.320313 L 119.589844 479.996094 L 118.796875 483.738281 C 118.796875 483.738281 118.023438 487.621094 120.589844 488.160156 C 123.171875 488.722656 123.90625 485.265625 123.90625 485.265625 C 123.90625 485.265625 126.222656 479.460938 121.964844 476.886719 C 117.761719 474.304688 113.089844 471.175781 115.726563 460.679688 C 118.402344 449.890625 121.871094 446.664063 130.425781 449.019531 C 135.574219 450.40625 137.929688 455.410156 137.929688 455.410156 "/>
<path style=" stroke:none;fill-rule:nonzero;fill:rgb(100%,100%,100%);fill-opacity:1;" d="M 294.535156 462.855469 L 295.308594 473.242188 L 288.109375 473.863281 L 287.863281 471.234375 C 287.863281 471.234375 287.769531 467.734375 284.960938 467.914063 C 282.511719 468.03125 282.640625 471.621094 282.640625 471.621094 C 282.640625 471.621094 282.339844 475.890625 286.164063 477.066406 C 289.9375 478.214844 295.664063 479.628906 296.984375 486.867188 C 298.304688 494.105469 298.097656 497.65625 297.175781 501.050781 C 296.269531 504.472656 293.800781 508.230469 287.675781 508.371094 C 280.34375 508.523438 277.683594 504.453125 277.683594 504.453125 L 276.742188 492.371094 L 284.300781 491.785156 L 284.660156 495.574219 C 284.660156 495.574219 285.035156 499.515625 287.675781 499.257813 C 290.292969 499.023438 289.992188 495.539063 289.992188 495.539063 C 289.992188 495.539063 290.445313 489.296875 285.65625 488.082031 C 280.851563 486.867188 275.480469 485.265625 274.914063 474.457031 C 274.253906 463.382813 276.628906 459.265625 285.46875 458.964844 C 290.839844 458.765625 294.535156 462.855469 294.535156 462.855469 "/>
<path style=" stroke:none;fill-rule:nonzero;fill:rgb(100%,100%,100%);fill-opacity:1;" d="M 146.542969 453.59375 L 158.359375 455.675781 L 156.492188 492.296875 C 156.492188 492.296875 156.363281 495.359375 157.230469 496.074219 L 155.964844 503.480469 L 145.769531 501.691406 L 147.011719 494.21875 C 147.011719 494.21875 149.105469 493.605469 148.804688 489.28125 L 143.054688 488.175781 C 143.054688 488.175781 141.414063 492.296875 143.054688 493.699219 L 141.734375 500.992188 L 133.007813 499.410156 L 134.289063 491.945313 C 134.289063 491.945313 135.175781 491.5625 136.082031 488.761719 L 146.542969 453.59375 M 144.808594 480.402344 L 149.613281 481.25 L 150.6875 465.023438 L 149.238281 464.769531 L 144.808594 480.402344 "/>
<path style=" stroke:none;fill-rule:nonzero;fill:rgb(100%,100%,100%);fill-opacity:1;" d="M 302.546875 458.4375 L 314.4375 456.917969 L 323.578125 492.425781 C 323.578125 492.425781 324.351563 495.414063 325.40625 495.800781 L 326.386719 503.273438 L 316.113281 504.585938 L 315.136719 497.101563 C 315.136719 497.101563 316.886719 495.855469 315.304688 491.824219 L 309.519531 492.503906 C 309.519531 492.503906 309.160156 496.921875 311.140625 497.75 L 312.0625 505.128906 L 303.261719 506.1875 L 302.28125 498.703125 C 302.28125 498.703125 303.035156 498.0625 303.035156 495.132813 L 302.546875 458.4375 M 308.839844 484.53125 L 313.683594 483.957031 L 309.914063 468.105469 L 308.445313 468.320313 L 308.839844 484.53125 "/>
<path style=" stroke:none;fill-rule:nonzero;fill:rgb(100%,100%,100%);fill-opacity:1;" d="M 166.277344 456.777344 L 180.109375 458.519531 C 180.109375 458.519531 188.101563 458.578125 186.554688 471.328125 L 183.617188 494.585938 C 183.617188 494.585938 182.542969 506.707031 174.019531 505.667969 L 160.355469 503.925781 L 161.300781 496.535156 C 161.300781 496.535156 162.449219 496.480469 162.921875 492.8125 L 166.066406 468.320313 C 166.066406 468.320313 166.613281 465.371094 165.3125 464.195313 L 166.277344 456.777344 M 170.441406 496.386719 L 172.136719 496.574219 C 175.753906 497.015625 175.980469 492.371094 175.980469 492.371094 L 178.488281 472.429688 C 179.167969 467.03125 175.753906 467.160156 175.753906 467.160156 L 174.171875 467.03125 L 170.441406 496.386719 "/>
<path style=" stroke:none;fill-rule:nonzero;fill:rgb(100%,100%,100%);fill-opacity:1;" d="M 190.304688 471.0625 C 190.304688 471.0625 190.664063 458.453125 201.332031 459.039063 C 213.074219 459.671875 211.171875 471.695313 211.171875 471.695313 L 209.378906 496.113281 C 209.378906 496.113281 209.304688 509.371094 197.902344 508.617188 C 187.347656 507.941406 188.460938 495.207031 188.460938 495.207031 L 190.304688 471.0625 M 196.355469 495.554688 C 196.355469 495.554688 195.714844 499.203125 198.5625 499.410156 C 201.371094 499.683594 201.519531 495.613281 201.519531 495.613281 L 203.328125 471.695313 C 203.328125 471.695313 203.121094 468.132813 200.972656 467.972656 C 198.75 467.839844 198.148438 471.253906 198.148438 471.253906 L 196.355469 495.554688 "/>
<path style=" stroke:none;fill-rule:nonzero;fill:rgb(100%,100%,100%);fill-opacity:1;" d="M 373.828125 457.804688 C 373.828125 457.804688 369.851563 445.835938 380.066406 442.707031 C 391.28125 439.332031 393.636719 451.265625 393.636719 451.265625 L 400.308594 474.804688 C 400.308594 474.804688 404.757813 487.292969 393.769531 490.496094 C 383.628906 493.445313 380.347656 481.117188 380.347656 481.117188 L 373.828125 457.804688 M 387.871094 478.742188 C 387.871094 478.742188 388.492188 482.371094 391.242188 481.636719 C 394.015625 480.902344 392.75 477.03125 392.75 477.03125 L 386.246094 453.941406 C 386.246094 453.941406 384.835938 450.660156 382.761719 451.265625 C 380.652344 451.875 381.234375 455.296875 381.234375 455.296875 L 387.871094 478.742188 "/>
<path style=" stroke:none;fill-rule:nonzero;fill:rgb(100%,100%,100%);fill-opacity:1;" d="M 422.777344 442.765625 C 422.777344 442.765625 417.535156 431.304688 427.355469 427.121094 C 438.195313 422.519531 441.773438 434.140625 441.773438 434.140625 L 450.972656 456.796875 C 450.972656 456.796875 456.757813 468.746094 446.222656 473.128906 C 436.382813 477.160156 431.804688 465.25 431.804688 465.25 L 422.777344 442.765625 M 439.039063 462.0625 C 439.039063 462.0625 440.058594 465.617188 442.714844 464.578125 C 445.371094 463.554688 443.714844 459.847656 443.714844 459.847656 L 434.726563 437.597656 C 434.726563 437.597656 432.972656 434.488281 430.976563 435.320313 C 428.921875 436.167969 429.902344 439.484375 429.902344 439.484375 L 439.039063 462.0625 "/>
<path style=" stroke:none;fill-rule:nonzero;fill:rgb(100%,100%,100%);fill-opacity:1;" d="M 215.015625 461.394531 L 224.949219 461.640625 L 224.761719 469.339844 C 224.761719 469.339844 223.722656 469.90625 223.628906 472.582031 L 222.839844 500.417969 L 224.496094 500.457031 C 224.496094 500.457031 227.570313 500.804688 227.738281 496.535156 L 228.097656 487.082031 L 234.769531 487.292969 L 234.164063 509.503906 L 213.714844 508.964844 L 213.847656 501.304688 C 213.847656 501.304688 214.921875 501.15625 215.015625 497.808594 L 215.769531 472.429688 C 215.769531 472.429688 216.015625 470.402344 214.828125 469 L 215.015625 461.394531 "/>
<path style=" stroke:none;fill-rule:nonzero;fill:rgb(100%,100%,100%);fill-opacity:1;" d="M 238.539063 461.621094 L 259.703125 461.253906 L 259.894531 476.332031 L 252.84375 476.425781 L 252.636719 473.4375 C 252.636719 473.4375 252.597656 470.253906 249.789063 470.253906 L 247.71875 470.253906 L 247.90625 480.75 L 253.824219 480.65625 L 254.011719 488.640625 L 248.058594 488.761719 L 248.207031 500.222656 L 249.980469 500.222656 C 249.980469 500.222656 253.105469 500.070313 253.105469 496.753906 L 253.050781 492.832031 L 260.195313 492.652344 L 260.460938 508.871094 L 239.3125 509.164063 L 239.179688 501.636719 C 239.179688 501.636719 240.160156 501.324219 240.160156 497.808594 L 239.800781 472.761719 C 239.800781 472.761719 239.953125 470.367188 238.707031 469.207031 L 238.539063 461.621094 "/>
<path style=" stroke:none;fill-rule:nonzero;fill:rgb(100%,100%,100%);fill-opacity:1;" d="M 322.503906 455.675781 L 335.960938 453.203125 C 335.960938 453.203125 343.160156 451.78125 345.441406 461.234375 C 347.78125 470.976563 347.835938 473.722656 347.835938 473.722656 C 347.835938 473.722656 349.964844 484.511719 342.3125 486.039063 L 337.054688 487.085938 L 337.566406 489.882813 C 337.566406 489.882813 337.902344 492.464844 339.203125 493.3125 L 340.5625 500.765625 L 330.835938 502.503906 L 329.460938 494.972656 C 329.460938 494.972656 330.382813 494.339844 329.835938 491.175781 L 325.425781 466.625 C 325.425781 466.625 325.179688 464.191406 323.785156 463.089844 L 322.503906 455.675781 M 335.546875 478.394531 L 337.789063 477.953125 C 340.785156 477.292969 339.730469 472.929688 339.730469 472.929688 C 339.730469 472.929688 338.996094 467.511719 338.148438 464.730469 C 337.300781 461.949219 334.71875 462.300781 334.71875 462.300781 L 332.738281 462.703125 L 335.546875 478.394531 "/>
<path style=" stroke:none;fill-rule:nonzero;fill:rgb(100%,100%,100%);fill-opacity:1;" d="M 346.535156 451.566406 L 359.824219 448.453125 C 359.824219 448.453125 366.96875 446.664063 369.699219 456.023438 C 372.507813 465.636719 372.679688 468.378906 372.679688 468.378906 C 372.679688 468.378906 375.316406 479.054688 367.757813 480.941406 L 362.558594 482.230469 L 363.160156 484.992188 C 363.160156 484.992188 363.648438 487.566406 364.988281 488.355469 L 366.742188 495.726563 L 357.089844 497.929688 L 355.339844 490.496094 C 355.339844 490.496094 356.203125 489.796875 355.527344 486.660156 L 349.96875 462.355469 C 349.96875 462.355469 349.609375 459.941406 348.15625 458.898438 L 346.535156 451.566406 M 360.652344 473.628906 L 362.839844 473.089844 C 365.816406 472.296875 364.554688 467.972656 364.554688 467.972656 C 364.554688 467.972656 363.535156 462.589844 362.59375 459.867188 C 361.597656 457.125 359.03125 457.585938 359.03125 457.585938 L 357.070313 458.066406 L 360.652344 473.628906 "/>
<path style=" stroke:none;fill-rule:nonzero;fill:rgb(100%,100%,100%);fill-opacity:1;" d="M 393.9375 439.890625 L 407.828125 435.320313 C 407.828125 435.320313 413.125 433.386719 416.273438 439.039063 C 419.457031 444.714844 419.777344 448.285156 419.777344 448.285156 C 419.777344 448.285156 421.511719 453.609375 418.007813 456.296875 L 418.382813 457.453125 C 418.382813 457.453125 422.265625 456.9375 423.851563 461.601563 C 425.453125 466.277344 425.886719 467.566406 425.886719 467.566406 C 425.886719 467.566406 426.714844 470.214844 428.164063 470.65625 L 430.558594 477.820313 L 422.34375 480.535156 C 422.34375 480.535156 420.496094 476.5 419.214844 472.648438 L 417.195313 466.53125 C 417.195313 466.53125 415.613281 462.609375 412.765625 463.535156 L 411.371094 464.050781 L 413.972656 471.835938 C 413.972656 471.835938 414.691406 474.070313 415.953125 474.636719 L 418.382813 481.835938 L 409.015625 485.019531 L 406.546875 477.859375 C 406.546875 477.859375 407.394531 477.253906 406.398438 474.230469 L 398.328125 449.980469 C 398.328125 449.980469 398.007813 447.992188 396.332031 447.089844 L 393.9375 439.890625 M 408.734375 456.296875 L 410.789063 455.578125 C 413.011719 454.789063 412.652344 452.226563 412.484375 451.472656 C 412.277344 450.71875 411.917969 448.636719 410.5625 446.261719 C 409.242188 443.867188 407.09375 444.507813 407.09375 444.507813 L 405.019531 445.25 L 408.734375 456.296875 "/>
<path style=" stroke:none;fill-rule:nonzero;fill:rgb(100%,100%,100%);fill-opacity:1;" d="M 124.980469 349.996094 L 111.164063 351.617188 L 109.089844 338.527344 L 107 351.617188 L 93.203125 349.996094 L 105.679688 355.59375 L 99.195313 368.671875 L 109.089844 358.0625 L 118.949219 368.671875 L 112.503906 355.59375 "/>
<path style=" stroke:none;fill-rule:nonzero;fill:rgb(100%,100%,100%);fill-opacity:1;" d="M 155.25 332.523438 L 141.472656 334.125 L 139.359375 321.046875 L 137.269531 334.125 L 123.472656 332.523438 L 135.96875 338.121094 L 129.503906 351.191406 L 139.359375 340.570313 L 149.21875 351.191406 L 142.753906 338.121094 "/>
<path style=" stroke:none;fill-rule:nonzero;fill:rgb(100%,100%,100%);fill-opacity:1;" d="M 185.558594 315.058594 L 171.722656 316.660156 L 169.648438 303.535156 L 167.558594 316.660156 L 153.742188 315.058594 L 166.277344 320.640625 L 159.8125 333.71875 L 169.648438 323.109375 L 179.488281 333.71875 L 173.023438 320.640625 "/>
<path style=" stroke:none;fill-rule:nonzero;fill:rgb(100%,100%,100%);fill-opacity:1;" d="M 215.828125 297.570313 L 202.011719 299.171875 L 199.9375 286.089844 L 197.863281 299.171875 L 184.050781 297.570313 L 196.527344 303.148438 L 190.078125 316.238281 L 199.9375 305.617188 L 209.796875 316.238281 L 203.328125 303.148438 "/>
<path style=" stroke:none;fill-rule:nonzero;fill:rgb(100%,100%,100%);fill-opacity:1;" d="M 246.113281 280.105469 L 232.300781 281.710938 L 230.207031 268.582031 L 228.113281 281.710938 L 214.300781 280.105469 L 226.816406 285.6875 L 220.351563 298.746094 L 230.207031 288.136719 L 240.085938 298.746094 L 233.601563 285.6875 "/>
<path style=" stroke:none;fill-rule:nonzero;fill:rgb(100%,100%,100%);fill-opacity:1;" d="M 276.382813 262.597656 L 262.589844 264.21875 L 260.515625 251.117188 L 258.402344 264.21875 L 244.605469 262.597656 L 257.085938 268.195313 L 250.640625 281.285156 L 260.515625 270.644531 L 270.371094 281.285156 L 263.890625 268.195313 "/>
<path style=" stroke:none;fill-rule:nonzero;fill:rgb(100%,100%,100%);fill-opacity:1;" d="M 306.671875 245.136719 L 292.875 246.738281 L 290.785156 233.628906 L 288.710938 246.738281 L 274.914063 245.136719 L 287.390625 250.714844 L 280.925781 263.8125 L 290.785156 253.203125 L 300.660156 263.8125 L 294.175781 250.714844 "/>
<path style=" stroke:none;fill-rule:nonzero;fill:rgb(100%,100%,100%);fill-opacity:1;" d="M 336.980469 227.644531 L 323.164063 229.265625 L 321.070313 216.164063 L 318.980469 229.265625 L 305.164063 227.644531 L 317.679688 233.222656 L 311.195313 246.332031 L 321.070313 235.710938 L 330.929688 246.332031 L 324.464844 233.222656 "/>
<path style=" stroke:none;fill-rule:nonzero;fill:rgb(100%,100%,100%);fill-opacity:1;" d="M 367.25 210.183594 L 353.433594 211.804688 L 351.378906 198.675781 L 349.269531 211.804688 L 335.453125 210.183594 L 347.949219 215.761719 L 341.503906 228.839844 L 351.378906 218.230469 L 361.199219 228.839844 L 354.734375 215.761719 "/>
<path style=" stroke:none;fill-rule:nonzero;fill:rgb(100%,100%,100%);fill-opacity:1;" d="M 397.539063 192.691406 L 383.703125 194.3125 L 381.628906 181.210938 L 379.558594 194.3125 L 365.761719 192.691406 L 378.238281 198.289063 L 371.773438 211.378906 L 381.628906 200.757813 L 391.507813 211.378906 L 385.042969 198.289063 "/>
<path style=" stroke:none;fill-rule:nonzero;fill:rgb(100%,100%,100%);fill-opacity:1;" d="M 427.808594 175.226563 L 414.011719 176.828125 L 411.898438 163.722656 L 409.828125 176.828125 L 396.011719 175.226563 L 408.527344 180.808594 L 402.078125 193.886719 L 411.898438 183.277344 L 421.757813 193.886719 L 415.292969 180.808594 "/>
<path style=" stroke:none;fill-rule:nonzero;fill:rgb(100%,100%,100%);fill-opacity:1;" d="M 207.136719 222.941406 C 206.230469 204.894531 194.507813 198.984375 177.113281 193.679688 C 162.074219 189.042969 154.644531 185.113281 154.0625 173.664063 C 153.574219 163.570313 159.867188 156.644531 169.628906 156.144531 C 184.480469 155.390625 191.910156 168.78125 196.035156 176.980469 L 199.863281 174.492188 L 188.949219 144.0625 C 188.101563 153.476563 183.710938 153.9375 182.65625 153.976563 C 181.390625 154.050781 180.203125 153.84375 176.8125 152.941406 C 174.550781 152.375 171.023438 151.742188 168.121094 151.914063 C 156.378906 152.488281 145.28125 163.457031 146.128906 180.269531 C 147.222656 201.398438 164.730469 206.996094 173.363281 209.664063 C 187.460938 214.214844 197.335938 218.152344 197.882813 229.1875 C 198.335938 238.359375 192.019531 248.648438 181.070313 249.207031 C 170.855469 249.722656 157.71875 248.246094 145.5625 243.53125 C 156.492188 235.117188 164.449219 223.996094 166.390625 220.003906 L 164.03125 217.75 C 156.492188 227.472656 147.597656 235.597656 137.757813 240.035156 C 127.601563 234.863281 118.949219 228.304688 110.898438 217.75 L 108.488281 220.234375 C 113.503906 228.746094 120.304688 236.796875 129.390625 243.53125 C 124.789063 244.746094 120.757813 245.304688 114.839844 245.632813 C 94.21875 246.773438 82.269531 221.78125 80.742188 199.042969 C 80.046875 188.835938 81.101563 176.328125 84.53125 168.933594 C 88.699219 160 95.445313 156.296875 101.476563 155.890625 C 108.5625 155.390625 114.953125 159.671875 118.929688 163.183594 C 124.492188 168.066406 127.109375 172.464844 129.746094 177.027344 L 133.632813 174.53125 L 121.984375 144.15625 C 121.8125 148.472656 120.664063 151.140625 119.003906 152.648438 C 118.269531 153.316406 117.046875 153.960938 115.988281 154.035156 C 114.859375 154.109375 113.03125 154.128906 109.828125 153.148438 C 106.492188 152.148438 103.058594 151.695313 99.609375 151.953125 C 79.40625 153.363281 65.988281 181.015625 67.910156 209.410156 C 70.09375 241.523438 90.242188 256.09375 108.523438 256.753906 C 119.402344 257.160156 129.164063 254.164063 137.457031 249.554688 C 144.1875 254.839844 149.273438 258.027344 149.273438 258.027344 C 151.855469 255.265625 154.136719 252.371094 161.074219 253.003906 C 162.410156 253.128906 164.144531 253.277344 168.574219 254.164063 C 173.550781 255.191406 179.847656 254.660156 182.746094 254.511719 C 194.621094 253.917969 208.097656 241.753906 207.136719 222.941406 "/>
</g>
</svg>
