<svg xmlns="http://www.w3.org/2000/svg" viewBox="0 0 444.8 298"><defs><style>.cls-1{fill:#6d1818;}.cls-2{fill:#23325b;}.cls-3{fill:#fdca00;}</style></defs><title>Asset 1</title><g id="Layer_2" data-name="Layer 2"><g id="Layer_1-2" data-name="Layer 1"><path class="cls-1" d="M222.3,36.1a91.7,91.7,0,0,1,48.1,13.6,92.12,92.12,0,1,1,32,123.9,92.07,92.07,0,0,1-160.4-.3A92.12,92.12,0,1,1,175.4,48.9a92.34,92.34,0,0,1,46.9-12.8"/><path class="cls-2" d="M94.2,185.2c16.5.5,33-5.2,49.5-13.9,36.8,58.3,118.1,62,157.8.6,15.1,8.2,31.3,13.7,49.7,13.3v66.3H337.3a65.79,65.79,0,0,0-25.5,5.3c-13.9,5.8-26.1,15.4-39.3,22.8-16,9-31.4,13.7-49.8,13.7-17.2,0-31.8-4-46.9-12.2-12.5-6.8-23.8-15.6-36.6-21.8a71.35,71.35,0,0,0-31.4-7.7H94.2V185.2Z"/><path class="cls-3" d="M95.4,0a95.42,95.42,0,0,1,80.8,44.6,95.63,95.63,0,0,1,92.4,0,95.42,95.42,0,1,1,87.3,146v65.6H337.2c-40.8,0-58.1,41.8-114.6,41.8s-72-41.4-114.9-41.8H89.4V190.6A95.39,95.39,0,0,1,95.4,0M346.9,190.6A91.57,91.57,0,0,1,302,177.5a92.07,92.07,0,0,1-159.2,0,92.89,92.89,0,0,1-44.4,13.1v56.7h9.4a75.06,75.06,0,0,1,33.2,8.2c12.9,6.3,24.2,15.1,36.8,21.9,14.5,7.9,28.3,11.7,44.9,11.7,17.8,0,32.4-4.4,47.8-13.1,13.3-7.5,25.5-17.1,39.7-23a68.14,68.14,0,0,1,27.1-5.6H347V190.6ZM172.8,57.6h0a86.14,86.14,0,1,0-30,109.8h.1l.7-.4h0l.2-.2.1-.1h0l.1-.1.1-.1.1-.1.4-.3.1-.1.1-.1h0l.1-.1h0a86.25,86.25,0,0,0,155,0h0l.7.5h0l.1.1A86.21,86.21,0,1,0,272,57.5h0a85.4,85.4,0,0,0-49.5-15.6,87.1,87.1,0,0,0-49.7,15.7Z"/><path class="cls-3" d="M164.1,231.7l2.6,1.5c1.9,1.1,3.5,1.5,4.7,1.2s2.3-1.4,3.4-3.2,1.4-3.3,1.1-4.4-1.5-2.2-3.4-3.4l-2.7-1.5Zm-16.5,15.2,18.8-33,10.7,6.1c3.3,1.9,5.2,3.9,5.8,6.2s0,5.1-1.9,8.4-4,5.2-6.4,6-5.2.2-8.4-1.6l-4.5-2.6-8,14Z"/><path class="cls-3" d="M190.5,244.9l2.5.9c1.9.7,3,.7,4,.2s1.9-2,2.7-4a5.19,5.19,0,0,0,.2-4.2c-.5-1-1.4-1.5-3.6-2.3l-1.9-.7Zm-14.3,18,13.6-35.5,10.5,4c3.6,1.4,5.2,2.6,6.2,4.7s.8,4.6-.1,8a8.42,8.42,0,0,1-3.2,5,5.82,5.82,0,0,1-4.8.9c2.8,2,3.4,5.7,1.8,10.2-.6,1.7-1.2,3.5-1.8,5.2a10.24,10.24,0,0,0-.7,3.4,5.24,5.24,0,0,0,.3,2.5l-7.1-2.6a3.57,3.57,0,0,1-.1-2.5c.2-.8.6-2,1.1-3.5l1.7-4.7c.7-2.1,1-4.1.4-5.2s-1.8-1.6-4.5-2.7l-.9-.3-6,15.6Z"/><path class="cls-3" d="M219.9,260.4h6.4l-3.2-17.2Zm-10,14,8.6-38H228l8.6,38H229l-1.5-7.7h-8.9l-1.5,7.7Z"/><path class="cls-3" d="M285.3,241.4l5.7-2.9-10.7-13.9Zm-2.5,17-9.7-37.8,8.5-4.3,25,30-6.8,3.5-4.9-6.2-7.9,4,2.2,7.5Z"/><polygon class="cls-3" points="250.1 270.8 237.8 234.8 244.5 232.5 249.3 246.6 256.4 244.3 251.5 230.1 258.2 227.9 270.5 263.9 263.8 266.2 258.2 249.8 251.2 252.2 256.7 268.5 250.1 270.8"/><path class="cls-3" d="M197.1,149h6.1V98.9h-6.1V87.1h21.6v29.7c10.5-2.3,16.4-13,15.5-29.7l19.9.1V98.9H249a42.12,42.12,0,0,1-13.9,24.7c8.3,6.7,12.6,15.3,14,25.5h5.2v11.7H233.1c.3-20.5-7.4-26.6-14.4-28.1v28.1H197.1Z"/><path class="cls-3" d="M53.6,104.2l5.5,2.6L80.7,61.6,75.2,59l5.1-10.6,23.8,11.4C122.2,68.5,119.9,85,115,95.2L106.4,113c-7.6,15.8-21.9,19-34.1,13.2L48.5,114.8Zm45.1-34-4-1.9L73.1,113.5l4,1.9c6,2.9,11.3-.6,16-10.4l7.5-15.6c4.7-9.8,4.2-16.3-1.9-19.2"/><path class="cls-3" d="M342.9,128.3l5.6-2.4-14.2-34a24.82,24.82,0,0,1,13.4-32.3c14-5.9,27.2,3.1,31.4,13.1L393.5,107l6.5-2.7,4.8,11.6-20.7,8.8-8.6-20.5L359,111.1l8.5,20.4-19.9,8.3Zm27.4-36.7-5.6-13.5c-1.7-4.1-6.4-6.5-11.6-4.3s-6.7,7.1-4.8,11.6l5.5,13.2Z"/><path class="cls-3" d="M132.8,83.6l5.9,1.6L128.3,123c-3.2,11.6,0,24.1,14.7,28.1s24.6-5.7,27.5-16.2L181,96.8l6.8,1.9,3.3-12.1-21.7-6.1L155.3,132c-1.2,4.3-3.7,7.8-8.2,6.6s-5.4-5.6-4.1-10.3l14-51.1-20.8-5.7Z"/><polygon class="cls-3" points="278.1 145.2 284 143.6 271.2 95.1 265.2 96.7 262.2 85.3 288.7 78.2 291.7 89.5 286.1 91.2 298.9 139.6 312.5 136.1 309.4 124.4 322.7 120.9 328.7 143.9 281.1 156.5 278.1 145.2"/></g></g></svg>
