<?xml version="1.0" encoding="UTF-8"?>
<svg xmlns="http://www.w3.org/2000/svg" xmlns:xlink="http://www.w3.org/1999/xlink" width="444.6pt" height="567pt" viewBox="0 0 444.6 567" version="1.1">
<defs>
<clipPath id="clip1">
  <path d="M 230 93 L 444.601563 93 L 444.601563 549 L 230 549 Z M 230 93 "/>
</clipPath>
</defs>
<g id="surface1">
<path style=" stroke:none;fill-rule:evenodd;fill:rgb(0%,25.87738%,55.664063%);fill-opacity:1;" d="M 36.214844 145.875 C 44.347656 239.644531 61.15625 323.058594 87.277344 393.839844 C 112.597656 462.441406 146.632813 519.175781 192.707031 561.964844 C 234.054688 522.230469 267.328125 481.191406 293.992188 439.207031 C 224.160156 353.636719 199.859375 216.195313 185.714844 96.496094 C 134.695313 108.8125 85.226563 125.046875 36.214844 145.875 Z M 87.21875 133.964844 C 101.152344 310.847656 151.457031 441.976563 226.453125 521.1875 C 215.742188 532.414063 204.808594 542.664063 194.09375 551.832031 C 174.214844 533.035156 155.078125 511.84375 140.121094 488.359375 C 120.894531 458.164063 105.605469 425.359375 93.171875 391.664063 C 64.832031 314.890625 50.195313 231.273438 42.871094 149.882813 C 57.371094 144.359375 72.261719 139.011719 87.21875 133.964844 Z M 249.839844 490.988281 C 178.210938 387.027344 141.03125 271.234375 127.855469 121.066406 C 142.644531 116.675781 157.203125 112.699219 171.214844 109.269531 C 184.011719 207.507813 199.316406 285.265625 228.839844 353.792969 C 233.332031 364.21875 252.046875 408.25 280.691406 448.816406 C 270.652344 466.1875 261.109375 476.804688 249.839844 490.988281 Z M 249.839844 490.988281 "/>
<path style=" stroke:none;fill-rule:evenodd;fill:rgb(88.671875%,0%,11.767578%);fill-opacity:1;" d="M 292.292969 441.835938 C 369.382813 321.820313 392.125 194.007813 394.777344 66.863281 C 319.800781 71.175781 249.976563 80.777344 182.808594 97.207031 C 198.828125 256.554688 237.382813 376.628906 292.292969 441.835938 Z M 292.292969 441.835938 "/>
<path style=" stroke:none;fill-rule:evenodd;fill:rgb(0%,25.87738%,55.664063%);fill-opacity:1;" d="M 24.101563 160.613281 L 0.0117188 186.503906 C 29.691406 348.269531 82.816406 427.910156 113.628906 470.90625 C 83.300781 419.585938 37.226563 329.785156 24.101563 160.613281 Z M 24.101563 160.613281 "/>
<path style=" stroke:none;fill-rule:evenodd;fill:rgb(0%,25.87738%,55.664063%);fill-opacity:1;" d="M 31.785156 357.664063 L 21.703125 380.585938 C 59.449219 459.058594 100.449219 512.546875 166.371094 566.910156 C 114.296875 508.746094 71.664063 458.789063 31.785156 357.664063 Z M 31.785156 357.664063 "/>
<g clip-path="url(#clip1)" clip-rule="nonzero">
<path style=" stroke:none;fill-rule:evenodd;fill:rgb(0%,25.87738%,55.664063%);fill-opacity:1;" d="M 418.414063 93.023438 L 444.664063 117.113281 C 420.378906 296.855469 356.808594 459.9375 230.730469 548.574219 C 364.964844 423.542969 409.242188 252.496094 418.414063 93.023438 Z M 418.414063 93.023438 "/>
</g>
<path style=" stroke:none;fill-rule:evenodd;fill:rgb(0%,25.87738%,55.664063%);fill-opacity:1;" d="M 200.902344 366.21875 C 220.992188 366.21875 239.269531 373.984375 252.902344 386.675781 C 263.5625 404.203125 269.695313 419.773438 277.242188 442.558594 C 277.242188 449.042969 276.429688 455.335938 274.910156 461.347656 C 263.542969 480.929688 250.328125 499.195313 235.652344 510.542969 C 225.230469 515.882813 213.417969 518.894531 200.902344 518.894531 C 158.75 518.894531 124.566406 484.710938 124.566406 442.558594 C 124.566406 400.40625 158.75 366.21875 200.902344 366.21875 Z M 200.902344 366.21875 "/>
<path style=" stroke:none;fill-rule:evenodd;fill:rgb(100%,100%,100%);fill-opacity:1;" d="M 169.460938 438.53125 L 169.300781 462.648438 L 152.117188 475.015625 C 147.257813 473.371094 141.675781 469.289063 137.605469 462.28125 C 136.398438 452.171875 137.261719 439.488281 140.105469 430.074219 C 142.589844 426.210938 146.882813 421.53125 152.867188 420.199219 Z M 199.730469 373.765625 C 200.828125 373.765625 201.914063 373.792969 202.996094 373.84375 C 203.355469 375.789063 203.691406 377.738281 204.007813 379.6875 C 200.363281 382.011719 196.160156 385.082031 193.507813 387.410156 C 182.914063 386.804688 172.402344 388.441406 162.683594 392.851563 C 159.769531 392.734375 156.714844 392.351563 153.519531 391.570313 C 165.742188 380.503906 181.953125 373.765625 199.730469 373.765625 Z M 204.933594 373.960938 C 217.558594 374.902344 229.234375 379.253906 239.050781 386.089844 C 237.164063 386.851563 235.285156 387.628906 233.410156 388.421875 C 223.621094 381.941406 217.289063 380.621094 205.871094 379.402344 C 205.578125 377.585938 205.265625 375.773438 204.933594 373.960938 Z M 240.863281 387.390625 C 253.925781 397.128906 263.414063 411.390625 267.019531 427.847656 C 265.511719 429.832031 263.851563 431.679688 262.070313 433.410156 C 257.128906 431.761719 253.058594 429.769531 249.253906 427.734375 C 244.25 418.980469 238.246094 410.546875 231.832031 402.757813 C 232.238281 398.488281 233.121094 393.433594 234.136719 390.160156 C 236.367188 389.214844 238.613281 388.292969 240.863281 387.390625 Z M 267.507813 430.273438 C 268.238281 434.289063 268.617188 438.425781 268.617188 442.652344 C 268.617188 448.324219 267.929688 453.832031 266.632813 459.109375 C 266.621094 450.953125 265.230469 442.914063 263.394531 434.746094 C 264.851563 433.332031 266.226563 431.847656 267.507813 430.273438 Z M 265.859375 461.992188 C 260.417969 480.617188 247.324219 495.976563 230.210938 504.4375 C 230.199219 502.679688 230.226563 500.941406 230.152344 499.152344 C 237.351563 491.777344 245.152344 481.324219 249.410156 472.324219 C 254.039063 469.976563 260.621094 466.496094 265.859375 461.992188 Z M 191.480469 511.042969 C 178.652344 509.511719 166.90625 504.457031 157.242188 496.871094 C 158.179688 496.484375 159.179688 496.089844 160.261719 495.761719 C 168.691406 501.382813 180.722656 505.605469 190.453125 507.28125 Z M 134.308594 464.261719 C 132.0625 457.464844 130.847656 450.199219 130.847656 442.652344 C 130.847656 437.078125 131.511719 431.664063 132.761719 426.476563 C 135.695313 427.628906 137.042969 428.011719 138.042969 430.414063 C 135.414063 439.691406 134.585938 451.699219 135.632813 461.589844 C 135.214844 462.425781 134.753906 463.347656 134.308594 464.261719 Z M 193.203125 389.28125 C 182.929688 388.71875 172.746094 390.328125 163.332031 394.625 C 155.992188 404.855469 154.324219 412.300781 153.902344 418.539063 L 170.453125 436.824219 L 194.398438 428.390625 L 204.703125 403.1875 C 200.675781 398.355469 197.152344 394.292969 193.203125 389.28125 Z M 162.34375 494.871094 C 156.890625 489.390625 154.179688 485.308594 153.390625 476.417969 L 170.253906 464.28125 L 194.453125 473.050781 L 202.554688 496.910156 C 198.769531 499.949219 195.210938 502.527344 191.441406 505.535156 C 182.257813 504.050781 170.683594 500.128906 162.34375 494.871094 Z M 228.410156 498.238281 C 220.628906 497.460938 212.097656 497.179688 204.363281 496.371094 L 196.457031 473.09375 L 210.535156 454.496094 L 238.808594 452.519531 C 242.441406 459.019531 245.054688 465.523438 247.464844 472.023438 C 243.175781 480.875 235.433594 491.132813 228.410156 498.238281 Z M 247.417969 428.3125 C 245.292969 439.675781 242.257813 445.339844 239.097656 450.609375 L 210.453125 452.609375 L 195.914063 429.667969 L 206.578125 403.582031 C 212.539063 402.378906 218.757813 401.867188 230.035156 403.542969 C 236.421875 411.261719 242.414063 419.625 247.417969 428.3125 Z M 247.417969 428.3125 "/>
<path style=" stroke:none;fill-rule:evenodd;fill:rgb(0%,25.87738%,55.664063%);fill-opacity:1;" d="M 36.636719 125.351563 L 38.761719 70.699219 L 59.246094 63.71875 C 62.4375 62.628906 65.261719 62.382813 67.714844 62.992188 C 70.179688 63.582031 72.035156 64.976563 73.292969 67.164063 C 74.839844 69.785156 75.539063 73.136719 75.386719 77.230469 C 75.203125 82.144531 73.921875 86.601563 71.527344 90.589844 C 68.867188 95.023438 65.382813 97.976563 61.074219 99.449219 L 52.5 102.371094 L 51.914063 118.230469 Z M 52.992188 89.089844 L 55.652344 88.1875 C 57.050781 87.707031 58.164063 86.898438 59.019531 85.738281 C 59.820313 84.605469 60.246094 83.34375 60.296875 81.957031 C 60.34375 80.746094 60.070313 79.851563 59.472656 79.261719 C 58.777344 78.585938 57.6875 78.503906 56.214844 79.007813 L 53.332031 79.988281 Z M 52.992188 89.089844 "/>
<path style=" stroke:none;fill-rule:evenodd;fill:rgb(0%,25.87738%,55.664063%);fill-opacity:1;" d="M 88.804688 98.078125 L 87.339844 104.96875 L 71.914063 110.386719 L 88.789063 53.550781 L 104.945313 48.414063 L 116.160156 95.144531 L 100.855469 100.222656 L 99.898438 94.179688 Z M 92.207031 84.800781 L 98.0625 82.742188 L 96.78125 73.417969 C 96.5 71.453125 96.335938 69.613281 96.285156 67.886719 L 95.785156 68.0625 C 95.367188 70.894531 95.027344 72.914063 94.742188 74.132813 Z M 92.207031 84.800781 "/>
<path style=" stroke:none;fill-rule:evenodd;fill:rgb(0%,25.87738%,55.664063%);fill-opacity:1;" d="M 118.632813 94.386719 L 120.398438 43.808594 L 140.980469 38.695313 C 144.402344 37.84375 147.113281 37.59375 149.078125 37.964844 C 152.410156 38.59375 154.9375 40.179688 156.652344 42.753906 C 158.09375 44.945313 158.742188 47.882813 158.605469 51.5625 C 158.46875 55.304688 157.488281 58.609375 155.664063 61.4375 C 154.488281 63.285156 152.367188 65.082031 149.308594 66.835938 L 149.292969 67.289063 L 157.285156 83.242188 L 141.621094 87.261719 L 135.453125 72.828125 L 134.679688 89.300781 Z M 135.710938 62.128906 L 137.980469 61.5625 C 139.472656 61.191406 140.617188 60.460938 141.40625 59.367188 C 142.082031 58.441406 142.4375 57.421875 142.480469 56.289063 C 142.53125 54.871094 142.117188 53.828125 141.238281 53.175781 C 140.65625 52.710938 139.878906 52.605469 138.898438 52.847656 L 136.027344 53.5625 Z M 135.710938 62.128906 "/>
<path style=" stroke:none;fill-rule:evenodd;fill:rgb(0%,25.87738%,55.664063%);fill-opacity:1;" d="M 162.128906 82.066406 L 165.066406 32.34375 L 181.730469 28.667969 C 187.039063 27.5 191.488281 27.539063 195.066406 28.785156 C 198.785156 30.050781 201.484375 32.464844 203.191406 36.015625 C 204.785156 39.359375 205.433594 43.511719 205.140625 48.457031 C 204.683594 56.203125 202.210938 62.703125 197.71875 67.925781 C 193.28125 73.101563 188.265625 76.304688 182.707031 77.53125 Z M 178.613281 63.398438 L 180.824219 62.910156 C 183.351563 62.355469 185.492188 60.851563 187.234375 58.40625 C 188.59375 56.5 189.355469 54.246094 189.511719 51.621094 C 189.6875 48.636719 189.03125 46.375 187.535156 44.863281 C 186.210938 43.5 184.339844 43.089844 181.933594 43.621094 L 179.753906 44.101563 Z M 178.613281 63.398438 "/>
<path style=" stroke:none;fill-rule:evenodd;fill:rgb(0%,25.87738%,55.664063%);fill-opacity:1;" d="M 212.300781 22.339844 L 227.3125 19.347656 L 226.230469 47.296875 C 226.066406 51.527344 227.410156 53.355469 230.257813 52.789063 C 231.878906 52.464844 233.054688 51.648438 233.777344 50.339844 C 234.320313 49.335938 234.628906 47.757813 234.710938 45.609375 L 235.792969 17.65625 L 250.800781 14.664063 L 249.65625 44.265625 C 249.417969 50.421875 247.621094 55.570313 244.253906 59.730469 C 240.746094 64.058594 235.976563 66.8125 229.96875 68.011719 C 223.796875 69.242188 219.003906 68.535156 215.609375 65.902344 C 213.890625 64.5625 212.636719 62.542969 211.851563 59.863281 C 211.261719 57.800781 211.019531 55.582031 211.109375 53.1875 Z M 212.300781 22.339844 "/>
<path style=" stroke:none;fill-rule:evenodd;fill:rgb(0%,25.87738%,55.664063%);fill-opacity:1;" d="M 258.574219 13.179688 L 274.589844 10.738281 C 284.574219 9.214844 294.265625 12.511719 293.457031 22.414063 C 293.132813 26.402344 291.226563 29.585938 287.207031 32.0625 L 287.152344 32.457031 C 289.824219 33.3125 291.640625 34.429688 292.605469 35.824219 C 293.921875 37.734375 294.5 40.039063 294.347656 42.742188 C 294.160156 46.035156 292.964844 49.117188 290.769531 51.988281 C 286.570313 57.46875 279.722656 58.480469 273.71875 59.394531 L 255.804688 62.128906 Z M 272.269531 29.679688 L 274.800781 29.292969 C 276.195313 29.082031 277.25 28.519531 277.964844 27.597656 C 278.539063 26.878906 278.847656 26.03125 278.902344 25.078125 C 279.027344 22.835938 277.785156 21.910156 275.175781 22.308594 L 272.664063 22.691406 Z M 271.226563 48.078125 L 274.476563 47.582031 C 276.253906 47.3125 277.535156 46.714844 278.308594 45.785156 C 279.109375 44.863281 279.535156 43.875 279.59375 42.820313 C 279.660156 41.671875 279.300781 40.730469 278.515625 40 C 277.863281 39.410156 276.742188 39.242188 275.152344 39.484375 L 271.683594 40.011719 Z M 271.226563 48.078125 "/>
<path style=" stroke:none;fill-rule:evenodd;fill:rgb(0%,25.87738%,55.664063%);fill-opacity:1;" d="M 298.074219 55.480469 L 301.492188 6.742188 L 317.710938 5.042969 L 314.292969 53.78125 Z M 298.074219 55.480469 "/>
<path style=" stroke:none;fill-rule:evenodd;fill:rgb(0%,25.87738%,55.664063%);fill-opacity:1;" d="M 353.644531 49.195313 C 352.40625 49.769531 350.746094 50.242188 348.664063 50.609375 C 346.574219 50.988281 344.507813 51.171875 342.433594 51.171875 C 339.519531 51.171875 336.714844 50.488281 334.046875 49.121094 C 331.367188 47.742188 329.121094 45.859375 327.324219 43.480469 C 325.433594 40.953125 324.097656 38.011719 323.332031 34.644531 C 322.730469 31.992188 322.523438 29.273438 322.714844 26.453125 C 323.074219 21.203125 324.660156 16.40625 327.480469 12.035156 C 329.980469 8.128906 333.082031 5.210938 336.773438 3.269531 C 339.773438 1.671875 342.960938 0.878906 346.328125 0.878906 C 350.257813 0.878906 353.753906 1.511719 356.8125 2.78125 L 355.976563 21.375 C 352.960938 18.101563 350.074219 16.46875 347.351563 16.46875 C 344.90625 16.46875 342.769531 17.492188 340.9375 19.542969 C 339.390625 21.265625 338.535156 23.363281 338.367188 25.84375 C 338.171875 28.6875 338.914063 31.042969 340.582031 32.933594 C 342.117188 34.679688 344.039063 35.546875 346.355469 35.546875 C 348.074219 35.546875 349.8125 35.046875 351.574219 34.042969 C 352.523438 33.496094 353.769531 32.457031 355.324219 30.921875 Z M 353.644531 49.195313 "/>
<path style=" stroke:none;fill-rule:evenodd;fill:rgb(0%,25.87738%,55.664063%);fill-opacity:1;" d="M 361.023438 48.949219 L 365.175781 1.535156 L 396.148438 -0.0195313 L 395.011719 12.972656 L 380.726563 13.691406 L 380.339844 18.101563 L 393.304688 17.449219 L 392.214844 29.921875 L 379.25 30.574219 L 378.851563 35.113281 L 393.570313 34.375 L 392.433594 47.367188 Z M 361.023438 48.949219 "/>
<path style=" stroke:none;fill-rule:evenodd;fill:rgb(100%,100%,100%);fill-opacity:1;" d="M 338.847656 166.664063 C 327.527344 175.59375 314.808594 183.984375 305.949219 187.382813 C 298.480469 190.25 289.609375 193.382813 283.886719 195.941406 C 283.304688 199.511719 282.578125 201.507813 281.984375 205.945313 C 281.582031 208.976563 281.160156 213.78125 280.652344 216.597656 C 280.339844 218.347656 276.472656 217.09375 276.164063 215.34375 C 275.5625 211.933594 278.035156 206.847656 278.949219 202.703125 C 279.496094 200.214844 279.3125 197.257813 278.046875 197.46875 C 274.191406 198.105469 269.71875 200.148438 268.800781 202.117188 C 266.332031 207.398438 270.6875 213.1875 269.640625 221.03125 C 269.367188 223.085938 269.296875 225.613281 267.71875 227.195313 C 267.132813 227.789063 264.414063 228.25 263.949219 227.015625 C 263.441406 225.667969 265.472656 220.265625 264.039063 220.371094 C 256.652344 220.894531 249.738281 222.863281 242.5 223.945313 C 235.074219 225.054688 228.234375 225.066406 223.085938 224.589844 C 222.082031 224.496094 220.394531 226.953125 219.015625 228.542969 C 217.457031 230.34375 216.089844 232.175781 216.351563 233.304688 C 220.210938 250.0625 223.480469 272.542969 224.253906 293.476563 C 224.335938 295.761719 226.753906 296.34375 230.179688 295.941406 C 235.191406 295.351563 243.703125 294.035156 247.425781 292.667969 C 248.691406 292.203125 246.578125 291.125 245.164063 288.542969 C 243.824219 286.09375 243.222656 282.171875 242.84375 280.363281 C 239.453125 278.675781 236.171875 276.964844 235.042969 274.566406 C 233.699219 271.710938 232.046875 268.265625 232.238281 264.910156 C 232.3125 263.558594 231.367188 263.328125 230.765625 261.480469 C 229.441406 257.414063 228.503906 251.101563 233.863281 252.339844 C 235.761719 254.808594 237.71875 259.445313 239.40625 261.691406 C 244.128906 267.980469 254.082031 279.523438 256.558594 285.933594 C 258.246094 290.292969 256.976563 298.128906 257.578125 303.066406 C 257.933594 306.023438 259.5 307.5 261.253906 307.484375 C 265.136719 307.457031 265.664063 305.832031 268.394531 305.539063 C 272.386719 305.109375 277.925781 305.359375 281.550781 304.792969 C 280.386719 300.210938 276.9375 294.875 274.546875 291.320313 C 273.878906 290.328125 268.046875 289.410156 267.117188 287.28125 C 263.1875 278.308594 256.730469 268.203125 254.851563 258.457031 C 254.582031 257.066406 255.941406 254.605469 258.199219 253.421875 C 259.601563 252.6875 262.597656 251.9375 263.964844 253.542969 C 265.335938 255.148438 263.46875 258.75 266.464844 259.886719 C 273.128906 262.171875 281.84375 264.046875 288.199219 266.160156 C 297.488281 269.246094 302.0625 271.179688 312.265625 274.976563 C 313.363281 275.382813 317.621094 274.558594 318.449219 272.992188 C 319.667969 270.6875 320.140625 267.179688 321.839844 264.15625 C 323.539063 261.136719 326.648438 258.601563 329.011719 259.675781 C 330.492188 260.347656 330.515625 261.707031 329.746094 263.351563 C 328.671875 265.65625 326.078125 267.578125 328.070313 267.789063 C 334.074219 268.425781 345.171875 268.855469 347.292969 267.429688 C 347.839844 267.0625 347.53125 266.648438 349.765625 264.589844 C 351.5 262.984375 354.378906 260.867188 355.652344 257.996094 C 363.804688 239.597656 373.585938 191.398438 372.4375 188.757813 C 371.484375 186.566406 368.527344 186.570313 366.667969 185.652344 C 363.5625 184.121094 361.171875 180.945313 358.066406 178.515625 C 356.207031 177.058594 354.136719 177.101563 352.730469 175.042969 C 349.761719 170.699219 347.117188 166.636719 344.058594 165.136719 C 342.519531 164.382813 340.195313 165.605469 338.847656 166.664063 Z M 232.515625 246.0625 C 234.273438 246.480469 234.316406 244.003906 235.421875 243.773438 C 249.429688 240.878906 260.574219 237.730469 273.171875 234.421875 C 282.664063 231.929688 292.796875 229.921875 304.722656 227.554688 C 305.757813 227.351563 304.515625 226.019531 303.464844 226.117188 C 296.53125 226.761719 289.601563 227.992188 283.40625 229.285156 C 266.277344 232.855469 249.597656 237.597656 232.695313 242.105469 C 232.257813 242.222656 231.679688 243.113281 231.679688 243.910156 C 231.679688 244.707031 232.074219 245.957031 232.515625 246.0625 Z M 303.964844 204.632813 C 302.167969 204.460938 301.398438 204.78125 300.96875 206.996094 C 300.726563 208.242188 301.085938 208.554688 300.195313 209.085938 C 298.894531 209.863281 297.421875 209.890625 295.929688 210.882813 C 292.699219 213.039063 289.359375 216.738281 287.414063 221.785156 C 286.355469 224.53125 287.878906 225.582031 289.984375 222.503906 C 292.5 218.816406 296.835938 214.890625 301.226563 211.5625 C 303.070313 210.167969 305.289063 209.902344 306.527344 208.371094 C 306.996094 207.789063 307.054688 207.367188 307.398438 206.75 C 308.035156 205.601563 305.511719 204.78125 303.964844 204.632813 Z M 243.964844 257.421875 C 243.285156 260.214844 246.0625 261.167969 246.375 262.929688 C 246.832031 265.519531 250.648438 271.027344 253.246094 273.609375 C 254.660156 275.011719 254.917969 274.710938 253.582031 272.570313 C 252.605469 271.007813 250.546875 267.804688 249.523438 265.003906 C 248.867188 263.207031 248.484375 261.964844 248.503906 260.191406 C 248.523438 258.625 248.578125 257.21875 247.96875 256.035156 C 247.734375 255.585938 247.488281 255.4375 247.199219 255.054688 C 246.660156 254.347656 244.4375 255.46875 243.964844 257.421875 Z M 223.445313 243.464844 C 223.417969 246.761719 223.570313 247.734375 224.324219 249.515625 C 224.597656 250.160156 225.894531 251.054688 225.617188 248.546875 C 225.457031 247.117188 225.703125 245.488281 225.769531 242.996094 C 225.839844 240.21875 223.460938 241.066406 223.445313 243.464844 Z M 225.332031 256.558594 C 225.609375 256.492188 227.003906 255.398438 225.664063 254.910156 C 223.058594 253.957031 223.394531 257.023438 225.332031 256.558594 Z M 225.332031 256.558594 "/>
<path style=" stroke:none;fill-rule:evenodd;fill:rgb(100%,100%,100%);fill-opacity:1;" d="M 248.683594 205.105469 C 248.988281 205.3125 254.46875 206.21875 256.378906 202.152344 C 257.175781 200.457031 254.546875 198.207031 254.203125 196.34375 C 253.9375 194.894531 254.878906 192.824219 255.867188 192.53125 C 260.046875 191.28125 264.484375 195.640625 264.847656 195.582031 C 275.902344 193.875 297.457031 184.882813 314.542969 176.261719 C 320.554688 173.226563 327.019531 169.464844 333.320313 165.328125 C 342.738281 159.148438 353.679688 151.667969 361.304688 143.273438 C 364.441406 139.820313 367.007813 137 369.5625 131.820313 C 370.914063 129.082031 371.808594 123.480469 370.929688 118.925781 C 368.472656 106.148438 358.171875 102.347656 346.5 102.292969 C 332.054688 102.230469 316.535156 106.175781 308.851563 111.789063 C 307.617188 112.691406 307.148438 115.164063 310.378906 115.292969 C 318.96875 115.839844 334.339844 108.582031 346.082031 106.902344 C 355.511719 105.554688 364.460938 109.085938 367.316406 116.820313 C 368.90625 121.117188 364.910156 127.429688 360.359375 133.527344 C 351.9375 144.816406 332.117188 160.835938 312.742188 170.386719 C 292.96875 180.136719 273.9375 185.578125 255.8125 189.09375 C 254.40625 189.371094 253.328125 190.539063 252.09375 191.273438 C 250.382813 192.289063 250.230469 187.882813 248.320313 187.320313 C 244.398438 186.167969 244.457031 188.703125 242.035156 188.398438 C 234.832031 187.488281 228.988281 184.097656 221.378906 183.550781 C 220.066406 183.457031 220.015625 185.136719 221.199219 185.703125 C 223.386719 186.753906 227.734375 186.933594 230.53125 187.210938 C 233.699219 187.523438 237.09375 187.304688 240.601563 189.476563 C 241.898438 190.28125 240.800781 192.046875 243.007813 192.773438 C 245.214844 193.496094 250.019531 193.007813 250.183594 193.253906 C 250.734375 194.082031 251.039063 196.960938 250.265625 199.03125 C 249.769531 200.355469 248.859375 200.578125 248.394531 201.386719 C 247.796875 202.429688 247.664063 204.425781 248.683594 205.105469 Z M 248.683594 205.105469 "/>
<path style=" stroke:none;fill-rule:evenodd;fill:rgb(100%,100%,100%);fill-opacity:1;" d="M 255.683594 117.898438 C 255.546875 117.914063 256.613281 124.550781 258.050781 127.199219 C 261.324219 133.242188 265.175781 132.78125 265.589844 137.945313 C 265.660156 138.800781 264.730469 142.269531 263.640625 143.375 C 262.523438 144.507813 262.53125 146.226563 261.800781 147.375 C 260.800781 148.957031 259.855469 148.546875 259.996094 149.242188 C 260.359375 151.023438 261.832031 153.179688 262.511719 153.195313 C 262.878906 153.199219 263.574219 152.183594 263.269531 151.105469 C 263.046875 150.324219 265.28125 148.691406 266.644531 150.859375 C 267.449219 152.136719 267.28125 153.667969 268.421875 154.613281 C 270.996094 156.75 274.085938 160.054688 275.296875 165.449219 C 276.246094 169.660156 274.21875 176.035156 274.722656 179.601563 C 274.878906 180.679688 280.390625 179.914063 282.8125 177.011719 C 284.390625 175.125 283.503906 159.238281 283.355469 158.042969 C 283.214844 156.902344 285.855469 157.355469 287.300781 158.09375 C 290.550781 159.75 286.703125 175.71875 288.738281 175.199219 C 302.398438 171.695313 332.929688 154.859375 332.5625 154.09375 C 328.160156 144.929688 315.3125 130.257813 305.714844 125.046875 C 291.226563 117.175781 272.214844 115.648438 255.683594 117.898438 Z M 255.683594 117.898438 "/>
<path style=" stroke:none;fill-rule:evenodd;fill:rgb(100%,100%,100%);fill-opacity:1;" d="M 248.320313 144.574219 C 249.523438 144.863281 246.609375 171.269531 242.933594 183.011719 C 242.269531 185.125 237.496094 184.394531 231.292969 181.84375 C 227.582031 180.316406 223.339844 182.222656 222.097656 179.597656 C 220.933594 177.136719 221.800781 169.480469 221.144531 163.753906 C 220.40625 157.265625 219.582031 152.105469 216.351563 145.109375 C 215.683594 143.667969 218.53125 140.601563 220.121094 140.621094 C 229.515625 140.722656 238.652344 142.238281 248.320313 144.574219 Z M 233.425781 159.402344 C 233.976563 159.558594 236.628906 159.679688 237.738281 157.429688 C 238.519531 155.84375 236.839844 154.453125 235.195313 153.15625 C 234.109375 152.300781 233.214844 152.5 232.820313 154.347656 C 232.425781 156.195313 232.464844 159.132813 233.425781 159.402344 Z M 226.769531 154.441406 C 226.835938 154.429688 227.488281 153.355469 228.515625 152.871094 C 229.132813 152.578125 230.347656 153.128906 230.359375 152.46875 C 230.394531 150.847656 230.542969 149.308594 230.25 148.195313 C 229.894531 146.855469 227.191406 149.253906 226.796875 151.097656 C 226.402344 152.945313 225.800781 154.675781 226.769531 154.441406 Z M 226.589844 173.832031 C 226.8125 174.308594 228.160156 174.023438 228.5625 172.308594 C 228.707031 171.691406 228.226563 168.160156 228.046875 164.609375 C 227.964844 162.996094 228.015625 160.945313 228.089844 159.921875 C 228.195313 158.542969 226.277344 157.597656 226.257813 159.488281 C 226.222656 162.507813 225.496094 171.5 226.589844 173.832031 Z M 226.589844 173.832031 "/>
<path style=" stroke:none;fill-rule:evenodd;fill:rgb(100%,100%,100%);fill-opacity:1;" d="M 236.464844 192.707031 C 229.015625 191.46875 228.730469 190.425781 228.070313 190.355469 C 225.902344 190.117188 224.3125 189.488281 221.648438 191.808594 C 219.847656 193.378906 219.03125 196.113281 220.03125 198.988281 C 221.054688 201.914063 221.128906 203.992188 222.542969 205.550781 C 223.316406 206.402344 224.964844 206.074219 226.652344 206.238281 C 228.363281 206.402344 230.300781 207.546875 231.980469 207.421875 C 233.460938 207.3125 234.742188 205.996094 235.480469 205.28125 C 236.890625 203.910156 234.742188 201.21875 235.488281 198.367188 C 235.835938 197.039063 236.644531 196.394531 237.0625 195.457031 C 237.605469 194.246094 237.628906 192.898438 236.464844 192.707031 Z M 227.488281 198.898438 C 227.765625 198.832031 228.890625 195.578125 227.550781 195.089844 C 224.945313 194.136719 225.550781 199.367188 227.488281 198.898438 Z M 227.488281 198.898438 "/>
<path style=" stroke:none;fill-rule:evenodd;fill:rgb(100%,100%,100%);fill-opacity:1;" d="M 256.222656 155.351563 C 254.992188 159.421875 254.722656 164.507813 253.941406 169.234375 C 253.292969 173.152344 252.121094 176.78125 251.945313 179.097656 C 251.769531 181.375 251.789063 183.566406 253.621094 185.078125 C 254.984375 186.203125 253.957031 180.621094 255.039063 179.988281 C 257.621094 178.480469 264.3125 175.949219 265.40625 171.226563 C 265.996094 168.664063 265.082031 164.34375 265.566406 162.089844 C 265.636719 161.757813 266.167969 160.417969 266.140625 158.96875 C 266.109375 157.105469 265.003906 155.421875 264.378906 155.113281 C 263.984375 154.914063 264.285156 156.429688 263.632813 157.53125 C 262.976563 158.636719 261.824219 158.945313 261.597656 158.453125 C 259.269531 153.386719 257.03125 152.683594 256.222656 155.351563 Z M 256.222656 155.351563 "/>
<path style=" stroke:none;fill-rule:evenodd;fill:rgb(100%,100%,100%);fill-opacity:1;" d="M 311.996094 124.007813 C 315.042969 126.285156 317.753906 128.226563 320.835938 131.371094 C 324.675781 135.289063 328.453125 140.535156 330.046875 143.40625 C 330.246094 143.765625 333.601563 144.21875 333.285156 141.316406 C 332.746094 136.332031 328.464844 126.359375 325.019531 122.570313 C 323.285156 120.664063 315.402344 120.484375 312.613281 121.632813 C 311.253906 122.191406 311.558594 123.683594 311.996094 124.007813 Z M 311.996094 124.007813 "/>
<path style=" stroke:none;fill-rule:evenodd;fill:rgb(100%,100%,100%);fill-opacity:1;" d="M 306.25 120.238281 C 297.074219 116.058594 284.945313 113.113281 276.523438 112.511719 C 274 112.332031 275.617188 107.683594 279.183594 106.332031 C 282.976563 104.894531 289.441406 106.230469 292.058594 106.851563 C 293.402344 107.167969 294.664063 108.269531 296.644531 109.382813 C 297.679688 109.96875 299.738281 110.003906 300.757813 110.714844 C 304.132813 113.058594 306.863281 116.269531 308.039063 118.042969 C 308.90625 119.347656 307.847656 120.96875 306.25 120.238281 Z M 306.25 120.238281 "/>
<path style=" stroke:none;fill-rule:evenodd;fill:rgb(100%,100%,100%);fill-opacity:1;" d="M 269.160156 112.332031 C 264.347656 112.933594 261.308594 112.953125 256.222656 114.003906 C 253.171875 114.632813 250.761719 116.472656 248.144531 117.359375 C 246.257813 118 244.675781 117.015625 244.734375 115.875 C 244.859375 113.359375 247.703125 106.699219 250.207031 106.125 C 254.386719 105.167969 265.933594 106.832031 269.617188 109.082031 C 271.0625 109.964844 270.824219 112.125 269.160156 112.332031 Z M 269.160156 112.332031 "/>
<path style=" stroke:none;fill-rule:evenodd;fill:rgb(100%,100%,100%);fill-opacity:1;" d="M 242.933594 97.152344 C 243.730469 102.136719 242.523438 108.785156 241.921875 113.960938 C 241.480469 117.738281 243.628906 119.5625 241.859375 122.835938 C 240.972656 124.476563 238.453125 124.042969 236.945313 122.070313 C 235.003906 119.535156 234.300781 114.816406 234.3125 112.421875 C 234.332031 106.875 237.003906 100.976563 239.402344 97.855469 C 240.53125 96.386719 242.640625 95.324219 242.933594 97.152344 Z M 242.933594 97.152344 "/>
<path style=" stroke:none;fill-rule:evenodd;fill:rgb(100%,100%,100%);fill-opacity:1;" d="M 227.125 98.855469 C 230.59375 95.742188 230.65625 105.125 230.222656 111.503906 C 230.023438 114.460938 231.84375 116.925781 231.53125 118.792969 C 231.207031 120.699219 225.929688 122.695313 224.792969 121.132813 C 222.96875 118.628906 221.636719 114.691406 221.617188 110.90625 C 221.59375 106.4375 223.8125 101.832031 227.125 98.855469 Z M 227.125 98.855469 "/>
<path style=" stroke:none;fill-rule:evenodd;fill:rgb(100%,100%,100%);fill-opacity:1;" d="M 246.347656 123.917969 C 249.796875 123.832031 251.953125 132.382813 247.511719 132.8125 C 243.089844 133.238281 237.625 133.230469 232.09375 132.777344 C 230.6875 132.664063 228.128906 133.171875 227.027344 132.851563 C 224.734375 132.179688 222.632813 130.628906 222.996094 129.570313 C 223.492188 128.125 224.238281 127.082031 225.382813 126.148438 C 226.855469 124.945313 228.84375 123.988281 231.761719 124.15625 C 235.574219 124.378906 237.613281 127.789063 240.636719 127.011719 C 242.617188 126.5 244.773438 123.953125 246.347656 123.917969 Z M 246.347656 123.917969 "/>
<path style=" stroke:none;fill-rule:evenodd;fill:rgb(100%,100%,100%);fill-opacity:1;" d="M 355.554688 170.527344 C 356.472656 171.8125 357.054688 173.011719 358.164063 174.136719 C 359.152344 175.132813 361.210938 175.808594 362.339844 176.703125 C 364.632813 178.523438 367.203125 181.050781 369.628906 182.667969 C 371.832031 184.140625 374.074219 185.902344 375.492188 185.972656 C 376.613281 186.027344 378.574219 185.808594 378.457031 182.917969 C 378.390625 181.289063 376.335938 179.855469 374.160156 177.609375 C 372.519531 175.914063 370.191406 173.820313 368.539063 171.835938 C 366.667969 169.585938 365.460938 167.46875 363.367188 166.214844 C 362.136719 165.472656 358.328125 165.894531 356.378906 167.308594 C 355.207031 168.15625 355.050781 169.828125 355.554688 170.527344 Z M 355.554688 170.527344 "/>
<path style=" stroke:none;fill-rule:evenodd;fill:rgb(100%,100%,100%);fill-opacity:1;" d="M 350.035156 165.863281 C 350.664063 166.792969 353.375 166.273438 353.179688 163.441406 C 352.980469 160.570313 350.679688 159.90625 349.105469 160.34375 C 347.265625 160.859375 346.832031 162.355469 347.613281 163.765625 C 347.945313 164.367188 348.957031 164.28125 350.035156 165.863281 Z M 350.035156 165.863281 "/>
<path style=" stroke:none;fill-rule:evenodd;fill:rgb(100%,100%,100%);fill-opacity:1;" d="M 342.386719 145.675781 C 342.1875 142.808594 337.183594 143.585938 335.613281 144.925781 C 334.160156 146.164063 333.972656 148.472656 334.75 149.878906 C 335.425781 151.097656 337.691406 150.761719 339.871094 149.414063 C 341.359375 148.496094 342.511719 147.511719 342.386719 145.675781 Z M 342.386719 145.675781 "/>
<path style=" stroke:none;fill-rule:evenodd;fill:rgb(100%,100%,100%);fill-opacity:1;" d="M 255.199219 132.789063 C 258.304688 132.789063 260.820313 135.304688 260.820313 138.410156 C 260.820313 141.515625 258.304688 144.03125 255.199219 144.03125 C 252.09375 144.03125 249.578125 141.515625 249.578125 138.410156 C 249.578125 135.304688 252.09375 132.789063 255.199219 132.789063 Z M 255.199219 132.789063 "/>
<path style=" stroke:none;fill-rule:evenodd;fill:rgb(100%,100%,100%);fill-opacity:1;" d="M 221.0625 136.097656 C 223.550781 137.285156 225.894531 139.066406 228.257813 138.800781 C 232.011719 138.378906 238.378906 139.230469 243.546875 138.800781 C 244.136719 138.753906 243.867188 137.367188 243.28125 137.359375 C 241.546875 137.332031 237.597656 136.875 234.566406 136.355469 C 230.136719 135.59375 225.636719 134.441406 221.671875 134.996094 C 220.203125 135.199219 220.558594 135.855469 221.0625 136.097656 Z M 221.0625 136.097656 "/>
<path style=" stroke:none;fill-rule:evenodd;fill:rgb(100%,100%,100%);fill-opacity:1;" d="M 252.992188 123.019531 C 253.265625 122.976563 252.914063 122.355469 252.59375 121.53125 C 252.234375 120.59375 251.859375 119.445313 251.554688 119.503906 C 250.679688 119.671875 250.039063 122.273438 250.890625 123.128906 C 251.277344 123.515625 251.957031 123.191406 252.992188 123.019531 Z M 252.992188 123.019531 "/>
<path style=" stroke:none;fill-rule:evenodd;fill:rgb(100%,100%,100%);fill-opacity:1;" d="M 278.226563 289.34375 C 278.757813 289.601563 279.679688 289.683594 280.640625 290.753906 C 283.09375 293.484375 284.386719 295.339844 285.863281 303.082031 C 285.890625 303.238281 287.414063 303.992188 289.398438 303.109375 C 293.523438 301.277344 299.5 296.402344 298.074219 294.914063 C 297.273438 294.070313 294.632813 293.347656 292.90625 292.433594 C 288.492188 290.089844 283.382813 284.179688 278.410156 285.933594 C 277.953125 286.09375 277.105469 288.800781 278.226563 289.34375 Z M 278.226563 289.34375 "/>
<path style=" stroke:none;fill-rule:evenodd;fill:rgb(100%,100%,100%);fill-opacity:1;" d="M 246.921875 280.777344 C 248.269531 280.757813 248.363281 283.125 248.984375 284.289063 C 249.570313 285.390625 249.65625 285.636719 250.0625 286.652344 C 250.421875 287.546875 250.589844 289.25 250.691406 289.824219 C 250.992188 291.5625 254.085938 292.148438 254.179688 291.304688 C 254.410156 289.195313 252.40625 286.09375 250.59375 283.058594 C 248.996094 280.378906 247.683594 277.570313 246.203125 278.089844 C 245.753906 278.246094 245.675781 280.796875 246.921875 280.777344 Z M 246.921875 280.777344 "/>
</g>
</svg>
