<?xml version="1.0" encoding="UTF-8" standalone="no"?>
<!-- Created with Inkscape (http://www.inkscape.org/) -->

<svg
   xmlns:dc="http://purl.org/dc/elements/1.1/"
   xmlns:cc="http://creativecommons.org/ns#"
   xmlns:rdf="http://www.w3.org/1999/02/22-rdf-syntax-ns#"
   xmlns:svg="http://www.w3.org/2000/svg"
   xmlns="http://www.w3.org/2000/svg"
   xmlns:sodipodi="http://sodipodi.sourceforge.net/DTD/sodipodi-0.dtd"
   xmlns:inkscape="http://www.inkscape.org/namespaces/inkscape"
   version="1.1"
   id="svg2"
   xml:space="preserve"
   width="252.00043"
   height="252"
   viewBox="0 0 252.00042 252"
   sodipodi:docname="fk-teplice.svg"
   inkscape:version="0.92.4 (5da689c313, 2019-01-14)"><metadata
     id="metadata8"><rdf:RDF><cc:Work
         rdf:about=""><dc:format>image/svg+xml</dc:format><dc:type
           rdf:resource="http://purl.org/dc/dcmitype/StillImage" /><dc:title></dc:title></cc:Work></rdf:RDF></metadata><defs
     id="defs6"><clipPath
       clipPathUnits="userSpaceOnUse"
       id="clipPath18"><path
         d="M 0,600 H 800 V 0 H 0 Z"
         id="path16"
         inkscape:connector-curvature="0" /></clipPath></defs><sodipodi:namedview
     pagecolor="#ffffff"
     bordercolor="#666666"
     borderopacity="1"
     objecttolerance="10"
     gridtolerance="10"
     guidetolerance="10"
     inkscape:pageopacity="0"
     inkscape:pageshadow="2"
     inkscape:window-width="1366"
     inkscape:window-height="705"
     id="namedview4"
     showgrid="false"
     fit-margin-top="1"
     fit-margin-right="1"
     fit-margin-bottom="1"
     fit-margin-left="1"
     inkscape:zoom="0.2085965"
     inkscape:cx="207.76327"
     inkscape:cy="388.79486"
     inkscape:window-x="-8"
     inkscape:window-y="-8"
     inkscape:window-maximized="1"
     inkscape:current-layer="g10" /><g
     id="g10"
     inkscape:groupmode="layer"
     inkscape:label="fk-teplice-seeklogo.com"
     transform="matrix(1.3333333,0,0,-1.3333333,-158.64613,260.06146)"><g
       id="g12"
       transform="matrix(0.32695752,0,0,0.32695752,80.586472,4.574064)"><g
         id="g14"
         clip-path="url(#clipPath18)"><g
           id="g20"
           transform="translate(406.4766,580.2651)"><path
             d="m 0,0 c 158.104,0 286.728,-128.623 286.728,-286.733 0,-158.113 -128.624,-286.736 -286.728,-286.736 -158.115,0 -286.742,128.623 -286.742,286.736 C -286.742,-128.623 -158.115,0 0,0"
             style="fill:#312782;fill-opacity:1;fill-rule:nonzero;stroke:none"
             id="path22"
             inkscape:connector-curvature="0" /></g><g
           id="g24"
           transform="translate(406.4697,574.3369)"><path
             d="m 0,0 c 154.717,0 280.807,-126.083 280.807,-280.809 0,-154.726 -126.09,-280.804 -280.807,-280.804 -154.729,0 -280.807,126.078 -280.807,280.804 C -280.807,-126.083 -154.729,0 0,0"
             style="fill:#ffde22;fill-opacity:1;fill-rule:nonzero;stroke:none"
             id="path26"
             inkscape:connector-curvature="0" /></g><g
           id="g28"
           transform="translate(406.4736,474.6914)"><path
             d="m 0,0 c 99.81,0 181.157,-81.34 181.157,-181.16 0,-99.819 -81.347,-181.162 -181.157,-181.162 -99.822,0 -181.165,81.343 -181.165,181.162 C -181.165,-81.34 -99.822,0 0,0"
             style="fill:#312782;fill-opacity:1;fill-rule:nonzero;stroke:none"
             id="path30"
             inkscape:connector-curvature="0" /></g><g
           id="g32"
           transform="translate(406.4756,469.0996)"><path
             d="m 0,0 c 96.764,0 175.563,-78.799 175.563,-175.567 0,-96.768 -78.799,-175.572 -175.563,-175.572 -96.773,0 -175.575,78.804 -175.575,175.572 C -175.575,-78.799 -96.773,0 0,0"
             style="fill:#ffffff;fill-opacity:1;fill-rule:nonzero;stroke:none"
             id="path34"
             inkscape:connector-curvature="0" /></g><g
           id="g36"
           transform="translate(392.9863,372.9883)"><path
             d="m 0,0 c -18.637,0 -34.4,-2.712 -44.567,-8.134 -12.204,-5.423 -22.371,-17.119 -29.824,-33.386 l -1.87,1.863 14.919,59.482 c 0,-0.846 1.863,-2.712 3.727,-2.712 1.862,0 4.577,-0.848 7.458,-0.848 h 127.435 5.596 7.285 c 1.865,0 3.727,1.862 5.598,3.56 l 15.923,-59.482 -3.727,-1.863 C 98.631,-14.403 73.552,0 35.428,0 v -150.832 c 0,-12.535 2.708,-21.685 6.434,-25.243 2.88,-2.716 8.3,-4.577 13.892,-4.577 v -3.561 H -20.5 v 3.561 c 5.596,0 10.333,1.861 14.066,4.577 3.726,3.558 6.434,12.708 6.434,23.555 L 0,0"
             style="fill:#312782;fill-opacity:1;fill-rule:nonzero;stroke:none"
             id="path38"
             inkscape:connector-curvature="0" /></g><g
           id="g40"
           transform="translate(311.439,301.6919)"><path
             d="m 0,0 v 1.351 c 0,2.202 -0.346,4.241 -0.346,5.26 0,1.015 -0.673,2.363 -1.351,3.048 -0.853,1.016 -2.543,2.201 -4.067,2.544 -1.703,0.333 -3.558,0.674 -4.916,0.674 v 3.388 h 65.242 l 8.47,-20.676 -3.553,-0.675 C 50.501,5.928 38.805,11.52 24.911,11.52 c -2.041,0 -3.899,-0.504 -5.257,-0.504 -1.523,0 -3.22,-0.683 -4.404,-1.019 C 13.893,9.659 12.875,8.643 12.541,7.285 11.684,5.928 11.351,4.236 11.351,2.708 v -21.012 h 1.863 2.036 c 8.303,0 13.893,1.014 16.095,2.702 0.679,0.687 1.358,2.553 2.21,4.246 0.672,2.034 1.357,4.405 1.357,6.945 h 3.546 v -33.213 h -3.546 c 0,2.714 -0.685,5.082 -1.357,7.286 -0.852,2.037 -2.21,3.726 -3.561,4.409 -1.53,1.02 -3.219,2.029 -5.083,2.029 -2.041,0.348 -5.257,0.68 -9.661,0.68 h -3.899 v -23.386 c 0,-2.874 0.333,-5.589 0.333,-6.946 0,-1.358 1.191,-3.048 2.548,-3.895 0.672,-0.345 1.863,-1.024 2.881,-1.024 1.352,-0.329 3.553,-0.677 5.757,-0.677 v -3.379 h -33.55 v 3.043 c 2.882,0.336 4.57,0.684 4.916,0.684 1.524,0.329 2.876,1.353 3.56,2.2 0.846,0.679 1.517,2.029 1.517,3.388 C -0.346,-51.859 0,-50.166 0,-49.48 V 0"
             style="fill:#312782;fill-opacity:1;fill-rule:nonzero;stroke:none"
             id="path42"
             inkscape:connector-curvature="0" /></g><g
           id="g44"
           transform="translate(450.8076,304.2559)"><path
             d="m 0,0 c 0,1.862 -0.338,3.559 -0.338,4.577 -0.347,1.015 -1.02,2.372 -1.863,3.048 -0.687,0.677 -2.038,1.862 -3.563,2.203 -1.357,0.338 -3.558,0.676 -4.916,0.676 v 3.39 h 34.912 v -3.39 C 19.996,10.504 16.434,9.828 14.57,8.302 13.896,7.625 13.213,6.606 12.875,5.25 12.543,3.897 12.202,1.862 12.202,0.332 V -25.93 l 28.466,25.592 c 0.68,0.67 1.697,1.858 2.035,2.54 0.334,0.676 0.681,2.033 0.681,3.048 0,1.356 -0.681,3.052 -1.697,3.904 -1.019,0.674 -3.219,1.35 -6.103,1.35 v 3.39 H 68.799 V 10.166 C 62.36,7.965 55.243,3.559 47.446,-3.054 43.384,-6.444 39.146,-9.996 35.584,-13.055 L 58.8,-51.188 c 2.035,-3.047 4.579,-5.749 6.782,-7.104 2.374,-1.871 5.588,-3.226 8.807,-3.226 V -64.9 H 38.468 v 3.382 c 2.88,0 5.424,0.336 6.777,1.023 1.359,0.672 2.201,2.203 2.201,3.558 0,0.672 -0.502,1.343 -0.502,2.03 0,0.672 -0.686,1.69 -1.359,2.376 L 25.93,-20.674 12.202,-33.387 v -18.131 c 0,-1.699 0.341,-3.389 0.341,-4.747 0.332,-1.358 1.01,-2.375 1.688,-3.048 0.679,-0.85 2.203,-1.869 3.563,-1.869 1.529,0 3.891,-0.336 6.438,-0.336 V -64.9 H -10.68 v 3.047 c 1.87,0 3.559,0.671 4.242,0.671 2.199,0.34 3.898,1.359 4.745,2.89 0.335,0.669 1.008,2.027 1.008,3.385 0.347,1.69 0.685,3.389 0.685,4.577 L 0,0"
             style="fill:#312782;fill-opacity:1;fill-rule:nonzero;stroke:none"
             id="path46"
             inkscape:connector-curvature="0" /></g><g
           id="g48"
           transform="translate(612.2871,374.9438)"><path
             d="m 0,0 c -2.716,-0.342 -5.424,0 -7.455,0.334 -1.703,0.169 -3.734,1.017 -5.091,1.695 -1.861,1.188 -3.733,3.221 -5.422,5.596 -0.673,0.846 -1.863,2.543 -2.874,4.573 l -1.026,1.865 c -1.348,2.543 -1.865,4.406 -1.348,5.591 0.503,0.674 2.035,2.033 4.911,3.562 l 25.93,14.232 c 2.54,1.528 4.226,2.202 5.088,2.033 0.843,-0.505 1.857,-2.033 3.551,-4.741 L 17.961,35.755 6.945,55.58 5.248,54.734 5.596,53.882 C 6.945,51.175 7.449,49.141 6.438,47.958 6.091,47.616 4.741,46.599 2.708,45.754 L 1.521,45.073 -24.576,30.497 c -2.882,-1.693 -4.745,-1.862 -5.935,-0.675 -0.166,0.675 -1.184,1.863 -2.201,3.729 l -1.691,-1.013 20.842,-37.627 13.893,3.39 z"
             style="fill:#312782;fill-opacity:1;fill-rule:nonzero;stroke:none"
             id="path50"
             inkscape:connector-curvature="0" /></g><g
           id="g52"
           transform="translate(248.9507,428.8262)"><path
             d="m 0,0 c -0.514,-1.178 -1.697,-2.708 -3.221,-4.235 -1.524,-1.858 -3.227,-3.049 -3.899,-3.39 -1.018,-0.168 -2.203,0.341 -3.387,1.359 l -13.221,12.54 3.047,3.391 c 1.358,1.358 3.221,2.715 4.751,3.893 1.517,1.187 3.047,1.7 4.91,1.7 1.186,0 2.882,-0.343 4.072,-0.846 1.183,-0.341 2.543,-1.189 4.059,-2.545 C -1.87,11.023 -0.686,9.322 -0.173,8.139 0.671,7.12 1.184,5.429 1.184,4.073 1.184,2.885 0.844,1.359 0,0 m -37.205,18.74 c 0.031,-0.032 0.058,-0.062 0.089,-0.094 l -0.174,0.171 0.085,-0.077 c -0.801,0.814 -1.436,1.61 -1.436,1.939 0,0.172 0.68,1.186 2.03,2.542 2.715,3.049 5.257,4.91 7.121,5.253 2.541,1.016 5.084,0 7.797,-2.204 2.203,-2.029 3.388,-4.405 3.56,-6.437 0.34,-2.544 -0.678,-5.593 -3.054,-8.135 l -3.899,-4.065 z m 33.132,2.954 c -2.875,-0.341 -6.78,-1.861 -10.5,-4.405 1.857,2.877 3.047,6.102 2.875,8.981 0,2.715 -1.185,5.083 -3.221,6.949 -2.369,2.374 -5.59,2.879 -9.322,2.033 -3.387,-1.186 -7.964,-4.405 -12.702,-9.322 L -51.017,10.681 -49.66,9.322 c 1.698,1.864 3.222,2.888 4.24,3.058 0.512,0.162 2.369,-0.855 4.232,-2.715 l 8.817,-8.306 15.083,-14.064 c 1.524,-1.358 2.369,-2.883 2.03,-3.729 -0.165,-0.674 -1.019,-1.864 -2.709,-3.733 l 1.69,-1.346 L 0,-3.722 c 4.577,4.747 7.112,9.151 7.963,12.875 0.508,3.559 -0.511,7.119 -3.559,9.834 -2.202,2.202 -5.257,3.049 -8.477,2.707"
             style="fill:#312782;fill-opacity:1;fill-rule:nonzero;stroke:none"
             id="path54"
             inkscape:connector-curvature="0" /></g><g
           id="g56"
           transform="translate(618.2178,314.7769)"><path
             d="M 0,0 C 2.205,-0.843 5.253,-1.35 8.64,-0.674 L 32.7,3.559 c 2.373,0.513 4.246,0.171 5.089,-0.501 0.679,-0.855 1.357,-2.206 1.865,-4.578 l 1.869,0.507 -2.715,15.59 -1.862,-0.163 C 37.278,11.697 37.11,9.496 36.431,8.308 35.928,7.121 34.401,6.274 32.025,5.932 L 8.129,1.701 C 3.895,0.852 0,2.203 -3.223,5.429 c -2.536,2.71 -4.405,6.778 -5.252,11.862 -1.018,4.91 -0.171,8.811 1.698,11.523 2.2,2.709 6.266,4.741 11.518,5.593 l 22.543,4.065 c 2.201,0.339 3.899,0.17 4.57,-0.341 0.347,-0.333 1.19,-1.52 1.358,-3.388 0.172,-0.506 0.172,-1.188 0.347,-2.032 l 2.025,0.339 -3.73,21.183 -2.03,-0.34 C 30,52.199 30,50.671 29.485,49.997 28.81,48.81 27.284,47.958 24.908,47.625 L 2.205,43.554 C -3.73,42.536 -8.309,39.318 -10.168,34.743 -11.866,31.016 -12.036,25.93 -11.022,20 l 0.172,-1.352 c 0.34,-2.374 1.017,-4.918 1.87,-6.779 C -8.475,9.665 -7.464,7.633 -6.274,6.106 -4.748,3.229 -2.372,1.188 0,0"
             style="fill:#312782;fill-opacity:1;fill-rule:nonzero;stroke:none"
             id="path58"
             inkscape:connector-curvature="0" /></g><g
           id="g60"
           transform="translate(575.6807,414.7627)"><path
             d="m 0,0 c -0.511,1.188 -0.511,2.88 -0.172,4.236 l 5.425,28.814 13.731,1.179 c 2.032,0.171 3.721,0.171 4.406,0.171 0.5,0 1.01,-0.171 1.853,-0.331 0.683,-0.173 1.361,-0.856 2.205,-1.189 0.511,-0.681 1.531,-1.358 2.55,-2.374 l 1.356,1.357 -10.001,10.502 -1.358,-1.185 c 0.847,-1.187 1.526,-2.033 1.693,-2.544 0.172,-0.505 0.172,-1.351 -0.335,-1.862 -0.337,-0.171 -1.026,-0.339 -1.696,-0.846 -0.673,0 -2.031,-0.171 -3.385,-0.34 L -5.428,34.069 7.799,46.6 c 1.691,1.529 3.213,2.204 4.231,2.04 0.679,-0.339 2.205,-1.527 4.242,-3.56 L 17.626,46.6 2.203,63.215 0.674,61.859 c 2.038,-2.204 2.881,-4.073 2.881,-5.088 0,-0.845 -1.178,-2.538 -3.047,-4.408 L -20.843,32.367 c -2.543,-2.201 -4.579,-3.558 -5.597,-3.558 -0.676,-0.333 -2.538,1.019 -4.578,3.39 l -1.344,-1.351 15.415,-16.613 1.35,1.357 c -1.689,2.03 -2.88,3.731 -3.218,4.577 -0.166,0.674 0.854,2.372 2.544,3.899 l 9.154,8.299 3.898,-0.168 L -9.322,5.935 1.185,-5.25 2.537,-3.891 C 1.354,-2.544 0.508,-1.014 0,0"
             style="fill:#312782;fill-opacity:1;fill-rule:nonzero;stroke:none"
             id="path62"
             inkscape:connector-curvature="0" /></g><g
           id="g64"
           transform="translate(354.5205,503.7373)"><path
             d="m 0,0 c -0.333,-2.715 -1.012,-5.26 -1.857,-7.122 -0.678,-1.859 -1.53,-3.73 -2.714,-4.744 -1.524,-1.694 -3.727,-3.22 -6.268,-4.405 -1.192,-0.342 -2.888,-1.188 -5.256,-1.863 l -1.863,-0.683 c -2.709,-0.675 -4.913,-1.018 -5.764,-0.169 -0.678,0.508 -1.695,2.373 -2.54,5.257 l -9.322,28.295 c -0.847,2.884 -1.019,4.748 -0.673,5.6 0.332,0.505 2.202,1.52 5.077,2.537 l -0.672,1.696 -21.525,-6.949 0.672,-1.861 0.858,0.165 c 2.874,1.021 5.077,0.851 5.763,-0.334 0.333,-0.342 1.011,-2.031 1.517,-3.901 l 0.684,-1.358 9.143,-28.639 c 1.019,-2.877 0.852,-4.746 -0.507,-5.761 -0.678,-0.17 -2.027,-0.845 -4.237,-1.35 l 0.852,-2.041 41.007,13.388 -0.671,14.405 z"
             style="fill:#312782;fill-opacity:1;fill-rule:nonzero;stroke:none"
             id="path66"
             inkscape:connector-curvature="0" /></g><g
           id="g68"
           transform="translate(547.0352,500.0054)"><path
             d="M 0,0 0.687,1.694 -13.047,8.47 -13.892,6.609 c 0.679,-0.172 1.524,-0.674 2.544,-1.529 0.847,-0.673 1.183,-1.348 0.676,-2.365 -0.166,-0.34 -0.676,-0.683 -1.358,-1.189 l -17.282,-8.978 -3.556,19.482 c -0.175,0.675 -0.687,1.527 -0.339,1.699 l 0.164,0.333 c 0.175,0.513 0.847,0.852 1.865,0.513 0.847,-0.169 2.202,-0.513 3.387,-0.846 l 0.347,-0.512 1.01,1.864 -22.023,10.679 -0.855,-1.7 c 2.884,-1.349 4.921,-2.878 5.085,-4.405 0.165,-1.521 0.507,-3.39 1.019,-5.08 l 4.065,-22.196 -6.094,-12.544 c -1.191,-2.375 -2.377,-3.733 -3.22,-3.733 -0.855,0 -3.059,0.683 -5.937,2.041 l -0.845,-1.868 22.032,-10.51 0.669,1.697 c -2.874,1.691 -4.743,2.878 -5.248,3.73 -0.34,0.846 0,2.539 1.02,4.741 l 6.946,14.239 17.79,9.319 c 2.716,1.022 5.253,1.867 6.61,2.035 1.529,0 3.219,-0.338 4.577,-1.184 z"
             style="fill:#312782;fill-opacity:1;fill-rule:nonzero;stroke:none"
             id="path70"
             inkscape:connector-curvature="0" /></g><g
           id="g72"
           transform="translate(267.9268,464.7554)"><path
             d="M 0,0 -3.899,22.206 15.763,10.677 Z M 38.979,9.996 C 38.3,9.831 37.454,9.831 36.603,10.168 c -0.506,0.17 -1.697,0.682 -2.714,1.184 -0.847,0.514 -1.691,0.852 -2.703,1.531 l -36.269,21.01 c -0.679,0.342 -1.357,0.511 -1.69,0.342 0,0 -0.173,-0.683 -0.173,-1.7 -0.173,-0.845 -0.341,-1.521 -0.341,-2.203 -0.338,-1.015 -0.505,-1.859 -0.505,-2.877 -0.339,-0.682 -0.512,-1.527 -1.018,-2.542 0.334,0 0.845,0.17 1.018,0 0.167,-0.173 0.846,-0.676 1.352,-1.017 l 5.934,-34.228 c 0.34,-1.701 0.168,-3.561 0,-4.746 -0.346,-1.357 -1.356,-2.879 -2.882,-4.409 l 0.846,-1.527 12.716,8.476 -1.191,1.693 c -1.523,-1.017 -3.214,-1.863 -4.073,-1.863 -1.012,-0.168 -1.517,0.17 -1.857,0.846 -0.173,0.174 -0.511,0.844 -0.678,1.53 -0.167,0.673 -0.34,1.184 -0.34,1.184 L 0.506,-1.863 17.799,9.662 24.573,5.933 C 25.423,5.259 26.436,4.746 26.776,3.9 27.793,2.712 26.609,1.015 23.561,-1.188 l 1.012,-1.522 18.81,12.706 -0.844,1.529 C 41.181,10.85 39.996,10.168 38.979,9.996"
             style="fill:#312782;fill-opacity:1;fill-rule:nonzero;stroke:none"
             id="path74"
             inkscape:connector-curvature="0" /></g><g
           id="g76"
           transform="translate(540.7686,515.4248)"><path
             d="m 0,0 c 1.357,0 2.376,0.676 2.708,1.701 0.511,1.177 0,2.366 -1.515,3.216 -0.346,0.17 -1.193,0.17 -1.704,0.17 -0.332,0 -1.358,-0.17 -2.029,-0.508 l -12.37,-4.236 2.714,-1.357 z"
             style="fill:#312782;fill-opacity:1;fill-rule:nonzero;stroke:none"
             id="path78"
             inkscape:connector-curvature="0" /></g><g
           id="g80"
           transform="translate(197.769,277.832)"><path
             d="M 0,0 C 0.165,-3.046 0.165,-5.246 -0.167,-5.926 -0.679,-6.773 -2.37,-7.617 -4.578,-7.79 l -15.924,-0.852 -0.172,2.381 c -0.34,4.574 0,8.464 1.018,10.84 0.844,2.888 3.386,5.089 7.118,5.936 l -0.171,1.521 -20.848,-1.521 V 8.813 c 3.055,0 5.591,-0.846 7.12,-2.703 2.03,-2.202 3.387,-6.11 3.56,-11.524 l 0.506,-3.563 -18.132,-1.354 c -0.851,0 -1.698,0.172 -1.865,0.676 -0.17,0.167 -0.677,1.013 -0.677,1.865 l -0.172,1.864 c -0.167,5.081 0.172,9.834 1.357,13.393 1.191,4.741 3.899,8.467 7.626,11.012 l -0.514,1.186 -11.684,-5.592 2.875,-40.501 1.87,0.166 c -0.173,2.71 0,4.577 0.506,5.423 0.166,0.847 1.695,1.358 3.899,1.358 l 33.728,2.542 c 2.202,0 3.719,-0.339 4.232,-1.36 0.507,-0.85 0.678,-2.54 0.844,-5.081 l 2.037,0.166 -1.524,23.56 z"
             style="fill:#312782;fill-opacity:1;fill-rule:nonzero;stroke:none"
             id="path82"
             inkscape:connector-curvature="0" /></g><g
           id="g84"
           transform="translate(468.5752,532.0322)"><path
             d="M 0,0 C 1.186,-0.173 2.374,-0.675 2.879,-1.35 3.729,-1.692 4.071,-2.877 3.897,-3.726 3.729,-4.404 2.879,-5.763 1.357,-7.794 l -16.775,-23.891 -8.478,31.18 c 0,0.332 -0.166,1.188 -0.336,1.864 0,0.681 -0.34,1.357 -0.168,1.859 l 0.338,0.512 c 0.34,0.675 2.542,0.675 5.928,-0.17 l 0.34,1.863 -22.196,4.406 -0.515,-1.864 c 2.037,-0.339 3.389,-1.014 4.076,-1.862 1.01,-1.185 2.027,-3.561 2.872,-6.778 l 11.359,-41.862 1.011,-0.168 25.763,34.738 c 1.865,2.714 3.388,4.241 4.745,4.917 1.187,0.511 2.88,0.675 4.578,0.511 L 14.238,-0.675 0.339,2.04 Z"
             style="fill:#312782;fill-opacity:1;fill-rule:nonzero;stroke:none"
             id="path86"
             inkscape:connector-curvature="0" /></g><g
           id="g88"
           transform="translate(654.4775,268.8555)"><path
             d="m 0,0 c -1.358,-2.201 -4.059,-3.228 -7.617,-3.054 -2.884,0.174 -5.261,1.185 -6.782,2.89 -1.866,1.855 -2.708,4.737 -2.548,8.296 l 0.343,5.596 16.44,-1.191 h -0.168 c 1.351,0 2.364,-0.339 2.54,-0.499 C 2.376,11.866 2.376,10.68 2.376,8.643 2.032,4.745 1.189,1.691 0,0 m -18.805,9.322 c -0.172,-1.861 -0.679,-4.072 -1.19,-5.935 -0.503,-2.028 -1.526,-3.551 -2.708,-4.57 -0.851,-0.686 -2.54,-1.529 -3.727,-2.045 -1.19,-0.164 -2.716,-0.67 -4.577,-0.499 -1.697,0 -3.387,0.673 -4.745,1.187 -1.358,0.507 -2.548,1.186 -3.559,2.376 -0.679,0.843 -1.358,2.203 -1.697,3.727 -0.164,1.521 -0.164,3.558 -0.164,5.759 0.164,2.204 0.667,4.062 1.182,4.745 0.34,0.847 1.862,1.184 3.395,1.02 l 18.129,-1.191 z M 3.559,27.625 c 0,-2.373 -0.672,-4.071 -1.183,-4.923 -0.344,-0.499 -2.54,-0.671 -5.252,-0.499 l -12.034,0.674 -20.502,1.692 c -2.037,0.169 -3.734,0.683 -4.07,1.529 -0.168,0.51 -0.336,2.033 -0.168,4.404 l -2.038,0.173 -1.689,-24.233 c -0.347,-6.442 0.34,-11.523 2.205,-14.744 1.69,-3.221 4.577,-5.091 8.807,-5.59 3.048,-0.171 6.274,1.011 8.136,3.211 2.205,2.379 4.234,5.94 5.424,10.169 0.507,-3.558 1.698,-6.606 3.387,-8.81 1.689,-2.033 4.241,-3.052 7.121,-3.386 3.22,-0.337 5.928,1.185 8.297,4.406 2.208,3.045 3.729,8.138 4.073,15.076 l 1.351,20.682 z"
             style="fill:#312782;fill-opacity:1;fill-rule:nonzero;stroke:none"
             id="path90"
             inkscape:connector-curvature="0" /></g><g
           id="g92"
           transform="translate(221.3228,388.502)"><path
             d="m 0,0 c -0.679,-0.853 -1.19,-1.528 -1.862,-1.701 -0.341,0 -1.186,-0.169 -1.864,0.173 -0.679,0.34 -1.524,0.675 -2.37,1.014 l -31.865,15.422 c -1.183,0.68 -1.863,1.188 -1.863,1.356 -0.172,0.17 0,1.015 0.507,2.031 1.529,2.887 4.071,5.421 7.459,6.952 2.708,1.184 6.268,2.373 10.167,2.715 l 0.339,1.692 -13.894,3.218 -1.017,-2.033 c 0.172,-0.511 0.505,-1.185 0,-1.698 -0.175,-0.335 -0.513,-1.521 -1.184,-2.535 L -51.008,-1.701 c -0.846,-1.185 -1.531,-2.201 -1.698,-2.542 0,0 -0.331,-0.168 -0.677,-0.335 l -1.186,-2.203 11.359,-8.647 0.671,1.015 c -1.862,2.714 -3.725,6.104 -4.065,9.326 -0.844,3.899 -0.338,7.452 1.019,10.509 0.338,0.846 1.017,1.52 1.529,1.69 0.334,0 1.186,-0.17 2.204,-0.675 l 32.025,-15.59 c 2.202,-1.188 3.387,-2.376 3.048,-3.559 0,-0.846 -0.673,-2.716 -1.864,-5.254 L -6.946,-18.987 3.727,3.048 1.87,3.724 C 1.184,2.202 0.339,0.845 0,0"
             style="fill:#312782;fill-opacity:1;fill-rule:nonzero;stroke:none"
             id="path94"
             inkscape:connector-curvature="0" /></g><g
           id="g96"
           transform="translate(200.4829,330.7104)"><path
             d="m 0,0 c -0.679,-4.747 -3.393,-7.965 -8.138,-9.828 -4.237,-1.699 -9.828,-1.862 -16.095,-0.677 -5.763,0.846 -10.514,2.71 -14.073,5.422 -4.911,3.389 -6.776,7.797 -5.762,12.878 0.685,4.575 3.22,7.624 7.12,9.322 4.405,2.201 10.34,2.373 17.625,1.187 6.434,-1.187 11.698,-3.39 15.085,-6.438 C -0.512,8.639 0.845,4.744 0,0 m -17.459,28.302 c -7.115,1.188 -13.555,-0.343 -19.316,-4.918 -5.091,-3.894 -8.307,-9.315 -9.323,-15.419 -1.191,-6.608 0.167,-12.875 4.064,-18.304 3.728,-5.595 8.99,-8.984 15.758,-10.168 h 0.174 c 6.439,-1.187 12.881,0.169 18.303,4.404 5.25,3.9 8.644,9.492 9.828,15.761 1.186,6.274 -0.173,12.208 -3.725,17.963 -3.727,5.763 -9.323,9.492 -15.763,10.681"
             style="fill:#312782;fill-opacity:1;fill-rule:nonzero;stroke:none"
             id="path98"
             inkscape:connector-curvature="0" /></g><g
           id="g100"
           transform="translate(400.6177,502.0371)"><path
             d="m 0,0 c -2.369,-4.235 -6.101,-6.605 -10.844,-6.95 -4.406,-0.168 -8.644,1.87 -11.352,5.935 -2.543,3.901 -4.072,8.98 -4.24,15.421 -0.338,5.762 0.34,10.842 2.204,15.084 2.036,5.424 5.928,8.301 11.018,8.47 4.578,0.34 8.47,-1.526 11.012,-4.747 C 0.679,29.49 2.204,23.559 2.715,16.102 3.048,9.496 2.037,4.072 0,0 m 4.066,34.068 c -5.25,4.232 -11.179,6.267 -17.453,5.925 -6.608,-0.335 -12.369,-3.047 -16.947,-8.131 -4.577,-4.917 -6.608,-11.019 -6.268,-17.629 v -0.17 c 0.172,-6.607 3.047,-12.536 8.303,-16.941 5.084,-4.24 11.178,-6.273 17.627,-5.931 6.267,0.339 12.029,3.048 16.609,7.794 4.908,4.918 7.284,11.014 6.945,17.793 -0.511,7.12 -3.387,13.044 -8.816,17.29"
             style="fill:#312782;fill-opacity:1;fill-rule:nonzero;stroke:none"
             id="path102"
             inkscape:connector-curvature="0" /></g><g
           id="g104"
           transform="translate(224.9722,123.7549)"><path
             d="m 0,0 c 0.623,0.461 1.396,1.396 2.33,1.857 l 34.574,23.418 c 1.243,0.617 2.023,1.083 2.331,0.929 0.153,0 0.928,-0.774 1.542,-1.703 2.332,-3.105 3.258,-7.131 3.107,-11.636 C 43.421,9.455 42.493,5.114 40.323,0.919 l 1.39,-1.233 11.787,11.94 -1.703,2.636 c -0.628,0 -1.249,0.154 -1.704,0.621 -0.319,0.47 -0.934,1.705 -1.863,2.793 L 27.449,48.373 c -0.622,1.243 -1.244,2.64 -1.551,3.108 v 1.081 L 24.342,54.579 8.995,48.373 9.303,46.824 c 4.194,0.624 8.528,0.155 12.254,-1.081 4.341,-1.707 7.747,-4.034 9.919,-7.139 0.626,-1.235 1.087,-1.855 0.934,-2.631 -0.308,-0.469 -0.934,-1.087 -1.863,-1.703 L -4.34,10.852 C -6.665,9.146 -8.528,8.681 -9.609,9.615 c -0.928,0.462 -2.325,2.323 -4.495,5.112 L -15.814,13.483 0,-10.08 2.023,-8.99 C 0.936,-7.133 0,-5.585 -0.773,-4.655 -1.396,-3.727 -1.396,-2.485 -1.396,-1.858 -1.236,-1.396 -0.927,-0.462 0,0"
             style="fill:#312782;fill-opacity:1;fill-rule:nonzero;stroke:none"
             id="path106"
             inkscape:connector-curvature="0" /></g><g
           id="g108"
           transform="translate(602.8594,156.623)"><path
             d="M 0,0 -1.702,-0.928 C 1.09,-7.593 2.331,-12.714 2.331,-15.813 2.017,-19.064 0.155,-23.253 -2.79,-27.754 l -4.34,-6.511 c -0.462,-0.93 -1.236,-1.395 -1.858,-1.548 -0.469,0 -1.089,0.153 -2.018,0.926 l -18.61,12.403 2.791,4.032 c 2.476,3.881 5.429,6.673 8.374,7.909 3.566,1.552 7.445,1.087 11.321,-1.705 l 0.934,1.705 L -28.222,4.34 -29.15,2.636 c 2.952,-2.015 4.493,-4.959 4.348,-8.373 0,-3.559 -1.396,-7.59 -4.192,-11.472 l -2.48,-4.033 -19.54,13.181 6.98,10.079 c 2.015,3.258 4.806,5.587 7.753,6.823 2.79,1.236 7.599,2.171 13.954,2.792 v 1.709 l -14.891,3.099 -24.808,-36.904 1.861,-1.393 c 1.091,2.009 2.8,3.25 3.414,3.25 0.927,0 2.954,-0.927 5.737,-2.792 l 30.553,-20.621 c 2.479,-1.709 3.873,-3.252 4.18,-4.196 0.16,-0.612 -0.469,-2.315 -1.701,-4.179 l 1.861,-1.086 26.67,39.232 z"
             style="fill:#312782;fill-opacity:1;fill-rule:nonzero;stroke:none"
             id="path110"
             inkscape:connector-curvature="0" /></g><g
           id="g112"
           transform="translate(488.8896,45.4541)"><path
             d="M 0,0 C -0.774,0.306 -1.701,2.315 -2.479,5.268 L -12.4,41.55 c -0.621,2.792 -0.621,4.655 -0.161,5.736 0.467,0.929 2.484,1.858 5.898,2.792 l -0.31,2.331 -25.752,-6.984 0.471,-2.327 c 3.418,0.934 5.741,1.244 6.824,0.465 0.935,-0.465 1.866,-2.167 2.79,-5.427 l 9.619,-36.595 c 0.621,-2.632 0.621,-4.493 -0.468,-5.736 -0.468,-0.158 -2.478,-1.08 -5.43,-1.701 l 0.47,-2.328 25.894,6.828 -0.774,2.315 C 3.262,0 0.935,-0.16 0,0"
             style="fill:#312782;fill-opacity:1;fill-rule:nonzero;stroke:none"
             id="path114"
             inkscape:connector-curvature="0" /></g><g
           id="g116"
           transform="translate(555.2588,99.7129)"><path
             d="m 0,0 c 1.396,-5.422 0.774,-11.313 -1.552,-16.589 -2.014,-5.114 -5.735,-9.455 -10.383,-12.4 -4.969,-3.413 -10.238,-3.413 -15.822,-0.621 -4.341,2.482 -9.146,7.281 -13.804,14.109 -8.835,14.265 -7.907,24.815 3.097,32.257 3.889,2.473 8.69,3.559 13.969,3.096 4.802,-0.465 9.608,-2.008 14.41,-4.96 l 2.331,1.09 -10.387,15.807 -1.552,-0.93 c 0.158,-1.397 0.158,-2.476 0,-2.938 -0.155,-0.465 -0.931,-1.089 -1.866,-1.557 -0.148,-0.314 -3.875,-1.403 -10.229,-4.18 -2.787,-0.934 -6.204,-2.487 -10.238,-4.97 -6.665,-4.493 -10.699,-10.388 -12.403,-17.988 -2.011,-7.747 -0.615,-15.655 3.725,-22.333 4.341,-6.351 10.847,-10.692 18.916,-12.087 7.75,-1.088 15.039,0.156 21.243,4.34 2.791,1.552 5.115,3.414 6.979,5.275 2.014,1.705 4.032,3.719 5.897,6.046 0.467,0.622 0.921,1.549 1.388,2.017 0.622,1.087 1.396,1.862 1.556,1.862 1.237,0.614 3.258,0.462 6.197,-0.935 l 1.242,0.63 L 1.709,0.782 Z"
             style="fill:#312782;fill-opacity:1;fill-rule:nonzero;stroke:none"
             id="path118"
             inkscape:connector-curvature="0" /></g><g
           id="g120"
           transform="translate(439.1143,41.5713)"><path
             d="m 0,0 c -1.394,-1.869 -2.95,-3.41 -4.493,-4.341 -2.328,-1.395 -5.428,-2.33 -8.839,-2.792 -1.397,0 -3.566,-0.148 -6.359,-0.473 h -2.323 c -3.414,0 -5.741,0.782 -6.672,1.87 -0.468,0.929 -1.083,3.257 -1.083,6.827 l -0.78,34.886 c 0,3.562 0.468,5.736 1.248,6.51 0.615,0.462 2.945,0.935 6.665,0.935 v 2.315 l -26.668,-0.458 v -2.33 h 0.929 c 3.567,0 5.891,-0.766 6.351,-2.323 0.314,-0.621 0.467,-2.482 0.775,-5.114 v -1.553 l 0.475,-35.352 c 0.146,-3.726 -0.783,-5.74 -2.645,-6.213 -0.615,0 -2.478,-0.457 -4.956,-0.457 v -2.32 L 2.333,-9.46 6.514,6.823 4.648,7.289 C 3.256,4.345 1.396,1.857 0,0"
             style="fill:#312782;fill-opacity:1;fill-rule:nonzero;stroke:none"
             id="path122"
             inkscape:connector-curvature="0" /></g><g
           id="g124"
           transform="translate(282.5054,130.1055)"><path
             d="m 0,0 -1.243,-1.703 c 2.018,-1.234 3.106,-2.79 3.106,-3.568 0,-0.927 -0.936,-2.938 -2.798,-5.735 l -20.623,-30.548 c -1.548,-2.482 -3.252,-3.879 -4.033,-4.031 -0.775,-0.309 -2.318,0.473 -4.181,1.549 l -1.088,-1.858 39.229,-26.517 12.1,10.547 -0.935,1.551 c -6.664,-2.788 -11.627,-3.878 -14.886,-3.878 -3.252,0.152 -7.286,2.017 -11.941,4.955 l -6.356,4.501 c -0.93,0.468 -1.391,1.087 -1.705,1.713 0,0.464 0.314,1.239 0.93,2.173 l 12.401,18.607 4.193,-2.8 c 3.874,-2.478 6.665,-5.577 7.747,-8.525 1.555,-3.414 1.089,-7.282 -1.548,-11.168 l 1.548,-0.927 14.892,22.023 -1.549,0.927 c -2.016,-3.102 -5.123,-4.653 -8.528,-4.339 -3.419,0 -7.6,1.237 -11.473,4.027 l -3.886,2.631 13.028,19.387 10.078,-6.826 c 3.258,-2.01 5.59,-4.808 6.986,-7.747 1.081,-2.798 2.01,-7.598 2.783,-14.116 h 1.556 l 3.253,15.045 z"
             style="fill:#312782;fill-opacity:1;fill-rule:nonzero;stroke:none"
             id="path126"
             inkscape:connector-curvature="0" /></g><g
           id="g128"
           transform="translate(366.8589,75.5303)"><path
             d="m 0,0 c -2.331,-8.067 -8.068,-11.012 -17.21,-8.525 l -6.512,1.701 5.109,19.068 -0.307,-0.309 c 0.774,2.021 1.71,3.414 2.17,3.879 0.628,0.315 2.017,0.315 4.034,-0.465 4.341,-1.083 7.599,-2.949 9.918,-5.272 C 0,7.594 0.927,3.875 0,0 m -10.079,17.21 -25.122,6.664 -0.467,-2.323 c 3.258,-0.927 5.275,-1.854 6.05,-2.945 0.466,-0.934 0.466,-2.945 -0.468,-6.206 l -9.457,-34.881 c -0.621,-3.258 -1.863,-5.28 -2.791,-5.742 -0.935,-0.472 -3.106,-0.312 -6.672,0.619 l -0.467,-2.167 26.673,-7.132 0.467,2.166 c -3.413,0.93 -5.89,2.174 -6.819,2.796 -0.781,0.774 -0.781,2.784 0.149,5.271 l 4.652,17.676 11.014,-2.948 c 7.131,-1.862 12.87,-2.324 16.282,-1.088 3.412,1.088 6.05,3.566 6.819,7.755 1.709,5.584 0,10.386 -4.028,14.418 C 2.324,12.4 -3.26,15.2 -10.079,17.21"
             style="fill:#312782;fill-opacity:1;fill-rule:nonzero;stroke:none"
             id="path130"
             inkscape:connector-curvature="0" /></g><g
           id="g132"
           transform="translate(215.3882,194.2852)"><path
             d="m 0,0 c 0.067,0.174 0.127,0.353 0.189,0.53 0.554,1.526 0.948,3.107 1.162,4.734 0.022,0.03 0.046,0.061 0.052,0.103 0.137,0.995 0.2,1.972 0.2,2.922 -0.005,7.449 -3.87,13.403 -6.878,16.073 -0.038,0.034 -0.086,0.046 -0.133,0.056 -1.86,2.084 -3.141,2.732 -4.668,3.579 -0.011,0.072 -0.041,0.142 -0.107,0.184 -3.673,2.244 -8.437,3.354 -13.084,3.354 -3.285,0 -6.511,-0.556 -9.254,-1.669 -0.006,-0.004 -0.009,-0.012 -0.016,-0.013 -3.568,-1.268 -6.475,-2.791 -9.213,-5.75 l -0.032,-0.081 c -2.169,-2.047 -4.052,-4.781 -5.332,-7.853 -0.155,-0.36 -0.291,-0.729 -0.428,-1.099 -0.054,-0.152 -0.111,-0.306 -0.164,-0.461 -0.794,-2.307 -1.244,-4.741 -1.244,-7.25 0,-0.917 0.058,-1.845 0.176,-2.778 1.247,-9.902 8.944,-17.53 18.682,-19.789 0.011,-0.015 0.023,-0.034 0.033,-0.047 l 0.137,-0.096 c 1.936,-0.558 3.901,-0.81 5.914,-0.81 1.986,0 4.018,0.24 6.122,0.664 l 0.097,0.042 c 0.194,0.137 0.384,0.295 0.571,0.465 7.378,1.955 13.307,6.883 16.409,13.163 0.184,0.37 0.359,0.744 0.522,1.127 0.1,0.231 0.196,0.464 0.287,0.7"
             style="fill:#000000;fill-opacity:1;fill-rule:nonzero;stroke:none"
             id="path134"
             inkscape:connector-curvature="0" /></g><g
           id="g136"
           transform="translate(176.3691,197.9736)"><path
             d="m 0,0 c -2.121,1.467 -3.883,3.532 -5.131,6.238 0.407,1.776 0.94,3.515 1.579,5.192 0.449,1.154 0.948,2.277 1.478,3.394 0.105,0.214 0.211,0.424 0.318,0.634 0.038,0.017 0.076,0.028 0.114,0.045 0.649,0.277 1.291,0.53 1.93,0.758 1.38,0.486 2.799,0.877 4.241,1.138 0.052,0.009 0.105,0.013 0.157,0.021 0.628,0.11 1.261,0.194 1.897,0.252 0.305,-0.599 0.685,-1.229 1.111,-1.863 0.436,-0.659 0.899,-1.288 1.375,-1.894 0.529,-0.679 1.078,-1.341 1.614,-1.953 0.05,-0.062 0.101,-0.118 0.152,-0.18 -0.123,-0.217 -0.249,-0.446 -0.374,-0.675 -0.056,-0.102 -0.115,-0.206 -0.17,-0.312 C 8.982,8.372 7.672,5.492 7.3,2.277 4.824,1.527 2.321,0.713 0,0"
             style="fill:#ffffff;fill-opacity:1;fill-rule:nonzero;stroke:none"
             id="path138"
             inkscape:connector-curvature="0" /></g><g
           id="g140"
           transform="translate(215.0444,203.2676)"><path
             d="m 0,0 c -0.044,0.06 -0.093,0.118 -0.138,0.174 -0.146,0.181 -0.308,0.36 -0.484,0.538 -0.042,0.04 -0.07,0.084 -0.113,0.124 -0.061,0.454 -0.134,0.893 -0.216,1.319 -0.454,2.409 -1.172,4.287 -2.219,6.034 -0.311,0.531 -0.645,1.035 -1.004,1.519 0.011,0.09 0.007,0.19 0.017,0.282 0.057,0.492 0.095,0.987 0.095,1.484 0,0.808 -0.09,1.602 -0.265,2.345 2.96,-3.276 4.974,-7.363 5.553,-11.954 0.114,-0.907 0.17,-1.809 0.17,-2.704 0,-0.545 -0.04,-1.087 -0.081,-1.625 C 1.003,-1.71 0.706,-1.079 0.337,-0.497 0.233,-0.327 0.121,-0.162 0,0"
             style="fill:#ffffff;fill-opacity:1;fill-rule:nonzero;stroke:none"
             id="path142"
             inkscape:connector-curvature="0" /></g><g
           id="g144"
           transform="translate(201.9668,214.7988)"><path
             d="m 0,0 c -0.122,-0.19 -0.245,-0.376 -0.368,-0.561 -0.712,-1.064 -1.493,-2.127 -2.322,-3.135 -0.317,-0.383 -0.647,-0.769 -0.998,-1.158 -0.275,0.037 -0.558,0.051 -0.836,0.083 -1.657,0.194 -3.304,0.312 -4.975,0.312 -1.287,0 -2.596,-0.076 -3.928,-0.202 -0.305,-0.03 -0.611,-0.044 -0.916,-0.08 -0.062,0.07 -0.123,0.14 -0.186,0.212 -0.557,0.65 -1.117,1.313 -1.655,2.008 -0.45,0.582 -0.884,1.176 -1.276,1.762 -0.4,0.603 -0.777,1.226 -1.119,1.88 0.018,0.034 0.04,0.068 0.059,0.104 0.499,0.907 1.052,1.75 1.667,2.513 0.057,0.071 0.111,0.147 0.168,0.213 0.096,0.115 0.199,0.22 0.296,0.33 0.168,0.186 0.335,0.372 0.507,0.542 0.054,0.055 0.113,0.105 0.168,0.158 0.202,0.195 0.406,0.381 0.614,0.555 0.138,0.116 0.283,0.224 0.425,0.33 0.116,0.088 0.23,0.18 0.346,0.26 0.571,0.395 1.18,0.735 1.837,1.011 0.061,0.007 0.122,0.014 0.183,0.022 0.855,0.107 1.674,0.151 2.47,0.151 1.707,0 3.318,-0.197 4.985,-0.407 0.212,-0.19 0.423,-0.392 0.628,-0.609 C -4.219,6.286 -4.21,6.278 -4.203,6.271 -3.526,5.558 -2.896,4.729 -2.294,3.833 -1.527,2.685 -0.792,1.397 0,0"
             style="fill:#ffffff;fill-opacity:1;fill-rule:nonzero;stroke:none"
             id="path146"
             inkscape:connector-curvature="0" /></g><g
           id="g148"
           transform="translate(201.6675,222.5703)"><path
             d="m 0,0 c -1.376,-0.002 -2.81,-0.044 -3.84,-0.227 -0.082,-0.013 -0.167,-0.027 -0.243,-0.042 -0.051,-0.011 -0.094,-0.023 -0.142,-0.034 -0.079,-0.019 -0.163,-0.039 -0.234,-0.059 -1.612,0.226 -3.31,0.414 -5.045,0.414 -0.917,0 -1.844,-0.054 -2.772,-0.182 -0.005,-0.002 -0.01,-0.002 -0.015,-0.002 h -10e-4 c -0.011,0 -0.023,-0.004 -0.036,-0.006 -0.796,0.292 -1.717,0.594 -2.663,0.872 -0.833,0.248 -1.673,0.469 -2.504,0.649 1.479,0.465 3.024,0.808 4.624,1.011 1.121,0.141 2.235,0.213 3.334,0.213 C -5.486,2.605 -1.632,1.653 1.776,-0.022 1.234,-0.01 0.625,0 0,0"
             style="fill:#ffffff;fill-opacity:1;fill-rule:nonzero;stroke:none"
             id="path150"
             inkscape:connector-curvature="0" /></g><g
           id="g152"
           transform="translate(201.3745,200.251)"><path
             d="m 0,0 c -0.69,3.242 -1.543,6.521 -2.697,9.372 0.372,0.411 0.737,0.839 1.092,1.274 0.738,0.904 1.405,1.804 2.052,2.757 0.007,0.01 0.014,0.02 0.019,0.029 0.01,0.013 0.019,0.029 0.029,0.04 0.182,0.271 0.359,0.538 0.532,0.805 C 2.347,14.228 3.565,14.18 4.79,13.972 4.875,13.956 4.961,13.943 5.046,13.928 5.25,13.89 5.457,13.84 5.663,13.792 5.804,13.758 5.946,13.724 6.086,13.686 6.247,13.64 6.412,13.587 6.576,13.533 6.746,13.479 6.916,13.426 7.084,13.365 7.242,13.306 7.404,13.235 7.563,13.167 7.73,13.099 7.896,13.033 8.065,12.955 8.392,12.803 8.723,12.635 9.062,12.442 9.44,11.924 9.785,11.408 10.099,10.878 11.033,9.271 11.738,7.434 12.171,5.313 12.268,4.825 12.354,4.311 12.429,3.771 12.206,3.294 11.969,2.816 11.718,2.346 11.666,2.246 11.616,2.147 11.563,2.052 11.455,1.857 11.338,1.663 11.223,1.469 11.173,1.389 11.125,1.303 11.075,1.223 10.936,0.997 10.787,0.778 10.635,0.557 10.606,0.517 10.578,0.475 10.551,0.435 10.375,0.188 10.189,-0.05 9.993,-0.288 9.981,-0.302 9.971,-0.316 9.958,-0.332 9.76,-0.568 9.547,-0.801 9.324,-1.03 9.307,-1.049 9.292,-1.064 9.275,-1.081 9.071,-1.287 8.851,-1.487 8.625,-1.683 8.577,-1.725 8.534,-1.767 8.485,-1.807 8.291,-1.969 8.079,-2.125 7.867,-2.281 7.789,-2.335 7.716,-2.396 7.635,-2.451 5.468,-1.961 3.26,-1.255 1.134,-0.446 0.755,-0.302 0.378,-0.152 0,0"
             style="fill:#ffffff;fill-opacity:1;fill-rule:nonzero;stroke:none"
             id="path154"
             inkscape:connector-curvature="0" /></g><g
           id="g156"
           transform="translate(173.5933,217.4668)"><path
             d="m 0,0 c 0.042,-0.971 0.168,-1.993 0.371,-2.972 0.054,-0.288 0.11,-0.57 0.174,-0.844 -0.094,-0.193 -0.188,-0.385 -0.28,-0.58 -0.554,-1.124 -1.061,-2.285 -1.518,-3.483 -0.658,-1.687 -1.214,-3.44 -1.616,-5.318 -0.981,-1.485 -2.497,-2.906 -3.54,-4.569 -0.102,0.783 -0.151,1.569 -0.151,2.352 -0.001,2.836 0.646,5.655 1.725,8.233 C -3.696,-4.529 -2.05,-2.1 0,0"
             style="fill:#ffffff;fill-opacity:1;fill-rule:nonzero;stroke:none"
             id="path158"
             inkscape:connector-curvature="0" /></g><g
           id="g160"
           transform="translate(175.4165,188.8691)"><path
             d="m 0,0 c -0.05,0.515 -0.076,1.021 -0.076,1.518 0,0.633 0.037,1.254 0.102,1.865 0.008,0.072 0.022,0.143 0.031,0.214 0.202,1.735 0.617,3.392 1.055,5.019 2.44,0.733 4.869,1.531 7.308,2.272 0.919,-0.923 1.961,-1.755 3.069,-2.518 0.014,-0.009 0.028,-0.018 0.043,-0.028 0.3,-0.206 0.602,-0.408 0.91,-0.607 1.495,-0.961 3.001,-1.766 4.316,-2.451 0.095,-0.692 0.139,-1.359 0.139,-2.015 V 3.208 C 16.888,2.472 16.83,1.709 16.727,0.938 16.611,0.118 16.444,-0.706 16.245,-1.561 16.188,-1.785 16.129,-2.007 16.066,-2.228 13.51,-3.44 11.196,-4.772 8.163,-5.472 5.125,-4.207 2.159,-2.487 0,0"
             style="fill:#ffffff;fill-opacity:1;fill-rule:nonzero;stroke:none"
             id="path162"
             inkscape:connector-curvature="0" /></g><g
           id="g164"
           transform="translate(200.8291,183.7197)"><path
             d="m 0,0 c -3.361,0.008 -6.194,1.117 -8.816,2.858 0.052,0.21 0.102,0.422 0.151,0.63 0.215,0.862 0.382,1.738 0.495,2.603 0.103,0.748 0.162,1.496 0.166,2.261 10e-4,0.074 0.002,0.144 0.002,0.218 0,0.66 -0.04,1.299 -0.122,1.904 0.572,0.278 1.136,0.591 1.701,0.904 0.152,0.082 0.307,0.158 0.459,0.244 0.171,0.099 0.336,0.206 0.506,0.305 1.837,1.076 3.611,2.307 5.287,3.69 0.177,0.144 0.367,0.28 0.541,0.426 0.331,-0.132 0.665,-0.262 1,-0.39 C 3.517,14.822 5.7,14.109 7.991,13.594 8.017,13.291 8.019,12.977 8.034,12.667 8.057,12.225 8.092,11.786 8.092,11.332 8.092,10.646 8.054,9.947 7.999,9.254 7.892,7.954 7.69,6.645 7.361,5.332 5.474,2.979 3.298,1.103 0,0"
             style="fill:#ffffff;fill-opacity:1;fill-rule:nonzero;stroke:none"
             id="path166"
             inkscape:connector-curvature="0" /></g><g
           id="g168"
           transform="translate(170.3203,190.0859)"><path
             d="M 0,0 C 1.483,-0.851 3.284,-1.11 4.696,-1.533 6.921,-4.101 9.939,-5.854 13.012,-7.137 12.977,-7.205 12.974,-7.28 13.002,-7.353 13.351,-8.171 14,-9.452 14.577,-10.396 8.443,-8.842 3.208,-5.093 0,0"
             style="fill:#ffffff;fill-opacity:1;fill-rule:nonzero;stroke:none"
             id="path170"
             inkscape:connector-curvature="0" /></g><g
           id="g172"
           transform="translate(198.8628,180.0078)"><path
             d="M 0,0 C 0.879,0.992 1.64,2.185 2.202,3.02 2.25,3.09 2.253,3.182 2.22,3.262 5.551,4.395 7.793,6.324 9.689,8.68 10.993,8.846 12.233,8.995 13.302,9.43 10.18,5.062 5.544,1.659 0,0"
             style="fill:#ffffff;fill-opacity:1;fill-rule:nonzero;stroke:none"
             id="path174"
             inkscape:connector-curvature="0" /></g><g
           id="g176"
           transform="translate(644.8994,194.293)"><path
             d="m 0,0 c 0.068,0.176 0.126,0.353 0.19,0.53 0.554,1.526 0.947,3.109 1.161,4.734 0.022,0.03 0.045,0.062 0.052,0.102 0.134,0.996 0.199,1.973 0.199,2.922 -0.003,7.449 -3.868,13.404 -6.877,16.076 -0.038,0.032 -0.084,0.047 -0.133,0.053 -1.859,2.085 -3.14,2.735 -4.669,3.58 -0.008,0.072 -0.038,0.143 -0.108,0.183 -3.672,2.245 -8.437,3.357 -13.083,3.357 -3.284,0 -6.51,-0.558 -9.253,-1.671 -0.007,-0.004 -0.007,-0.01 -0.015,-0.013 -3.57,-1.267 -6.477,-2.791 -9.214,-5.75 l -0.032,-0.081 c -2.17,-2.047 -4.055,-4.779 -5.332,-7.853 -0.155,-0.36 -0.29,-0.729 -0.428,-1.099 -0.053,-0.152 -0.11,-0.304 -0.164,-0.462 -0.793,-2.307 -1.243,-4.741 -1.243,-7.247 0,-0.919 0.057,-1.845 0.176,-2.78 1.247,-9.902 8.944,-17.528 18.682,-19.787 0.011,-0.017 0.023,-0.032 0.034,-0.05 l 0.133,-0.095 c 1.939,-0.558 3.903,-0.81 5.916,-0.81 1.984,0 4.021,0.244 6.122,0.663 l 0.096,0.042 c 0.194,0.138 0.386,0.298 0.572,0.468 7.377,1.953 13.308,6.881 16.409,13.161 0.183,0.37 0.359,0.744 0.523,1.129 C -0.187,-0.47 -0.092,-0.236 0,0"
             style="fill:#000000;fill-opacity:1;fill-rule:nonzero;stroke:none"
             id="path178"
             inkscape:connector-curvature="0" /></g><g
           id="g180"
           transform="translate(605.8809,197.9814)"><path
             d="m 0,0 c -2.123,1.469 -3.883,3.534 -5.132,6.24 0.408,1.774 0.942,3.513 1.579,5.192 0.449,1.151 0.948,2.276 1.48,3.394 0.103,0.214 0.21,0.424 0.316,0.631 0.038,0.018 0.076,0.029 0.114,0.048 0.649,0.274 1.29,0.528 1.931,0.758 1.381,0.486 2.8,0.875 4.241,1.137 0.05,0.008 0.107,0.012 0.157,0.02 0.629,0.11 1.262,0.194 1.895,0.254 0.306,-0.601 0.688,-1.229 1.114,-1.863 0.435,-0.661 0.897,-1.29 1.373,-1.897 0.527,-0.679 1.08,-1.338 1.614,-1.952 0.049,-0.06 0.103,-0.118 0.153,-0.178 -0.122,-0.22 -0.248,-0.448 -0.374,-0.677 C 10.403,11.004 10.347,10.901 10.289,10.796 8.984,8.372 7.673,5.492 7.299,2.277 4.823,1.529 2.321,0.713 0,0"
             style="fill:#ffffff;fill-opacity:1;fill-rule:nonzero;stroke:none"
             id="path182"
             inkscape:connector-curvature="0" /></g><g
           id="g184"
           transform="translate(644.5557,203.2793)"><path
             d="m 0,0 c -0.045,0.056 -0.091,0.114 -0.137,0.172 -0.149,0.181 -0.309,0.36 -0.484,0.536 -0.042,0.04 -0.072,0.084 -0.114,0.127 -0.062,0.45 -0.134,0.89 -0.218,1.318 -0.45,2.409 -1.171,4.285 -2.216,6.033 -0.313,0.53 -0.648,1.036 -1.004,1.518 0.012,0.09 0.008,0.191 0.016,0.282 0.057,0.492 0.095,0.988 0.095,1.484 0,0.808 -0.091,1.605 -0.267,2.345 C -1.365,10.539 0.648,6.452 1.225,1.861 1.34,0.956 1.396,0.054 1.396,-0.843 1.396,-1.389 1.354,-1.928 1.316,-2.468 1.004,-1.713 0.706,-1.083 0.336,-0.5 0.233,-0.332 0.122,-0.164 0,0"
             style="fill:#ffffff;fill-opacity:1;fill-rule:nonzero;stroke:none"
             id="path186"
             inkscape:connector-curvature="0" /></g><g
           id="g188"
           transform="translate(631.4766,214.8066)"><path
             d="m 0,0 c -0.122,-0.189 -0.244,-0.374 -0.366,-0.562 -0.713,-1.063 -1.495,-2.124 -2.322,-3.132 -0.318,-0.384 -0.649,-0.769 -0.997,-1.159 -0.274,0.036 -0.56,0.05 -0.838,0.082 -1.656,0.194 -3.304,0.316 -4.974,0.316 -1.286,0 -2.598,-0.08 -3.929,-0.206 -0.305,-0.027 -0.61,-0.044 -0.916,-0.078 -0.06,0.07 -0.122,0.138 -0.186,0.211 -0.558,0.648 -1.115,1.316 -1.656,2.007 -0.45,0.584 -0.881,1.176 -1.274,1.761 -0.4,0.604 -0.778,1.227 -1.121,1.881 0.018,0.036 0.042,0.068 0.06,0.107 0.5,0.904 1.053,1.747 1.667,2.511 0.058,0.072 0.111,0.146 0.168,0.214 0.096,0.112 0.199,0.22 0.298,0.328 0.168,0.185 0.331,0.372 0.507,0.544 0.054,0.053 0.11,0.103 0.168,0.156 0.198,0.195 0.404,0.383 0.614,0.555 0.137,0.116 0.283,0.224 0.423,0.33 0.115,0.088 0.23,0.18 0.348,0.263 0.568,0.392 1.179,0.732 1.835,1.007 0.06,0.008 0.122,0.019 0.182,0.025 0.859,0.105 1.675,0.151 2.472,0.151 1.709,0 3.318,-0.199 4.982,-0.407 C -4.638,6.713 -4.432,6.511 -4.226,6.297 -4.219,6.286 -4.207,6.278 -4.199,6.271 -3.524,5.559 -2.895,4.729 -2.292,3.833 -1.525,2.685 -0.789,1.399 0,0"
             style="fill:#ffffff;fill-opacity:1;fill-rule:nonzero;stroke:none"
             id="path190"
             inkscape:connector-curvature="0" /></g><g
           id="g192"
           transform="translate(631.1797,222.5781)"><path
             d="m 0,0 c -1.377,-0.002 -2.812,-0.044 -3.842,-0.226 -0.084,-0.012 -0.167,-0.028 -0.244,-0.044 -0.049,-0.01 -0.091,-0.022 -0.141,-0.034 -0.076,-0.018 -0.16,-0.036 -0.232,-0.058 -1.614,0.226 -3.312,0.414 -5.047,0.414 -0.915,0 -1.842,-0.054 -2.772,-0.18 -0.004,0 -0.008,0 -0.012,-0.004 h -0.004 c -0.012,0 -0.022,-0.002 -0.034,-0.004 -0.797,0.29 -1.721,0.594 -2.663,0.87 -0.835,0.248 -1.674,0.469 -2.506,0.649 1.48,0.465 3.025,0.81 4.623,1.011 1.122,0.142 2.235,0.213 3.338,0.213 4.047,0 7.903,-0.954 11.309,-2.628 C 1.231,-0.01 0.625,0 0,0"
             style="fill:#ffffff;fill-opacity:1;fill-rule:nonzero;stroke:none"
             id="path194"
             inkscape:connector-curvature="0" /></g><g
           id="g196"
           transform="translate(630.8857,200.2588)"><path
             d="m 0,0 c -0.69,3.242 -1.545,6.521 -2.697,9.371 0.374,0.412 0.736,0.84 1.091,1.275 0.74,0.904 1.408,1.805 2.052,2.757 0.008,0.012 0.015,0.019 0.023,0.031 0.008,0.013 0.015,0.026 0.027,0.04 0.179,0.268 0.358,0.536 0.53,0.802 1.32,-0.048 2.54,-0.096 3.765,-0.302 0.084,-0.018 0.171,-0.029 0.255,-0.044 0.202,-0.04 0.408,-0.088 0.614,-0.138 0.142,-0.034 0.286,-0.068 0.424,-0.106 0.164,-0.044 0.328,-0.098 0.492,-0.153 0.171,-0.054 0.339,-0.107 0.507,-0.168 0.16,-0.059 0.32,-0.13 0.48,-0.194 0.168,-0.071 0.333,-0.136 0.504,-0.214 0.325,-0.152 0.657,-0.322 0.996,-0.515 0.377,-0.519 0.72,-1.034 1.038,-1.562 0.934,-1.608 1.635,-3.446 2.07,-5.568 0.096,-0.487 0.183,-1 0.26,-1.54 C 12.206,3.293 11.969,2.818 11.718,2.346 11.664,2.248 11.614,2.147 11.561,2.054 11.454,1.857 11.34,1.663 11.222,1.468 11.172,1.388 11.126,1.304 11.077,1.224 10.936,0.999 10.787,0.778 10.634,0.557 10.607,0.519 10.581,0.475 10.551,0.435 10.375,0.19 10.188,-0.05 9.993,-0.286 9.981,-0.302 9.971,-0.317 9.959,-0.328 9.761,-0.568 9.547,-0.802 9.326,-1.028 9.307,-1.045 9.291,-1.064 9.276,-1.082 9.07,-1.286 8.85,-1.486 8.624,-1.683 8.578,-1.725 8.532,-1.767 8.483,-1.807 8.292,-1.969 8.078,-2.125 7.865,-2.277 7.789,-2.335 7.716,-2.396 7.636,-2.451 5.47,-1.961 3.261,-1.251 1.133,-0.446 0.755,-0.302 0.378,-0.153 0,0"
             style="fill:#ffffff;fill-opacity:1;fill-rule:nonzero;stroke:none"
             id="path198"
             inkscape:connector-curvature="0" /></g><g
           id="g200"
           transform="translate(603.1055,217.4766)"><path
             d="m 0,0 c 0.04,-0.973 0.168,-1.995 0.37,-2.974 0.054,-0.288 0.111,-0.57 0.174,-0.84 -0.094,-0.195 -0.189,-0.389 -0.28,-0.584 -0.553,-1.122 -1.061,-2.285 -1.519,-3.481 -0.657,-1.689 -1.213,-3.442 -1.615,-5.32 -0.983,-1.485 -2.496,-2.904 -3.541,-4.565 -0.102,0.783 -0.15,1.565 -0.15,2.35 0,2.834 0.645,5.653 1.725,8.233 C -3.695,-4.531 -2.052,-2.102 0,0"
             style="fill:#ffffff;fill-opacity:1;fill-rule:nonzero;stroke:none"
             id="path202"
             inkscape:connector-curvature="0" /></g><g
           id="g204"
           transform="translate(604.9268,188.877)"><path
             d="m 0,0 c -0.047,0.515 -0.074,1.021 -0.074,1.518 0,0.633 0.036,1.254 0.103,1.865 0.008,0.072 0.019,0.144 0.029,0.214 0.204,1.735 0.616,3.394 1.054,5.019 2.442,0.733 4.871,1.533 7.309,2.272 0.919,-0.923 1.96,-1.755 3.07,-2.516 0.012,-0.012 0.027,-0.018 0.042,-0.03 0.297,-0.206 0.603,-0.408 0.911,-0.605 1.493,-0.962 2.998,-1.768 4.315,-2.451 0.095,-0.692 0.14,-1.359 0.14,-2.017 V 3.207 C 16.889,2.472 16.831,1.712 16.729,0.939 16.614,0.122 16.446,-0.706 16.248,-1.561 16.19,-1.783 16.129,-2.007 16.068,-2.228 13.513,-3.441 11.197,-4.771 8.165,-5.471 5.125,-4.208 2.159,-2.487 0,0"
             style="fill:#ffffff;fill-opacity:1;fill-rule:nonzero;stroke:none"
             id="path206"
             inkscape:connector-curvature="0" /></g><g
           id="g208"
           transform="translate(630.3398,183.7275)"><path
             d="m 0,0 c -3.36,0.011 -6.194,1.117 -8.814,2.858 0.049,0.212 0.102,0.422 0.148,0.632 0.218,0.86 0.386,1.736 0.496,2.601 0.104,0.748 0.164,1.496 0.168,2.262 V 8.57 c 0,0.66 -0.038,1.301 -0.118,1.906 0.568,0.276 1.133,0.589 1.697,0.902 0.152,0.084 0.309,0.158 0.457,0.244 0.172,0.099 0.34,0.206 0.508,0.309 1.839,1.072 3.612,2.303 5.286,3.688 0.18,0.144 0.366,0.278 0.542,0.426 C 0.702,15.913 1.034,15.783 1.373,15.653 3.518,14.824 5.699,14.108 7.991,13.596 8.018,13.291 8.018,12.978 8.033,12.669 8.06,12.225 8.094,11.786 8.094,11.334 8.094,10.646 8.056,9.949 7.999,9.253 7.892,7.956 7.689,6.645 7.362,5.332 5.474,2.98 3.3,1.102 0,0"
             style="fill:#ffffff;fill-opacity:1;fill-rule:nonzero;stroke:none"
             id="path210"
             inkscape:connector-curvature="0" /></g><g
           id="g212"
           transform="translate(599.8311,190.0937)"><path
             d="m 0,0 c 1.484,-0.851 3.284,-1.106 4.697,-1.532 2.224,-2.569 5.243,-4.322 8.316,-5.605 -0.034,-0.065 -0.038,-0.143 -0.012,-0.214 0.352,-0.82 1,-2.097 1.575,-3.044 C 8.443,-8.84 3.21,-5.091 0,0"
             style="fill:#ffffff;fill-opacity:1;fill-rule:nonzero;stroke:none"
             id="path214"
             inkscape:connector-curvature="0" /></g><g
           id="g216"
           transform="translate(628.3721,180.0156)"><path
             d="m 0,0 c 0.881,0.992 1.644,2.186 2.204,3.021 0.046,0.073 0.05,0.161 0.016,0.241 3.334,1.133 5.576,3.064 7.472,5.42 1.305,0.166 2.544,0.312 3.613,0.747 C 10.181,5.063 5.546,1.661 0,0"
             style="fill:#ffffff;fill-opacity:1;fill-rule:nonzero;stroke:none"
             id="path218"
             inkscape:connector-curvature="0" /></g></g></g></g></svg>