<svg xmlns="http://www.w3.org/2000/svg" viewBox="0 0 68.84 95.83"><defs><style>.cls-1{fill:#fff;}.cls-2{fill:#1a171c;}.cls-3{fill:#ffed00;}.cls-4{fill:#e0001a;}.cls-5{fill:#009c30;}.cls-6{fill:#6bb024;}.cls-7{fill:#005ea6;}</style></defs><g id="Vrstva_2" data-name="Vrstva 2"><g id="Vrstva_1-2" data-name="Vrstva 1"><path class="cls-1" d="M34.4,0A78.78,78.78,0,0,1,58.6,3.56l1.47.49V7.54a11.85,11.85,0,0,0,7.44,11l1.33.55V53.8c0,13.71-6.26,24.88-17,33.05a58.07,58.07,0,0,1-11.57,6.78,44.1,44.1,0,0,1-5.34,2l-.6.17-.59-.17a42.9,42.9,0,0,1-5.3-2,57.44,57.44,0,0,1-11.48-6.79C6.19,78.66,0,67.47,0,53.8V19.15l1.3-.56a11.88,11.88,0,0,0,7.26-11V4.1L10,3.62A78.56,78.56,0,0,1,34.4,0"/><path class="cls-2" d="M34.4,2.15A77,77,0,0,1,57.93,5.6V7.51a14,14,0,0,0,8.76,13.06V53.8c0,30.51-32.39,39.79-32.39,39.79S2.15,84.31,2.15,53.8V20.57a14,14,0,0,0,8.56-13V5.66A76.57,76.57,0,0,1,34.4,2.15"/><path class="cls-3" d="M65.62,36v-.47a51.94,51.94,0,0,0-25.94,6.84l-.31.19q1.05,1.21,2,2.52A37.66,37.66,0,0,1,48.13,61.2,28.52,28.52,0,0,0,63.94,45.1,26.67,26.67,0,0,0,65.62,36"/><path class="cls-4" d="M34.46,92.42l.91-.32c1.22-.43,2.43-.92,3.62-1.45A55.55,55.55,0,0,0,49.9,84.24c10-7.56,15.72-17.77,15.72-30.44V43.45c-.2.68-.42,1.36-.67,2a27.8,27.8,0,0,1-5,8.49,31.4,31.4,0,0,1-11.63,8.34A33.06,33.06,0,0,1,48.54,66,31.65,31.65,0,0,1,46.8,76.78a30.24,30.24,0,0,1-8.37,12.6,32.36,32.36,0,0,1-4,3"/><path class="cls-1" d="M29.24,64h0a11.53,11.53,0,0,1,1.33.12,38.28,38.28,0,0,0,16.52-2.48,37.27,37.27,0,0,0-8.67-18.51A47.42,47.42,0,0,0,21.9,60.19a43.59,43.59,0,0,0-4,9.94,12.9,12.9,0,0,1,11-6.15h.38"/><path class="cls-5" d="M27.72,89.75c.66.32,1.33.63,2,.93,1.09.49,2.21.94,3.33,1.35A29.4,29.4,0,0,0,45.79,76.42a30.79,30.79,0,0,0,1.46-13.7,37.46,37.46,0,0,1-5.71,1.69,40.46,40.46,0,0,1-7.1.83A12.92,12.92,0,0,1,28.86,89.8c-.38,0-.76,0-1.14,0"/><path class="cls-6" d="M16.42,82.28c.41.36.83.71,1.26,1.06a12.52,12.52,0,0,1-1.25-3c0,.26,0,.53,0,.79v1.14Z"/><path class="cls-7" d="M38.51,25.76A66.81,66.81,0,0,1,46.25,23V15.67c-2.56-.37-5.15-.61-7.74-.73ZM20.87,37.09a64.11,64.11,0,0,1,7.74-6V15c-2.57.16-5.16.45-7.74.86ZM3.23,21.26V53.8a38.9,38.9,0,0,0,1,8.69,57.14,57.14,0,0,1,4.44-10.1c.73-1.31,1.52-2.59,2.34-3.84V18.21a56.58,56.58,0,0,0-7.74,3.05m52.92-.42a70.27,70.27,0,0,1,7.11-.6,67.94,67.94,0,0,0-7.11-2.48Z"/><path class="cls-4" d="M29.69,30.41c.71-.45,1.44-.88,2.17-1.3a61.17,61.17,0,0,1,5.58-2.87V14.9c-1,0-2-.05-3-.05-1.56,0-3.14,0-4.72.13ZM12.05,47a60.85,60.85,0,0,1,7.75-8.9v-22a67.56,67.56,0,0,0-7.75,1.8ZM47.33,22.66A66,66,0,0,1,55.08,21V17.46a75.64,75.64,0,0,0-7.75-1.63Z"/><path class="cls-1" d="M11.79,6.44V7.56a15,15,0,0,1-4.6,10.93,77.69,77.69,0,0,1,27.22-4.72,77.93,77.93,0,0,1,27.07,4.67A14.9,14.9,0,0,1,56.85,7.5V6.39A76.22,76.22,0,0,0,34.41,3.23,76.33,76.33,0,0,0,11.79,6.44"/><path class="cls-1" d="M65.62,21.27C36.51,21.27,12,39.57,4.7,64.46A37.23,37.23,0,0,0,15.34,81.31v-.17c0-25.78,22.51-46.69,50.28-46.69Z"/><path class="cls-1" d="M30.82,65.22l-2,2,2.06,3,4.28.6,2.3-2.06a12.09,12.09,0,0,0-6.66-3.56M36,71.54l.2,4.57,2.53,2.45,1.88-.34a11.46,11.46,0,0,0-2.44-8.62ZM29.89,82.2l1.79-3.86L35.56,77l2.2,2.16-1.69,4L32,84.56Zm2.3,3.48,3.88-1.4,1,1.1a11.13,11.13,0,0,1-6.79,3.26l-.48-.82Zm-3.2,3-.28-.48L24,86.72l-1.4.22A12.23,12.23,0,0,0,29,88.72M24.51,76.66l-1.35,3.18,2,2.79,3.73-.9,1.69-3.62-2.49-2.53ZM21.36,86h0A11.41,11.41,0,0,1,18,81.6L18.83,80l3.58.6,1.91,2.78-.82,2.35Zm-3.83-5.71.57-1-.29-3.94-.64-.29A12.29,12.29,0,0,0,17,76.89a13.92,13.92,0,0,0,.5,3.42M23.1,69.17l-1.91-1.29A11.8,11.8,0,0,0,17.39,74h0l1,.41,2.83-1.53Zm-.75,3.93,1.75-4L28,67.84l2,2.9-2.2,3.88-3.43,1Z"/><path class="cls-2" d="M48,11.45,45,5l-1.42-.21L42.3,13l1.4.22.89-5.84,3,6.42L49,14l1.24-8.21-1.4-.21ZM41.72,4.66l-.1,1.41-2.86-.2-.13,1.78,2.46.18L41,9.22,38.53,9l-.16,2.28,2.86.2-.1,1.41-4.28-.3.59-8.28ZM35.86,5.77l-3.61,5.47h3.61v1.42H30.63V11.24l3.62-5.47H30.63V4.35h5.23Zm-8.92,5.75,2.49-.22.13,1.42-3.91.34-.73-8.28,1.41-.12ZM22.43,7.39a.94.94,0,0,0-1.25-.68l-1.12.22.34,1.78,1.13-.22c.36-.08,1.06-.28.9-1.1m-1.75,2.69.71,3.63L20,14,18.4,5.83l1.38-.27c1.3-.25,3.59-.7,4,1.56.49,2.45-1.46,2.63-3.13,3M46,5.71l-.58-1.25,1,.14.48,1.05.77-.86,1,.16-.92,1Z"/><polygon class="cls-2" points="19.23 43.14 22.72 49.7 15.64 47.4 14.66 48.57 23.82 51.64 24.81 50.46 20.21 41.96 19.23 43.14"/><polygon class="cls-2" points="21.11 41.24 27.33 47.73 28.44 46.67 22.23 40.18 21.11 41.24"/><polygon class="cls-2" points="29.02 34.64 27.54 35.82 27.24 40.48 25.09 37.75 23.87 38.71 29.47 45.75 30.67 44.79 28.18 41.66 33.11 42.86 34.6 41.68 28.7 40.29 29.02 34.64"/><path class="cls-2" d="M16.89,57.53a3,3,0,0,1-.15,2.28,3,3,0,0,1-5.35-2.61,2.94,2.94,0,0,1,1.7-1.52l-.49-1.43a4.49,4.49,0,0,0-.5,8.29A4.49,4.49,0,0,0,18.31,57Z"/><polygon class="cls-2" points="12.41 63.81 10.98 63.31 9.98 66.22 8.13 65.58 9.13 62.67 7.71 62.18 6.2 66.54 14.7 69.47 15.2 68.01 11.41 66.71 12.41 63.81"/><rect class="cls-2" x="52.23" y="24.66" width="1.53" height="8.99" transform="translate(-4.65 10.84) rotate(-11.19)"/><polygon class="cls-2" points="34.56 32.92 33.73 31.66 29.83 34.1 30.63 35.38 31.93 34.57 35.9 40.9 37.2 40.09 33.23 33.75 34.56 32.92"/><path class="cls-2" d="M47.73,29.51l-1.18.36L46,28l1.18-.37a1,1,0,0,1,1.43.59c.27.87-.46,1.17-.85,1.29m4.71,4.29-3.79-3a2.2,2.2,0,0,0,1.39-3c-.73-2.37-3.15-1.63-4.51-1.22L44.06,27,46.7,35.6l1.46-.45c-.34-1.14-.82-2.69-1.17-3.83l3.73,3Z"/><path class="cls-2" d="M58.24,28.87,59.12,26l1.44,2.68Zm1.41-5.15-1.51.15-2.79,9.32L57,33l.77-2.58,3.56-.37,1.27,2.37,1.66-.17Z"/><path class="cls-2" d="M41.39,36.15a3,3,0,1,1,1.48-3.94,3,3,0,0,1-1.48,3.94m-3.09-6.8a4.49,4.49,0,1,0,6,2.23,4.49,4.49,0,0,0-6-2.23"/></g></g></svg>