<?xml version="1.0" encoding="UTF-8"?>
<svg id="Calque_2" data-name="Calque 2" xmlns="http://www.w3.org/2000/svg" viewBox="0 0 289.84 347.6">
  <defs>
    <style>
      .cls-1, .cls-2 {
        fill-rule: evenodd;
      }

      .cls-1, .cls-3 {
        fill: #fff;
      }

      .cls-2, .cls-4 {
        fill: #dcad60;
      }

      .cls-5 {
        fill: #e40d22;
      }
    </style>
  </defs>
  <g id="Calque_1-2" data-name="Calque 1">
    <g>
      <rect class="cls-3" x="13" y="13" width="263.84" height="38.59"/>
      <g>
        <path class="cls-2" d="M34.6,18.43h-10.81v27.37h10.61c8.09,0,10.17-8.46,10.17-14.34,0-5.18-1.71-13.04-9.96-13.04ZM33.78,41.08h-4.98v-17.92h4.91c2.18,0,5.63.65,5.63,8.73,0,4.5-1.4,9.19-5.56,9.19Z"/>
        <path class="cls-2" d="M90.71,35.67h5.93c-1.1,5.53-5.01,6.02-6.18,6.02-3.62,0-7.42-1.94-7.42-9.42,0-7.02,3.52-9.84,7.31-9.84s5.58,3.43,5.58,4.5h5.32c-.28-3.78-3.37-9.23-11.18-9.23-8.59-.04-12.46,7.02-12.46,14.49,0,9.61,5.57,14.34,11.71,14.34,4.65,0,6.6-2.48,7.95-4.16l.53,3.43h3.55v-14.75h-10.65v4.61Z"/>
        <path class="cls-2" d="M127.05,23.27v-4.84h-18.62v27.38h19.23v-4.84h-14.04v-7.09h12.35v-4.84h-12.35v-5.75h13.44Z"/>
        <path class="cls-2" d="M70.43,23.27v-4.84h-18.62v27.38h19.23v-4.84h-14.04v-7.09h12.35v-4.84h-12.35v-5.75h13.44Z"/>
        <path class="cls-2" d="M167.98,29.45v-6.18h12.53v-4.84h-17.74v27.38h5.21v-11.51h10.97v-4.84h-10.97Z"/>
        <path class="cls-2" d="M199.41,17.7c-3.25,0-11.8,1.57-11.8,14.41s8.55,14.41,11.8,14.41,11.8-1.56,11.8-14.41-8.55-14.41-11.8-14.41ZM199.41,41.69c-2.77,0-6.67-1.91-6.67-9.57s3.9-9.57,6.67-9.57,6.67,1.91,6.67,9.57-3.9,9.57-6.67,9.57Z"/>
        <path class="cls-2" d="M238.1,39.63c0-5.11-1.1-5.95-3.13-6.94,2.44-.91,3.82-3.5,3.82-6.52,0-2.36-1.2-7.74-7.78-7.74h-12.49v27.37h5.06v-10.71h5.33c3.82,0,4.03,1.45,4.03,5.18,0,2.82.21,4.23.55,5.53h5.71v-.73c-1.1-.46-1.1-1.45-1.1-5.45h0ZM229.64,30.48h-6.06v-7.32h6.44c3.03,0,3.61,2.14,3.61,3.59,0,2.71-1.31,3.74-3.99,3.74Z"/>
        <path class="cls-2" d="M154.45,39.63c0-5.11-1.1-5.95-3.13-6.94,2.44-.91,3.82-3.5,3.82-6.52,0-2.36-1.2-7.74-7.78-7.74h-12.49v27.37h5.06v-10.71h5.33c3.82,0,4.03,1.45,4.03,5.18,0,2.82.21,4.23.55,5.53h5.71v-.73c-1.1-.46-1.1-1.45-1.1-5.45h0ZM145.99,30.48h-6.06v-7.32h6.44c3.03,0,3.61,2.14,3.61,3.59,0,2.71-1.31,3.74-3.99,3.74Z"/>
        <path class="cls-2" d="M259.61,30.21l-6-1.64c-1.03-.27-2.61-.73-2.61-2.86,0-2.48,2.33-3.28,4.29-3.28,4.49,0,4.9,2.9,5.04,4.12h4.94c-.03-3.36-2.06-8.85-9.6-8.85-7.99,0-9.47,5.38-9.47,8.43,0,6.02,3.84,7.01,7.82,8.05l2.64.68c2.61.69,4.46,1.26,4.46,3.39,0,2.9-2.71,3.55-5.14,3.55-4.5,0-5.18-2.9-5.22-4.43h-4.94c0,3.39,1.55,9.15,10.53,9.15,2.16,0,9.71-.72,9.71-8.96,0-4.92-3.09-6.44-6.45-7.36Z"/>
      </g>
      <path class="cls-4" d="M0,0v170.49c0,9.15.66,15.96,2.27,23.52,20.21,94.66,100.91,133.41,131.3,148,2.11,1.01,3.97,1.9,5.53,2.69l5.82,2.9,5.82-2.9c1.57-.79,3.43-1.68,5.53-2.69,30.39-14.59,111.1-53.34,131.3-148.01,1.61-7.55,2.27-14.36,2.27-23.51V0H0ZM276.84,51.59H13V13h263.84v38.59Z"/>
      <path class="cls-5" d="M144.92,64.59H13v105.9c0,7.4.44,13.56,1.98,20.8,20.28,95,106.49,130.05,129.94,141.78,23.45-11.73,109.66-46.78,129.94-141.78,1.54-7.24,1.98-13.4,1.98-20.8v-105.9h-131.92Z"/>
      <path class="cls-1" d="M142.68,263.32c9.65,0,18.85-1.98,27.21-5.55v28.82c-8.63,2.56-17.76,3.93-27.21,3.93-53.44,0-96.76-43.82-96.76-97.88,0-26.21,10.18-50.01,26.77-67.58v40.75h5.34c-3.37,8.27-5.22,17.33-5.22,26.83,0,39.03,31.28,70.68,69.87,70.68Z"/>
      <path class="cls-1" d="M235.35,120.83l-14.35,14.34c.7.95,1.36,1.91,2.01,2.88,10.37,15.6,16.43,34.38,16.43,54.59,0,38.4-21.86,71.64-53.68,87.66v-23.53h18.92v-13.3h-13.45c5.72-5.6,10.5-12.17,14.07-19.46h8.09v-14h-2.97c1.39-5.55,2.13-11.37,2.13-17.37,0-39.04-31.28-70.68-69.87-70.68-6.14,0-12.09.8-17.76,2.3-5.65,1.5-11.01,3.69-16,6.48-8.08,4.52-15.19,10.62-20.91,17.88v-36.74c5.84-4.06,12.15-7.49,18.83-10.18,5.06-2.05,10.33-3.67,15.77-4.82,6.47-1.39,13.19-2.12,20.07-2.12,19.56,0,37.77,5.87,52.99,15.98.59.38,1.18.78,1.76,1.2l14.52-14.51-16.28-16.28h56.9v56.9l-17.22-17.22Z"/>
      <polygon class="cls-2" points="213.39 210.01 213.39 224.01 185.76 224.01 185.76 243.47 204.68 243.47 204.68 256.77 185.76 256.77 185.76 293.53 169.89 293.53 169.89 210.01 213.39 210.01"/>
      <path class="cls-2" d="M103.57,165.81h-30.88v-83.89h26.19c14.03,0,21.57,5.85,23.73,14.96-5.44,1.15-10.71,2.77-15.77,4.82-.65-4.15-3.9-7.3-10.03-7.3h-8.8v59.01h8.85c9.83,0,11.78-7.26,12.06-22.67,4.99-2.79,10.35-4.98,16-6.48.05,10.54,1.02,41.55-21.35,41.55Z"/>
      <path class="cls-2" d="M135.25,151.55h15.64v83.59h-15.64v-83.59Z"/>
    </g>
  </g>
</svg>