<?xml version="1.0" encoding="UTF-8"?>
<svg id="Calque_2" data-name="Calque 2" xmlns="http://www.w3.org/2000/svg" viewBox="0 0 2209.93 2423.38">
  <defs>
    <style>
      .cls-1 {
        fill: #f00014;
      }

      .cls-2 {
        fill: #038b48;
      }

      .cls-3 {
        fill: #ffcd00;
      }
    </style>
  </defs>
  <g id="Calque_1-2" data-name="Calque 1">
    <g>
      <path d="M1104.97,2423.38c-63.68-76.65-167.45-144.46-287.74-198.71-106.72-48.35-244.11-83.73-355.55-126.18-110.26-42.45-195.17-88.44-261.21-153.89-51.3-51.3-90.8-114.39-120.87-198.12-34.2-95.52-33.02-212.86-21.82-313.09,13.56-116.16,49.53-196.94,73.11-318.99,12.38-63.09,21.23-135.61,22.41-232.9,1.18-140.33-35.38-254.13-99.06-368.52-15.92-29.48-34.2-51.89-54.25-80.78h0L296.58,48.94h0c67.81,42.45,201.65,117.34,383.85,117.93,163.33,12.97,321.35-61.32,424.53-166.87,103.19,105.54,261.21,179.84,424.53,166.87,182.2-.59,315.45-75.47,383.85-117.93h0l296.58,383.26h0c-20.05,28.89-37.74,51.3-54.25,80.78-63.68,114.39-100.24,228.19-99.06,368.52,1.18,97.29,10.02,169.81,22.41,232.9,23.59,121.46,60.14,202.83,73.11,318.99,11.79,100.24,12.38,217.57-21.82,313.09-30.07,83.73-69.58,146.82-120.87,198.12-66.04,66.04-150.95,111.44-261.21,153.89-112.03,43.04-248.82,78.42-355.55,126.18-120.28,54.25-224.06,122.05-287.74,198.71h0Z"/>
      <path class="cls-3" d="M1104.97,2372.67c-133.85-161.56-507.08-262.98-643.88-311.32-304.25-106.72-405.67-330.78-371.47-628.55,19.46-168.04,95.52-279.48,97.88-550.71,1.77-167.45-43.04-305.43-140.92-449.3h0L307.2,99.06h0c64.86,40.09,202.24,102.01,376.18,102.01,155.66,12.38,323.71-51.3,422.18-152.12,98.47,100.83,266.51,164.51,422.18,152.12,173.35-.59,311.32-61.91,376.18-102.01h0l260.62,333.73h0c-97.88,143.87-142.69,281.84-140.92,449.3,2.36,271.23,78.42,382.67,97.88,550.71,34.2,298.35-67.22,521.82-371.47,628.55-137.97,48.35-511.21,149.77-645.06,311.32h0Z"/>
      <path class="cls-1" d="M183.37,1652.14c-50.71-301.3,92.57-385.03,96.11-744.11,1.77-156.25-28.89-322.53-121.46-472.88h0l169.81-219.93h0c53.66,34.79,195.76,73.11,353.19,75.47,157.43,1.77,317.81-34.79,423.94-129.72,106.13,95.52,266.51,131.49,423.94,129.72,157.43-1.77,299.53-40.09,353.19-75.47h0l169.81,219.93h0c-37.15,60.14-64.27,123.23-83.14,186.32h0L183.37,1652.14h0Z"/>
      <path class="cls-2" d="M1104.97,2263.59c-125.59-152.12-502.95-239.98-614.98-283.61-142.1-54.84-254.72-138.56-295.4-276.54h0l1756.51-1014.16h0c-15.33,73.11-21.23,146.82-20.64,218.16,3.54,363.8,150.36,444.58,93.75,755.32-29.48,162.15-149.77,257.08-304.84,317.22-111.44,43.63-488.8,131.49-614.39,283.61h0Z"/>
      <path class="cls-3" d="M800.72,944.59c40.09-94.93,4.13-207.55-87.27-260.62-99.06-57.19-225.83-23-283.02,76.06-57.19,99.06-23,225.83,76.06,283.02,91.39,53.07,206.96,27.71,268.87-54.84h0l181.02,104.36h0c-4.13,10.02-6.49,20.64-8.25,31.25H326.07v50.12h622.06c1.77,11.2,4.72,21.23,8.25,31.25h0l-181.02,104.36h0c-61.91-82.55-177.48-107.9-268.87-54.84-99.06,57.19-132.67,183.96-76.06,283.02,57.19,99.06,183.96,132.67,283.02,76.06,91.39-53.07,127.36-165.69,87.27-260.62h0l181.02-104.36h0c7.08,8.25,14.74,15.92,23,23h0l-206.96,359.08-21.23-12.38-60.73,205.19,147.41-154.48-21.82-12.38,206.96-359.08h0c10.02,4.13,20.64,6.49,31.84,8.25h0v209.32h0c-102.6,12.38-182.2,100.24-182.2,205.78,0,114.39,93.16,206.96,206.96,206.96s206.96-93.16,206.96-206.96c0-105.54-79.6-193.4-182.2-205.78h0v-209.32h0c10.61-1.77,21.23-4.72,31.25-8.25h0l311.32,538.92,43.63-25.35-311.32-538.92h0c8.25-7.08,16.51-14.74,23.59-23h0l181.02,104.36h0c-40.09,94.93-4.13,207.55,87.27,260.62,99.06,57.19,225.83,23,283.02-76.06s23-225.83-76.06-283.02c-91.39-53.07-206.96-27.71-268.87,54.84h0l-181.02-104.36h0c4.13-10.02,6.49-20.64,8.25-31.25h413.92v25.35l207.55-50.71-207.55-50.12v24.76h-413.92c-1.77-11.2-4.72-21.23-8.25-31.25h0l181.02-104.36h0c61.91,82.55,177.48,107.9,268.87,54.84,99.06-57.19,132.67-183.96,76.06-283.02-57.19-99.06-183.96-132.67-283.02-76.06-91.39,53.07-127.36,165.69-87.27,260.62h0l-181.02,104.36h0c-7.08-8.25-14.74-15.92-23-23h0l310.74-538.33-43.63-25.35-310.74,538.33h0c-10.02-4.13-20.64-6.49-31.25-8.25h0v-209.32h0c102.6-12.38,182.2-100.24,182.2-205.78,0-114.39-93.16-206.96-206.96-206.96s-206.96,93.16-206.96,206.96c0,105.54,79.6,193.4,182.2,205.78h0v209.32h0c-11.2,1.77-21.82,4.72-31.84,8.84h0l-206.96-358.5,21.82-12.38-147.41-154.48,60.73,205.19,21.23-12.38,206.96,358.5h0c-8.25,7.08-15.92,14.74-23,23h0l-181.61-105.54h0Z"/>
      <path d="M1130.32,1034.21c53.07,11.79,92.57,58.96,92.57,114.98s-39.51,103.19-92.57,114.98h0v-229.96h0ZM1079.61,1264.17c-53.07-11.79-92.57-58.96-92.57-114.98s39.51-103.19,92.57-114.98h0v229.96h0ZM1734.1,828.43l-229.96,132.67-36.56-63.09,229.96-132.67,36.56,63.09h0ZM640.34,1420.42l-48.35,27.71-70.76-123.23,5.31-2.95,8.25-4.72h0c39.51-23,76.65-30.07,110.26-21.82,34.2,8.25,61.91,31.25,83.73,69.58,5.31,9.43,9.43,18.28,12.97,27.71,3.54,8.84,5.9,18.28,7.08,27.12,2.95,17.69,1.77,35.97-3.54,53.66-4.72,17.1-12.97,33.02-24.76,47.76-11.2,14.74-25.35,26.53-41.86,36.56-17.1,10.02-34.79,15.92-52.48,18.87-17.69,2.36-35.38,1.18-53.66-3.54-18.28-5.31-34.2-13.56-48.94-25.35-14.74-11.79-26.53-25.94-36.56-43.04-12.97-22.41-20.05-44.81-21.23-67.22-1.18-22.41,3.54-44.81,14.74-66.63h0l57.78,39.51h0c-5.31,11.79-7.67,23-7.08,33.61.59,10.61,3.54,21.23,9.43,31.25,10.61,18.87,25.35,30.07,44.22,33.61,9.43,1.77,18.87,1.77,28.89-.59,10.02-2.36,20.64-6.49,31.25-12.97,21.82-12.38,35.97-27.71,42.45-45.99,6.49-18.28,4.13-36.56-6.49-55.43-9.43-15.92-20.64-27.12-34.79-33.02-14.15-5.9-27.71-6.49-41.86-.59h0l35.97,60.14h0ZM642.11,843.17l-33.61,57.78-71.93-80.19,105.54,22.41h0ZM780.08,803.08l-279.48-47.76-39.51,67.81,181.61,216.98,35.97-62.5-32.43-39.51,47.17-81.96,50.12,8.25,36.56-61.32h0ZM1593.18,1355.56c-15.92,2.95-28.89,7.67-39.51,14.15-10.61,5.9-18.28,13.56-23.59,22.41-4.72,8.25-6.49,16.51-5.31,24.76,1.18,8.25,5.31,14.15,12.38,18.28,7.67,4.13,14.74,5.31,21.23,2.95,7.08-2.36,17.1-10.02,31.25-24.17,18.87-18.87,35.97-30.07,51.3-34.2,15.33-3.54,31.25-.59,48.35,8.84,21.82,12.97,35.97,30.66,41.27,53.07,5.31,23,1.18,45.99-12.38,68.99-7.08,12.38-15.92,23.59-25.94,33.02-10.02,9.43-21.23,17.1-34.2,23.59h0l-33.61-45.99h0c10.02-3.54,18.87-8.25,26.53-14.15,7.67-5.9,12.97-12.38,17.69-19.46,4.13-7.67,6.49-14.74,5.31-21.82-.59-6.49-4.13-11.79-10.02-15.33-5.31-2.95-11.2-3.54-17.1-1.77-5.9,1.77-14.15,8.25-24.17,18.28h0l-2.36,2.36h0c-21.82,21.82-38.92,34.2-51.89,37.15-8.84,1.77-17.69,2.36-27.12.59-9.43-1.77-19.46-5.31-28.89-10.61-24.17-14.15-39.51-33.61-44.81-57.78-5.9-24.76-.59-50.12,14.74-77.24,9.43-15.92,20.64-29.48,33.61-38.92,12.97-10.02,28.89-17.69,47.76-23h0l29.48,56.01h0ZM1081.38,540.69l8.25-7.08h0c5.9-4.72,10.61-10.02,14.15-15.33,2.95-5.31,4.72-10.02,4.72-14.74,0-6.49-1.77-11.2-5.9-15.33-4.13-4.13-9.43-5.9-16.51-5.9-7.67,0-13.56,2.36-17.69,6.49-4.13,4.13-6.49,9.43-6.49,17.1,0,2.95,1.18,6.49,2.95,11.2,1.77,4.72,4.13,8.25,6.49,11.2h0l10.02,12.38h0ZM1100.25,640.93l-43.04-46.58h0c-8.25,7.08-14.15,13.56-18.28,20.05-4.13,6.49-5.9,12.38-5.9,18.28,0,7.67,2.95,14.15,8.25,19.46,5.31,5.31,12.38,7.67,20.05,7.67,5.9,0,11.79-1.77,18.28-4.72,7.08-2.95,13.56-7.67,20.64-14.15h0ZM1159.8,704.02l-23.59-27.12h0c-12.97,11.79-26.53,20.64-40.09,25.94-14.15,5.31-29.48,8.25-46.58,8.25-23.59,0-43.04-7.08-57.78-20.64-14.74-13.56-22.41-31.84-22.41-53.66,0-16.51,4.72-31.25,14.74-44.22,10.02-12.97,25.35-24.76,47.17-35.97-8.25-9.43-14.15-18.28-18.28-27.71-4.13-9.43-5.9-18.28-5.9-27.12,0-17.69,7.08-32.43,21.23-44.22,14.15-11.79,31.84-17.69,52.48-17.69,24.17,0,43.04,5.9,57.19,17.69,7.08,5.9,11.79,12.97,15.33,20.64s5.31,17.1,5.31,27.12c0,12.97-3.54,24.76-11.2,35.97-7.67,11.2-18.87,21.82-34.2,31.25h0l31.25,32.43h0c7.08-5.9,12.97-11.2,18.87-17.1,5.9-5.31,11.79-12.38,18.28-20.05h0l37.74,38.92h0c-5.9,7.08-11.79,14.15-18.28,20.64-5.31,5.9-11.2,11.2-17.69,16.51h0l57.78,59.55h-81.37v.59ZM1105.56,1552.5l38.33,119.69h126.77l-103.19,74.29,40.09,119.69-102.6-72.52-101.42,72.52,38.92-118.52-103.77-75.47h127.95l38.92-119.7h0Z"/>
    </g>
  </g>
</svg>