<?xml version="1.0" encoding="UTF-8"?>
<svg id="Calque_2" data-name="Calque 2" xmlns="http://www.w3.org/2000/svg" viewBox="0 0 111.24 142.81">
  <defs>
    <style>
      .cls-1 {
        fill: #fff;
      }

      .cls-2 {
        fill: #af9468;
      }

      .cls-3 {
        fill: #ffdc00;
      }
    </style>
  </defs>
  <g id="svg2">
    <g id="g10">
      <g id="g12">
        <path id="path7890" class="cls-1" d="M5.41,89.23c.25-2.12.88-5.19,1.6-8.73.25-1.27.52-2.59.8-3.97L89.04,5.37l17.09,21.36L11.55,109.39c-6.61-5.49-7.28-10.43-6.13-20.16h0Z"/>
        <path id="path14" class="cls-3" d="M82.07,120.17c-11.47,6.12-22.63,14.19-26.44,17.01-3.81-2.83-14.97-10.89-26.44-17.01-6.36-3.4-11.16-6.12-14.75-8.61L102.97,34.19c-1.53,3.61-2.88,8.32-2.89,13.87-.03,11.85,2.39,23.75,4.15,32.43.72,3.55,1.35,6.61,1.6,8.73,1.81,15.24-.85,18.72-23.76,30.96"/>
        <path id="path16" d="M82.63,119.93c-.27.08-.35.16-.49.24-4.89,2.61-9.72,5.59-14.01,8.35v-63.81l14.24-12.59.27,67.81"/>
        <path id="path18" d="M55.49,75.6v61.59c-2.41-1.8-7.79-5.73-14.24-9.93v-39.07l14.24-12.59"/>
        <path id="path20" d="M28.63,99.09v20.83c-5.91-3.28-10.79-5.93-14.27-8.36l14.27-12.47"/>
        <path id="path22" d="M94.88,112.84l-.03-71.55,8.12-7.09c-1.53,3.61-2.88,8.32-2.89,13.87-.03,11.85,2.39,23.75,4.15,32.43.72,3.55,1.35,6.61,1.6,8.73,1.4,11.72.15,16.47-10.95,23.61"/>
        <path id="path24" d="M8.89,70.85c1.24-6.97,2.29-14.88,2.28-22.79-.03-10.35-4.67-17.77-6.64-20.6L22.57,4.92c3,1.4,10.48,4.25,16.79,5.32,8.2,1.39,16.13,1.44,16.4,1.44h0c.53,0,8.17-.07,16.24-1.44,2.85-.48,5.89-1.33,8.69-2.24L8.89,70.85"/>
        <path id="path26" class="cls-2" d="M33.04,83.97l-10.31-11.77c-.07-.08-.17-.12-.31-.12-.09,0-.19.03-.25.09l-2.12,1.85c-.16.15-.17.4-.04.56l3.96,4.52-5.17,4.52-3.96-4.52c-.07-.08-.19-.13-.29-.13-.09,0-.19.04-.25.09l-2.12,1.85c-.16.13-.17.4-.04.56l10.31,11.77c.13.15.41.16.56.04l2.12-1.85c.16-.15.17-.4.04-.56l-4.13-4.72,5.17-4.52,4.13,4.72c.13.16.4.19.56.04l2.12-1.85c.15-.16.16-.41.03-.57"/>
        <path id="path28" class="cls-2" d="M36.21,74.32l-1.27-4.21.07-.07,4.03,1.8-2.83,2.48ZM47.09,71.97c-.01-.12-.11-.23-.24-.29l-16.05-7.09s-.09-.03-.16-.03c-.09,0-.2.03-.27.09l-.17.16c-.11.09-.15.27-.12.4l4.91,16.84c.05.17.19.28.35.28.09,0,.19-.04.28-.11l1.96-1.72c.37-.33.32-.72.25-.93l-.61-2.01,4.89-4.28,1.91.85c.2.09.35.13.48.13.16,0,.31-.07.48-.23l1.97-1.72c.12-.09.17-.23.15-.35"/>
        <path id="path30" class="cls-2" d="M57.15,59.95l-2.68-.27h-.04c-.17,0-.36.16-.39.35-.15,1.09-.77,2.2-1.65,2.97-.87.76-1.92,1.17-3.05,1.17-1.39,0-2.73-.61-3.68-1.69-1.81-2.08-1.69-5.03.28-6.76.01-.01.03-.01.04-.03.05-.04.11-.09.16-.13h0s.09-.07.13-.11c.83-.61,1.85-.96,2.89-.96.13.01.25-.04.33-.13.04-.05.05-.13.07-.2l.12-2.72c.01-.12-.03-.23-.11-.31-.07-.08-.17-.12-.29-.12h-.23c-2.13,0-3.84.65-5.49,2.11-3.52,3.08-3.88,8.44-.8,11.96,1.6,1.83,3.91,2.88,6.33,2.88,2.05,0,4.04-.75,5.61-2.12,1.65-1.44,2.61-3.33,2.79-5.47.01-.2-.16-.41-.35-.43"/>
        <path id="path34" class="cls-2" d="M71.53,50.41c-.04-.19-.2-.32-.39-.36l-9.75-1.95v-.04l-.4-8.85c-.03-.28-.28-.45-.51-.45-.12,0-.21.04-.31.12l-2.24,1.96c-.09.08-.17.29-.16.43l.37,8.53-4.19-4.79c-.09-.11-.24-.17-.39-.17-.12,0-.24.04-.33.12l-2.08,1.83c-.21.19-.24.51-.05.72l10.15,11.6c.09.11.24.17.39.17.12,0,.24-.04.33-.13l2.08-1.83c.09-.09.16-.21.17-.36.01-.13-.04-.27-.12-.37l-4.75-5.43,9.16,2.03h.03c.09,0,.27-.07.36-.15l2.45-2.15c.15-.11.21-.29.16-.48"/>
        <path id="path36" class="cls-2" d="M81.79,41.32l-1.69-1.93c-.13-.16-.4-.17-.56-.04l-4.97,4.35-2.17-2.48,4.09-3.59c.16-.15.17-.4.04-.56l-1.69-1.93c-.07-.08-.19-.13-.31-.13-.09,0-.19.03-.25.09l-4.09,3.59-2-2.28,4.97-4.35c.08-.07.12-.16.13-.27,0-.11-.03-.21-.09-.29l-1.69-1.93c-.08-.08-.19-.13-.31-.13-.09,0-.19.04-.25.09l-7.36,6.44c-.16.15-.17.4-.04.56l10.31,11.77c.13.16.4.17.56.04l7.36-6.44c.08-.07.13-.17.13-.28-.01-.12-.04-.23-.11-.29"/>
        <path id="path38" class="cls-2" d="M95.89,29.32l-10.48-11.97c-.13-.15-.41-.16-.56-.04l-2.13,1.87c-.16.15-.19.39-.04.55l5.56,6.36-.08.05h-.03l-13.05-.61-.43.39c-.16.13-.19.39-.05.53l10.49,11.95c.07.08.17.13.31.13.09,0,.19-.03.25-.09l2.12-1.85c.16-.15.17-.4.04-.56l-5.84-6.68.08-.07h.03l13.21.91c.05,0,.23-.07.27-.11l.28-.25c.08-.07.13-.17.13-.28.01-.05-.01-.15-.08-.21"/>
        <path id="path40" class="cls-2" d="M26.72,64.67c-.44,0-.85.16-1.19.45-.75.65-.81,1.75-.16,2.48.35.39.84.61,1.35.61.43,0,.83-.16,1.15-.43.36-.31.57-.75.6-1.23s-.12-.93-.44-1.29c-.32-.39-.8-.6-1.31-.6"/>
        <path id="path42" class="cls-2" d="M33.89,60.13c-.33-.37-.81-.6-1.32-.6-.44,0-.85.16-1.19.45-.75.65-.81,1.75-.16,2.49.35.39.84.61,1.35.61.43,0,.83-.16,1.15-.43.36-.31.57-.75.6-1.23.04-.49-.11-.95-.43-1.31"/>
        <path id="path44" class="cls-2" d="M25.35,29.85c.85,0,1.53-.67,1.53-1.55s-.85-1.48-1.73-1.48h-1.85v3.03h2.05ZM25.12,24.96c.87,0,1.47-.68,1.47-1.53s-.6-1.44-1.47-1.44h-1.81v2.97h1.81ZM21.11,20.29c0-.17.13-.32.32-.32h3.89c2.03,0,3.59,1.36,3.59,3.15,0,1.31-1.07,2.33-1.87,2.71.91.29,2.21,1.2,2.21,2.77,0,1.91-1.63,3.28-3.71,3.28h-4.11c-.19,0-.32-.15-.32-.32v-11.27"/>
        <path id="path46" class="cls-2" d="M31.67,26.24c0-.89.73-1.63,1.59-1.63s1.63.73,1.63,1.63-.73,1.59-1.63,1.59c-.85-.01-1.59-.73-1.59-1.59"/>
        <path id="path48" class="cls-2" d="M37.83,20.29c0-.23.09-.33.33-.33h1.65c.23,0,.33.11.33.33v4.67l4.28-4.83c.07-.08.17-.17.32-.17h1.93c.32,0,.41.2.19.45l-4.59,5.15,4.92,5.85c.17.21.11.44-.23.44h-2.08c-.17,0-.27-.07-.31-.12l-4.44-5.47v5.27c0,.23-.11.33-.33.33h-1.65c-.24,0-.33-.11-.33-.33v-11.24"/>
        <path id="path50" class="cls-2" d="M104.24,80.48c.72,3.55,1.35,6.63,1.6,8.73,1.8,15.24-.87,18.71-23.77,30.95-11.47,6.12-22.63,14.19-26.44,17.01-3.81-2.83-14.97-10.89-26.44-17.01-6.36-3.4-11.16-6.12-14.75-8.61L102.97,34.19c-1.55,3.61-2.88,8.32-2.89,13.87-.01,11.87,2.4,23.75,4.16,32.43ZM5.41,89.23c.25-2.12.88-5.19,1.6-8.73.25-1.27.52-2.59.8-3.97L89.04,5.37l17.09,21.36L11.55,109.39c-6.61-5.49-7.28-10.43-6.13-20.16h0ZM4.53,27.45L22.59,4.91c3,1.4,10.35,4.25,16.65,5.32,8.2,1.39,15.99,1.44,16.27,1.44h0c.53,0,8.31-.07,16.37-1.44,2.85-.48,5.96-1.33,8.76-2.25L8.88,70.84c1.24-6.97,2.31-14.88,2.29-22.79-.05-10.35-4.67-17.76-6.64-20.6h0ZM111.24,27.15L89.84,0l-1.29.64c-.09.05-9.89,4.83-17.27,6.08-7.91,1.35-15.79,1.39-15.79,1.39h0c-.53,0-7.93-.08-15.65-1.39C32.47,5.47,22.76.68,22.67.64l-1.28-.64L0,27.15l.92,1.11c.07.08,6.65,8.25,6.68,19.81.03,11.49-2.35,23.17-4.08,31.71-.73,3.63-1.37,6.77-1.72,9.03-1.13,7.57-1.04,14.01,2.91,19.23,3.77,4.97,11.09,9.59,22.72,15.8,13.81,7.39,27.87,18.6,28.19,18.99h0c.32-.39,14.37-11.6,28.19-18.99,11.63-6.21,18.95-10.83,22.72-15.8,3.95-5.21,4.04-11.67,2.91-19.23-.33-2.25-.99-5.4-1.72-9.03-1.73-8.53-4.11-20.21-4.08-31.71.03-11.57,6.61-19.75,6.68-19.81l.93-1.11"/>
      </g>
    </g>
  </g>
</svg>