<?xml version="1.0" encoding="UTF-8"?>
<svg id="Calque_2" data-name="Calque 2" xmlns="http://www.w3.org/2000/svg" viewBox="0 0 507.53 581.26">
  <defs>
    <style>
      .cls-1 {
        fill: #fff;
      }

      .cls-1, .cls-2, .cls-3 {
        fill-rule: evenodd;
      }

      .cls-2 {
        fill: #0a4e94;
      }

      .cls-3, .cls-4 {
        fill: #b58c4a;
      }
    </style>
  </defs>
  <g id="Calque_2-2" data-name="Calque 2">
    <g>
      <path class="cls-1" d="M482.61,225.64c-2.31,5.88-4.69,11.96-6.85,18.53-7.1,21.86-15.55,39.96-23.72,57.45-10.78,23.09-21.92,46.97-29.69,79.01-3.39,13.97-4.29,25.52-5.17,36.69-1.06,13.4-2.05,26.06-7.47,41.56-.79,2.27-1.5,4.4-2.19,6.44-3.73,11.12-6.19,18.46-13.27,28.23-12.67,17.36-28.95,23.09-47.8,29.74-6.73,2.37-13.69,4.82-20.76,7.9-14.72,6.29-25.69,12.78-35.36,18.51-15.85,9.37-27.3,16.12-45.8,15.94-12.13-.09-21.25-7.03-32.79-15.83-10.1-7.69-21.54-16.41-37.68-22.74l-1.13-.45c-21.36-8.4-29.36-11.55-45.54-22.74-2.11-1.48-4.05-2.78-5.92-4.04-7.32-4.9-12.15-8.15-17.43-15.49-14.95-20.33-16.94-39.64-19.24-62-1.4-13.68-2.86-27.82-7.26-43.81-7.33-26.4-13.86-46.99-20.17-66.9-5.93-18.69-12.05-38.01-18.95-62.41-3.19-11.25-7.81-20.89-11.89-29.4-7.66-16-13.72-28.64-9.5-46.76,4.64-19.93,8.68-32.75,25.73-42.79,18.73-11,35.13-16.47,52.5-22.26,17.37-5.79,35.34-11.78,55.8-23.62,23.54-13.64,38.14-23.53,57.9-39.23,4.78-3.83,8.99-7.57,12.7-10.87,12.59-11.17,20.19-17.91,36.02-18.64,17.02-.77,26.46,7.94,39.53,19.98,5.47,5.04,11.13,10.26,17.91,15.23,8.56,6.34,14.49,12.14,20.77,18.28,6.61,6.47,13.44,13.16,23.36,20.33,18.79,13.58,35.41,20.31,51.48,26.83,12.76,5.17,25.96,10.51,40.9,19.44,17,10.21,25.42,18.75,34.66,35.13,10.48,18.74,4.54,33.85-3.68,54.76Z"/>
      <path class="cls-4" d="M499.91,163.24c-10.52-18.66-21.05-29.36-40.26-40.88-15.98-9.56-29.75-15.14-43.06-20.53-15.91-6.44-30.94-12.53-48.19-25-8.98-6.5-15.1-12.49-21.59-18.84-6.38-6.24-12.97-12.69-22.43-19.69-6.1-4.48-11.43-9.39-16.58-14.14-13.48-12.41-26.22-24.16-48.01-24.16-.92,0-1.86.02-2.82.06-21.36.98-32.62,10.98-45.67,22.57-3.75,3.33-7.64,6.77-12.08,10.34-19.3,15.33-32.91,24.55-55.98,37.91-19.09,11.05-35.52,16.53-52.92,22.33-17.37,5.78-35.33,11.77-55.48,23.61-22.32,13.15-27.77,30.14-33.02,52.71-5.46,23.46,2.36,39.77,10.63,57.05,3.99,8.33,8.12,16.95,10.95,26.9,6.96,24.63,13.12,44.08,19.08,62.88,6.56,20.69,12.76,40.23,20.01,66.35,4.05,14.71,5.44,28.2,6.78,41.23,2.43,23.61,4.72,45.91,22.14,69.6,6.88,9.55,13.59,14.06,21.36,19.27,1.8,1.21,3.67,2.47,5.7,3.89,17.71,12.25,26.79,15.82,48.74,24.45l1.14.45c14.11,5.54,24.18,13.21,33.92,20.63,12.76,9.72,24.81,18.9,42.11,19.02.34.01.68.01,1.01.01,22.27,0,36.48-8.41,52.89-18.12,9.26-5.49,19.77-11.7,33.59-17.61,6.61-2.88,13.3-5.23,19.77-7.51,19.51-6.88,39.69-14,55.24-35.28,8.5-11.73,11.56-20.88,15.45-32.46.67-1.99,1.37-4.08,2.12-6.27,6.09-17.38,7.21-31.66,8.3-45.46.83-10.57,1.68-21.49,4.77-34.24,7.41-30.53,17.74-52.65,28.67-76.08,8.37-17.93,17.02-36.46,24.42-59.22,2.01-6.13,4.31-11.99,6.54-17.66,8.67-22.06,16.86-42.9,2.76-68.11ZM482.61,225.64c-2.31,5.88-4.69,11.96-6.85,18.53-7.1,21.86-15.55,39.96-23.72,57.45-10.78,23.09-21.92,46.97-29.69,79.01-3.39,13.97-4.29,25.52-5.17,36.69-1.06,13.4-2.05,26.06-7.47,41.56-.79,2.27-1.5,4.4-2.19,6.44-3.73,11.12-6.19,18.46-13.27,28.23-12.67,17.36-28.95,23.09-47.8,29.74-6.73,2.37-13.69,4.82-20.76,7.9-14.72,6.29-25.69,12.78-35.36,18.51-15.85,9.37-27.3,16.12-45.8,15.94-12.13-.09-21.25-7.03-32.79-15.83-10.1-7.69-21.54-16.41-37.68-22.74l-1.13-.45c-21.36-8.4-29.36-11.55-45.54-22.74-2.11-1.48-4.05-2.78-5.92-4.04-7.32-4.9-12.15-8.15-17.43-15.49-14.95-20.33-16.94-39.64-19.24-62-1.4-13.68-2.86-27.82-7.26-43.81-7.33-26.4-13.86-46.99-20.17-66.9-5.93-18.69-12.05-38.01-18.95-62.41-3.19-11.25-7.81-20.89-11.89-29.4-7.66-16-13.72-28.64-9.5-46.76,4.64-19.93,8.68-32.75,25.73-42.79,18.73-11,35.13-16.47,52.5-22.26,17.37-5.79,35.34-11.78,55.8-23.62,23.54-13.64,38.14-23.53,57.9-39.23,4.78-3.83,8.99-7.57,12.7-10.87,12.59-11.17,20.19-17.91,36.02-18.64,17.02-.77,26.46,7.94,39.53,19.98,5.47,5.04,11.13,10.26,17.91,15.23,8.56,6.34,14.49,12.14,20.77,18.28,6.61,6.47,13.44,13.16,23.36,20.33,18.79,13.58,35.41,20.31,51.48,26.83,12.76,5.17,25.96,10.51,40.9,19.44,17,10.21,25.42,18.75,34.66,35.13,10.48,18.74,4.54,33.85-3.68,54.76Z"/>
      <path class="cls-2" d="M314.79,145.07c-3.47,25.96-16.37,39.21-34.23,57.55-2.85,2.92-5.79,5.95-8.81,9.15l-157.01,166.18,2.84,2.68-2.91-2.6c-1.2,1.36-3.86,2.23-5.22,2.29-2.22-24.32-10.11-47.3-19.41-72.61,0-.01-.01-.03-.01-.04l-37.63-105.55c-2.47-6.91-2.89-11.84-1.66-19.56,1.68-10.66,3.68-16.67,10.48-21.96,10.3-8.03,15.72-10.82,30.36-16.93,24.56-10.56,62.53-28.34,62.92-28.52l.18-.09c8.85-4.74,16.51-9.17,23.91-13.46,16.69-9.66,31.1-18.01,52.36-25.8,11.29-4.17,18.34-5.79,30.35-4.38,13.31,1.48,21.29,5.06,32.84,14.75,9.49,7.79,13.95,13.84,18.96,25.74,3.03,12.95,3.41,20.44,1.69,33.16Z"/>
      <polygon class="cls-4" points="120.49 383.24 120.42 383.32 117.68 380.72 120.49 383.24"/>
      <g>
        <path class="cls-4" d="M320.62,109.8l-.07-.31-.13-.3c-5.56-13.3-10.74-20.36-21.29-29.03-12.74-10.68-22.07-14.84-36.94-16.49-13.41-1.58-21.95.38-33.94,4.8-21.88,8.03-36.57,16.53-53.57,26.38-7.32,4.23-14.89,8.62-23.59,13.27-2.12.99-38.74,18.12-62.56,28.36-15.12,6.31-21.17,9.44-32.11,17.96-9.64,7.51-11.77,16.62-13.39,26.89-1.43,8.96-.88,15.3,2.01,23.41h.01s37.64,105.59,37.64,105.59l3.53-1.26-3.52,1.3c9.22,25.09,17.01,47.79,19.06,71.49h0c.22,2.75,1.93,4.92,4.56,5.81.94.31,1.96.45,3.01.45,4.09,0,8.7-2.17,11.1-4.8l.07-.08,156.93-166.11c2.99-3.16,5.91-6.16,8.73-9.06,18.19-18.68,32.56-33.44,36.38-61.96,1.86-13.76,1.41-22.25-1.91-36.31ZM314.79,145.07c-3.47,25.96-16.37,39.21-34.23,57.55-2.85,2.92-5.79,5.95-8.81,9.15l-157.01,166.18c-1.2,1.36-3.93,2.31-5.29,2.37-2.22-24.32-10.11-47.3-19.41-72.61l-3.67,1.31,3.66-1.35-37.63-105.55c-2.47-6.91-2.89-11.84-1.66-19.56,1.68-10.66,3.68-16.67,10.48-21.96,10.3-8.03,15.72-10.82,30.36-16.93,24.56-10.56,62.53-28.34,62.92-28.52l.18-.09c8.85-4.74,16.51-9.17,23.91-13.46,16.69-9.66,31.1-18.01,52.36-25.8,11.29-4.17,18.34-5.79,30.35-4.38,13.31,1.48,21.29,5.06,32.84,14.75,9.49,7.79,13.95,13.84,18.96,25.74,3.03,12.95,3.41,20.44,1.69,33.16Z"/>
        <path class="cls-4" d="M90.04,307.71l-3.67,1.31,3.66-1.35s.01.03.01.04Z"/>
      </g>
      <polygon class="cls-4" points="45.05 204.74 45.05 204.75 45.04 204.74 45.05 204.74"/>
      <path class="cls-4" d="M90.04,307.71l-3.67,1.31,3.66-1.35s.01.03.01.04Z"/>
      <path class="cls-3" d="M201.5,372q3.86-4.04,6.61-1.47l13.96,13.04c9,8.45,9.18,9.55,5.88,14.69l-1.65,2.39c-.18,1.28,2.02,3.3,3.3,3.12,4.22-4.77,8.45-9.73,13.04-14.51,4.22-4.41,8.63-9.18,13.41-13.77.18-1.28-2.02-3.31-3.31-3.12l-2.57,2.02c-4.96,3.67-6.06,3.67-15.06-4.77l-36.18-33.42c-9-8.45-9.18-9.55-5.88-14.87l1.47-2.2c.18-1.28-2.02-3.3-3.31-3.12-4.04,4.59-8.08,9.18-12.49,13.96-4.41,4.59-8.81,9.37-13.96,14.51-.18,1.28,2.02,3.3,3.31,3.12l2.75-2.2c4.96-3.67,6.06-3.67,15.06,4.77l11.2,10.47c2.75,2.57,2.94,2.75-.92,6.79l-18.73,20.2c-3.67,4.04-3.86,4.04-6.61,1.28l-11.2-10.47c-9-8.45-9.18-9.55-6.06-14.51l1.65-2.39c.18-1.28-2.02-3.31-3.31-3.12-3.86,4.41-8.26,9.36-12.3,13.77-4.41,4.59-9.18,9.55-13.77,14.14-.18,1.29,2.02,3.31,3.31,3.12l2.39-2.02c4.96-3.49,6.06-3.49,15.24,4.96l35.99,33.61c9,8.45,9.18,9.55,5.88,14.69l-1.84,2.57c-.18,1.28,2.02,3.3,3.31,3.12,4.41-5.14,8.81-10.1,13.22-14.69,4.04-4.41,8.63-9.18,13.96-14.51.18-1.28-2.02-3.31-3.31-3.12l-3.31,2.75c-4.77,3.67-6.06,3.67-15.06-4.77l-13.96-13.04c-2.75-2.57-2.75-2.75.92-6.61l18.91-20.38h0Z"/>
      <path class="cls-3" d="M227.57,331.79c-2.2,2.39-2.2,6.24.37,8.45,2.57,2.39,6.24,2.2,8.45-.18,2.2-2.39,2.2-6.24-.37-8.45-2.39-2.39-6.24-2.2-8.45.18Z"/>
      <path class="cls-3" d="M265.95,336.38c8.63,8.08,8.81,9.36,5.69,14.51l-2.02,3.31c-.37,1.1,2.02,3.31,3.31,3.12,4.96-5.69,9.37-10.47,13.77-15.24,2.57-2.75,6.43-6.06,9.73-9.55,5.51-5.88,11.94-13.41,15.61-21.48,3.49-8.08,3.31-18.36-5.69-26.44-9.55-8.63-20.57-6.79-29.38-.73-.92.73-1.83.92-2.02.55-.55-.37,0-1.84.73-2.94,2.02-3.67,5.32-13.59-2.94-21.12-5.69-5.33-12.12-6.61-18.55-4.77-6.43,1.84-13.4,7.16-22.03,16.34-9,9.73-15.24,17.08-21.67,24.97-1.28,1.47,1.84,4.04,3.12,3.67l2.75-2.2c4.22-3.67,5.51-2.75,15.24,6.24l34.34,31.77h0ZM237.67,285.15h0c-4.22-4.04-4.96-4.77-.73-9.37,6.24-6.61,15.24-8.08,23.69-.18,5.88,5.32,8.26,13.41.55,21.85-4.77,4.96-4.96,4.96-7.53,2.57l-15.98-14.87h0ZM264.48,310.12h0c-3.86-3.67-4.04-3.67.92-9,8.63-9.37,19.1-8.63,27.54-.73,7.9,7.35,9.92,16.16,3.12,23.32-6.98,7.53-12.67,4.04-20.2-2.94l-11.38-10.65h0Z"/>
      <path class="cls-3" d="M295.33,259.26c-2.2,2.39-2.2,6.24.37,8.45,2.57,2.39,6.24,2.2,8.45-.18,2.2-2.39,2.2-6.24-.37-8.45-2.39-2.39-6.24-2.2-8.45.18Z"/>
      <path class="cls-3" d="M310.39,216.47c-9-8.45-9.18-9.55-5.88-14.69l2.2-3.12c.18-1.47-2.02-3.49-3.31-3.12-4.59,5.32-9,10.28-13.41,14.87-4.59,4.77-9.18,9.55-13.77,14.32-.37,1.65,1.84,3.67,3.31,3.12l2.94-2.39c4.77-3.67,6.06-3.67,15.06,4.77l35.99,33.6c9,8.45,9.18,9.55,5.88,14.69l-2.2,3.12c-.18,1.28,2.02,3.31,3.31,3.12,4.59-5.32,9.18-10.47,13.22-14.87,4.41-4.59,9-9.37,13.96-14.32.18-1.29-2.02-3.31-3.31-3.12l-2.94,2.39c-4.77,3.67-6.06,3.67-15.06-4.77l-10.1-9.55c-5.14-4.96-6.43-6.24-4.41-8.45,2.02-2.2,5.88-1.65,14.32-.18l12.67,2.2c2.39.37,12.49,2.2,13.77,2.39,1.47.18,2.2.73,2.57,1.1.37.37.18,1.29-.55,2.57l-1.65,2.94c-.37,1.65,2.02,2.94,3.49,2.02,4.77-5.51,8.45-10.83,11.94-16.16,3.49-4.96,6.43-10.1,9.92-15.79,1.84-2.94,2.75-9.55-1.29-10.83l-3.67,6.43c-1.65,2.02-3.49,6.79-9.37,6.24-16.89-.55-27.18-.92-39.48-2.39-7.53-.73-8.63-1.47-9.18-2.02-.37-.37-.74-.92-1.1-3.31-1.84-15.24-2.39-42.42-2.75-47.74,0-.92-.18-2.94-.92-4.22-1.65-2.57-5.88-3.49-7.53,1.1-1.65,4.59-4.41,17.07-9.92,23.32-.73,1.65,2.02,3.49,4.04,2.94l5.14-2.94c1.47-.55,1.84,3.49,2.2,5.51,0,.55.18,1.65.37,3.12,1.1,7.71,2.2,17.26,3.49,28.09.55,3.31.55,10.65-1.28,12.67-1.1,1.1-2.02,1.47-5.14-1.65l-11.57-11.02h0Z"/>
      <path class="cls-3" d="M365.48,184.15c-2.2,2.39-2.2,6.24.37,8.45,2.57,2.39,6.24,2.2,8.45-.18,2.2-2.39,2.2-6.24-.37-8.45-2.39-2.39-6.24-2.39-8.45.18Z"/>
      <path class="cls-2" d="M458.54,205.58c-.14,10.02-2.82,16.11-6.54,24.55-1.06,2.39-2.15,4.86-3.28,7.66-5.83,14.57-11.39,26.27-16.76,37.57-6.06,12.75-12.32,25.94-18.88,43.08-7.02,18.08-10.59,28.62-16.42,46.86l-.09.3c-5.49,23.23-8.5,37.05-12.9,62.48-1.01,5.85-1.59,10.94-2.15,15.86-.89,7.69-1.65,14.34-3.81,21.91-5.17,17.85-17.63,23.76-34.88,31.93l-.31.15c-3.88,1.83-7.22,3.47-10.44,5.06-9.97,4.91-17.17,8.46-29.39,11.99-19.99,5.84-31.1,8.29-53.59,7.19-12.58-.7-19.78-3.36-29.56-10.91-10.87-8.62-15.33-15.37-17.7-26.71-2.35-11.94-.49-24,4.85-31.49,24.03-33.27,28.62-39,54.48-64.32,23.11-22.76,36.67-36.43,60.89-62.18,22.98-24.6,37.05-39.79,59.09-66.08,11.89-14.21,17.79-23.65,26.72-37.96,1.12-1.79,2.29-3.66,3.52-5.63l.18-.31c1.3-2.55,2.47-4.71,3.51-6.61,3.6-6.57,5.97-10.92,7.34-20.51.39-2.82.54-5.9.7-9.16.66-13.41,1.81-19.06,7.26-19.06h.11c2.27,0,3.66.63,6.19,1.77l1.07.48c9.15,3.97,13.02,10.18,17.74,21.7,2.8,7.24,3.23,11.63,3.05,20.39Z"/>
      <path class="cls-4" d="M462.75,182.3c-4.5-10.97-9.25-20.49-21.86-25.96l-1-.45c-2.92-1.32-5.45-2.45-9.34-2.45-.09-.01-.18-.01-.27-.01-13.65,0-14.41,15.3-14.96,26.48-.15,3.09-.29,6-.63,8.46-1.17,8.18-3.05,11.62-6.46,17.86-1.04,1.91-2.22,4.07-3.54,6.66-1.2,1.91-2.35,3.74-3.44,5.5-8.76,14.02-14.55,23.29-26.09,37.07-21.95,26.19-35.26,40.56-58.8,65.76-24.12,25.65-37.64,39.27-60.66,61.95-26.31,25.75-30.96,31.57-55.34,65.33h-.01c-6.56,9.19-8.93,23.58-6.16,37.6,3.12,14.99,10.16,23.08,20.54,31.31,11,8.49,19.88,11.78,33.96,12.56,3.56.17,6.87.26,9.98.26,17.49,0,28.89-2.7,46.2-7.75,12.87-3.72,20.72-7.59,30.66-12.49,3.19-1.57,6.5-3.2,10.33-5l.32-.15c17.64-8.37,32.88-15.59,39.03-36.83,2.35-8.2,3.18-15.48,4.06-23.18.55-4.81,1.12-9.79,2.1-15.42,4.35-25.18,7.33-38.89,12.77-61.87,5.76-17.99,9.3-28.43,16.22-46.29,6.46-16.87,12.38-29.34,18.65-42.54,5.43-11.41,11.04-23.22,16.95-38,1.09-2.68,2.15-5.09,3.18-7.43,3.78-8.58,7.05-15.99,7.21-27.56.19-9.25-.28-14.81-3.6-23.42ZM448.72,237.79c-5.83,14.57-11.39,26.27-16.76,37.57-6.06,12.75-12.32,25.94-18.88,43.08-7.02,18.08-10.59,28.62-16.42,46.86l-.09.3c-5.49,23.23-8.5,37.05-12.9,62.48-1.01,5.85-1.59,10.94-2.15,15.86-.89,7.69-1.65,14.34-3.81,21.91-5.17,17.85-17.63,23.76-34.88,31.93l-.31.15c-3.88,1.83-7.22,3.47-10.44,5.06-9.97,4.91-17.17,8.46-29.39,11.99-19.99,5.84-31.1,8.29-53.59,7.19-12.58-.7-19.78-3.36-29.56-10.91-10.87-8.62-15.33-15.37-17.7-26.71-2.35-11.94-.49-24,4.85-31.49,24.03-33.27,28.62-39,54.48-64.32,23.11-22.76,36.67-36.43,60.89-62.18,22.98-24.6,37.05-39.79,59.09-66.08,11.89-14.21,17.79-23.65,26.72-37.96,1.12-1.79,2.29-3.66,3.52-5.63l.18-.31c1.3-2.55,2.47-4.71,3.51-6.61,3.6-6.57,5.97-10.92,7.34-20.51.39-2.82.54-5.9.7-9.16.66-13.41,1.81-19.06,7.26-19.06h.11c2.27,0,3.66.63,6.19,1.77l1.07.48c9.15,3.97,13.02,10.18,17.74,21.7,2.8,7.24,3.23,11.63,3.05,20.39-.14,10.02-2.82,16.11-6.54,24.55-1.06,2.39-2.15,4.86-3.28,7.66Z"/>
      <path class="cls-3" d="M241.35,475.76h-8.63v-37.65h-5.88v-6.06c2.75-.18,4.77-1.1,6.06-2.57,1.47-1.47,2.39-2.57,2.75-3.31h5.69v49.58h0Z"/>
      <path class="cls-3" d="M277.89,449.5c-.37,8.08-2.02,14.69-5.14,19.65-2.94,4.96-7.35,7.34-13.22,7.34-1.47,0-2.75-.18-4.04-.37-1.1-.18-2.2-.37-3.12-.73v-8.45c1.29.37,2.57.73,3.67.92,1.1.18,2.39.37,3.49.37,2.75,0,4.77-1.1,6.24-3.12,1.47-2.02,2.2-4.77,2.39-8.26-.55,1.1-1.65,2.2-3.31,2.94-1.65.92-3.3,1.29-4.59,1.29-4.41,0-7.71-1.47-10.1-4.41-2.39-2.94-3.67-7.16-3.67-12.67s1.28-10.1,4.04-13.41c2.75-3.31,6.43-4.96,11.38-4.96s9,1.65,11.57,4.77c2.57,3.12,4.04,8.08,4.41,14.87v4.22h0ZM268.52,443.44h0c0-3.67-.55-6.24-1.65-7.71-1.1-1.65-2.75-2.39-4.59-2.39-2.02,0-3.49.73-4.59,2.39-1.1,1.47-1.65,4.22-1.65,7.9s.55,6.06,1.65,7.71c1.1,1.65,2.57,2.39,4.59,2.39,1.65,0,3.31-.73,4.41-2.39,1.29-1.84,1.84-4.41,1.84-7.9Z"/>
      <path class="cls-3" d="M328.02,475.57h-8.26v-36.18h-5.51v-5.88c2.57-.18,4.41-1.1,5.69-2.39,1.28-1.29,2.2-2.39,2.57-3.12h5.32v47.56h.18Z"/>
      <path class="cls-3" d="M361.62,461.62h-2.75v13.77h-8.08v-13.77h-17.44l-.37-9.18,20.57-24.61h5.32v26.81h2.75v6.98ZM350.79,454.82h0v-14.51l-12.12,14.51h12.12Z"/>
      <path class="cls-3" d="M294.23,430.21c-2.2,0-3.86.73-5.33,2.2-1.47,1.47-2.2,3.3-2.2,5.51s.73,4.04,2.2,5.69c1.47,1.47,3.31,2.2,5.33,2.2s3.85-.73,5.14-2.2c1.47-1.47,2.02-3.31,2.02-5.69,0-2.2-.73-4.04-2.02-5.51-1.47-1.47-3.12-2.2-5.14-2.2ZM294.96,416.63h3.86l-7.34,11.39c.73-.18,1.28-.18,1.84-.37.55,0,1.1-.18,1.47-.18,2.75,0,5.14.92,6.98,2.94,1.84,2.02,2.75,4.41,2.75,7.53s-1.1,5.69-3.12,7.71c-2.02,2.02-4.59,3.12-7.71,3.12s-5.51-.92-7.53-2.94c-2.02-2.02-2.94-4.41-2.94-7.34,0-2.57,1.29-5.88,4.04-10.1l.37-.55,7.34-11.2h0Z"/>
      <path class="cls-3" d="M299.01,471.35c1.65.92,2.94,2.02,3.86,3.49.92,1.47,1.29,3.12,1.29,5.14,0,2.94-.92,5.51-2.94,7.35-1.84,1.84-4.41,2.94-7.34,2.94s-5.33-.92-6.98-2.75c-1.84-1.84-2.57-4.22-2.75-7.34h3.12c0,2.2.55,4.04,1.84,5.51,1.29,1.29,2.75,2.02,4.77,2.02s3.86-.73,5.14-2.02c1.28-1.29,2.02-3.12,2.02-5.14,0-2.39-.73-4.22-2.2-5.51-1.47-1.29-3.49-1.84-6.24-1.84h-1.47v-2.57h1.47c2.02,0,3.67-.37,4.59-1.29,1.1-.92,1.47-2.2,1.47-3.86,0-1.47-.37-2.75-1.29-3.67-.92-.92-2.02-1.47-3.31-1.47-1.47,0-2.75.55-3.67,1.47-.92.92-1.29,2.2-1.47,3.86h-2.94c.18-2.39.92-4.41,2.39-5.88,1.47-1.47,3.3-2.2,5.69-2.2,2.2,0,4.04.73,5.51,2.2,1.47,1.47,2.2,3.31,2.2,5.51,0,1.29-.18,2.39-.73,3.31-.37,1.1-1.1,1.84-2.02,2.75h0Z"/>
      <rect class="cls-4" x="285.05" y="452.07" width="18.36" height="1.84"/>
      <g>
        <path class="cls-3" d="M151.97,166.12c-2.11,1.78-4.29,2.8-6.8,3.16.37-2.99,1.21-5.69,2.56-7.99l4.23,4.83Z"/>
        <path class="cls-3" d="M196.35,239.39c-5.14,1.81-10.68,2.74-16.44,2.64-26.1-.47-46.95-22.07-46.49-48.18.13-7.06,1.8-13.73,4.69-19.71.32.08.56.12.67.14l.11.02c.3.05.59.09.88.12.4,12,6.16,26.38,16.79,39.52,8.71,10.77,19.39,18.92,30.05,22.97,3.38,1.29,6.64,2.12,9.75,2.48Z"/>
        <path class="cls-3" d="M203.14,224.49c-3.05,3.04-4.91,6.16-5.73,9.79-2.81-.29-5.81-1.03-8.96-2.23-9.82-3.74-19.71-11.32-27.85-21.38-9.73-12.03-15.16-25.33-15.63-36.13,3.88-.39,7.29-1.87,10.42-4.5l47.75,54.46Z"/>
        <path class="cls-3" d="M209.67,231.95c-1.99,1.24-4.3,2.01-6.85,2.33.69-2.11,1.91-3.98,3.77-5.85l3.09,3.53Z"/>
        <path class="cls-3" d="M151.97,166.12c-2.11,1.78-4.29,2.8-6.8,3.16.37-2.99,1.21-5.69,2.56-7.99l4.23,4.83Z"/>
        <path class="cls-3" d="M203.14,224.49c-3.05,3.04-4.91,6.16-5.73,9.79-2.81-.29-5.81-1.03-8.96-2.23-9.82-3.74-19.71-11.32-27.85-21.38-9.73-12.03-15.16-25.33-15.63-36.13,3.88-.39,7.29-1.87,10.42-4.5l47.75,54.46Z"/>
        <path class="cls-3" d="M209.67,231.95c-1.99,1.24-4.3,2.01-6.85,2.33.69-2.11,1.91-3.98,3.77-5.85l3.09,3.53Z"/>
        <path class="cls-3" d="M155.53,162.95c2.02-1.89,3.29-3.93,3.94-6.38-3.02.02-5.79.53-8.23,1.61l4.3,4.77Z"/>
        <path class="cls-3" d="M223.08,215.63c2.4-4.9,3.98-10.28,4.55-16.02,2.6-25.97-16.4-49.22-42.38-51.83-7.02-.7-13.85.17-20.12,2.34.04.33.05.57.06.68v.11c.02.3.03.6.02.89,11.87,1.8,25.48,9.22,37.27,21.31,9.67,9.91,16.51,21.47,19.28,32.54.88,3.51,1.32,6.85,1.32,9.97Z"/>
        <path class="cls-3" d="M207.48,220.63c3.37-2.68,6.7-4.15,10.39-4.54.04-2.82-.34-5.89-1.16-9.16-2.56-10.2-8.93-20.9-17.96-30.17-10.8-11.07-23.38-18.03-34.05-19.76-.84,3.8-2.71,7.02-5.7,9.82l48.47,53.81Z"/>
        <path class="cls-3" d="M214.12,227.99c1.47-1.83,2.5-4.03,3.12-6.53-2.17.44-4.17,1.43-6.26,3.05l3.14,3.48Z"/>
        <path class="cls-3" d="M155.53,162.95c2.02-1.89,3.29-3.93,3.94-6.38-3.02.02-5.79.53-8.23,1.61l4.3,4.77Z"/>
        <path class="cls-3" d="M207.48,220.63c3.37-2.68,6.7-4.15,10.39-4.54.04-2.82-.34-5.89-1.16-9.16-2.56-10.2-8.93-20.9-17.96-30.17-10.8-11.07-23.38-18.03-34.05-19.76-.84,3.8-2.71,7.02-5.7,9.82l48.47,53.81Z"/>
        <path class="cls-3" d="M214.12,227.99c1.47-1.83,2.5-4.03,3.12-6.53-2.17.44-4.17,1.43-6.26,3.05l3.14,3.48Z"/>
      </g>
    </g>
  </g>
</svg>