<?xml version="1.0" encoding="UTF-8"?>
<svg id="Calque_2" data-name="Calque 2" xmlns="http://www.w3.org/2000/svg" viewBox="0 0 1068.83 1091.83">
  <defs>
    <style>
      .cls-1 {
        fill: #ffe501;
      }

      .cls-2 {
        fill: #fff;
      }

      .cls-3 {
        fill: #026536;
      }
    </style>
  </defs>
  <g id="Calque_1-2" data-name="Calque 1">
    <path d="M746.64,1078.17c-2.68,2.32-6.72,8.07-12.95,11.62-3.68,2.14-7.6,2.32-9.95,1.8-2.39-.52-3.69-4.23-9.41-11.1-5.72-6.84-12.48-16.42-20.05-24.59-6.79-7.26-15.53-14.02-25.45-15.32-11.29-1.57-19.26-3.76-37.65-7.65-15.9-3.34-40.09-11.72-53.47-19.16-7.06-3.97-12.39-11.36-18.02-16.76-1.86.6-2.1-4.88-7.19,1.36-2,2.4-6.19,5.25-9.58,6.37-17.53,5.61-35.59,1.59-45.15-6.47-5.55-4.67-8.31-7.83-11.98-14.23-2.15-3.76-4.91-11.17-5.36-15.66-7.74,1.09-12.95.68-18.18,2.32-5.42,1.78-12.71,3.52-17.3,5.69-18.29,8.35-30.6,24.17-45.81,35.97-5.47,4.15-11.32,9.42-16.58,13.76-4.84,3.84-9.54,7.23-14.18,11.35-3.5,3.11-8.91,9.37-10.11,10.49-8.42,7.28-13.18,20.13-25.44,22.79-13,2.77-44.82-9.48-59.33-10.6-.25-3.5,2.1-6.84,4.12-9.06,8.29-8.98,28.19-13.39,39.7-20.08,14.11-8.22,26.31-21.06,38.7-31.43,3.92-3.39,6.94-7.65,10.3-11.62-34.89-2.79-65.29-6.21-91.55-17.31-14.72-6.19-30.63-15.32-43.8-23.96-4.7-3.08-11.1-8.35-14.19-10.42-2.62-1.62-4.58-3.71-7.74-5.06-6.42,29.94-12.61,60.04-18.58,90.24-1.75,8.8-3.3,15.12-5.33,22.56-.6,2.11-5.57,1.8-9.6,1.41-2.3-.24-15.46-2.32-16.69-4.62-1.75-3.24,2.13-16.63,2.52-18.72,2.01-10.73,11.08-59.1,12.41-64.79,1.58-10.81,7.94-36.88,9.8-45.91,0,0-27.33-30.57-29.94-33.52-8.99-10.18-18.65-16.94-29.65-25.27-.89-.68-4.75-2.45-5.48-3.02,2.65-.65,16.95-3.92,22.16-4.67,0-.21-6.56-2.59-6.38-2.61-24.64-12.79-44.38-38.29-57.99-61.84-3.83-6.63-9.97-20.39-10.83-20.1-2.47-5.27-6.72-15.22-8.51-19.92-6.6-17.23-17.45-62.44-13.46-46.21,0,0-2.27-9.11-6.03-27.25-3.74-18.12-6.04-24.72-8.86-37.38-7.27-24.54-18.89-55.97-21.9-66.04-.8-2.69-4.03-11.07-4.03-11.07,0,0,9.23,5.04,10.43,5.72-9.11-29.89-16.3-67.11-11.58-107.78,6.49-56.67,32.67-96.56,51.57-140.51,3.97-9.34,6.88-15.69,12.37-28.01,1.17-2.67,5.5-14.65,5.65-15.8,1.08-7.05,1.8-11.2,3.9-18.09,3.33-11.15,9.68-25.69,15.45-36.07,8.97-16.13,20.87-34.38,26.69-40.8,5.82-6.5,17.79-20.54,19.72-22.34,0,.05,43.63-39.34,65.74-51.58,8.41-4.7,16.3-6.68,24.49-11.59,15.83-9.63,31.54-21.12,48.98-29.63-6.56,13.94-14.59,22.87-19.34,38.63.72,0,3.11-.44,3.87,0C291.83,48.43,335.79,11.34,414.56.61c26.63-3.65,59.09,10.47,92.25,5.09l-.05,8.04c-16.94,12.01-30.16,21.93-46.37,34.48-19.8,15.27-39.05,30.02-57.22,47.64-4.74,4.65-29.35,28.9-30.18,30.2,14.33-7.18,35.2-8.8,50.03-9.5,34.69-1.85,76.76,13.5,109.58,5.14-7.47,9.45-13.27,9.58-21.94,16.78-14.17,11.62-22.84,29.94-37.37,41.24-18.29,14.07-38.72,24.51-61.88,33.52.16.03,0,3.65,0,3.84,6.73-.55,13.76,1.85,12.56,3.02-7.94,7.57-19.49,12.24-28.02,19.14-14.79,11.8-26.53,25.66-42.54,36.6,6.53,11.96,5.37,17.88.29,27.64,16.48-3.37,38.95-11.12,52.81-14.78,42.21-11.15,77.13-13.91,124.81-17.46,18.06-1.38,39.42-2.32,60.56-1.43,11.33.47,67.97,1.8,51.62.68,34.91,2.69,62.1,5.07,87.29,6.42-2.69-2.37-6.61-5.53-9.74-8.46-2.53-2.25-5.36-4.04-8-6.24-7.45-6.32-15.82-13.76-22.21-20.2-4.53-4.6-6.97-9.89-12.61-13.31-15-9.14-28.78-13.52-42.56-23.36-14.54-10.34-27.88-25.53-39.94-38.5-11.08-11.96-23.31-21.85-33.51-34.77,22.38,3.26,46.66,8.3,72.2,6.42,10.86-.83,23.65-3.03,37.02-4.31v-1.64s-9.07-10.47-11.15-12.43c-9.28-8.9-18.22-20.33-26.18-30.25-11.09-13.81-19.87-27.54-30.66-41.63-10.22-13.29-21.77-23.89-30.92-38.66,17.58,7.05,33.75,19.42,55.43,21.93,32.43,3.68,60.07-4.78,91.53,0,8.19,1.2,24.85,7.52,29.61,10.31,4.83,2.79,8.48,9.56,11.63,10.29,9.62,2.22-3.6-12.01,5.16-9.03,5.18,1.75,8.33,11.2,11.6,15.53,6.03,8.01,11.67,15.84,20.19,21.43,10.85,7.05,40.64,23.08,41.68,23.68,55.94,30.65,131.05,69.07,134.08,146.91-1.24-.84.44,7.13.44,7.13l-.4,22.55c.08-1.67-2.44-37.77-.91-37.62.65,1.2,7.95,17.36,8.69,19.5,2.35,7.07,4.75,16.29,8.72,26.13,5.49,13.7,10.6,26.44,17.07,39.68,8.48,17.28,19.94,36.62,28.27,54.09,7.07,15.04,10.05,25.58,15.01,42.73,5.91,20.78,13.74,50.48,15.95,74.63,2.37,27.41-1.09,55.02-6.49,75.49,2.91-.6,9.03-2.01,9.03-2.01,0,0-24.17,37.85-32.23,56.7-11.08,25.71-8.4,47.06-17.14,79.93-2.26,8.54-7.06,26.29-9.95,33.52-10.78,26.7-23.3,50.62-44.43,70.58-12.08,11.38-21.46,19.45-28.87,26.81l-5.65,4.44c10.99-1.41,17.85-2.4,28.71-3.86,0,.15-.06,3.86,0,3.89-5.14,2.45-12.92,4.36-18.06,7.7-3.3,2.11-6.08,7.81-9.03,10.29-7.45,6.29-14.66,11.9-21.92,18.06-11.68,9.87-22.52,15.4-33.49,25.92-8.12,7.81-15.58,18.27-23.23,25.63-6.98,6.68-24.99,19.76-26.01,20.65-21.14,18.22-133.04,55.81-160.31,55.62.19.16,4.58,2.09,4.58,2.38,6.07,1.75,12.72,3.13,19.33,4.44,8.72,1.57,16.55,2.82,24.48,5.87,9.5,3.68,57.11,35.87,38.67,49.02,0,0-4.97,5.3-7.66,7.67ZM307.21,317.56c-2.56,3.4-23.83,22.66-35.73,33.44-5.13,4.54-17.52,11.2-20.6,16.76-2.02,3.44-1.19,7.72-2.59,11.59-1.41,3.6-6.72,10.52-7.75,14.17-3.92,13.63-7.65,30.44-9,43.8-3.8,36.47,6.67,65.23,3.87,103.14-2.39,31.53-13.11,59.83-20.1,88.05,9.75,7.7,16.37,16.76,22.49,29.08l1.54-5.25c9.97-43.86,17.69-77.55,26.23-118.35,10.02-48,21.18-96.37,31.7-146.91,3.07-14.75,7.75-30.2,10.57-43.85,1.58-7.73,5.23-24.59,6.19-33.52,0,0-3.46,3.5-6.83,7.86ZM335.93,361.29c-15.61,92.85-40.71,184.89-59.8,275.86-5.95,28.32-12.71,59.12-19.43,86.3l7.67-17.44c1.32-4.05,4.82-10.02,8.17-19.37,10.68-29.92,25.5-79.93,28.02-89.43,2.48-9.4,6.49-22.48,8.85-32.21,2.34-9.87,4.22-17.36,5.13-20.65,14.62-55.57,20.66-113.86,25.26-183.06-.38,0-3.81.21-3.87,0ZM599.42,930.29c-.63-.47-1.75-1.33-2.99-5.69-2.48-8.43-3.37-32.42,8.52-52.84,10.92-18.74,25.02-31.09,35.1-37.12,10.06-6.08,26.18-14.52,19.47-11.15-6.74,3.37,11.3-5.54,16.71-8.43,5.44-2.98,16.2-11.04,25.27-19.6,13.52-12.74,24.21-38.79,30.18-59.1.46,0,3.64.31,3.87,0-3.56,26.05,2.44,44.38,6.94,65.65,0,0,4.03-10.05,5.95-17.93,4.39-18.22,10.29-36.6,19.33-50.28,3.42-5.25,18.73-22.37,19.37-26.29.51-2.95,1.92-2.77,2.56-4.65-42,0-77.37,4.33-119.9,2.04-41.06-2.17-92.62-12.92-143.23-12.53-73.76.55-167.17,16.29-236.32,34.43.63.58,12.75,18.45,14.78,21.51,3.36,5.01,8.05,11.38,17.79,15.43,1.02-6.66.93-17.33,1.51-24.77.2.31,4.39,5.22,5.18,6.45,1.08,1.8,4.06,4.78,5.42,6.58,6.76,9.27,12.67,14.72,21.47,21.8,23.99,19.26,54.9,30.7,81.38,47.66,15.32,9.84,28.32,24.82,39.95,38.69,12.75,15.17,25.15,26.13,29.65,50.25l1.81,5.06c4.96-3.52,7.86-4.1,17.51-4.15,23.73-.15,51.88,9.79,61.04,26.76,0,0,9.61-5.85,11.67-7.78Z"/>
    <g>
      <path class="cls-1" d="M327.87,765.46c-1.02,7.47-1.36,18.51-3.59,25.14-4.69,14.12-7.24,31.11,6.76,54.11,2.01,3.31.77,7.33,3.88,9.03,6.07,3.31,18.14,3.97,25.65,5.82,12.94,3.11,23.26,6.61,34.68,10.94,4.1,1.54,12.53,8.22,14.55,8.75-18.06-17.83-36.52-42.73-52.16-61.13-4.68-5.48-12.32-13.73-16.24-19.81-6.3-9.68-4.4-13.49-10.39-23.62-.48-.81-2.9-8.72-3.15-9.22Z"/>
      <path class="cls-1" d="M750.87,1058.96c-6.68-8.75-11.61-16.34-20.1-22.14-2.35-1.62-4.84-3.29-13-8.07-8.14-4.83-35.34-7.18-57.27-14.8-2.28-.73-18.23-5.72-20.25-6.87-5.22-2.82-10.42-4.78-15.48-7.94-12.97-8.04-22.67-20.36-33.53-30.7-.47.57-3.11-.42-3.87,0,.65-.26-2.65,3.65-4.65,6.47-5.01,6.63-12.35,11.15-20.36,14.67,1.08,2.35,2.07,3.58,3.31,5.69,1.53,2.74,12.33,10.05,9.05,7.93,18.45,11.59,15.75,9.77,38.93,17.2,1.15.36,19.21,6.27,20.43,6.5,21.5,4.51,46.93,9.06,53.85,13.94,6.92,4.88,29.21,29.5,33.27,36.15,5.48,8.98,5.15,9.01,14.17,2.61,2.66-1.91,9.03-7.91,11.73-10.94,2.66-3.05,6.17-6.29,3.76-9.74h0Z"/>
      <path class="cls-1" d="M227.7,383.23c-7.45,1.36-31.13,25.19-39.94,29.65h-1.31c-2.88,8.22,1.37,23.99,0,33.54.4,0,3.51-.26,3.86,0,11.16-24.17,25.66-41.48,41.27-60.61-1.38-.76-.69-3.26-3.89-2.59Z"/>
      <path class="cls-1" d="M964.42,325.29c-4.4,13.1-7.94,24.04-12.07,37.35-2.25,6.94-8.01,22.69-10.18,29.92-5.34,17.25-7.73,24.22-13.42,42.31-7.61,23.99-17.46,57.43-23.97,86.35-7.51,33.36-12.07,47.45-19.68,82.35,1.68.6,7.05,16.23,9.4,31.33,2.91,14.77,1.35,25.55,4.03,53.69,1.14-.81,11.17-12.27,12.56-12.74,0-.44,16.73-18.87,22.97-24.22,4.98-4.36,11.13-8.3,15.86-12.74-27.47-90.24,7.01-214.28,24.49-294.29,2.21-10.23,5.38-25.89,6.04-35.94,1.16-17.33-2.68-30.23-4.71-44.35,0,0-4.89,41.69-11.3,60.98Z"/>
      <path class="cls-1" d="M924.85,839.98c8.04-9.19,17.14-16.6,19.58-18.48,27.2-20.78,42.78-48.03,56.74-82.49,3.38-8.46,7.24-20.1,9.57-29.63,3.28-14.04,6.72-26.78,8.47-39.99.12-1.07,2.39-14.04,2.53-15.48.48-6.68,4.44-20.62,6.79-28.48-1.26.84-3.7,2.72-5.45,4.78-2.13,2.48-14.83,20.67-17.53,25.01-6.85,11.01-13.43,22.32-20.15,33.54-8.34,13.73-15.64,27.44-25.26,39.94-28.62,37.07-62.22,63.95-95.11,94.18-1.28,1.15-8.42,7.57-9.53,8.95-4.45,5.12-5.27,5.64-9.27,11.17-1.01,1.28-5.65,7.96-6.21,9.45-.59,1.33-2.78,4.52-3.56,5.8,10.83,0,22.76-4.07,30.65-5.06,20.88-2.61,32.77-4,52.21-6.4l5.55-6.81Z"/>
      <path class="cls-1" d="M682.49,133.39c9.27-.52,17.09-.97,26.05,1.1,21.54,4.93,35.76,9.4,47.68,16.76,2.06,1.25,10.81,6.24,18.38,11.02,7.6,4.8,11.07,9.87,15.23,12.5,4.18,2.66,10.55,7.23,11.85,8.09-9.85-18.82-17.32-47.67-20.33-71.63-1.43-11.04-.94-21.74-4.27-32.21-2.86-8.95-12.69-12.61-18.44-19.19-10.09-11.56-15.11-19.11-50.05-21.8-17.15-1.3-35.37,1.3-51.61,1.33-15.43,0-30.95.03-54.47-8.69,1.25,1.23,7.05,6,11.92,9.21,3.77,2.51,7.3,4.31,11.63,6.71,10.47,5.66,22.77,11.83,33.5,17.02,11.09,5.46,21.95,8.8,33.52,13.91,16.48,7.18,32.58,16.5,47.68,25.29,9.83,5.77,19.85,12.53,28.38,19.79,1.74,1.54,2.2,6.5,3.87,7.99-5.57-3.47-9.96-5.07-15.46-8.48-13.47-8.33-26.09-17.33-41.27-24.48-8.58-4.05-17.48-9.79-25.78-13.42-13.21-5.82-24.82-8.87-37.39-14.88-10.99-5.38-16.57-9.4-28.09-15.48-3.33-1.83-11.12-7.6-12.1-8.14-4.53-2.38-6.96-5.61-9.06-6.32,4.84,7.15,15.66,20.39,20.9,26.78,7.88,9.55,13.96,18.92,21.72,28.27,8.12,9.79,17.92,19.45,25.97,29.73.9-.49,1.85.89,2.58,1.28l7.47,7.94Z"/>
      <path class="cls-1" d="M910.98,269.92c-22.36,2.72-46.29,3.53-71.01,5.35-11.78.86-24.32,1.46-36.07,2.32-11.13.84-25.77,0-35.25.68-4.59.29-17.83-.76-25.74-.76l-37.72-31.17c-.56-1.46-9.93-8.77-10.73-10,18.12,3.99,38.31,6.71,52.74,5.01,10.5-1.23,24.93-5.45,35.19-7.02,30.19-4.62,60.31-1.83,81.59,5.71,17.11,6.06,30.88,16.79,34.93,19.81,4.04,3.03,12.09,10.05,12.09,10.05Z"/>
      <path class="cls-1" d="M917.95,269.01c17.35-2.38,30.83-6.52,45.42-9.94l4.4-1.02s-.04-8.14-.24-10.13c-.51-5.82-1.57-12.32-3.63-18.06-4.5-12.37-11.11-25.45-18.04-36.07-24.02-36.65-67.43-63.25-107.24-83.82-14.06-7.28-25.57-13.47-39.95-20.57.6,1.3,4.6,5.95,5.1,7.44,2.01,5.9,15.09,19.03,19.91,24.75,14.42,17.07,27.64,34.56,43.32,50.33,21.19,21.25,42.67,45.84,62.4,67.01,2.26,2.4,4.45,7.15,7.19,9,2.86,2.01-3.84,3.78-3.85,3.87-8.72-11.2-19.77-18.69-28.3-29.71-17.33-22.37-39.87-39.99-58.06-61.55-19.67-23.36-42.33-47.06-56.71-74.78-.42,0-5.03-6.5-5.3-6.74,4.19,18.72,7.63,51.16,13.39,72.25,5.57,20.41,14.08,35.89,24.21,52.18,3.81,6.16,10.68,21.51,11.06,21.59,7.4,2.04,13.98,4.12,21.5,5.74,9.4,1.99,15.74,4.34,25.52,9.01,9.06,4.41,13.12,8.04,16.46,10.47,17.1,12.4,21.44,18.77,21.44,18.77Z"/>
      <path class="cls-1" d="M169.22,1018.58c-.61,4.02-2.91,12.76-2.91,18.27,4.27,1.02,8.63,1.64,14.41,2.56,5.05-22.5,10.05-51.76,15.47-77.35,33.02-156.49,70.98-304.08,103.64-460.18,2.79-13.52,7.98-30.2,10.85-43.83,5.65-27.51,9.83-51.87,15.7-78.62,4.41-20.41,11.12-44.64,13.13-65.76-7.79,3.31-12.48,1.98-19.06,0-3.26,12.76-5.87,27.38-9.02,41.22-20.89,91.81-39.38,185.54-61.29,277.98-7.27,30.67-13.46,62.7-20.92,93.32-11.84,48.24-20.8,97.23-31.72,149.52-5.37,25.48-13.08,57.09-16.72,81.81-2.02,9.4-10.87,56.75-11.56,61.06Z"/>
      <path class="cls-1" d="M424.71,7.08c-15,1.33-31.65,4.02-43.6,8.07-51.83,17.28-83.26,41.61-113.47,81.26-2.81,3.65-5.99,8.62-9.01,12.27-4.53,5.3-11.98,9.01-15.48,15.45-6.62,12.14-9.8,31.85-10.33,44.61,8.95-8.51,15.13-16.05,23.21-25.53,3.98-4.78,9.97-10.88,14.2-15.4,2.3-2.53,2.69-2.84,5.13-5.25,11.07-10.86,23.71-22.55,36.12-32.13,48.8-37.8,85.84-56.46,154.68-77.4l-1.25-2.35c-12.73-1.05-26.14-4.88-40.19-3.6Z"/>
      <path class="cls-1" d="M310.19,305.48c-4.61-4.02-5.05-18.17-3.21-23.05,1.51-3.97,5.4-10.29,10.01-13.65,8.74-6.37,27.07-4.85,33.73,2.82,10.81-10.34,29.98-25.32,43.28-38.01,0,0,12.46-7.23,12.46-7.65-26.83,0-63.99-2.14-93.67,1.28-36.73,4.18-91.86,23.57-116,41.22-9.34,6.79-13.87,21.43-20.64,30.96-14.39,20.18-31.33,38.58-47.7,56.7-7.08,7.78-9.92,13.39-16.47,21.72-2.96-1.62-8.26-.05-10.58-1.04,2.02-10,6.63-13.31,14.17-20.68,2.4-2.37,3.97-5.56,6.46-7.7,25.32-23.02,44.75-49.88,63.15-79.95,10.67-17.54,22.92-34.85,29.63-56.7,8.94-29.05,10.82-62.23,20.66-91.52,1.85-5.66,8.08-11.64,10.55-16.76,4.33-9.29,8.9-19.21,14.28-29.92-.76,0-8.65,5.82-9.36,5.38-12.99,8.69-22.71,14.18-23.73,14.75-13.73,7.55-24.42,11.3-36.87,20.07-5.36,3.73-19.13,15.64-24,19.73-45.97,38.69-80.47,84.45-92.02,156.86-1.57,9.84.69,23.1,1.29,30.96,2.31,31.06,5.51,55.65,12.89,79.9,5-3.29,13.82-10.1,21.21-16.81,10.63-9.68,15.58-16.21,23.91-19.26,3.47-1.33,4.58-.68,6.46-1.31-4.49,15.09-2.17,37.35,0,52.86.37,0,3.69-3.34,3.84-3.05,32.49-51.71,75.78-88.7,125.05-123.73,19.02-13.52,36.57-24.54,59.3-35.11-10.22,7.28-21.86,17.15-32.21,23.94-6.28,4.1-11.68,7.94-17.67,12.37-3.22,2.27-7.63,5.87-10.7,8.3-4.36,3.32-7.51,4.75-11.92,8.09-2.48,1.83-4.99,4.2-7.42,6.08-32.51,25.09-59.75,51.48-83.78,85.1-9.48,13.1-23.57,21.85-21.93,42.78.81-.7,8.39-8.12,10.33-10.34,3.33-4.02,8.76-8.59,12.85-11.85,11.06-8.93,6.75-14.49,10.34-28.32.84.52,4.16,0,5.13,0,4.5,10.99.91,4.18,9.05,8.98,11.2-7.05,23.05-14.41,34.82-21.9,3.66-2.37,21.16-15.09,25.78-18.3,5.05-3.66,18.72-14.62,23.45-18.67,12.96-11.25,16.84-14.09,29.59-26.54,3.64-4.02,7.13-8.23,6.23-9.03Z"/>
      <path class="cls-1" d="M417.87,124.56c-11.64.91-51.05,8.77-65.13,17.59-8.48,5.3-16.12,13.94-24.5,19.34-20.52,13.03-39.27,23.7-61.87,34.79-13.9,6.79-21.23,14.18-43.84,14.18-5.77,17.99-15.32,29.11-20.87,46.39,27.63-13.05,48.3-25.01,82.75-32.73,13.82-3.16,28.89-5.82,42.54-6.84,19.97-1.52,42.22,3.42,61.89-.36,5.8-1.17,13.77-7.05,19.32-9.01,36.68-13.34,66.2-33.49,87.64-61.86,3.36-4.52,10.68-9.37,14.06-13.39-22.19-3.37-74.55-9.4-91.99-8.09Z"/>
      <path class="cls-1" d="M579.6,140.08c.64.89,7.91,6.06,8.75,6.71,7.78,6.06,23.47,9.08,29.89,12.14,2.21,1.07,5.77,2.04,7.76,2.87,8.87,3.79,13.95,6.76,23.45,9.84,10.4,3.37,21.33,8.64,33.24,11.04,3.9.83,15.68,4.18,22.48,5.38,9.4,1.72,12.97,2.56,21.36,3.89,3.34.5,8.84,1.49,15.24,2.84,8.41,1.8,14.28,4.86,22.12,7.42,4.51,1.57,8.3,3.18,11.59,4.46,1.64.55,4.62,0,6.46,0,0,0,3.91,5.35-5.14,5.14-8.91-.26-24.82-7.93-36.11-10.34-29.52-6.32-60.01-10.05-88.93-21.87-15.94-6.53-39.91-16.71-57.36-22.74,1.35,1.85,9.55,6.66,10.92,8.54,1.68,2.22,6.87,7.6,8.98,9.82,16.41,17.05,32.43,28.56,55.09,39.83,9.33,4.67,15.71,8.56,26.73,11.98,5.36,1.67,10.76,3.16,16.43,4.33,9.27,1.96,25.19,4.04,34.63,2.3,25.24-4.52,47.26-8.98,78.85-8.98-1.29-1.75-2.62-4.36-4.02-8.28-2-5.48-6.07-10.88-8.52-14.36-3.81-5.48-7.18-7.99-12.2-12.17-7.77-6.53-19.56-12.87-28.28-20.28-5.94-5.01-11.07-5.8-17.45-10.05-9.59-6.4-23.57-13.89-38.28-17.41-16.22-4.07-26.19-4.1-38.28-2.74-34.69,3.84-64.75,5.79-99.38.68h0Z"/>
      <path class="cls-1" d="M327.44,273.57c-18.21,3.58-22.18,40.04,9.85,34.93,20.4-3.26,18.66-40.57-9.85-34.93Z"/>
      <path class="cls-1" d="M65.15,305.39c-24.17,42.99-46.1,91.73-56.23,153.59-1.99,12.06,1.11,30.02,2.73,45.34,1.54,14.9,4.57,36.05,9.5,49.91,5.08,14.33,6.12,18.56,8.2,21.51,5.35,7.62,9.07,10.31,11.45,12.37,11.55,9.97,21.22,20.78,34.41,31.45,15.22,12.32,36.31,16.68,53.22,26.57,10.79,6.29,22.55,16.31,32.24,24.48,2.1,1.75,14.79,13.23,16.16,13.84,6.03-8.04,9.71-16.29,14.77-26.15,17.9-35.32,33.99-79.3,37.6-127.73,2.31-30.88-9.73-61.42-5.38-95.83,1.31-10.44,5-19.32,6.44-32.29-.18-.1-2.57-1.28-2.57-1.28-16.8,16.73-22.3,32.89-33.5,55.44-3.64,7.23-10.75,16.14-12.92,24.51-3.07,11.93-2.79,20.2-5.13,32.21-7.29,36.78-16.37,77.24-27.07,110.86-2.34,7.2-3.9,12.69-6.45,19.31-.69.05-4.91,1.75-7.75,2.61,0,0-1.61-6.89-1.27-9.03,1.27-9.66,8.01-24.17,11.6-34.82,8.73-26.29,13.22-52.78,19.34-83.74,5.76-29.37,14.61-66.67,10.3-95.44-7.23,6.81-17.45,12.58-23.21,20.65-2.13,2.87-10.16,11.88-11.58,14.17-5.87,8.93-4.87,13.52-10.91,22.42-2.44,3.58-11.35,13.99-12.31,18.85-1.65,7.99,4.28,20.21,5.17,27.02,4.54,36.1,4.97,76.27,1.28,109.58-3.07-.99-6.28-1.86-9.02-2.56,2.19-31.43,4.4-62.96,1.02-92.43-2.55-21.98-12.3-49.21-16.04-65.6-6.49-28.14-13.52-48.16-17.07-60.61-5.39-18.82-10.76-59.12-10.76-59.12,0,0-4.24-25.35-6.15-31.64l-.12-18.46Z"/>
      <path class="cls-1" d="M985.89,309.05c-1,16.13-4.53,43.07-9.21,59.91-.74,2.66-2.54,13.78-3.35,16.86-2.45,8.85-3.54,12.66-5.48,22.14-1.53,7.39-3.82,18.01-5.35,25.56-7.61,36.31-12.33,69.02-12.88,107-.48,30.96,1.37,62.83,8.1,93.03,25.87-13.99,47.38-22.84,70.48-35.61,4.89-2.71,17.66-7.88,20.69-12.32,4.04-5.95,5.14-16.1,6.16-24.59,4.02-33.59,1.63-69.17-4.88-99.11-2.19-10.13-5.52-24.02-7.87-33.81-4.18-17.28-9.88-33.12-16.57-48.37-7.84-17.7-24.17-50.12-33.59-67.56l2.85,19.5c4.79,23.89,10.39,52.6,13.66,77.35,6.32,48.08,9.03,106.24-.27,150.8-2.5,11.85-2.01,15.09-7.19,18.06,3.05-14.98,2.68-29.84,4.44-45.11,1.74-15.27,2.44-34.35,1.5-47.4-2.06-27.3-3.76-50.25-6.71-76.09-3.19-27.83-9.09-57.04-11.81-82.77l-2.7-17.47Z"/>
      <path class="cls-1" d="M125.82,378.08c-2.61,2.43-8.71,9.37-16.82,16.92-8.43,7.78-18.82,16.08-18.82,16.08,0,0,5.39,23.28,8.95,37.61,3.59,14.31,8.16,27.3,13.45,41.19.12-.18,6.79-7.39,6.79-7.39,5.74-8.77,11.07-15.04,12.89-24.69,4.76-25.71-2.01-58.97,0-84.31l-6.43,4.59Z"/>
      <path class="cls-1" d="M195.41,854.2s-13.93.08-20.24-.13c-10.65-.26-15.78-5.32-44.31-2.32,4.02,3.02,6.71,4.38,9.72,6.03,4.27,3.94,10.44,7.15,14.94,11.14,10.73,9.61,12.94,15.69,24.02,26.44,1.2,1.15,3.43,5.19,4.41,6.4,1.84-7.55,3.99-15.12,5.66-23.83,1.77-9.4,3.41-12.95,5.8-23.73Z"/>
      <path class="cls-1" d="M196.76,846.16c7.22-32.37,12.54-63.22,19.45-91.6-1.38-.63-11.15-24.33-21.98-36.13-8.72-9.53-18.63-22.63-28.39-30.93-14.43-12.45-23.48-23.1-39.77-32.94-5.6-3.34-17.45-7.83-23.38-10.94-10.47-5.46-17.91-8.77-27.64-15.01-3.48-2.25-15.28-13.71-18.82-16.08-8.78-5.9-25.06-24.17-31.11-28.14-.9-.63-7.3-8.87-8.25-9.48,5.31,13.08,14.47,36.15,17.88,50.12,3.83,15.53,7.83,28.4,11.46,44.38,6.29,27.59,15.64,58.97,21.68,75.6,3.57,9.84,12.32,23.13,18.06,32.68,22.22,37.12,48.19,71.16,103.11,68.34l7.7.13Z"/>
      <path class="cls-1" d="M1030.92,606.33c-16.94,5.72-37.89,18.51-52.47,26.49-12.01,6.55-22.77,12.97-32.76,21.09-9.56,7.73-34.77,30.93-37.38,34.85-1.46,2.01-10.1,8.19-10.1,8.19-2.06,25.74-7.95,47.82-14.41,70.38-4.49,15.74-11.42,28.72-18.14,44.14,17.44-15.14,28.73-25.45,41.11-37.67,15.96-15.74,34.16-31.43,47.71-49.78,17.29-23.49,29.91-51.22,46.41-75.52,8.33-12.27,30.15-35.06,39.99-45.86-.43-.34-9.91,4.1-9.96,3.68Z"/>
      <path class="cls-1" d="M302.01,755.37c-6.1-5.82-10.65-25.24-18.9-26.65-3.63-.63-10.04,3.24-12.9,3.86-6.98,1.38-13.42.31-16.53,5.17-2.74,4.18-2.11,10.02-3.36,15.51-3.72,16.31-7.77,33-11.56,51.5-2.91,13.7-7.23,29.94-10.33,44.98,14.58,3.7,32.18,1.07,49.53.91,17.23-.13,33.9,3.34,47.67,2.79-20.51-41.45-11.75-47.45-5.82-82.96-3.61-3.08-14.42-11.83-17.8-15.11Z"/>
      <path class="cls-1" d="M745.55,822.16c-.53,3.08,2.6,42.97,2.6,42.97,1.11-.81,1.79-5.74,3.17-6.24,1.83-.73,5.62-8.56,6.96-10.28,9.05-11.98,20.27-24.38,27.84-37.38,12.84-22.29,26.18-47.66,36.86-70.98,4.5-9.94,8.2-18.09,12.36-28.32.55.13,3.39-.89,4.62-1.28-2.56,8.51-4.32,14.28-6.98,21.9-5.43,15.74-12.78,27.59-18.83,41.24-7.26,16.19-15.17,30.65-24.23,45.11-11.03,17.59-28.64,30.7-36.31,51.58,12.88-1.96,23.64-4.28,35.5-6.03,10.58-1.59,25.74-.49,34.22-4.67,4.82-2.43,12.03-16.42,15.45-21.51,28.91-43.1,49.49-98.88,50.32-161.71.17-14.46.61-28.43-1.75-40.8-1.4-7.44-4.46-20.15-4.46-20.15-3.99,11.85-13.83,76.3-21.53,80.87-7.53,4.34-23.35,2.61-32.97,3.84-9.63,1.2-21.02,2.58-32.27,2.58-8.96,19.29-23.47,31.92-32.21,52.86-5.03,11.85-8.73,23.75-11.59,38.69-1.41,8.95-5.78,21.69-6.76,27.72Z"/>
      <path class="cls-1" d="M597.07,939.99c66.8-39.91,108.03-52.86,171.98-63.07,23.13-3.65,43.26-3.97,67.02-7.72,26.31-4.23,62.9-12.32,90.65-13.68-1.77,1.59-11.34,10.81-13.3,12.42-14.96,11.88-30.36,21.04-43.55,34.64-20.27,20.75-27.36,29.84-44.1,40.85-18.61,12.19-37.86,20.96-60.57,29.37-21.39,7.88-44.96,15.77-68.33,21.46-8.72,2.11-14.17,3.94-23.2,5.61-6.38,1.17-14.96,3.08-23.22,2.14-8.35-1.04-23.04-10.68-29.63-15.53-6.64-4.8-25.52-20.05-28.35-27.07-2.23-5.27.08-9.63-1.78-15.37l6.38-4.05Z"/>
      <path class="cls-1" d="M504.2,918.48c-5.64,3.97-7.57,7.26-11.17,11.75-6.22-2.3-19.67-.86-27.73.44-29.17,8.85-29.69,11.88-53.27,26.13-8.17,4.88-15.57,10.6-23.71,16.39-1.7,1.12-6.46,6.22-8.52,6.84-13.01,3.6-34.43-.99-43.83-2.61-53.66-9.32-88.01-27.43-123.21-54.37.56-.42.63-3.39.99-4.94,2.28-9.66,2.74-12.79,3.64-16.76,3.29-15.24,6.36-30.18,9.77-43.83,16.76,2.48,43.05.16,57.24,1.31,33.97,2.64,67.35,5.82,95.38,15.45,10.77,3.66,21.43,11.98,30.94,16.76,8.25,4.12,14.47,5.53,21.9,10.31,7.49,4.78,15.77,11.12,23.23,16.76.82.68,1.62,3.58,2.56,3.86,2.18.78,4.23-.78,6.47,0-8.24-17.64-23.95-29.23-40-38.66-2.76-1.67-8.95-7.05-10.3-9.03-4.19-6.16-8.12-9.76-12.93-15.45-3.38-3.99-6.85-8.82-10.04-12.9-15.43-19.99-37.08-35.89-48.97-59.31-2.99-5.82-6.94-14.62-9.06-20.23-1.46-3.81-3.39-7.83-3.02-8.06,5.98,8.46,18.05,18.35,26.01,25.01,24.42,20.46,56.91,29.65,82.51,49.26,15.35,11.8,25.69,22.81,38.02,37.82,1.04,1.31,10.49,12.06,11.46,13.26,4.83,5.9,9.05,13.81,12.4,20.26.59,1.18.35,4.31,1.29,5.12l1.93,9.43Z"/>
      <path class="cls-1" d="M212.29,635.88c-8.51,20.83-18.54,37.69-29.65,55.47,7.09,8.67,13.35,16.45,20.23,25.74,8.25,11.09,14.72,25.03,14.96,24.54.67-1.59,17.29-73.01,17.19-73.53-1.38-8.22-16.46-27.3-22.72-32.21Z"/>
      <path class="cls-1" d="M728.75,769.12c-5.1,16.65-12.06,51.01-18.91,66.51-.56,1.28-3,5.4-3.64,6.68-5.65,10.44-9.98,18.27-15.7,28.14-3.67,6.24-5.77,10.5-8.81,18.04,1.18-.26,1.02,1.78,3.64,1.31,4.87-.91,44.64-13.1,46.41-15.48,12.4-17.02,1.45-71.03-1.28-91.52-.83,0-1.12-13.18-1.71-13.68Z"/>
      <path class="cls-1" d="M718.66,786.6s-20.14,25.74-30.74,31.19c-14.66,7.55-29,15.14-42.53,24.33-5.04,3.39-14.56,9.03-18.52,13.6-14.1,16.42-28.69,36.26-23.79,66.33.21,1.38,1.77,2.58,2.31,3.89,18.4-8.43,35.58-20.7,54.18-28.37,5.14-2.17,6.97-.76,11.12-3.86,4.36-3.34,7.27-11.49,9.73-16.79,1.5-3.29,4.8-7.02,6.73-10.28,8.43-14.67,15.32-31.74,21.41-47.72,2.4-6.45,6.74-14.54,7.73-20.62.24-1.51,2.39-11.69,2.39-11.69Z"/>
      <path class="cls-1" d="M514.5,918.98c-2.49.6-8.2,5.3-9.97,7.33-2.72,3-9.32,10.29-11.13,14.75-3.43,8.64-8.71,18.19-4.89,32.11.43,1.69,6.75,19.76,23.36,25.16,6.54,2.14,11.71,2.98,17.49,2.37,5.78-.55,10.87-.81,15.64-4.13,4.76-3.36,8.51-7.18,11.18-10.34,7.19-12.53,8.25-23.34,14.44-38.4,0,0,3.14,10.63,3.02,14.36.95,6.42-4.37,18.14-4.37,18.14,0,0,9.2-7.88,11.67-11.85,2.44-3.92,3.36-7.21,4.79-10.36,2.34-4.96-.67-13.03-.67-13.03,0,0-4.7-9.58-11.42-14.46-18.81-13.83-43.84-15.45-59.14-11.67Z"/>
      <path class="cls-1" d="M464.95,938.07c-6.78,2.03-16.54,5.14-25.56,10.15-12.18,6.55-25.33,16.81-36.36,24.67-16.25,11.51-29.51,18.43-44.9,34.27-6.9,7.13-16.2,15.79-24.16,21.9-14.42,11.04-31.9,15.06-43.32,23.2,1.07.39,7.77,3.39,11.87,4.39,7.81,1.98,18.32,7.94,27.42,6.27,12.26-2.38,22.94-20.52,31.56-27.41,9.54-7.7,17.61-15.38,27.38-22.89,5.83-4.57,9.54-7.99,15.26-12.48,2.84-2.35,6.29-5.95,9.23-8.17,4.88-3.73,11.72-10.83,16.62-14.67,7.21-5.82,34.55-14.62,50.25-15.24.58-2.09,2.38-8.48,3.46-12.48,1.06-4.04,2.67-7.18,5.81-13.47-2.14-.73-20.69.78-24.56,1.96Z"/>
      <path class="cls-1" d="M492.99,15.41s-24.73,2.87-25.57,3.21c-7.18,2.69-13.25,4.88-20.62,7.44-5.72,1.93-12.56,4.7-18.06,6.73-74.07,27.28-131.55,71.24-177.87,126.34-6.25,7.36-18.23,17.64-21.94,26.76-3.41,8.3-3.01,14.2-3.84,20.73,14.17-2.67,35.12-13.6,46.37-20.68,3.51-2.19,17.07-8.98,22.81-11.69,10.08-4.7,21.5-11.41,28.18-16.11,23.87-16.68,26.52-24.43,46.99-40.49,14.23-11.27,25.54-27.22,39.43-38.71,19.75-16.29,36.85-29.42,57.29-44.77,2.94-2.27,26.83-18.77,26.83-18.77Z"/>
    </g>
    <path d="M551.91,959.01c-.04,13.78-11.29,25.27-25,25.27s-25.06-11.49-25.12-25.27c-.08-13.81,11.21-25.19,25.12-25.19s25,11.38,25,25.19ZM526.92,980.15c11.38,0,20.67-9.53,20.67-21.14s-9.29-21.14-20.67-21.14-20.87,9.71-20.87,21.14,9.37,21.14,20.87,21.14ZM523.39,962.56v11.27h-5.63v-28.87h10.22c4.83,0,8.8,1.83,8.8,8.98,0,3.5-1.97,6.21-6.03,6.65,5.27.63,5.18,3.97,5.32,10.02,0,1.18.24,2.53.43,3.21h-5.47c-.22-.73-.51-1.64-.51-3.45v-4.91c0-2.01-1.33-2.92-2.88-2.92h-4.26ZM523.39,948.96v9.68h4.26c2.11,0,2.82-1.59,2.82-4.62,0-3.84-1.26-5.06-2.88-5.06h-4.19Z"/>
    <path d="M481.61,139.57c3.6-.84-5.35,7.23-6.42,7.7-8.28,3.34-15.17,4.67-24.53,6.74-12.58,2.72-26.83,7.91-38.65,11.35-32.82,9.37-62.57,17.07-92.81,28.61-15.15,5.72-29.51,13.11-45.12,19.08.77-.65.21-4.36,1.26-5.14,5.89-4.6,21.47-9.37,29.68-12.4,22.03-8.15,47.74-18.61,70.9-26.31,15.22-5.12,27.92-5.72,43.81-10.31,15.73-4.54,35.94-8.28,52.86-14.17,2.63-.94,5.35-4.38,9.01-5.14Z"/>
    <path d="M150.3,202.75c1.83-3.89,44.51-66.85,68.31-88.99,3.22-3.03,4.98-8.14,9.02-10.28,6.29-3.39-8.52,13.55-9.02,14.17-18.88,20.91-35.21,43.25-51.62,67.03-1.1,1.54-11.38,16.63-11.64,17.1-2.34,4.02-8.48,17.15-8.38,17.44-.61.58-13.48,19.6-13.48,19.6-.86.18-4.62,8.33-8.01,16.76-3.92,9.61-9.28,17.05-13.91,29.65-4.61,12.56-11.79,50.04-14.11,79.9-.21,0-3.82-.18-3.86,0,0-14.28,2.09-26.47,3.86-37.41,3.71-23.08,7.57-39.65,15.47-57.97,9.11-21.3,21.45-37.88,31.46-55.42,3.59-6.16,4.22-8.01,5.93-11.59Z"/>
    <path d="M60.86,537.32c-2.26-6.97-5.14-27.46-5.94-31.69-3.81-19.27-7.45-43.33-6.45-65.78.12-3.37-.52-4.78,0-7.73,1.06-13.57,2.02-26.21,2.58-39.94h-2.58c-.85,20.31-6.25,47.17-5.14,65.76,1.12,20.26,6.7,40.85,10.29,58,1.12,5.27,3.35,18.4,4.41,22.84,2.34,10.13,3.35,21.54,6.71,29.57,3.34,8.09,8.07,22.48,9.4,27.17,1.34,4.7,1.72,8.98,2.7,9.34.99.37,3.03-1.93,3.67-3.63.67-1.67-4.34-13.08-7.7-24.17-3.37-11.09-10.79-36.26-11.94-39.76Z"/>
    <path d="M207,463.12c0,55.7-11.24,99.58-21.92,146.91-2.9,12.74-7.19,25.97-11.6,37.41-1.03-.03-4.99,6.08-3.87-1.25.53-3.5,2.51-8.75,3.87-14.17,6.77-27.54,16.83-57.51,21.93-86.4,3.77-21.75,3.65-60.66,11.59-82.49Z"/>
    <path d="M932.8,505.61c1.96-.65,1.52,6.08,1.28,7.72-7.15,50.25-3.4,95.02-6.45,134.04l-3.87-1.25c0-44.98-2.03-87.55,6.45-131.51.83-4.46-1.4-7.78,2.58-9Z"/>
    <path d="M131.77,765.21c13.14,16.76,33.96,32.52,52.08,42.1,1.92,1.05,3.81,3.34,6.42,3.92,7.58,1.52-7.73-9.06-7.73-9.06-6.89-4.18-12.28-7.02-18.04-11.59-6.38-5.12-24.59-23.42-27.83-28.51-5.36-8.48-22-26.86-29.6-38.5-7.62-11.64-36.18-57.11-32.82-51.61,1.93,3.16-18.53-27.54-21.9-29.63-1.24-.81-2.46,1.25,0,1.25,7.28,14.04,13.98,21.85,20.61,34.85,3.76,6.22,13.08,21.51,19.76,32.29,6.73,10.73,8.76,18.48,15.51,26.02,3.58,4.05,19.06,24.9,23.54,28.45Z"/>
    <path d="M881.15,870.49c14.46-2.51-11.61,9.06-11.61,9.06-15.86,12.42-31.98,20.05-48.76,29.91-6.26,3.6-13.01,8.07-19.55,11.07-47.96,22.14-101.76,40.48-159.83,51.79l1.29-3.86c12.93-2.61,19.86-5.33,42.47-11.57,17.93-4.96,28.37-7.33,29.72-7.75,23.6-7.49,27.22-9.5,51.5-18.87,9.89-3.86,29.18-11.85,36.14-15.92,17.31-10.28,32.93-18.4,50.26-28.37,7.91-4.65,18.51-13.78,28.37-15.48Z"/>
    <path d="M244.42,911.61c16.97,5.82,40.81,12.85,60.3,16.55,41.67,7.89,87.65,7.94,131.76,7.94v2.59c-62.3,4.88-128.27-1.98-175.3-18.04-5.98-2.04-11.32-4.31-18.05-6.4.42-1.54-1.03-3.39,1.29-2.64Z"/>
    <path class="cls-2" d="M966.86,266.9c-53.71,14.8-173.04,24.2-279.52,14.98-113.94-9.89-231.85-4.33-318.4,26.7-7.26,2.56-15.05,3.81-22.67,6-.78,25.74.52,46.23-1.2,64.22-1.79,18.79-.76,34.04-7.03,83.27-6.27,49.23-15.15,83.19-20.62,102.93-3.54,12.53-4.88,17.57-6.9,25.82-2.76,11.35-13.89,52.1-24.66,81.6-10.75,29.55-20.41,52.94-20.41,52.94,0,0,81.34-21.46,132.27-30.07,43.63-7.41,91.86-11.54,140.97-10.78,27.37.42,59.7,4.31,86.83,8.12,72.53,10.26,144.03,3.37,176.21,1.57,32.27-1.8,45.68-4.46,50.17-4.46s5.22-3.6,7.01-7.15c.77-1.59,6.37-30.33,14.42-66.3,10.61-47.4,24.97-107.41,32.7-134.48,18.07-63.09,25.84-87.08,40.21-131.59,15.05-46.7,12.03-35.11,16.03-54.43,3.45-16.76,4.6-28.87,4.6-28.87Z"/>
    <path class="cls-3" d="M345.79,358.1s72.29-19.19,173.15-31.56c66.69-8.22,137.94,2.37,172.77,4.8,34.86,2.45,89.54,5.4,109.22,4.54,19.69-.94,47.22-1.28,60.64-2.17,13.47-.89,37.15-4.62,46.79-6.81,9.96-2.25,28.09-7.08,33.47-7.94,5.35-.94,14.2,1.57,14.2,1.57l-21.99,68.7s-4.5-2.32-10.49.34c-9.59,4.23-28.37,10.31-56.33,11.2-89.63,3.03-145.95,1.72-205.17-5.19-43.54-5.19-88.48-6.79-145.75-.52-57.31,6.24-85.71,13.81-119.97,20.88-36.24,7.47-55.16,15.98-55.16,15.98l4.65-73.82Z"/>
    <path class="cls-3" d="M333.9,487.6s98.69-30.59,161.8-37.3c63.12-6.71,145.02,3.26,214.86,5.92,69.81,2.74,95.32,2.74,134.24-1.33,38.96-4.04,72.7-12.09,72.7-12.09l-20.31,72.52s-12.09,1.02-30.88,4.04c-20.27,3.26-68.5,13.42-155.75,6.71-87.31-6.71-151.74-12.11-217.56-5.38-82.02,8.35-110.08,21.51-136.94,29.52-26.85,8.09-38.67,14.38-38.67,14.38l16.51-77.01Z"/>
    <path class="cls-3" d="M304.72,611.33l-25.7,78.1s8.61-3.47,21.5-8.09c12.85-4.6,102.39-30.91,189.79-39.26,59.06-5.61,113.67.68,183.47,8.72,69.85,8.04,96.7,4.6,134.29,2.82,37.61-1.8,58.69-7.15,58.69-7.15l16.47-72.54s-43.84,1.83-110.07,11.64c-13.55,2.06-88.37-4.7-130.69-9.06-42.31-4.38-102.95-10.28-156.69-3.99-55.69,6.47-76.05,11.41-103.81,17.65-27.75,6.29-77.25,21.17-77.25,21.17Z"/>
    <path d="M419.15,316.65l22.11-1.85,9.39-.81-1.07,9.24-4.5,38.63-8.3-8.46,29.6-2.51-6.87,6.63,4.52-38.61.7-6.13,6.16-.47,22.09-1.91,9.41-.76-1.11,9.29-11.69,100.58-.71,6.03-6.16.55-22.08,1.88-9.41.76,1.07-9.24,5.04-43.41,8.33,8.48-29.65,2.51,6.89-6.6-5.04,43.41-.68,6.06-6.2.55-22.11,1.83-9.39.78,1.07-9.24,11.71-100.63.71-6.08,6.17-.49Z"/>
    <path class="cls-1" d="M419.87,324.22l22.1-1.88-4.5,38.63,29.63-2.48,4.5-38.61,22.07-1.85-11.69,100.63-22.09,1.8,5.04-43.35-29.66,2.45-5.02,43.44-22.07,1.83,11.69-100.6Z"/>
    <path d="M593.31,427.45h31.47l-1.37,9.19-14.76,99.69-.91,6.03h-37.63l1.37-9.16,14.78-99.71.9-6.03h6.16Z"/>
    <path class="cls-1" d="M593.76,435.1h22.07l-14.77,99.69h-22.06l14.76-99.69Z"/>
    <path d="M735.52,558.77h80.4l-1.7,9.29-3.5,18.38-1.14,6.03h-54.99l7.24-6.08-4.22,25.35-7.74-9.19h36.02l-1.67,9.21-3.09,16.99-1.11,6.06h-32.63l7.26-6.06-7.41,38.92-1.11,6.05h-37.47l1.64-9.16,17.95-99.74,1.08-6.05h6.17Z"/>
    <path class="cls-1" d="M735.72,566.42h70.95l-3.47,18.45h-48.88l-4.23,25.27h26.63l-3.12,17.1h-26.48l-7.43,38.89h-21.91l17.95-99.72Z"/>
    <path d="M235.2,801.34s1.79,10.31,2.24,22.42c.51,14.2-3.16,28.17-3.16,28.17l6.28,1.38s3.13-18.14,3.13-33.57-4.92-35.37-4.92-35.37l-3.57,16.97Z"/>
  </g>
</svg>