<?xml version="1.0" encoding="UTF-8"?>
<svg id="Calque_2" data-name="Calque 2" xmlns="http://www.w3.org/2000/svg" viewBox="0 0 385.53 590.35">
  <defs>
    <style>
      .cls-1 {
        fill: #fff;
      }

      .cls-1, .cls-2, .cls-3 {
        fill-rule: evenodd;
      }

      .cls-2 {
        fill: #fabd00;
      }

      .cls-3 {
        fill: #244b9a;
      }
    </style>
  </defs>
  <g id="Calque_1-2" data-name="Calque 1">
    <g id="Layer_1">
      <g id="_822734944" data-name=" 822734944">
        <path class="cls-1" d="M26.14,162.29c-3.93.9-3.34,5.12-1.1,7.38,3.74,3.61,9.33,6.47,15.81,8.51,7.24,2.28,15.58,3.43,23.73,3.55,12.45.09,24.92-3.04,36.29-7.86,11.19-4.7,22.26-11.18,31.3-19.52,2.35-2.15,4.69-4.39,7.25-6.17,1.96-1.28,4.13-2.16,6.67-2.26,5.1-.19,8.74,2.76,10.4,6.47,2.25,5.02.68,11.08-3.63,14.42-3.34,2.55-8.03,2.27-10.4.2-4.31-3.72,2.45-11.38,7.46-9.71,0-1.96-1.37-3.82-3.53-3.73-2.27.1-6.28,3.64-9.53,6.67-9.51,8.84-21.08,15.7-33.05,20.7-12.25,5.11-25.79,8.52-39.33,8.42-8.83-.08-17.94-1.35-25.89-3.91-7.65-2.35-14.32-5.79-18.93-10.39-1.08-1.09-2.06-2.35-2.74-3.73-2.17-4.52-1.88-9.61,1.75-13.24,4.53-4.52,11.98-4.13,16.19-.5,3.13,2.74,3.83,7.36,2.25,10.11-2.06,3.63-6.86,1.67-9.11-.69-1.18-1.08-2.25-2.64-1.86-4.72Z"/>
        <path class="cls-1" d="M161.24,157.78c.08-2.35-.31-4.72-1.31-6.94-.05-.13-.14-.25-.2-.4h66.09c-.07.15-.15.27-.22.4-.98,2.22-1.38,4.59-1.29,6.94h-63.07Z"/>
        <path class="cls-1" d="M360.51,169.67c2.24-2.26,2.83-6.48-1.1-7.38.39,2.08-.68,3.64-1.86,4.72-2.25,2.36-7.05,4.32-9.12.69-1.57-2.75-.87-7.37,2.26-10.11,4.21-3.63,11.66-4.02,16.19.5,3.62,3.63,3.92,8.72,1.75,13.24-.69,1.38-1.66,2.64-2.74,3.73-4.61,4.6-11.28,8.04-18.92,10.39-7.96,2.56-17.08,3.83-25.9,3.91-13.54.1-27.08-3.31-39.33-8.42-11.97-5-23.54-11.86-33.05-20.7-3.25-3.03-7.26-6.57-9.53-6.67-2.16-.09-3.53,1.77-3.53,3.73,5.01-1.67,11.76,5.99,7.46,9.71-2.37,2.07-7.06,2.35-10.41-.2-4.3-3.34-5.88-9.4-3.62-14.42,1.66-3.71,5.3-6.66,10.39-6.47,2.56.1,4.72.98,6.68,2.26,2.56,1.78,4.91,4.02,7.25,6.17,9.04,8.34,20.11,14.82,31.3,19.52,11.37,4.82,23.84,7.95,36.28,7.86,8.16-.12,16.5-1.27,23.74-3.55,6.48-2.04,12.07-4.9,15.81-8.51Z"/>
        <path class="cls-1" d="M368.58,177.71c1.08-1.08,1.99-2.23,2.74-3.46v102.01c-1.74-.92-3.66-1.41-5.79-1.06-2.31.35-4.24,1.32-5.86,2.71-.29.26-.57.53-.85.81-.54.56-1.05,1.18-1.52,1.83-.23.33-.46.66-.68,1.01-.86,1.39-1.58,2.93-2.18,4.53-.15.4-.3.8-.43,1.21-2.39,7.15-2.59,15.27-2.59,17.81v65.03c0,11.76,2.36,20.18,7.28,25.81,3.13,3.42,7.43,4.89,10.91,3.74.43-.15,1.05-.41,1.71-.86v83.73c0,14.02-2.39,25.49-6.4,34.74-.45,1.03-.91,2.02-1.39,3-1.21,2.44-2.54,4.7-3.97,6.81-11.16,16.41-28.52,22.98-44.27,22.98h-59.65c-8.23,0-16.85.47-25.16,2.33.02-.01.03-.03.05-.04-12.95,2.88-25.17,9.18-34.13,22.51-1.31,1.96-2.55,4-3.63,6.04-1.08-2.04-2.3-4.08-3.62-6.03-13.84-20.61-35.49-24.42-55.54-24.79-.01,0-.02.01-.03.02-1.22-.04-2.46-.05-3.67-.05h-59.65c-.37,0-.74,0-1.12-.02-.05.01-.11.01-.16,0-.34,0-.69-.02-1.05-.04-.07.01-.15.01-.22-.01-.78-.02-1.55-.07-2.34-.15-.4-.04-.81-.07-1.21-.12,0,0-.02,0-.03,0-.82-.08-1.65-.19-2.47-.32-.41-.07-.82-.13-1.23-.21-.42-.07-.83-.15-1.24-.23-.41-.08-.83-.16-1.24-.26-.33-.07-.65-.15-.98-.23-.12-.03-.24-.06-.35-.09-.3-.07-.6-.15-.9-.23-.49-.13-.98-.27-1.46-.41-.54-.16-1.08-.33-1.63-.51-.04-.02-.07-.03-.11-.04-.84-.28-1.67-.59-2.5-.91-.07-.03-.15-.06-.22-.09-19.07-7.53-35.58-26.79-35.58-63.66v-83.72c.33.23.66.4.95.54.29.14.55.25.77.32,3.47,1.14,7.76-.31,10.97-3.8.03-.03.05-.06.08-.09.27-.31.53-.63.79-.97.03-.04.06-.08.09-.12.2-.26.4-.53.58-.81.14-.19.26-.38.39-.58.06-.08.12-.17.16-.26.18-.27.35-.55.51-.83.35-.6.68-1.23.98-1.88.05-.09.09-.19.13-.28.16-.34.31-.68.45-1.03.16-.38.31-.77.45-1.16,1.15-3.14,1.91-6.76,2.3-10.89.21-2.14.31-4.43.31-6.85v-65.04c0-2.5-.2-10.39-2.47-17.45,0,.01,0,.01,0,.02-.85-2.65-1.99-5.2-3.52-7.3-.22-.3-.44-.59-.68-.87-.7-.84-1.48-1.59-2.35-2.22-.14-.11-.29-.21-.44-.31-.07-.05-.14-.1-.22-.14-.14-.09-.28-.18-.43-.26-.84-.49-1.74-.87-2.73-1.12-.19-.05-.37-.09-.56-.13-.21-.05-.44-.09-.66-.12-1.1-.18-2.14-.14-3.14.07-.94.21-1.84.55-2.7,1h0s-.02-102.05-.02-102.05h.01c.19.31.39.62.6.92.63.9,1.35,1.75,2.16,2.57,4.86,4.85,11.76,8.66,20.5,11.35,7.99,2.57,17.32,3.99,26.97,4.09h.57c12.84,0,26.36-2.93,40.26-8.73,12.44-5.2,23.21-11.76,32.09-19.54.07.72.25,1.41.51,2.07.45,1.09,1.16,2.09,2.12,2.92.2.19.42.35.65.51.23.16.46.3.69.45-.04-.01-.08-.03-.11-.05,3.99,2.5,9.81,2.18,13.93-.96,2.75-2.13,4.6-5.07,5.48-8.26h64.28c.39,1.37.95,2.7,1.68,3.93-.04-.1-.09-.21-.14-.33.74,1.32,1.65,2.56,2.77,3.64.16.15.32.3.49.45.22.2.45.39.69.57.57.44,1.18.82,1.81,1.15.27.14.54.27.82.38.54.24,1.09.44,1.65.6.33.09.66.17,1,.23,2.55.52,5.19.27,7.42-.74.45-.19.88-.42,1.29-.69.41-.26.8-.55,1.16-.87,1.55-1.34,2.44-3.08,2.65-4.99h0c1.66,1.45,3.39,2.87,5.19,4.24.6.46,1.2.91,1.82,1.36,1.83,1.34,3.74,2.64,5.7,3.89,5.9,3.76,12.37,7.12,19.37,10.04.57.24,1.15.47,1.72.7.08.03.16.06.25.09.54.22,1.07.41,1.61.62,1.78.67,3.52,1.29,4.82,1.74.3.1.6.21.9.31.09.03.17.06.25.09,10.55,3.45,20.83,5.18,30.71,5.18h.57c9.64-.1,18.98-1.52,26.97-4.09,8.74-2.69,15.64-6.5,20.5-11.35Z"/>
        <path class="cls-1" d="M375.9,37.15v116.23c0,4.8,0,8.63-2.06,11.76h-.11c-.03-.87-.13-1.71-.32-2.54-.02-.09-.04-.19-.05-.28-.17-.72-.4-1.42-.67-2.11-.07-.16-.12-.32-.2-.47-.27-.62-.6-1.21-.96-1.79-.11-.18-.2-.36-.32-.52-.49-.7-1.04-1.39-1.67-2.03-5.65-5.63-15.22-5.93-21.35-.65-4.31,3.78-5.66,10.29-3.05,14.81.82,1.45,1.99,2.54,3.38,3.2-1.53.65-3.19,1.25-4.95,1.82-6.69,2.09-14.53,3.25-22.64,3.36-11.04.11-22.73-2.45-34.79-7.55-11.79-4.96-22.23-11.46-30.2-18.83l-.88-.8c-2.12-1.97-4.33-3.99-6.87-5.75-2.76-1.81-5.58-2.76-8.59-2.86-4.37-.19-8.35,1.5-11.18,4.52h-71.3c-2.83-3.02-6.8-4.71-11.18-4.52-3,.1-5.83,1.05-8.59,2.86-2.54,1.76-4.74,3.78-6.87,5.75l-.88.8c-7.97,7.37-18.41,13.87-30.19,18.83-12.07,5.1-23.76,7.66-34.8,7.55-8.1-.11-15.94-1.27-22.65-3.36-1.75-.57-3.41-1.17-4.94-1.82,1.39-.66,2.55-1.75,3.38-3.2,2.6-4.52,1.27-11.03-3.06-14.81-6.12-5.28-15.7-4.98-21.34.65-.64.64-1.18,1.33-1.67,2.03-.12.16-.21.34-.31.52-.37.58-.7,1.17-.98,1.79-.06.15-.12.31-.18.47-.28.69-.5,1.39-.68,2.11-.01.09-.03.19-.05.28-.18.83-.28,1.67-.31,2.54h-.11c-2.06-3.13-2.06-6.96-2.06-11.76V37.15c-.08-2.22.25-4,.81-5.43.12-.31.28-.59.42-.88.08-.14.14-.3.22-.43.11-.18.24-.33.36-.51.92-1.3,2.08-2.2,3.28-2.76,3.1-1.46,9.13-1.2,13.14-1.37.57-.02,1.11-.06,1.58-.11,18.48-2.2,32.49-11.55,51.3-11.67,1.26-.01,2.53.02,3.83.1,23.73,1.46,42.48,15.89,65.61,16.58.99.05,2.04.05,3.14.02,7.72-.16,17.95-1.89,24.13-6.78,2.21-1.83,4.14-4.52,5.34-7.58,2.39.43,5.73.83,9.96.83,4.23-.01,7.57-.41,9.96-.83,1.21,3.06,3.14,5.75,5.34,7.58,6.18,4.89,16.41,6.62,24.12,6.78,1.11.03,2.16.03,3.14-.02,23.15-.69,41.89-15.12,65.62-16.58,1.3-.08,2.57-.11,3.83-.1,18.82.12,32.83,9.47,51.3,11.67.48.05,1.01.09,1.58.11,4.03.17,10.05-.09,13.14,1.37,1.2.56,2.36,1.46,3.27,2.76.14.18.27.33.37.51.08.13.15.29.21.44.15.27.31.56.43.87.58,1.43.88,3.21.82,5.43Z"/>
        <path class="cls-2" d="M373.72,17.82c-5.29-1.87-10.88-1.08-16.27-1.66-20.5-2.35-35-12.95-57.08-11.67-23.83,1.46-42.76,15.98-65.33,16.67-5.29.18-18.33-.78-22.07-5.89-.09-.11-.19-.28-.3-.39,3.65-.5,6.48-3.63,6.48-7.35,0-8.33-12.36-10.01-16.17-3.73-2.23,3.57-1.92,8.3-.28,12.48h.01s0,.03.02.05c1.21,3.06,3.14,5.75,5.34,7.58,6.18,4.89,16.41,6.62,24.12,6.78,1.11.03,2.16.03,3.14-.02,23.15-.69,41.89-15.12,65.62-16.58,1.3-.08,2.57-.11,3.83-.1,18.82.12,32.83,9.47,51.3,11.67.48.05,1.01.09,1.58.11,4.03.17,10.05-.09,13.14,1.37,1.2.56,2.36,1.46,3.27,2.76.14.18.27.33.37.51.08.13.15.29.21.44.15.27.31.56.43.87.58,1.43.88,3.21.82,5.43v116.23c0,4.8,0,8.63-2.06,11.76h-.11c-.03-.87-.13-1.71-.32-2.54-.02-.09-.04-.19-.05-.28-.17-.72-.4-1.42-.67-2.11-.07-.16-.12-.32-.2-.47-.27-.62-.6-1.21-.96-1.79-.11-.18-.2-.36-.32-.52-.49-.7-1.04-1.39-1.67-2.03-5.65-5.63-15.22-5.93-21.35-.65-4.31,3.78-5.66,10.29-3.05,14.81.82,1.45,1.99,2.54,3.38,3.2-1.53.65-3.19,1.25-4.95,1.82-6.69,2.09-14.53,3.25-22.64,3.36-11.04.11-22.73-2.45-34.79-7.55-11.79-4.96-22.23-11.46-30.2-18.83l-.88-.8c-2.12-1.97-4.33-3.99-6.87-5.75-2.76-1.81-5.58-2.76-8.59-2.86-4.37-.19-8.35,1.5-11.18,4.52h-71.3c-2.83-3.02-6.8-4.71-11.18-4.52-3,.1-5.83,1.05-8.59,2.86-2.54,1.76-4.74,3.78-6.87,5.75l-.88.8c-7.97,7.37-18.41,13.87-30.19,18.83-12.07,5.1-23.76,7.66-34.8,7.55-8.1-.11-15.94-1.27-22.65-3.36-1.75-.57-3.41-1.17-4.94-1.82,1.39-.66,2.55-1.75,3.38-3.2,2.6-4.52,1.27-11.03-3.06-14.81-6.12-5.28-15.7-4.98-21.34.65-.64.64-1.18,1.33-1.67,2.03-.12.16-.21.34-.31.52-.37.58-.7,1.17-.98,1.79-.06.15-.12.31-.18.47-.28.69-.5,1.39-.68,2.11-.01.09-.03.19-.05.28-.18.83-.28,1.67-.31,2.54h-.11c-2.06-3.13-2.06-6.96-2.06-11.76V37.15c-.08-2.22.25-4,.81-5.43.12-.31.28-.59.42-.88.08-.14.14-.3.22-.43.11-.18.24-.33.36-.51.92-1.3,2.08-2.2,3.28-2.76,3.1-1.46,9.13-1.2,13.14-1.37.57-.02,1.11-.06,1.58-.11,18.48-2.2,32.49-11.55,51.3-11.67,1.26-.01,2.53.02,3.83.1,23.73,1.46,42.48,15.89,65.61,16.58.99.05,2.04.05,3.14.02,7.72-.16,17.95-1.89,24.13-6.78,2.21-1.83,4.14-4.52,5.34-7.58.01-.02.01-.03.02-.05h.01c1.66-4.18,1.94-8.91-.27-12.48-3.82-6.28-16.17-4.6-16.17,3.73,0,3.72,2.83,6.85,6.47,7.35-.11.11-.21.28-.29.39-3.74,5.11-16.78,6.07-22.07,5.89-22.58-.69-41.5-15.21-65.34-16.67-22.07-1.28-36.58,9.32-57.09,11.67-5.38.58-10.98-.21-16.27,1.66C5.92,19.87-.36,24.98.02,37.44v115.94c0,10.2,1.59,17.86,10.42,23.53v107.3c3.03-3.04,5.88-5.79,9.02-5.28,9.11,1.36,10.89,18.93,10.89,26.18v65.03c0,7.75-.99,17.17-6.28,23.25-3.34,3.63-9.12,4.7-9.82-1.86,1.2,1.37,3.16,1.37,4.81.68,5.11-2.35,5.68-11.47-1.37-11.57-5.3-.11-7.25,5.49-7.25,9.81v92.1c0,36.98,19.12,71.31,59.82,71.31h59.63c24.52,0,43.65,4.61,56.12,23.15,2.64,3.91,5.29,8.82,6.75,13.34,1.48-4.52,4.14-9.43,6.77-13.34,12.45-18.54,31.6-23.15,56.1-23.15h59.65c40.7,0,59.82-34.33,59.82-71.31v-92.1c0-4.32-1.96-9.92-7.25-9.81-7.07.1-6.48,9.22-1.38,11.57,1.67.69,3.62.69,4.81-.68-.69,6.56-6.47,5.49-9.81,1.86-5.31-6.08-6.27-15.5-6.27-23.25v-65.03c0-7.25,1.76-24.82,10.88-26.18,3.13-.51,5.99,2.24,9.02,5.28v-107.3c8.82-5.67,10.42-13.33,10.42-23.53V37.44c.38-12.46-5.91-17.57-11.8-19.62ZM229.06,152.39c1.66-3.71,5.3-6.66,10.39-6.47,2.56.1,4.72.98,6.68,2.26,2.56,1.78,4.91,4.02,7.25,6.17,9.04,8.34,20.11,14.82,31.3,19.52,11.37,4.82,23.84,7.95,36.28,7.86,8.16-.12,16.5-1.27,23.74-3.55,6.48-2.04,12.07-4.9,15.81-8.51,2.24-2.26,2.83-6.48-1.1-7.38.39,2.08-.68,3.64-1.86,4.72-2.25,2.36-7.05,4.32-9.12.69-1.57-2.75-.87-7.37,2.26-10.11,4.21-3.63,11.66-4.02,16.19.5,3.62,3.63,3.92,8.72,1.75,13.24-.69,1.38-1.66,2.64-2.74,3.73-4.61,4.6-11.28,8.04-18.92,10.39-7.96,2.56-17.08,3.83-25.9,3.91-13.54.1-27.08-3.31-39.33-8.42-11.97-5-23.54-11.86-33.05-20.7-3.25-3.03-7.26-6.57-9.53-6.67-2.16-.09-3.53,1.77-3.53,3.73,5.01-1.67,11.76,5.99,7.46,9.71-2.37,2.07-7.06,2.35-10.41-.2-4.3-3.34-5.88-9.4-3.62-14.42ZM225.82,150.44c-.07.15-.15.27-.22.4-.98,2.22-1.38,4.59-1.29,6.94h-63.07c.08-2.35-.31-4.72-1.31-6.94-.05-.13-.14-.25-.2-.4h66.09ZM18.67,158.09c4.53-4.52,11.98-4.13,16.19-.5,3.13,2.74,3.83,7.36,2.25,10.11-2.06,3.63-6.86,1.67-9.11-.69-1.18-1.08-2.25-2.64-1.86-4.72-3.93.9-3.34,5.12-1.1,7.38,3.74,3.61,9.33,6.47,15.81,8.51,7.24,2.28,15.58,3.43,23.73,3.55,12.45.09,24.92-3.04,36.29-7.86,11.19-4.7,22.26-11.18,31.3-19.52,2.35-2.15,4.69-4.39,7.25-6.17,1.96-1.28,4.13-2.16,6.67-2.26,5.1-.19,8.74,2.76,10.4,6.47,2.25,5.02.68,11.08-3.63,14.42-3.34,2.55-8.03,2.27-10.4.2-4.31-3.72,2.45-11.38,7.46-9.71,0-1.96-1.37-3.82-3.53-3.73-2.27.1-6.28,3.64-9.53,6.67-9.51,8.84-21.08,15.7-33.05,20.7-12.25,5.11-25.79,8.52-39.33,8.42-8.83-.08-17.94-1.35-25.89-3.91-7.65-2.35-14.32-5.79-18.93-10.39-1.08-1.09-2.06-2.35-2.74-3.73-2.17-4.52-1.88-9.61,1.75-13.24ZM14.21,174.22c.19.31.39.62.6.92.63.9,1.35,1.75,2.16,2.57,4.86,4.85,11.76,8.66,20.5,11.35,7.99,2.57,17.32,3.99,26.97,4.09h.57c12.84,0,26.36-2.93,40.26-8.73,12.44-5.2,23.21-11.76,32.09-19.54.07.72.25,1.41.51,2.07.45,1.09,1.16,2.09,2.12,2.92.2.19.42.35.65.51.23.16.46.3.69.45-.04-.01-.08-.03-.11-.05,3.99,2.5,9.81,2.18,13.93-.96,2.75-2.13,4.6-5.07,5.48-8.26h64.28c.39,1.37.95,2.7,1.68,3.93-.04-.1-.09-.21-.14-.33.74,1.32,1.65,2.56,2.77,3.64.16.15.32.3.49.45.22.2.45.39.69.57.57.44,1.18.82,1.81,1.15.27.14.54.27.82.38.54.24,1.09.44,1.65.6.34.09.67.17,1,.23,2.55.52,5.19.27,7.42-.74.45-.19.88-.42,1.29-.69.41-.26.8-.55,1.16-.87,1.55-1.34,2.44-3.08,2.65-4.99h0c1.66,1.45,3.39,2.87,5.19,4.24.6.46,1.2.91,1.82,1.36,1.83,1.34,3.74,2.64,5.7,3.89,5.9,3.76,12.37,7.12,19.37,10.04.57.24,1.15.47,1.72.7.08.03.16.06.25.09,2.73,1.07,5.69,2.11,7.33,2.67.09.03.17.06.25.09,10.55,3.45,20.83,5.18,30.71,5.18h.57c9.64-.1,18.98-1.52,26.97-4.09,8.74-2.69,15.64-6.5,20.5-11.35,1.08-1.08,1.99-2.23,2.74-3.46v102.01c-1.74-.92-3.66-1.41-5.79-1.06-2.31.35-4.24,1.32-5.86,2.71-.29.26-.57.53-.85.81-.54.56-1.05,1.18-1.52,1.83-.23.33-.46.66-.68,1.01-.86,1.39-1.58,2.93-2.18,4.53-.15.4-.3.8-.43,1.21-2.39,7.15-2.59,15.27-2.59,17.81v65.03c0,11.76,2.36,20.18,7.28,25.81,3.13,3.42,7.43,4.89,10.91,3.74.43-.15,1.05-.41,1.71-.86v83.73c0,14.02-2.39,25.49-6.4,34.74-.44,1.03-.91,2.03-1.39,3-1.21,2.44-2.54,4.7-3.97,6.81-11.16,16.41-28.52,22.98-44.27,22.98h-59.65c-8.23,0-16.85.47-25.16,2.33.02-.01.03-.03.05-.04-12.95,2.88-25.17,9.18-34.13,22.51-1.31,1.96-2.55,4-3.63,6.04-1.08-2.04-2.3-4.08-3.62-6.03-13.84-20.61-35.49-24.42-55.54-24.79-.01,0-.02.01-.03.02-1.22-.04-2.46-.05-3.67-.05h-59.65c-.37,0-.74,0-1.12-.02-.05.01-.11.01-.16,0-.35,0-.7,0-1.05-.04-.07.01-.15.01-.22-.01-.78-.02-1.55-.07-2.34-.15-.4-.03-.8-.07-1.21-.12,0,0-.02,0-.03,0-.82-.08-1.65-.19-2.47-.32-.41-.06-.82-.13-1.23-.21-.42-.07-.83-.14-1.24-.23-.41-.08-.83-.16-1.24-.26-.33-.07-.65-.15-.98-.23-.12-.03-.24-.06-.35-.09-.3-.07-.6-.15-.9-.23-.49-.13-.98-.27-1.46-.41-.55-.16-1.09-.33-1.63-.51-.04-.02-.07-.03-.11-.04-20.19-6.74-38.3-26.05-38.3-64.66v-83.72c.33.23.66.4.95.54.29.14.55.25.77.32,3.47,1.14,7.76-.31,10.97-3.8.03-.03.05-.06.08-.09.27-.31.53-.63.79-.97.03-.04.06-.08.09-.12.2-.26.4-.53.58-.81.14-.19.26-.38.39-.58.06-.08.12-.17.16-.26.18-.27.35-.55.51-.83.35-.6.67-1.23.98-1.88.05-.09.09-.19.13-.28.16-.34.31-.68.45-1.03.16-.38.31-.77.45-1.16,1.15-3.14,1.91-6.76,2.3-10.89.21-2.14.31-4.43.31-6.85v-65.04c0-2.5-.2-10.39-2.47-17.45,0,.01,0,.01,0,.02-.85-2.65-1.99-5.2-3.52-7.3-.22-.3-.44-.59-.68-.87-.7-.84-1.48-1.59-2.35-2.22-.14-.11-.29-.21-.44-.31-.07-.05-.14-.1-.22-.14-.14-.09-.28-.18-.43-.26-.84-.49-1.74-.87-2.73-1.12-.19-.05-.37-.09-.56-.13-.21-.05-.44-.09-.66-.12-1.1-.18-2.14-.14-3.14.07-.94.21-1.84.55-2.7,1h0s-.02-102.05-.02-102.05h.01Z"/>
        <path class="cls-2" d="M16.92,171.33c-2.17-4.52-1.88-9.61,1.75-13.24,4.53-4.52,11.98-4.13,16.19-.5,3.13,2.74,3.83,7.36,2.25,10.11-2.06,3.63-6.86,1.67-9.11-.69-1.18-1.08-2.25-2.64-1.86-4.72-3.93.9-3.34,5.12-1.1,7.38,3.74,3.61,9.33,6.47,15.81,8.51,7.24,2.28,15.58,3.43,23.73,3.55,12.45.09,24.92-3.04,36.29-7.86,11.19-4.7,22.26-11.18,31.3-19.52,2.35-2.15,4.69-4.39,7.25-6.17,1.96-1.28,4.13-2.16,6.67-2.26,5.1-.19,8.74,2.76,10.4,6.47,2.25,5.02.68,11.08-3.63,14.42-3.34,2.55-8.03,2.27-10.4.2-4.31-3.72,2.45-11.38,7.46-9.71,0-1.96-1.37-3.82-3.53-3.73-2.27.1-6.28,3.64-9.53,6.67-9.51,8.84-21.08,15.7-33.05,20.7-12.25,5.11-25.79,8.52-39.33,8.42-8.83-.08-17.94-1.35-25.89-3.91-7.65-2.35-14.32-5.79-18.93-10.39-1.08-1.09-2.06-2.35-2.74-3.73Z"/>
        <path class="cls-2" d="M159.93,150.84c-.05-.13-.14-.25-.2-.4h66.09c-.07.15-.15.27-.22.4-.98,2.22-1.38,4.59-1.29,6.94h-63.07c.08-2.35-.31-4.72-1.31-6.94Z"/>
        <path class="cls-2" d="M229.06,152.39c1.66-3.71,5.3-6.66,10.39-6.47,2.56.1,4.72.98,6.68,2.26,2.56,1.78,4.91,4.02,7.25,6.17,9.04,8.34,20.11,14.82,31.3,19.52,11.37,4.82,23.84,7.95,36.28,7.86,8.16-.12,16.5-1.27,23.74-3.55,6.48-2.04,12.07-4.9,15.81-8.51,2.24-2.26,2.83-6.48-1.1-7.38.39,2.08-.68,3.64-1.86,4.72-2.25,2.36-7.05,4.32-9.12.69-1.57-2.75-.87-7.37,2.26-10.11,4.21-3.63,11.66-4.02,16.19.5,3.62,3.63,3.92,8.72,1.75,13.24-.69,1.38-1.66,2.64-2.74,3.73-4.61,4.6-11.28,8.04-18.92,10.39-7.96,2.56-17.08,3.83-25.9,3.91-13.54.1-27.08-3.31-39.33-8.42-11.97-5-23.54-11.86-33.05-20.7-3.25-3.03-7.26-6.57-9.53-6.67-2.16-.09-3.53,1.77-3.53,3.73,5.01-1.67,11.76,5.99,7.46,9.71-2.37,2.07-7.06,2.35-10.41-.2-4.3-3.34-5.88-9.4-3.62-14.42Z"/>
        <path class="cls-2" d="M371.32,174.25v102.01c-1.74-.92-3.66-1.41-5.79-1.06-2.31.35-4.24,1.32-5.86,2.71-.29.26-.57.53-.85.81-.54.56-1.05,1.18-1.52,1.83-.23.33-.46.66-.68,1.01-.86,1.39-1.58,2.93-2.18,4.53-.15.4-.3.8-.43,1.21-2.39,7.15-2.59,15.27-2.59,17.81v65.03c0,11.76,2.36,20.18,7.28,25.81,3.13,3.42,7.43,4.89,10.91,3.74.43-.15,1.05-.41,1.71-.86v83.73c0,14.02-2.39,25.49-6.4,34.74-.45,1.03-.91,2.02-1.39,3-1.21,2.44-2.54,4.7-3.97,6.81-11.16,16.41-28.52,22.98-44.27,22.98h-59.65c-8.23,0-16.85.47-25.16,2.33.02-.01.03-.03.05-.04-12.95,2.88-25.17,9.18-34.13,22.51-1.31,1.96-2.55,4-3.63,6.04-1.08-2.04-2.3-4.08-3.62-6.03-13.84-20.61-35.49-24.42-55.54-24.79-.01,0-.02.01-.03.02-1.22-.04-2.46-.05-3.67-.05h-59.65c-.37,0-.74,0-1.12-.02-.05.01-.11.01-.16,0-.34,0-.69-.02-1.05-.04-.07.01-.15.01-.22-.01-.78-.02-1.55-.07-2.34-.15-.4-.04-.81-.07-1.21-.12,0,0-.02,0-.03,0-.82-.08-1.65-.19-2.47-.32-.41-.07-.82-.13-1.23-.21-.42-.07-.83-.15-1.24-.23-.41-.08-.83-.16-1.24-.26-.33-.07-.65-.15-.98-.23-.12-.03-.24-.06-.35-.09-.3-.07-.6-.15-.9-.23-.49-.13-.98-.27-1.46-.41-.54-.16-1.08-.33-1.63-.51-.04-.02-.07-.03-.11-.04-.84-.28-1.67-.59-2.5-.91-.07-.03-.15-.06-.22-.09-19.07-7.53-35.58-26.79-35.58-63.66v-83.72c.33.23.66.4.95.54.29.14.55.25.77.32,3.47,1.14,7.76-.31,10.97-3.8.03-.03.05-.06.08-.09.27-.31.53-.63.79-.97.03-.04.06-.08.09-.12.2-.26.4-.53.58-.81.14-.19.26-.38.39-.58.06-.08.12-.17.16-.26.18-.27.35-.55.51-.83.35-.6.68-1.23.98-1.88.05-.09.09-.19.13-.28.16-.34.31-.68.45-1.03.16-.38.31-.77.45-1.16,1.15-3.14,1.91-6.76,2.3-10.89.21-2.14.31-4.43.31-6.85v-65.04c0-2.5-.2-10.39-2.47-17.45,0,.01,0,.01,0,.02-.85-2.65-1.99-5.2-3.52-7.3-.22-.3-.44-.59-.68-.87-.7-.84-1.48-1.59-2.35-2.22-.14-.11-.29-.21-.44-.31-.07-.05-.14-.1-.22-.14-.14-.09-.28-.18-.43-.26-.84-.49-1.74-.87-2.73-1.12-.19-.05-.37-.09-.56-.13-.21-.05-.44-.09-.66-.12-1.1-.18-2.14-.14-3.14.07-.94.21-1.84.55-2.7,1h0s-.02-102.05-.02-102.05h.01c.19.31.39.62.6.92.63.9,1.35,1.75,2.16,2.57,4.86,4.85,11.76,8.66,20.5,11.35,7.99,2.57,17.32,3.99,26.97,4.09h.57c12.84,0,26.36-2.93,40.26-8.73,12.44-5.2,23.21-11.76,32.09-19.54.07.72.25,1.41.51,2.07.45,1.09,1.16,2.09,2.12,2.92.2.19.42.35.65.51.23.16.46.3.69.45-.04-.01-.08-.03-.11-.05,3.99,2.5,9.81,2.18,13.93-.96,2.75-2.13,4.6-5.07,5.48-8.26h64.28c.39,1.37.95,2.7,1.68,3.93-.04-.1-.09-.21-.14-.33.74,1.32,1.65,2.56,2.77,3.64.16.15.32.3.49.45.22.2.45.39.69.57.57.44,1.18.82,1.81,1.15.27.14.54.27.82.38.54.24,1.09.44,1.65.6.33.09.66.17,1,.23,2.55.52,5.19.27,7.42-.74.45-.19.88-.42,1.29-.69.41-.26.8-.55,1.16-.87,1.55-1.34,2.44-3.08,2.65-4.99h0c1.66,1.45,3.39,2.87,5.19,4.24.6.46,1.2.91,1.82,1.36,1.83,1.34,3.74,2.64,5.7,3.89,5.9,3.76,12.37,7.12,19.37,10.04.57.24,1.15.47,1.72.7.08.03.16.06.25.09.54.22,1.07.41,1.61.62,1.78.67,3.52,1.29,4.82,1.74.3.1.6.21.9.31.09.03.17.06.25.09,10.55,3.45,20.83,5.18,30.71,5.18h.57c9.64-.1,18.98-1.52,26.97-4.09,8.74-2.69,15.64-6.5,20.5-11.35,1.08-1.08,1.99-2.23,2.74-3.46Z"/>
        <path class="cls-1" d="M371.32,174.25v102.01c-1.74-.92-3.66-1.41-5.79-1.06-2.31.35-4.24,1.32-5.86,2.71-.3.26-.58.53-.85.81-.54.56-1.05,1.18-1.52,1.83-.24.33-.46.66-.68,1.01-.86,1.39-1.58,2.93-2.18,4.53-.16.4-.3.8-.43,1.21-2.39,7.15-2.59,15.27-2.59,17.81v65.03c0,11.76,2.36,20.18,7.28,25.81,3.13,3.42,7.43,4.89,10.91,3.74.43-.15,1.05-.41,1.71-.86v83.73c0,14.02-2.39,25.49-6.4,34.74-.45,1.03-.91,2.02-1.39,3-1.21,2.44-2.54,4.7-3.97,6.81-11.17,16.4-28.53,22.96-44.27,22.96h-59.65c-8.22,0-16.82.45-25.11,2.31-12.95,2.88-25.17,9.18-34.13,22.51-1.31,1.96-2.55,4-3.63,6.04-1.08-2.04-2.3-4.08-3.62-6.03-13.84-20.61-35.49-24.42-55.54-24.79-1.24-.03-2.47-.04-3.7-.04h-59.65c-.37,0-.74,0-1.12-.01-.05.01-.11.01-.16,0-.34,0-.69-.02-1.05-.04-.07.01-.15.01-.22-.01-.78-.03-1.56-.08-2.34-.15-.4-.04-.81-.07-1.21-.12,0,0-.02,0-.03,0-.82-.09-1.64-.2-2.47-.32-.41-.07-.82-.13-1.23-.21-.42-.07-.83-.15-1.24-.23-.41-.08-.83-.16-1.24-.26-.33-.07-.65-.15-.98-.23-.12-.03-.24-.06-.35-.09-.3-.07-.6-.15-.9-.23-.49-.13-.98-.27-1.46-.41-.54-.16-1.08-.33-1.63-.51-.04-.02-.07-.03-.11-.04-.84-.28-1.67-.59-2.5-.91-.07-.03-.15-.06-.22-.09-19.07-7.53-35.58-26.79-35.58-63.66v-83.72c.33.23.66.4.95.54.29.14.55.25.77.32,3.47,1.14,7.76-.31,10.97-3.8.03-.03.05-.06.08-.09.27-.31.53-.63.79-.97.03-.04.06-.08.09-.12.2-.26.4-.53.58-.81.14-.19.27-.38.39-.58.06-.08.12-.17.16-.26.19-.27.35-.55.51-.83.35-.6.68-1.23.98-1.88.05-.09.09-.19.13-.28.16-.34.31-.68.45-1.03.17-.38.32-.77.45-1.16,1.16-3.14,1.92-6.76,2.3-10.89.21-2.14.31-4.43.31-6.85v-65.04c0-2.5-.2-10.39-2.47-17.45-.85-2.65-1.99-5.19-3.53-7.28-.21-.3-.44-.59-.68-.87-.7-.84-1.48-1.59-2.35-2.22-.15-.11-.29-.21-.44-.31-.07-.05-.14-.1-.22-.14-.14-.09-.28-.18-.43-.26-.84-.49-1.74-.87-2.73-1.12-.19-.05-.37-.09-.56-.13-.21-.05-.44-.09-.66-.12-1.1-.18-2.14-.14-3.14.07-.94.2-1.84.54-2.7.99l-.02-102.04h.01c.19.31.39.62.6.92.63.9,1.35,1.75,2.16,2.57,4.86,4.85,11.76,8.66,20.5,11.35,7.99,2.57,17.32,3.99,26.97,4.09h.57c12.84,0,26.36-2.93,40.26-8.73,12.44-5.2,23.21-11.76,32.09-19.54.07.72.24,1.41.51,2.07.45,1.09,1.16,2.09,2.12,2.92.2.19.42.35.65.51.19.15.38.28.58.4,3.99,2.5,9.81,2.18,13.93-.96,2.75-2.13,4.6-5.07,5.48-8.26h64.28c.39,1.37.95,2.7,1.68,3.93.71,1.2,1.59,2.32,2.63,3.31.16.16.32.3.49.45.22.2.45.39.69.57.57.44,1.18.82,1.81,1.15.27.14.54.27.82.38.54.24,1.09.44,1.65.6.33.09.66.17,1,.23,2.55.52,5.19.27,7.42-.74.45-.19.88-.42,1.29-.69.41-.26.8-.55,1.16-.87,1.55-1.34,2.44-3.08,2.65-4.99h0c1.66,1.45,3.39,2.87,5.19,4.24.6.46,1.2.91,1.82,1.36,1.83,1.34,3.74,2.64,5.7,3.89,5.9,3.76,12.37,7.12,19.37,10.04.57.24,1.15.47,1.72.7.08.03.16.06.25.09,2.46.99,4.9,1.88,7.33,2.67.09.03.17.06.25.09,10.55,3.45,20.83,5.18,30.71,5.18h.57c9.64-.1,18.98-1.52,26.97-4.09,8.74-2.69,15.64-6.5,20.5-11.35,1.08-1.08,1.99-2.23,2.74-3.46Z"/>
        <path class="cls-1" d="M368.63,171.33c-.69,1.38-1.66,2.64-2.74,3.73-4.61,4.6-11.28,8.04-18.92,10.39-7.96,2.56-17.08,3.83-25.9,3.91-13.54.1-27.08-3.31-39.33-8.42-11.97-5-23.54-11.86-33.05-20.7-3.25-3.03-7.26-6.57-9.53-6.67-2.16-.09-3.53,1.77-3.53,3.73,5.01-1.67,11.76,5.99,7.46,9.71-2.37,2.07-7.06,2.35-10.41-.2-4.3-3.34-5.88-9.4-3.62-14.42,1.66-3.71,5.3-6.66,10.39-6.47,2.56.1,4.72.98,6.68,2.26,2.56,1.78,4.91,4.02,7.25,6.17,9.04,8.34,20.11,14.82,31.3,19.52,11.37,4.82,23.84,7.95,36.28,7.86,8.16-.12,16.5-1.27,23.74-3.55,6.48-2.04,12.07-4.9,15.81-8.51,2.24-2.26,2.83-6.48-1.1-7.38.39,2.08-.68,3.64-1.86,4.72-2.25,2.36-7.05,4.32-9.12.69-1.57-2.75-.87-7.37,2.26-10.11,4.21-3.63,11.66-4.02,16.19.5,3.62,3.63,3.92,8.72,1.75,13.24Z"/>
        <path class="cls-1" d="M225.82,150.44c-.07.15-.15.27-.22.4-.98,2.22-1.38,4.59-1.29,6.94h-63.07c.08-2.35-.31-4.72-1.31-6.94-.05-.13-.14-.25-.2-.4h66.09Z"/>
        <path class="cls-1" d="M152.86,166.81c-3.34,2.55-8.03,2.27-10.4.2-4.31-3.72,2.45-11.38,7.46-9.71,0-1.96-1.37-3.82-3.53-3.73-2.27.1-6.28,3.64-9.53,6.67-9.51,8.84-21.08,15.7-33.05,20.7-12.25,5.11-25.79,8.52-39.33,8.42-8.83-.08-17.94-1.35-25.89-3.91-7.65-2.35-14.32-5.79-18.93-10.39-1.08-1.09-2.06-2.35-2.74-3.73-2.17-4.52-1.88-9.61,1.75-13.24,4.53-4.52,11.98-4.13,16.19-.5,3.13,2.74,3.83,7.36,2.25,10.11-2.06,3.63-6.86,1.67-9.11-.69-1.18-1.08-2.25-2.64-1.86-4.72-3.93.9-3.34,5.12-1.1,7.38,3.74,3.61,9.33,6.47,15.81,8.51,7.24,2.28,15.58,3.43,23.73,3.55,12.45.09,24.92-3.04,36.29-7.86,11.19-4.7,22.26-11.18,31.3-19.52,2.35-2.15,4.69-4.39,7.25-6.17,1.96-1.28,4.13-2.16,6.67-2.26,5.1-.19,8.74,2.76,10.4,6.47,2.25,5.02.68,11.08-3.63,14.42Z"/>
        <path class="cls-3" d="M351.31,327.4h.03l.08-.17v-22.12c0-2.54.2-10.66,2.59-17.81.13-.41.28-.81.43-1.21.6-1.6,1.32-3.14,2.18-4.53.22-.35.45-.68.68-1.01.47-.65.98-1.27,1.52-1.83.28-.28.56-.55.85-.81,1.62-1.39,3.55-2.36,5.86-2.71,2.13-.35,4.05.14,5.79,1.06v-83.11s-.05.22-.05.22c-10.59,15.41-18.12,26.37-28.11,39.61-9.19,12.02-13.32,18.32-34.08,39.55.57-2.17.15-3.88-.4-5.04-1.29-2.71-3.94-3.9-5.48-4.37.23-2.42-.18-4.46-1.3-6.06-.85-1.19-2.5-2.72-5.6-3.16l-.14-.03c-.73-2.65-2.03-4.27-3.47-5.15.21-.17.44-.35.65-.52l3.7-2.93-11.69-13.05-2.78,3.58c-2.18,2.82-4.49,5.48-6.89,7.95l-12.54-13.69s.06-.06.06-.06c8.84-10.39,10.93-14.23,14.86-20.99,2.84-4.91,6.25-11.09,12.81-20.69,0,0-.39-.13-1.04-.35-.08-.03-.16-.06-.25-.09-.3-.1-.6-.21-.9-.31-1.3-.45-3.04-1.07-4.82-1.74-.54-.21-1.07-.4-1.61-.62-.09-.03-.17-.06-.25-.09-.59-.24-1.17-.47-1.72-.7-7-2.92-13.47-6.28-19.37-10.04-1.96-1.25-3.87-2.55-5.7-3.89-.62-.45-1.22-.9-1.82-1.36-1.8-1.37-3.53-2.78-5.19-4.24-.21,1.91-1.1,3.65-2.65,4.99-.36.32-.75.61-1.16.87-.41.27-.84.5-1.29.69-2.24,1.02-4.88,1.26-7.42.74-.34-.06-.67-.14-1-.23-.56-.16-1.11-.36-1.65-.6-.28-.11-.55-.24-.82-.38-.63-.33-1.24-.71-1.81-1.15-.24-.18-.47-.37-.69-.57-.17-.15-.33-.3-.49-.45-1.12-1.08-2.03-2.32-2.77-3.64.05.12.1.23.14.33.08.2.12.34.09.39-1.27,1.88-2.49,3.75-4.34,6.61-1.57,2.34-3.46,5.23-5.33,7.97-2.66-2.63-4.98-4.8-7.07-6.6-4.96-4.65-13.12-7.05-13.12-7.05,0,0,1.3,8.49,5.51,13.96,2.06,2.92,4.48,6.06,7.53,9.83-1.86,2.26-4.13,4.78-6.87,7.5-1.33,1.31-2.8,2.54-4.36,3.72-1.77-.29-3.71-.48-5.91-.57h-.03c.24-.68.39-1.4.39-2.16,0-1.79-.69-3.51-1.81-4.62-.08-.09-.16-.14-.24-.22,1.23-.62,2.12-1.87,2.12-3.31,0-1.88-1.43-3.43-3.21-3.7.16-.43.27-.89.27-1.4,0-.86-.29-1.65-.88-2.41l-.33-.32c-.73-.57-1.62-.89-2.5-.89-2.1,0-3.73,1.59-3.73,3.62,0,.5.1.98.27,1.41-1.8.31-3.21,1.8-3.21,3.69,0,1.44.91,2.7,2.17,3.31-1.28,1.22-2.1,2.93-2.1,4.84,0,.71.18,1.45.44,2.14h-.12c-13.25.7-18.25,3.84-22.56,16.77-5.2-3.42-9.82,1.29-10.8,5.8,5.39-1.58,6.38.68,8.44,4.52l.39.77c.94,1.92,2.33,4.61,4.27,6.06-.53.62-1.06,1.24-1.6,1.82-.2.19-.37.34-.57.53-2.16,1.97-4.83,4.44-6.88,5.22-.62.22-4.68,1.26-7.37,1.94-1.81.47-3.54.91-4.68,1.21l-2.26.6.06,2.33c.07,2.33.98,4.37,2.56,5.8l-.03.2c-1.14,1.22-2.15,2.43-2.94,3.64-12.15,13.53-18.46,21.41-29.03,36.86-3.69-.96-7.92-1.22-9.01-1.22-.31,0-.59.01-.87.03-3.22.19-6.54,1.46-10.53,3.32-1.4.65-3.11,1.62-4.37,2.33-.44.25-.81.45-1.05.58-1,.54-3.17,1.7-3.19,3.97-.49-1.15-1.18-2.2-2.09-2.99-1.74-1.55-4.17-2.33-7.23-2.33-4.92,0-10.55,3.67-14.29,9.28-3.58,5.19-5.47,11.73-5.47,18.91,0,6.63.66,16.64,5.63,29.43l-.36.42c-5.23,5.07-12.32,12.14-20.47,19.91l-.1.05c-.39,4.13-1.15,7.75-2.3,10.89-.14.39-.29.78-.45,1.16-.14.35-.29.69-.45,1.03-.04.09-.08.19-.13.28-.3.65-.63,1.28-.98,1.88-.16.28-.33.56-.51.83-.04.09-.1.18-.16.26-.13.2-.25.39-.39.58-.19.28-.38.55-.58.81-.03.04-.06.08-.09.12-.26.34-.52.66-.79.97-.03.03-.05.06-.08.09-3.21,3.49-7.5,4.94-10.97,3.8-.22-.07-.48-.18-.77-.32-.3-.13-.62-.31-.95-.53v83.71c0,.66.03,1.27.04,1.91.29-5.99,47.31-43.4,78.99-73.24l.49-.57c.12.12.23.24.35.36l2.65,2.61,2.65-2.62c17.88-17.62,30.12-33.93,37.38-49.9.36-.78.63-1.52.95-2.28l1.1-1.3s.31-.3.77-.77c1.96,1.21,3.58,2.52,5.82,4.55l.29.26c-.91,3.28-.24,6.71,1.93,9.02,1.5,1.5,3.59,1.67,6.02,1.88,1.22.11,2.58.23,3.49.52.22.06.43.11.63.15l2.03,2.17c1.43,1.52,2.67,2.85,3.88,4.26,3.56,3.91,5.65,6.15,6.99,7.48l.22.2c1.27,1.09,2.55,2.28,3.9,3.62,4.36,4.38,8.81,8.57,14.06,12.23-.7.87-1.41,1.72-2.12,2.55-8.88,2.65-18.29,3.97-26.66,4.89-10.96,1.2-23.52,3.3-33.79,13.09-6.44,6.21-10.06,14.04-10.76,23.26l-.36,4.94,4.87-.95c.15-.03.3-.06.45-.11-1.06,6.37-.15,12.89,4.33,17.92-.26.25-.51.48-.78.73-22.2,20.48-70.43,63.16-81.71,73.13,3.29,1.95,6.72,3.5,10.2,4.67.04.01.07.02.11.04.55.18,1.09.35,1.63.51.48.14.97.28,1.46.41.3.08.6.16.9.23.11.03.23.06.35.09.33.08.65.16.98.23.41.1.83.18,1.24.26.41.08.82.16,1.24.23.41.08.82.14,1.23.21.82.13,1.65.24,2.47.32.01,0,.02,0,.03,0,.4.05.81.08,1.21.12.79.08,1.56.13,2.34.15.07.02.15.02.22.01.36.02.71.03,1.05.04.05.01.11.01.16,0,.38.02.75.02,1.12.02h59.65c1.21,0,2.45.01,3.67.05.01,0,.02-.02.03-.02,3.93-3.58,16.13-14.83,26.84-24.74,2.69-.61,5.72-2.35,7.37-6.81.81-.75,1.58-1.47,2.33-2.17.95.61,1.97,1.16,3.19,1.61l3.61,1.3,1.25-3.62c.84-2.47,1.08-4.97.83-7.48,2.53-2.21,11.76-10.07,33.62-32.43.18-.18.36-.39.54-.58,2.96,3.51,7.24,6.21,11.93,7.24l11.45,2.5-1.73-1.91c2.71.6,5.62.48,9.17.31,5.71-.28,12.81-.63,15.91,2.18,1.31,1.24,2.07,2.81,2.26,4.68.2,2.11.58,6.04.15,8.87-.65,3.55-1.99,3.55-2.96,3.55-3.35,0-5.05-1.32-7.42-3.15-3.29-2.51-9.13-5.05-14.73-4.05-1.22.23-2.3.66-3.32,1.18-.21.09-.39.19-.59.3-.26.15-.52.29-.77.47-.96.65-1.84,1.47-2.61,2.56-7.44-.98-8.15,3.24-8.53,6.85,1.48-1.35,4.9-2.72,8.14-2.05.39.82.8,1.54,1.25,2.12-1.43,1.15-2.6,2.69-3.37,4.35-.11.17-.24.33-.32.51-3.24.58-5.2,3.62-5,8.02,1.57-.95,4.31-1.96,6.57-2.43.78.68,1.56,1.27,2.84,1.75v-.03c2.56,1.17,5.05,1.1,6.07,1.07.4-.01.79-.03,1.18-.05l-.42.57c-.08.06-.13.1-.16.12-4.3,1.76-6.19,5.98-4.13,9.81.99-2.22,2.71-4.44,5.38-5.35l1.92.56c.62.21,1.37.44,2.24.56,1.51.34,3.62.75,5.49.75,3.75,0,6.1-.42,8.16-1.34-1.04,1.09-1.61,1.68-1.61,1.68-8.19,7.78-18.79,20.09-25.1,24.99-.02.01-.03.03-.05.04,8.31-1.86,16.93-2.33,25.16-2.33h59.65c15.75,0,33.11-6.57,44.27-22.98,1.43-2.11,2.76-4.37,3.97-6.81.48-.98.94-1.97,1.39-3,4.01-9.25,6.4-20.72,6.4-34.74v-83.72c-.66.45-4.18,2.67-4.18,2.67-.09,0-13.81,8.36-30.29,26.11-16.49,17.76-15.49,16.58-29.88,39-3.11,4.83-7.27,10.42-11.88,16.2-.37-3.24-.84-5.49-1.53-7.34-1.12-3.34-3.2-5.75-6.71-7.63-3.2-1.71-6.63-2.48-10.1-3.16-5.09-1.07-7.81-1.74-9.18-4.57-2.32-4.78-1.48-9.21-.12-14.58,4.88,1.41,9.54,2.44,14.57,2.44,20.16,0,27.32-18.52,27.32-34.37s-6.12-28.54-11.95-40.35c.6-.56,1.17-1.09,1.8-1.69.4-.03.78-.07,1.22-.08l.45.03c10.1-.2,10.01,6.38,9.02,13.85-.79,6.37-1.17,13.33.99,19.7,3.83,11.39,14.03,8.43,20.68,15.8.99-2.17,2.18-4.41,2.06-6.87l2.86.58c-.3-2.94-.21-6.47-1.18-9.21l.78.1c-.58-3.93-.99-7.84-1.07-11.87-.69-14.33-1.67-18.15-12.96-24.53-1.37-.77-2.53-1.56-3.83-2.75-1.83-1.66-5.02-3.86-7.38-5.27h.03c-.14-.06-.29-.11-.42-.18,1.57-1.5,3.09-2.92,4.56-4.3,1.93,1.59,3.95,2.85,5.7,3.94l.08.03c4.99,3.14,5.19,2.94,3.52,7.95,5.49-1.68,8.73-3.34,9.31-10.4l1.57.88c.21-4.32.32-7.95-1.27-12.16l2.06.89-.94-6.38-.02-.18c-.07-.41-.15-.77-.21-1.16,7.72-5.86,13.19-9.4,16.51-12.56v-.02ZM262.7,409.16c2.04-2.67,4.05-5.14,6.02-7.38,2.76-3.1,5.11-5.68,7.27-7.97,1.93,5.19,4.73,9.56,7.2,13.34l.21.32c3.28,4.89,6.12,9.12,6.12,13.59,0,5.15-3.17,10.63-9.06,10.63-4.37,0-8.1-1.07-10.11-2.87-1.11-6.98-3.56-13.25-7.65-19.66ZM253.45,262.08l-3.3,2.52,10.58,11.51c-.06.19-.12.4-.18.56l-1.4,3.59c-1.13,2.92-2.26,5.79-3.35,8.75-1.52,1.48-3.05,3.27-4.67,5.17l-1.84,2.13c-4.93,5.93-10.34,12.15-17.38,17.87.04-1.75-.06-3.48-.37-4.9l-.09-.23.69-2.14c1.21-3.62.69-7.75-1.04-11.44l.52-.82c2.51-3.88,2.04-8.38-1.04-12.6l.39-.86c1.59-3.6,1.46-7.35-.37-10.81-.09-.19-.24-.37-.35-.56l.34-1.98c.19-1.13.25-2.16.26-3.13,9.16-9.33,15.9-16.28,18.02-18.65,1.5-1.67,2.83-3.16,4.1-4.58,3.62,4.26,7.2,8.47,10.68,12.58-3.44,2.85-6.9,5.53-10.2,8.02ZM181.75,212.38c-3.73,2.33-7.3,4.8-10.35,7.68l-.85-.61c-.51-.37-1.16-.64-1.87-.83,1.39-5.88,5.35-8.23,13.07-7.62v1.38ZM288.02,381.92c2.14,4.32,4.17,8.7,5.52,13.13.65,2,1.1,3.64,1.4,5.17-.81-1.06-1.6-2.13-2.36-3.2-3.89-5.6-5.69-10.28-5.48-14.24.3-.28.6-.58.92-.86Z"/>
        <path class="cls-3" d="M141.33,170.83s-.08-.03-.11-.05c-.11-.04-.22-.08-.32-.12-1.18,1.19-2.91,3.21-4.05,4.42-14.34,15.17-20.8,19.35-29.83,25.62-26.29,18.35-47.34,42.76-64.21,70.03-3.28,5.38-6.65,10.7-11.15,16.92,0,.01,0,.01,0,.02-.85-2.65-1.99-5.2-3.52-7.3-.22-.3-.44-.59-.68-.87-.7-.84-1.48-1.59-2.35-2.22-.14-.11-.29-.21-.44-.31-.07-.05-.14-.1-.22-.14-.14-.1-.28-.18-.43-.26-.84-.49-1.74-.87-2.73-1.12-.18-.05-.37-.09-.56-.13-.21-.05-.44-.09-.66-.12-1.1-.18-2.14-.14-3.14.07-.94.21-1.84.55-2.7,1h0s-.02-102.05-.02-102.05c.19.31.39.62.61.92.63.9,1.35,1.75,2.16,2.57,4.86,4.85,11.76,8.66,20.5,11.35,7.99,2.57,17.32,3.99,26.97,4.09h.57c12.84,0,26.36-2.93,40.26-8.73,12.44-5.2,23.21-11.76,32.09-19.54.07.72.25,1.41.51,2.07.45,1.09,1.16,2.09,2.12,2.92.2.19.42.35.65.51.23.16.46.3.69.45Z"/>
        <path class="cls-1" d="M72.22,315.52c-.51,0-.85-.08-1.03-.16-.86-.45-1.3-1.68-1.03-3.08,1.56-.49,2.94-.88,4.02-2.15,1.46-1.67,1.09-4.52-.6-5.99-.88-.78-2.35-1.38-4.71-1.38-3.33,0-7.84,2.65-11.18,7.66-2.84,4.12-4.81,9.7-4.81,16.76,0,8.24,1.1,18.83,7.17,32.37,6.07,13.35,17.06,29.44,36.68,48.76,19.61-19.32,30.5-35.4,36.59-48.76,6.07-13.54,7.15-24.12,7.15-32.37,0-7.06-1.96-12.64-4.71-16.76-3.43-5.01-7.84-7.66-11.27-7.66-2.36,0-3.84.6-4.72,1.38-1.67,1.47-2.78,4.32-1.3,5.99,1.18,1.27,4.01,2.12,4.02,2.15.17.71-.16,1.81-.55,2.54-.25.47-.57.53-.91.64-.28.04-.73.05-.76.05h-1.38c-.43,0-.15,0-1.16,0-.66,0-1.07,0-1.04,0-.78,0-1.65-.05-1.78,0,0-.03.03-.05-.42.55-1.38,1.81-2.6,5.13-2.6,5.13-.02.06-2.46-1.77-4.14-3.09-1.17-.92-3.84-2.01-3.83-2.02-.02.03-1.52,1.57-2.21,2.87-.79.95-1.9,4.15-1.93,4.15-.26,0-2.33-2.45-4.33-3.84-.59-.4-4.33-2.8-4.11-3.36-.36.92-1.51,3.19-1.51,3.19-.58,1.36-.81,2.53-1.18,4.75l-4.58-4.02c-1.95-.9-2.45-1.35-3.6-2.27-1.66-1.33-2.08-2.02-2.07-2.05h-6.18s0,0,0,0Z"/>
        <path class="cls-2" d="M186.48,216.05c-3.04.98-2.64,2.94-2.64,5.4-2.66-1.29-5.11-2.74-8.44-.39.88,3.61,4.9,3.42,7.55,2.84-.79,4.01-3.93,5.49-7.35,5.98-3.44.58-13.15.29-14.12-4.22,3.04.21,7.15-1.18,7.84-4.51-.69-.5-1.96-.79-3.24-.67-1.37.09-2.74.59-3.92,1.65-.68.79-1.18,1.39-1.77,2.27-1.27-1.48-2.16-3.15-3.62-4.43-2.07-1.76-5.01-1.07-6.49,1.1,3.83.09,5.4,3.42,6.97,6.27.89,1.77,3.04,6.78,5.49,6.78h47.38c2.54,0,4.7-5.01,5.59-6.78,1.46-2.85,3.04-6.18,6.87-6.27-1.47-2.17-4.32-2.85-6.38-1.1-1.46,1.28-2.35,2.95-3.72,4.43-.6-.88-.99-1.48-1.77-2.27-1.08-1.06-2.45-1.56-3.82-1.65-1.38-.12-2.56.17-3.35.67.69,3.33,4.9,4.72,7.95,4.51-.98,4.51-10.69,4.8-14.22,4.22-3.33-.49-6.38-1.96-7.26-5.98,2.74.57,6.57.77,7.45-2.84-3.33-2.35-5.68-.9-8.33.39,0-2.46.49-4.43-2.66-5.4h0Z"/>
        <path class="cls-2" d="M159.42,219.68c.39.28.68.67.98,1.16.1-.09.2-.2.29-.27,1.48-1.49,3.44-2.17,5.21-2.27h.68c2.06-9.12,9.42-10.2,17.26-9.21v5.59c.89-.5,1.87-.79,2.65-.79.88,0,1.78.29,2.66.79v-5.59c7.74-.99,15.2.09,17.16,9.21h.68c1.87.1,3.72.78,5.3,2.27.1.08.1.18.2.27.28-.49.68-.88.98-1.27-4.51-12.75-8.34-15.88-21.87-16.27-1.17,1.48-3.05,2.35-5,2.35s-3.82-.79-5.11-2.35c-13.62.39-17.55,3.52-22.06,16.38h0Z"/>
        <path class="cls-2" d="M181.98,199.08c0,1.18.59,2.35,1.38,3.15.78.78,1.96,1.27,3.23,1.27,2.45,0,4.41-1.96,4.41-4.42,0-1.28-.51-2.45-1.28-3.24-.79-.88-1.96-1.37-3.14-1.37-2.56,0-4.61,2.06-4.61,4.61h0Z"/>
        <path class="cls-2" d="M185.51,190.94c0-1.08-.89-1.95-1.87-1.95-1.07,0-1.96.87-1.96,1.95,0,.98.89,1.88,1.96,1.88.98,0,1.87-.9,1.87-1.88Z"/>
        <path class="cls-2" d="M184.62,185.84c0,.58.2,1.08.6,1.47.29.29.68.49,1.27.49,1.07,0,1.86-.78,1.86-1.96,0-.49-.18-.88-.48-1.27-.39-.3-.88-.5-1.38-.5-1.09,0-1.87.79-1.87,1.77h0Z"/>
        <path class="cls-2" d="M189.42,192.8c.99,0,1.88-.89,1.88-1.87,0-1.08-.89-1.95-1.88-1.95-1.07,0-1.95.87-1.95,1.95,0,.98.88,1.87,1.95,1.87Z"/>
        <path class="cls-2" d="M205.13,283.9c.06,8.2,3.24,13.7,8.78,15.13,1.34.32,2.63.42,3.89.53,2.62.23,5.11.43,7.85,2.44,1.27.87,2.4,1.96,3.62,3.54,1.48-5.35-1.77-13.31-8.55-16.31-.6-.25-1.9-.55-3.87-.87-3.59-.62-8.94-1.54-11.73-4.46h0Z"/>
        <path class="cls-2" d="M205.64,271.96c-.42,1.88-.48,4.04-.11,5.84,1.06,5.26,5.22,6.27,11.89,7.48,2,.33,3.48.6,4.57,1.11,3.4,1.42,5.75,4.13,7.17,6.27,3.04-5.17-2.15-10.31-4.56-12.31-2.8-2.7-5.79-4.21-10-5.04l-.08-.02c-3.02-.57-6.42-1.24-8.88-3.32h0s0,0,0,0Z"/>
        <path class="cls-2" d="M204.94,259.8c-.26,1-.39,2.14-.39,3.54.4,6.17,5.94,8.01,10.73,8.92,4.64.93,8.18,2.73,11.49,5.82.27.28.52.55.76.83.23.24.45.49.68.73,1.05-2.61.92-5.29-.39-7.78-2.01-3.83-6.81-7.05-11.94-8.03-3.42-.64-8.07-1.51-10.93-4.03h0Z"/>
        <path class="cls-2" d="M204.7,250.76c-.05.45-.02.9.04,1.36.67,6.49,5.78,7.49,11.69,8.66,4.94,1.18,7.76,2.37,11.11,6.12.55-3.73-.12-6.77-2.01-9.02-2.16-2.6-5.92-4.07-10.6-4.13-2.98-.1-6.36-.2-10.24-2.97h0Z"/>
        <path class="cls-2" d="M155.01,300.8c2.84,1.38,6.07,1.47,8.54-.39,3.62,2.74,8.62,3.44,11.77.39,4.5,4.02,11.67,2.94,13.72-4.9-2.83,3.33-9.7,6.96-17.26-1.46.39,1.66.99,3.22,1.77,4.4-3.83,1.17-9.03.6-14.03-5,.28,1.67.98,3.13,1.96,4.42-2.26.58-4.92.28-8.04-2.07-.4-.39-.3-1.07-.3-1.66l.83-4.77-.83-3.37,3.62-1.46c.4-.71.69-1.87,1.38-2.35.7,1.17,1.57,2.35,2.94,2.83h4.22c.6-1.47,1.28-2.26,2.66-2.95.39,2.27,1.67,4.23,3.43,5.5,3.43,2.55,10,2.55,12.95-.87,2.05-2.36,1.47-6.98.68-9.82-.49-1.66-1.38-3.15-2.66-4.22-1.57-1.28-4.21-3.03-6.56-4.22-5.3-2.45-7.45.39-12.65,1.28-3.83.69-8.24.49-11.58-.89-.21,0-.5-.2-.89-.29-3.24-1.27-9.9-3.92-8.73-12.65,2.16-.2,3.15-.99,3.93-2.65-3.52.49-6.17-1.48-6.28-4.91,3.34-.88,11.67-2.94,12.36-3.23,3.53-1.37,7.45-5.68,10.39-8.14h49.33c1.97-2.26,3.05-2.85,5.3-2.45,1.66.2,3.33.77,5.1,1.17-.11,3.15-2.66,7.74-5.68,10.6-3.35,3.04-9.62,2.73-12.56-.69-6.18,3.94-14.61,4.22-21.38,1.38-2.35-1.07-4.51-2.45-5.79-4.12-.2-.29-.79-.49-1.08-.38-4.31.88-9.01,1.06-13.33,1.06-1.07,0-1.27,1.77-.29,2.06l5.89,1.97c-.4,2.84,1.07,5.88,4.01,6.95,5.29,1.87,12.37-.1,16.97-2.74.3-.2.6-.39.7-.79,3.92.4,8.62-.39,12.36-1.96-.2.99-.2,1.96-.11,2.96.2,1.47.6,2.83,1.18,4.22-.99,2.14-1.47,4.59-1.28,6.95.1,1.96.69,3.91,1.87,5.59-1.17,2.47-1.48,6-.89,8.74-1.46,9.3.39,22.36,11.48,24.22,3.44.6,6.57-.11,9.82,2.26,1.87,1.38,3.33,3.23,4.7,5.59.69,3.13.11,8.54-.57,11.49-.29,1.17-.11,2.25.29,3.23.88,1.84,2.75,2.94,4.79,3.03-1.26,7.76-12.94,7.36-15.78.5-2.16-5.31-1.77-15.39-10.01-16.38,4.91,1.87,5.98,10.89,6.68,15.79.38,2.83,2.55,6.28,4.31,7.35-2.45,8.64-15.49,5.4-16.77-2.05-.88-5.6,1.67-15.21-6.18-18.05,4.32,3.05,2.95,11.96,2.95,17.06-.11,3.04,2.55,8.83,6.07,9.32-7.26,4.41-15.29,1.27-16.38-7.45-.6-5.6,1.76-15.88-6.07-18.84,4.4,3.05,2.84,12.85,2.84,17.76-.1,5.1.98,8.73,3.23,10.49-6.38,5.01-14.51-1.66-14.51-9.4-.1-5.5,3.23-15.71-4.41-19.23,4.12,3.44,1.85,12.95,1.27,18.05-.49,5.29.89,9.21,3.34,11.38-1.57.78-3.44.99-5.29.89-6.38-.7-11.57-5.41-11.57-12.27,0-5.49,8.83-16.09,1.27-19.71,4.12,3.43-4.02,13.33-4.51,18.44-.49,4.6.97,8.05,3.04,10.2-7.26,1.27-12.35-8.23-12.35-14.33,0-9.21,3.54-13.15,6.67-16.66.29-.5.68-.88.88-1.08,1.67-1.87,2.56-3.72,2.94-5.69.21-.98.21-1.95.21-2.94h0Z"/>
        <path class="cls-2" d="M155.1,282.45c1.07-1.96,2.25-2.74,4.41-3.33.58,1.27,1.07,2.55,2.05,3.52h1.96c4.61-7.16,14.12-2.16,19.23,1.68,1.47-5.21-2.85-7.46-7.26-8.64-11.58-3.05-19.92,3.62-30.61,3.72-4.01,0-7.24-2.95-6.96-7.16-3.82,1.96-2.84,6.77.1,9.12,5.3,4.12,11.48,2.65,17.07,1.07h0Z"/>
        <path class="cls-2" d="M186.48,250.88c-1.56-.29-3.23-.89-4.8-1.57-2.55-1.09-4.81-2.46-6.37-4.22-.3,0-.68.1-1.09.18.78,1.1,1.09,2.46,1.09,3.84s-.3,2.55-.89,3.43c-.2.3-.29.49-.49.69,4.32.68,8.62-.39,12.55-2.35Z"/>
        <path class="cls-2" d="M140.19,352.69c2.85,1.56,4.82,3.12,7.76,5.79,2.74-2.35.98-4.02-.5-7.85-1.17-3.15-2.35-6.57-1.66-10.11-.78-.78-1.48-1.66-2.16-2.64-.59,4.4-1.67,9.31-3.44,14.81h0Z"/>
        <path class="cls-2" d="M166.58,368.18c0-.58,0-1.27.09-2.05.6-5.11,4.04-11.57-.09-15.01,9.43,4.61-.49,17.06,5.99,24.32,1.07,1.18,2.55,1.96,4.22,2.46,3.81.99,6.95.39,10.58-.39-7.45-6.48,2.06-21.88-4.6-26.59,10.78,4.11-.59,18.34,8.93,24.62,4.01,2.74,7.06,3.04,10.88-.39-1.96-1.27-4.41-4.9-4.41-8.54.1-5.11,2.85-12.45-1.66-15.5,7.84,2.94,3.92,10.89,4.9,16.58.98,3.92,2.74,5.01,5,5.59,5.1,1.47,6.66,1.77,9.99-3.03.41-.6.79-1.19,1.08-1.57-2.73-.89-4.9-6.1-4.99-8.94-.09-4.79,3.23-10.98-1.38-12.76,7.16.89,3.92,6.98,4.12,11.89.29,6.07,5.49,9.2,11.27,7.26,1.1-.4,2.95-.99,2.46-2.56-.4-1.56-2.26-3.43-2.84-4.6-1.18-2.55-.5-4.02.59-6.28.98-2.26,2.06-4.82,2.34-7.27.61-3.23-1.07-5.68-1.66-8.62-1.56.11-3.34.11-5.29-.2-1.77,6.97-8.24,8.73-14.32,6.76-4.32,3.55-11.77,4.13-16.78,2.45-1.87,1.68-4.21,2.36-6.57,2.46-2.74.2-5.59-.58-7.64-1.67-2.66,1.76-5.69,2.26-8.74,1.96-3.62-.29-7.26-1.96-9.21-3.72-1.08.38-2.17.57-3.24.57-2.06,0-4.22-.67-6.18-1.84.21,1.95.99,3.92,1.67,5.77,1.96,5.49,3.73,8.44-1.57,12.66-.68,1.86-.68,4.32.78,5.89.99.98,5.21.57,7.95,1.45,2.94.9,5.49.3,8.34-1.17h0Z"/>
        <path class="cls-2" d="M232.49,318.55c-.2,1.28-.39,2.55-.68,3.72-.2,1.77,1.07,1.87,2.56,1.57,1.07-.18,2.44-.98,2.94-1.47,0,6.96-1.77,11.66-6.39,13.54.39,3.53,2.65,5.39,1.96,9.99-.48,2.85-1.57,5.79-2.74,8.35-1.67,3.53,2.56,6.86,3.24,9.9.88-6.77,4.8-11.57,8.63-16.18,4.5-5.5,6.09-8.93,8.04-15.4,1.47,1.96,2.74,3.52,3.63,5.79,3.23-6.1,4.61-12.45,5.2-18.94,2.24,3.05,3.44,4.91,4.11,8.73,2.95-5.59,4.13-9.61,4.43-15.79,1.56,1.66,2.73,2.65,3.52,4.92.89-1.87,1.67-3.74,2.27-5.6,1.37-3.94,2.05-7.85,2.44-11.98,4.03-1.86,7.95-3.73,11.59-6.27,2.74-1.86,5.1-4.02,7.05-6.56-2.94-2.85-10-9.82-13.83-13.54-.49,2.54-2.06,6.47-4.41,7.74-.78.38-1.47.78-2.26-.6-.77-1.46,0-1.87.68-2.26,1.97-1.07,2.95-5.39,3.04-7.74.11-1.96,0-4.12.3-5.99.29-1.47.88-3.13-.59-4.11-3.23-2.26-4.91,1.96-6.88,4.21-1.37,1.68-3.33,3.83-4.78,8.93-.61,1.78-1.1,3.24-1.49,4.51-1.68,4.33-3.33,8.43-4.9,12.77l-.49.67c-1.96,1.88-4.01,4.41-6.49,7.24-4.99,6-11.27,13.35-19.71,19.83h0,0Z"/>
        <path class="cls-2" d="M275.45,256.46c.69-1.17,1.38-2.07,2.16-2.74,1.66-1.48,3.63-1.87,5.78-2.16.99-1.27,2.27-2.45,3.63-3.33,1.47-.99,3.04-2.27,4.51-3.43l-5.99-6.68c-3.04,3.93-6.37,7.65-10.01,11.09-6.46-7.06-12.84-14.03-19.32-21.1-27.16-29.8-40.02-43.83-48.75-51.38-2.05-1.78-4.01-3.34-6.28-4.81,1.28,2.35,2.76,4.52,4.23,6.67,5.38,7.66,13.53,17.17,29.53,35.99,11.37,13.26,22.76,26.6,34.03,39.93-4.31,3.73-8.73,7.16-13.24,10.6l6.67,7.24c1.67-5.57,3.92-8.03,5.49-9.89,2.45-2.75,4.62-5.89,7.56-5.99h0Z"/>
        <path class="cls-2" d="M281.54,257.84c-.2.7-.29,1.47-.5,2.15.59,1.57.3,3.44,0,5.01-.21,1.17-.29,2.16-.29,3.34,2.26,2.15,16.2,15.78,17.66,17.36.1.09.39.09.59-.11.99-.97,2.06-2.05,3.24-2.94.28-.2-.39-1.18-1.28-2.26-1.96.61-3.93,1.18-5.89,1.96-1.37-3.23-1.56-6.96-1.07-10.49-1.56.68-4.8,1.66-6.37,2.94-.69-3.33-.5-5.79,0-9.03-1.77,1.07-3.55,2.27-5.11,3.83-1.07-3.83-1.27-7.84.6-11.46,0-.21-.8-.21-1.57-.3h0Z"/>
        <path class="cls-2" d="M301.44,266.56c-1.88,1.38-4.11,3.93-4.01,6.28.1,1.76,1.46,3.24,3.12,3.62,1.38.21,3.24-1.56,4.23-3.33,2.94-5.39-3.34-6.57-3.34-6.57h0Z"/>
        <path class="cls-2" d="M299.29,263.92c.68-3.42-.11-5.78-3.54-6.28-2.46.79-4.12,4.03-4.72,6.47-.38,1.38.41,2.27,1.28,3.34,2.45,2.65,6.48-.8,6.98-3.54Z"/>
        <path class="cls-2" d="M292.51,254.89c-1.95-7.06-8.04-1.17-7.16,3.73.5,2.84,2.65,3.83,4.41,1.18.99-1.47,2.36-3.63,2.74-4.91h0Z"/>
        <path class="cls-2" d="M201.2,440.08c2.45-5.01,5.99-9.52,8.83-13.94-3.62-10.29-9.9-15.59-15.31-19.22-10.69,4.23-22.66,6.09-34.24,7.36-11.56,1.27-22.54,3.43-31.58,12.05-5.1,4.9-8.93,11.58-9.61,20.81,3.52-.68,6.96-4.71,9.22-7.46-4.8,8.34-7.76,20.7.49,27.88,1.67-4.91-.78-10.11,5.3-14.04-2.35,5.2-1.96,11.47,1.96,15.7,5,5.39,13.93,8.42,16.67,15.18.59,1.68,1.07,3.54,1.18,5.41v-.1c.38,6.07,0,14.4-8.05,14.4-7.27,0-6.88-3.13-10.21-6.85-3.92-4.32-9.89-5.51-15.69-3.84,1.37,3.52,5.79,8.35,9.03,9.91-4.22,5.5-12.56-7.83-20.11.29,3.73,5.6,13.04,6.96,19.02,6.57-.58,1.87-5.19,2.84-9.9,1.96-3.52-.59-5.3-1.17-8.54,1.56,4.61,3.63,10.5,6.38,16.18,3.83,3.63-1.57,8.44-2.84,15.49-.68-5.49.4-10.29.2-11.06,6.37,6.07-.38,22.75-1.37,27.44-1.37,5.3,0,6.86-4.01,7.36-8.33.1-3.54-.59-7.74-1.17-11.19,3.33,4.91,4.71,9.91,10.7,12.07,2.73-7.94-2.37-15.21-7.95-20.31,3.54.68,8.93,3.05,10.89,4.42-1.49-10.4-11.49-10.4-13.25-17.37,3.04,1.39,8.72,3.63,10.88,6.88.4-3.24-1.07-8.45-3.52-10.69-3.72-3.33-10.31-5.29-10.31-11.28,0-7.66,3.54-14.12,10.99-18.74,6.57-4.1,16.18-6.66,28.84-7.25h0Z"/>
        <path class="cls-2" d="M329.68,414.39c-2.83-6.18-8.82-6.87-8.12-14.43.99,4.51,6.37,8.44,10.49,10.39-.2-2.44-1.17-4.4-2.65-6.37-3.14-4.12-6.94-6.18-5.38-16.96.39,6.56,5.59,12.35,7.55,14.31.19-.48-.41-6.56-.41-7.54-.57-12.46-.67-15.6-10.98-21.38-1.56-.89-2.94-1.96-4.41-3.24-3.72-3.23-7.16-5.68-11.86-6.57-3.93-.68-7.46-.59-11.29.67.79,1.69,1.58,3.45,2.46,5.22,1.87-.59,3.72-.78,5.68-.78,12.84-.21,14.13,8.23,12.94,18.14-.68,5.79-1.17,12.26.69,17.94,2.55,7.56,9.22,7.56,15.28,10.61h0Z"/>
        <path class="cls-2" d="M228.67,475.38c-2.36-2.54-3.64-6.46-3.05-12.73-3.14,3.83-4.79,10.39.3,16.09-9.43-2.07-18.44-13.16-9.22-21.88-4.72.6-7.07,5.59-9.12,9.22-3.93-6.27-1.87-14.71,5.59-17.76-3.83-.99-8.64,2.94-10.49,6.58-2.27-9.72,4.31-17.96,9.51-25.22,1.27-1.77,4.79-8.73,2.83-10.31-.87,1.47-1.66,2.56-2.25,3.24-4.12-9.71-10.1-15.3-19.43-20.99-5.99-3.73-10.88-8.43-15.88-13.45-1.38-1.37-2.75-2.64-4.12-3.82-1.47-1.48-3.93-4.12-6.88-7.35-1.17-1.37-2.44-2.74-3.92-4.31,1.28-.11,2.66-.3,3.92-.7.79,2.46,1.88,4.43,3.24,5.99,1.67,1.76,3.63,2.94,6.09,3.54,5,1.47,9.21,0,13.33-.6,1.87-.3,3.63-.3,5.5.1,2.94.9,5.6,1.67,10.2-2.76,1.19-1.18,2.46-.87,3.83-.57,5.5,1.37,7.73-.79,10.89-5.31.49-.78.88-1.38,1.17-1.76,2.36.38,6.48-.68,6.96-.99,3.34-1.07,4.91-2.25,5.49-3.53,0,.38-.09.88-.09,1.28,0,3.72,1.27,8.23,3.23,12.56,2.07,4.59,4.9,9.01,8.05,12.44,6.08,6.77,11.18,12.65,15,18.54,3.73,5.79,6.27,11.77,7.34,19.12l.61,1.09c3.22,3.33,8.73,4.32,13.14,4.32,7.95,0,12.85-7.06,12.85-14.42,0-5.6-3.15-10.3-6.78-15.71-4.22-6.45-9.11-13.82-9.11-24.22,0-3.24.49-5.88,1.46-8.05.68-1.36,1.47-2.54,2.56-3.62l3.34,7.45c-3.83,7.55.18,15.79,4.7,22.27,2.84,4.04,5.99,7.84,8.93,11.77,1.18-6.87.89-10.4-1.28-17.07-2.06-6.76-5.49-13.25-8.83-19.71-5.19-10.11-10.29-20.11-10.29-30.22,0-12.84,8.05-24.61,21.88-24.61,6.86,0,17.65.39,23.15,5.19,5.49,4.72,7.16,10.2,8.23,17.17-1.07-.78-8.43-5.79-9.22-11.38-.98,5.98,1.57,8.05,4.12,10.2,4.9,4.01,4.51,6.78,4.71,13.04-3.73-5.1-10.59-6.86-11.57-14.5-1.85,11.48,14.32,13.72,9.22,22.75-1.18-1.66-3.32-2.93-5.79-4.5-4.9-3.05-11.48-7.06-11.48-15.78,0-6.28-.87-10.21-2.64-12.67-2.06-2.65-4.9-3.43-8.83-3.43-10.2,0-16.48,9.43-16.48,18.83,0,8.73,4.51,18.04,9.5,28.26,6.08,12.26,12.74,25.78,12.74,41.09s-6.37,30.6-23.54,30.6c-5.96,0-11.56-1.66-17.26-3.43-1.77,7.16-4.11,13.73-.59,20.99,2.27,4.72,6.87,5.6,12.06,6.67,2.95.59,6.07,1.28,8.83,2.75l.15.08c2.55,1.37,3.97,3.06,4.75,5.41.69,1.87,1.07,4.02,1.38,6.68-2.36-1.08-6.38-2.46-7.85-4.32.3,4.11,7.55,7.06,8.26,14.12-4.12-.51-5.69-2.16-7.66-5.6-.18,3.64,1.57,5.88,3.73,7.96,1.77,1.85,3.43,4.11,3.04,8.61-.4-.1-.79-.28-1.18-.39-4.4-1.67-6.28-4.9-7.94-9.21.99,7.54,3.54,15.88-.9,22.65-1.76,2.74-4.49,5.01-8.32,5.89-2.46.57-5.8.88-7.84-.88.79-1.47,3.33-4.43,5.59-5.49-4.71-.71-7.16.39-9.81,2.33-4.13,3.24-5.41,4.22-11.38,4.22-1.37,0-3.13-.29-4.82-.68-.79-.1-1.56-.38-2.25-.59,1.95-2.65,5.1-5.1,9.12-5.1-3.54-3.23-8.63-.7-13.63-.6-2.85.11-5.2-.49-6.97-2.73.6-1.87,2.07-3.63,3.73-4.51,4.13-.89,9.71,2.55,13.34-.5-2.16-1.66-5.4-1.56-8.73-2.06-3.54-.49-4.82-.67-6.18-3.92,3.73-5.89,12.46-3.52,16.98-.11,2.54,1.96,5.1,3.93,9.71,3.93,4.12,0,5.99-2.83,6.67-6.66.49-3.15.2-6.87-.1-9.9-.3-3.05-1.66-5.41-3.44-7.08-5.39-4.89-16.48-3.04-23.25-3.04-4.11,0-7.65-1.36-10.59-4.32h0s0,0,0,0Z"/>
        <path class="cls-2" d="M89.62,334.94l-.18.4-.37-.26c-.79-.59-1.62-.92-2.67-1.12-.36,3.46.38,5.3,2.25,5.64l.35.06-.05.36c-.3,2.03-1.81,3.45-3.74,3.54h-.18c-1.94,0-3.48-1.4-3.79-3.45l-.06-.43h.79c2.05-.16,2.92-1.99,2.7-5.72-.22.03-.42.05-.64.08-.66.09-1.29.16-1.83.37l-.51.2v-.53c0-1.46-1.22-2.87-2.62-3.04-1.27.17-2.52,1.66-2.44,3l.03.56-.52-.18c-.61-.22-1.27-.29-1.91-.37-.22-.03-.45-.05-.67-.09-.19,3.63.73,5.55,2.73,5.72h.75l-.05.43c-.31,2.15-1.89,3.54-3.96,3.45-1.91-.09-3.35-1.48-3.67-3.54l-.05-.36.36-.06c2.31-.41,2.42-2.96,2.23-5.64-1.05.17-1.81.5-2.77,1.13l-.37.24-.17-.4c-1-2.23-3.12-3.08-4.9-3.37l4.27,18.42h22.31l4.37-18.42c-1.78.29-3.92,1.15-5,3.38h0s0,0,0,0Z"/>
        <path class="cls-2" d="M107.7,360.78l-.17.4-.37-.24c-.98-.65-1.76-.95-2.78-1.06-.17,2.64-.08,5.15,2.23,5.57l.36.06-.06.36c-.3,2.02-1.78,3.43-3.67,3.53-2.09.09-3.66-1.28-3.95-3.44l-.07-.42h.79c.7-.05,1.26-.3,1.7-.8.77-.89,1.12-2.57.98-4.87-.08,0-.15.02-.23.02-.79.04-1.59.11-2.32.37l-.53.21.02-.57c.08-1.48-1.24-2.75-2.5-3-1.42.27-2.57,1.61-2.57,3.01v.55l-.51-.21c-.66-.26-1.47-.33-2.25-.37-.08,0-.15,0-.23-.02-.15,2.37.16,3.97.94,4.87.43.5,1.02.76,1.78.8h.76l-.05.42c-.32,2.13-1.95,3.54-3.98,3.44-1.93-.1-3.43-1.52-3.73-3.53l-.05-.36.36-.06c2.42-.44,2.47-3.3,2.24-5.57-1.01.12-1.82.44-2.68,1.05l-.36.26-.18-.4c-1.08-2.25-3.22-3.08-5-3.38l4.37,18.42h22.3l4.29-18.42c-1.78.3-3.91,1.13-4.89,3.37h0Z"/>
        <path class="cls-2" d="M125.67,334.94l-.2.4-.36-.26c-.79-.59-1.6-.92-2.67-1.12-.36,3.46.37,5.3,2.25,5.64l.35.06-.05.36c-.29,2-1.83,3.45-3.74,3.54-2.04.12-3.66-1.3-3.96-3.45l-.06-.43h.79c2.04-.16,2.91-1.99,2.69-5.72-.22.03-.43.05-.65.08-.65.09-1.27.16-1.81.37l-.51.21v-.54c0-1.46-1.23-2.87-2.62-3.04-1.3.17-2.53,1.63-2.44,3l.03.56-.53-.18c-.61-.22-1.27-.29-1.91-.37-.23-.03-.45-.06-.67-.09-.2,3.63.72,5.55,2.73,5.72h.75l-.05.43c-.32,2.15-1.88,3.54-3.96,3.45-1.9-.09-3.36-1.51-3.66-3.54l-.05-.36.35-.06c2.33-.41,2.42-3.07,2.22-5.64-1.04.17-1.82.5-2.75,1.12l-.37.25-.17-.4c-1-2.24-3.12-3.08-4.9-3.37l4.27,18.42h22.31l4.37-18.42c-1.78.29-3.92,1.15-5,3.38h0s0,0,0,0Z"/>
        <path class="cls-2" d="M84.69,307.66h-1.87c-.69.2-1.28.49-1.77.88-.5.39-.79,1.09-.79,1.96,0,2.17.44,3.39,1.62,4.87,1.38,1.56,2.4,1.18,3.63.8,1.04-.32,1.45-.54,2.15-1.04.56-.4.77-.81.79-1.43.05-1.57-.24-2.52-1.13-3.79-.78-.99-1.29-1.94-2.64-2.25h0Z"/>
        <path class="cls-2" d="M98.82,306.26c-1.6-.4-2.76-.67-4.14-.27-2.54.75-2.16,4.71-1.76,6.18.23.75.62,1.28,1.58,2.04,1.67,1.31,3.14,2.07,5.2.4,2.44-2.15,1.51-3.62,1.19-6.12-.01-.14-.67-1.87-2.07-2.23h0Z"/>
        <path class="cls-2" d="M112.83,305.74c-.8-2.17-3.27-2.33-3.41-2.35-1.26-.21-2.77.41-3.65,1.39-.88.9-1.48,2.26-1.48,3.74,0,2.44.59,3.81,2.17,5.26,1.49,1.36,6.25.62,7.1-2.42.12-.39.09-3.5-.74-5.62h0Z"/>
        <path class="cls-2" d="M109.62,300.34c-1.58-1.47-9.04-2.64-12.06-2.45-2.68.14-5.69,1.35-9.16,2.96-1.78.82-4.34,2.35-5.24,2.83-1.64.87-1.33.85-.46.85,2.84-.2,4.9-.39,6.77,1.87h.1c.89-1.67,2.16-3.72,5.11-3.72.38,0,1.02-.12,1.41-.11,2.73.05,5.11,1.91,5.65,1.83.39-.06.51-2.22,2.96-3.43l2.31-.47,2.6-.16h0s0,0,0,0Z"/>
        <path class="cls-2" d="M42.74,54.69l.66.06c1.73.18,3.32.92,4.34,2.02,1.3,1.39,1.95,3.24,1.95,5.48v51.5c0,2.27-.65,4.08-1.95,5.38-.97,1.05-2.52,1.74-4.34,1.92l-.66.08v4.04h34.34v-4.04l-.67-.08c-1.78-.18-3.24-.84-4.33-1.92-1.22-1.3-1.87-3.16-1.87-5.38v-51.5c0-2.31.63-4.15,1.84-5.46,1.16-1.16,2.67-1.87,4.35-2.04l.67-.06v-3.96h-34.34s0,3.96,0,3.96Z"/>
        <path class="cls-2" d="M147.69,54.69l.67.06c1.67.17,3.19.88,4.34,2.02,1.3,1.4,1.95,3.24,1.95,5.48v51.5c0,2.14-.67,4-1.93,5.36-1.12,1.11-2.58,1.76-4.36,1.94l-.67.08v4.05h34.34v-4.05l-.66-.08c-1.79-.18-3.24-.84-4.34-1.92-1.28-1.38-1.96-3.23-1.96-5.38v-26.52h9.86c2.31,0,4.14.62,5.47,1.85,1.39,1.3,2.13,3.12,2.13,5.24v2.5h3.93v-22.66h-3.93v2.01c0,2.04-.76,3.87-2.13,5.16-1.34,1.23-3.18,1.86-5.47,1.86h-9.86v-27.94h17.99c3.86,0,7,.69,9.34,2.05,3.18,1.85,4.73,4.82,4.73,9.07v2.5h4.13v-18.15h-63.57v3.96h0s0,0,0,0Z"/>
        <path class="cls-2" d="M354.93,121.05c-5.11-.16-9.06-2.22-13.61-7.13l-34.74-36.39c3.2-3.64,6.36-7.39,9.4-11.01l3.11-3.7c.38-.47.74-.9,1.08-1.3.46-.55.88-1.04,1.27-1.53,3.23-3.93,5.15-5.24,10.11-5.24h9.08v-4.43h-22.72l-.22.36c-3.55,5.78-6.77,10.52-10.16,14.94-3.68,4.75-7.61,9.26-11.33,13.45h-6.48v-16.81c0-2.3.63-4.14,1.87-5.49,1.07-1.15,2.54-1.82,4.34-2.02l.66-.07v-3.96h-34.44v3.96l.67.07c1.88.18,3.33.85,4.35,2.04,1.29,1.3,1.95,3.14,1.95,5.47v51.49c0,2.21-.65,4.07-1.84,5.36-1.13,1.13-2.58,1.75-4.46,1.94l-.67.07v4.07h34.44v-4.06l-.66-.08c-1.79-.18-3.25-.84-4.34-1.92-1.21-1.31-1.87-3.18-1.87-5.38v-28.97h5.71l26.81,27.55h-.13l1.27,1.27c1.64,1.62,2.59,2.93,2.96,4.05.37.94.36,1.7-.05,2.28-.52.76-1.75,1.23-3.28,1.23h-1.33v4.03h33.95v-4.11l-.72-.02h0s0,0,0,0Z"/>
        <path class="cls-2" d="M111.25,77.6c-4.95,0-8.97,4.03-8.97,8.99s4.02,8.97,8.97,8.97,8.99-4.02,8.99-8.97-4.03-8.99-8.99-8.99h0Z"/>
        <path class="cls-2" d="M236.9,77.6c-5.03,0-8.98,3.95-8.98,8.99s4.03,8.97,8.98,8.97,8.97-4.02,8.97-8.97-4.02-8.99-8.97-8.99Z"/>
      </g>
    </g>
  </g>
</svg>