<?xml version="1.0" encoding="UTF-8" standalone="no"?>
<svg
   xmlns:dc="http://purl.org/dc/elements/1.1/"
   xmlns:cc="http://creativecommons.org/ns#"
   xmlns:rdf="http://www.w3.org/1999/02/22-rdf-syntax-ns#"
   xmlns:svg="http://www.w3.org/2000/svg"
   xmlns="http://www.w3.org/2000/svg"
   xmlns:sodipodi="http://sodipodi.sourceforge.net/DTD/sodipodi-0.dtd"
   xmlns:inkscape="http://www.inkscape.org/namespaces/inkscape"
   width="74.159866mm"
   height="94.456245mm"
   viewBox="0 0 74.159866 94.456245"
   version="1.1"
   id="svg17286"
   inkscape:version="1.0.1 (3bc2e813f5, 2020-09-07)"
   sodipodi:docname="Östers IF.svg">
  <defs
     id="defs17280">
    <linearGradient
       id="XMLID_41_"
       gradientUnits="userSpaceOnUse"
       x1="30.253401"
       y1="26.6548"
       x2="119.6067"
       y2="116.008"
       gradientTransform="matrix(0.65052513,0,0,0.65052513,84.388339,68.057971)">
      <stop
         offset="0"
         style="stop-color:#9C871A"
         id="stop16469" />
      <stop
         offset="8.551100e-002"
         style="stop-color:#CAAE17"
         id="stop16471" />
      <stop
         offset="0.184"
         style="stop-color:#E6D690"
         id="stop16473" />
      <stop
         offset="0.2945"
         style="stop-color:#D8BF56"
         id="stop16475" />
      <stop
         offset="0.3444"
         style="stop-color:#DED062"
         id="stop16477" />
      <stop
         offset="0.4086"
         style="stop-color:#CAAE17"
         id="stop16479" />
      <stop
         offset="0.5131"
         style="stop-color:#CAAE17"
         id="stop16481" />
      <stop
         offset="0.6295"
         style="stop-color:#D8BF56"
         id="stop16483" />
      <stop
         offset="0.7221"
         style="stop-color:#CAAE17"
         id="stop16485" />
      <stop
         offset="0.8052"
         style="stop-color:#E1CE7C"
         id="stop16487" />
      <stop
         offset="0.8646"
         style="stop-color:#CAAE17"
         id="stop16489" />
      <stop
         offset="0.9406"
         style="stop-color:#F7F2DB"
         id="stop16491" />
      <stop
         offset="1"
         style="stop-color:#CAAE17"
         id="stop16493" />
    </linearGradient>
    <linearGradient
       id="SVGID_1_"
       gradientUnits="userSpaceOnUse"
       x1="46.5509"
       y1="91.400299"
       x2="61.8731"
       y2="91.400299"
       gradientTransform="matrix(0.65052513,0,0,0.65052513,84.388339,68.057971)">
      <stop
         offset="0"
         style="stop-color:#9C871A"
         id="stop16503" />
      <stop
         offset="0.2993"
         style="stop-color:#CAAE17"
         id="stop16505" />
      <stop
         offset="0.5083"
         style="stop-color:#E8D895"
         id="stop16507" />
      <stop
         offset="0.7933"
         style="stop-color:#CAAE17"
         id="stop16509" />
      <stop
         offset="1"
         style="stop-color:#CAAE17"
         id="stop16511" />
    </linearGradient>
    <linearGradient
       id="SVGID_2_"
       gradientUnits="userSpaceOnUse"
       x1="46.0509"
       y1="91.400299"
       x2="62.3731"
       y2="91.400299"
       gradientTransform="matrix(0.65052513,0,0,0.65052513,84.388339,68.057971)">
      <stop
         offset="0"
         style="stop-color:#8F7C18"
         id="stop16514" />
      <stop
         offset="0.2993"
         style="stop-color:#CAAE17"
         id="stop16516" />
      <stop
         offset="0.5083"
         style="stop-color:#E8D895"
         id="stop16518" />
      <stop
         offset="0.7933"
         style="stop-color:#CAAE17"
         id="stop16520" />
      <stop
         offset="1"
         style="stop-color:#877517"
         id="stop16522" />
    </linearGradient>
    <linearGradient
       id="XMLID_42_"
       gradientUnits="userSpaceOnUse"
       x1="67.202599"
       y1="78.901199"
       x2="79.5783"
       y2="78.901199">
      <stop
         offset="0"
         style="stop-color:#9C871A"
         id="stop16527" />
      <stop
         offset="0.2993"
         style="stop-color:#CAAE17"
         id="stop16529" />
      <stop
         offset="0.5083"
         style="stop-color:#E8D895"
         id="stop16531" />
      <stop
         offset="0.7933"
         style="stop-color:#CAAE17"
         id="stop16533" />
      <stop
         offset="1"
         style="stop-color:#CAAE17"
         id="stop16535" />
    </linearGradient>
    <linearGradient
       id="XMLID_43_"
       gradientUnits="userSpaceOnUse"
       x1="66.512497"
       y1="78.901901"
       x2="80.2677"
       y2="78.901901">
      <stop
         offset="0"
         style="stop-color:#8F7C18"
         id="stop16538" />
      <stop
         offset="0.2993"
         style="stop-color:#CAAE17"
         id="stop16540" />
      <stop
         offset="0.5083"
         style="stop-color:#E8D895"
         id="stop16542" />
      <stop
         offset="0.7933"
         style="stop-color:#CAAE17"
         id="stop16544" />
      <stop
         offset="1"
         style="stop-color:#877517"
         id="stop16546" />
    </linearGradient>
    <linearGradient
       id="XMLID_44_"
       gradientUnits="userSpaceOnUse"
       x1="84.796303"
       y1="65.308601"
       x2="97.685997"
       y2="65.308601">
      <stop
         offset="0"
         style="stop-color:#9C871A"
         id="stop16550" />
      <stop
         offset="0.2993"
         style="stop-color:#CAAE17"
         id="stop16552" />
      <stop
         offset="0.5083"
         style="stop-color:#E8D895"
         id="stop16554" />
      <stop
         offset="0.7933"
         style="stop-color:#CAAE17"
         id="stop16556" />
      <stop
         offset="1"
         style="stop-color:#CAAE17"
         id="stop16558" />
    </linearGradient>
    <linearGradient
       id="XMLID_45_"
       gradientUnits="userSpaceOnUse"
       x1="84.296303"
       y1="65.309303"
       x2="98.376404"
       y2="65.309303">
      <stop
         offset="0"
         style="stop-color:#8F7C18"
         id="stop16561" />
      <stop
         offset="0.2993"
         style="stop-color:#CAAE17"
         id="stop16563" />
      <stop
         offset="0.5083"
         style="stop-color:#E8D895"
         id="stop16565" />
      <stop
         offset="0.7933"
         style="stop-color:#CAAE17"
         id="stop16567" />
      <stop
         offset="1"
         style="stop-color:#877517"
         id="stop16569" />
    </linearGradient>
    <linearGradient
       id="XMLID_46_"
       gradientUnits="userSpaceOnUse"
       x1="44.098099"
       y1="82.655403"
       x2="47.412102"
       y2="82.655403"
       gradientTransform="matrix(0.65052513,0,0,0.65052513,84.388339,68.057971)">
      <stop
         offset="0"
         style="stop-color:#9C871A"
         id="stop16573" />
      <stop
         offset="0.2993"
         style="stop-color:#CAAE17"
         id="stop16575" />
      <stop
         offset="0.5083"
         style="stop-color:#E8D895"
         id="stop16577" />
      <stop
         offset="0.7933"
         style="stop-color:#CAAE17"
         id="stop16579" />
      <stop
         offset="1"
         style="stop-color:#CAAE17"
         id="stop16581" />
    </linearGradient>
    <linearGradient
       id="XMLID_47_"
       gradientUnits="userSpaceOnUse"
       x1="43.848099"
       y1="82.655403"
       x2="47.662102"
       y2="82.655403"
       gradientTransform="matrix(0.65052513,0,0,0.65052513,84.388339,68.057971)">
      <stop
         offset="0"
         style="stop-color:#8F7C18"
         id="stop16584" />
      <stop
         offset="0.2993"
         style="stop-color:#CAAE17"
         id="stop16586" />
      <stop
         offset="0.5083"
         style="stop-color:#E8D895"
         id="stop16588" />
      <stop
         offset="0.7933"
         style="stop-color:#CAAE17"
         id="stop16590" />
      <stop
         offset="1"
         style="stop-color:#877517"
         id="stop16592" />
    </linearGradient>
    <linearGradient
       id="XMLID_48_"
       gradientUnits="userSpaceOnUse"
       x1="47.840302"
       y1="80.311302"
       x2="51.158298"
       y2="80.311302"
       gradientTransform="matrix(0.65052513,0,0,0.65052513,84.388339,68.057971)">
      <stop
         offset="0"
         style="stop-color:#9C871A"
         id="stop16596" />
      <stop
         offset="0.2993"
         style="stop-color:#CAAE17"
         id="stop16598" />
      <stop
         offset="0.5083"
         style="stop-color:#E8D895"
         id="stop16600" />
      <stop
         offset="0.7933"
         style="stop-color:#CAAE17"
         id="stop16602" />
      <stop
         offset="1"
         style="stop-color:#CAAE17"
         id="stop16604" />
    </linearGradient>
    <linearGradient
       id="XMLID_49_"
       gradientUnits="userSpaceOnUse"
       x1="47.590302"
       y1="80.311302"
       x2="51.408298"
       y2="80.311302"
       gradientTransform="matrix(0.65052513,0,0,0.65052513,84.388339,68.057971)">
      <stop
         offset="0"
         style="stop-color:#8F7C18"
         id="stop16607" />
      <stop
         offset="0.2993"
         style="stop-color:#CAAE17"
         id="stop16609" />
      <stop
         offset="0.5083"
         style="stop-color:#E8D895"
         id="stop16611" />
      <stop
         offset="0.7933"
         style="stop-color:#CAAE17"
         id="stop16613" />
      <stop
         offset="1"
         style="stop-color:#877517"
         id="stop16615" />
    </linearGradient>
  </defs>
  <sodipodi:namedview
     id="base"
     pagecolor="#ffffff"
     bordercolor="#666666"
     borderopacity="1.0"
     inkscape:pageopacity="0.0"
     inkscape:pageshadow="2"
     inkscape:zoom="0.7"
     inkscape:cx="37.287486"
     inkscape:cy="295.64286"
     inkscape:document-units="mm"
     inkscape:current-layer="layer1"
     inkscape:document-rotation="0"
     showgrid="false"
     inkscape:window-width="1267"
     inkscape:window-height="728"
     inkscape:window-x="52"
     inkscape:window-y="0"
     inkscape:window-maximized="0" />
  <metadata
     id="metadata17283">
    <rdf:RDF>
      <cc:Work
         rdf:about="">
        <dc:format>image/svg+xml</dc:format>
        <dc:type
           rdf:resource="http://purl.org/dc/dcmitype/StillImage" />
        <dc:title></dc:title>
      </cc:Work>
    </rdf:RDF>
  </metadata>
  <g
     inkscape:label="Layer 1"
     inkscape:groupmode="layer"
     id="layer1"
     transform="translate(-95.967686,-69.944494)">
    <path
       id="XMLID_39_"
       class="st0"
       d="m 165.57387,90.045721 -8.65198,-9.887982 c -2.86231,0.78063 -5.72462,1.82147 -8.58693,2.86231 -1.10589,-7.415986 -7.48104,-13.075555 -15.22229,-13.075555 -7.6762,0 -14.11639,5.659569 -15.22229,13.075555 -2.86231,-1.04084 -5.72462,-2.08168 -8.58693,-2.86231 l -8.58693,9.887982 c 6.83051,14.897029 5.33431,27.582269 -4.748834,37.925619 l 12.099764,19.5808 5.46441,-3.44778 c 6.50525,8.97725 13.01051,15.74271 19.51576,20.29638 6.50525,-4.48862 13.0105,-11.25408 19.51575,-20.29638 l 5.46441,3.44778 12.09977,-19.5808 c -9.88798,-10.4084 -11.38419,-23.02859 -4.55368,-37.925619 z"
       style="clip-rule:evenodd;fill:url(#XMLID_41_);fill-rule:evenodd;stroke-width:0.650526" />
    <path
       id="XMLID_38_"
       class="st1"
       d="m 163.36209,123.2225 c -0.65053,-1.17094 -1.30105,-2.27683 -1.82147,-3.51283 -0.52042,-1.236 -0.97579,-2.40694 -1.3661,-3.64294 -0.0651,-0.32527 -0.19516,-0.58548 -0.26021,-0.91074 l -44.17066,27.64732 1.10589,1.49621 c 4.74884,6.24504 9.95304,12.29492 16.26313,17.04376 4.74883,-3.57789 8.9122,-7.87136 12.68524,-12.42503 2.14673,-2.66716 4.16336,-5.33431 6.17999,-8.13157 l 5.33431,3.31768 9.75787,-15.80776 c -1.30105,-1.62631 -2.53704,-3.31768 -3.70799,-5.0741 z"
       style="clip-rule:evenodd;fill:#3866a7;fill-rule:evenodd;stroke-width:0.650526" />
    <path
       id="XMLID_37_"
       class="st1"
       d="m 160.23957,87.768883 -4.16336,-4.813886 c -2.53705,0.78063 -5.0741,1.691365 -7.54609,2.6021 -0.19516,8.326722 -7.02567,15.027133 -15.41745,15.027133 -8.39177,0 -15.22229,-6.700411 -15.35239,-15.027133 -2.53705,-0.910735 -5.00905,-1.82147 -7.54609,-2.6021 l -6.50526,7.481039 c 0.78063,1.886523 1.43116,3.707993 2.01663,5.659568 0.39032,1.366104 0.71558,2.797259 1.04084,4.163366 0.26021,1.3661 0.39032,2.7322 0.58548,4.0983 0.065,1.36611 0.1301,2.66716 0.065,4.03326 -0.065,1.30105 -0.19516,2.6021 -0.39032,3.90315 -0.26021,1.30105 -0.52042,2.53705 -0.91073,3.77305 -0.39032,1.236 -0.84569,2.40694 -1.36611,3.64294 l -1.17094,2.34189 c -0.39032,0.65052 -0.78063,1.30105 -1.17095,1.88652 z"
       style="clip-rule:evenodd;fill:#3866a7;fill-rule:evenodd;stroke-width:0.650526" />
    <path
       id="XMLID_36_"
       class="st2"
       d="m 99.415469,128.68692 62.515471,-39.031514 0.71557,0.845682 c -0.78063,1.886523 -1.43115,3.707994 -2.08168,5.659569 -0.39031,1.366102 -0.71558,2.797257 -1.04084,4.163363 -0.26021,1.3661 -0.45536,2.7322 -0.58547,4.09831 -0.0651,1.3661 -0.13011,2.66715 -0.0651,4.03325 0.0651,1.30105 0.19516,2.6021 0.39031,3.90315 0,0.065 0.0651,0.19516 0.0651,0.26021 l -50.41569,31.48542 z"
       style="clip-rule:evenodd;fill:#ffffff;fill-rule:evenodd;stroke-width:0.650526" />
    <polygon
       id="XMLID_35_"
       class="st2"
       points="80.7,23.1 78.9,23.9 77.8,21.9 77.2,22.3 78.2,24.3 76.5,25.2 75.4,23.1 74.8,23.5 75.8,25.5 74,26.4 73,24.4 72.3,24.7 73.4,26.8 71.6,27.7 70.5,25.6 69.9,26 70.9,28 69.2,28.9 68.1,26.9 67.4,27.2 68.4,29.3 66.7,30.2 65.7,28.1 65,28.5 66,30.5 64.3,31.4 64.6,32.1 66.4,31.2 67.4,33.2 68.1,32.9 67.1,30.8 68.8,29.9 69.8,32 70.5,31.6 69.5,29.6 71.3,28.7 72.3,30.7 73,30.4 71.9,28.3 73.7,27.5 74.8,29.5 75.4,29.1 74.4,27.1 76.1,26.2 77.2,28.3 77.8,27.9 76.8,25.9 78.6,25 79.6,27 80.3,26.7 79.2,24.7 81,23.7 82.1,25.8 82.7,25.4 81.7,23.4 83.5,22.5 84.5,24.5 85.2,24.2 84.2,22.1 85.9,21.2 85.6,20.6 83.8,21.4 82.8,19.4 82.1,19.8 83.1,21.8 81.3,22.7 80.4,20.6 79.6,21 "
       transform="matrix(0.65052514,0,0,0.65052514,84.388338,68.057971)"
       style="clip-rule:evenodd;fill:#ffffff;fill-rule:evenodd" />
    <path
       class="st2"
       d="m 142.9356,86.532885 c 0.84568,-6.895566 -5.00904,-9.887982 -5.00904,-9.887982 1.43115,-1.105893 1.4962,-5.334306 1.4962,-5.334306 l -0.52041,-0.195158 c 0,0 0.65052,6.700409 -4.35852,6.635357 -5.0741,-0.06505 -8.19662,-6.245042 -8.19662,-6.245042 l -0.45537,0.26021 c 0,0 3.77305,5.724622 0.45537,9.953035 -3.25263,4.228413 -8.13156,-0.130105 -8.13156,-0.130105 l -0.13011,0.585472 c 3.18757,2.602101 5.26925,1.951576 5.26925,1.951576 -0.78063,6.505251 5.0741,9.887982 5.0741,9.887982 -1.82147,1.886523 -1.56126,5.334306 -1.56126,5.334306 l 0.52042,0.26021 c 0.065,-7.350934 4.74883,-6.700409 4.74883,-6.700409 4.81389,-0.455367 7.8063,6.245042 7.8063,6.245042 l 0.39032,-0.195159 c -2.73221,-5.334305 -0.84568,-9.237456 -0.84568,-9.237456 3.18757,-5.529464 8.52188,-0.650525 8.52188,-0.650525 l 0.19515,-0.52042 c -2.79726,-2.341891 -5.26925,-2.016628 -5.26925,-2.016628 z m -0.39032,0.130105 h -0.1301 l -0.39031,0.06505 -0.32527,0.195158 -0.39031,0.130105 -0.32526,0.195158 -0.32527,0.195157 -0.32526,0.26021 -0.32526,0.325263 -0.26021,0.325263 -0.26021,0.325262 -0.19516,0.390315 -0.19516,0.390315 -0.19515,0.390315 -0.13011,0.455368 -0.1301,0.455367 -0.13011,0.455368 -0.0651,0.455368 -0.065,0.455367 v 1.561261 l 0.065,0.52042 0.0651,0.585472 0.065,0.585473 0.1301,0.585473 0.19516,0.52042 0.065,0.195156 -0.065,-0.130103 -0.39031,-0.52042 -0.39032,-0.390316 -0.39031,-0.390315 -0.39032,-0.390315 -0.39031,-0.390315 -0.39032,-0.325263 -0.45537,-0.325262 -0.45536,-0.325263 -0.39032,-0.26021 -0.45537,-0.195158 -0.45537,-0.195157 -0.45536,-0.195158 -0.45537,-0.130105 -0.39031,-0.06505 -0.39032,-0.06505 -0.45537,-0.06505 h -0.39031 l -0.39032,0.06505 -0.45536,0.06505 -0.39032,0.195157 -0.32526,0.130105 -0.39032,0.195158 -0.32526,0.195157 -0.32526,0.26021 -0.32527,0.260211 -0.0651,0.06505 c -3.05746,-1.626313 -5.00904,-4.813886 -5.00904,-8.326722 0,-0.390315 0.065,-0.845682 0.065,-1.30105 h 0.13011 l 0.39031,-0.130105 0.32526,-0.130105 0.39032,-0.195158 0.32526,-0.195157 0.32526,-0.195158 0.32527,-0.26021 0.32526,-0.325262 0.26021,-0.325263 0.26021,-0.325262 0.19516,-0.390316 0.19515,-0.390315 0.19516,-0.390315 0.13011,-0.455367 0.1301,-0.455368 0.13011,-0.455367 0.065,-0.455368 0.065,-0.52042 v -1.561258 l -0.065,-0.520421 -0.065,-0.585472 -0.065,-0.585473 -0.13011,-0.585472 -0.19515,-0.585473 -0.065,-0.130105 0.065,0.130105 0.39031,0.455368 0.39031,0.455367 0.39032,0.390315 0.39031,0.390315 0.39032,0.325263 0.45537,0.390315 0.39031,0.325262 0.45537,0.325263 0.45537,0.26021 0.39031,0.195158 0.45537,0.195157 0.45537,0.195158 0.45537,0.130105 0.39031,0.06505 0.39032,0.06505 0.45536,0.06505 h 0.45537 l 0.39032,-0.06505 0.39031,-0.06505 0.39032,-0.06505 0.32526,-0.130105 0.39031,-0.195158 0.32527,-0.195157 0.32526,-0.195158 0.32526,-0.26021 0.0651,-0.06505 c 3.05747,1.626313 5.00904,4.813885 5.00904,8.261669 0.065,0.455367 0,0.845682 -0.0651,1.30105 z"
       id="path16501"
       style="clip-rule:evenodd;fill:#ffffff;fill-rule:evenodd;stroke-width:0.650526" />
    <path
       class="st3"
       d="m 123.41985,125.17408 c -0.97579,-1.56126 -2.08168,-2.53705 -3.31768,-2.92736 -0.13011,-0.065 -0.32527,-0.065 -0.45537,-0.13011 -1.04084,-0.26021 -2.08168,-0.065 -3.05747,0.58547 -0.78063,0.45537 -1.30105,1.04084 -1.62631,1.75642 -0.32526,0.71558 -0.39032,1.49621 -0.26021,2.40694 0.1301,0.91074 0.52042,1.95158 1.236,3.05747 v 0 c 0.97578,1.56126 2.08168,2.53705 3.38273,2.92736 0.1301,0.0651 0.19515,0.0651 0.32526,0.0651 1.04084,0.26021 2.01663,0.065 3.05747,-0.58547 1.10589,-0.71558 1.75642,-1.62631 1.88652,-2.79725 0,-0.19516 0.065,-0.39032 0.065,-0.58548 v -0.1301 c -0.065,-1.1059 -0.45537,-2.34189 -1.236,-3.64294 z m -0.71558,3.8381 c -0.065,0.78063 -0.39032,1.3661 -1.04084,1.75641 -0.58547,0.39032 -1.30105,0.45537 -2.01663,0.13011 0,0 0,0 0,0 -0.71558,-0.26021 -1.43115,-0.97579 -2.14673,-2.01663 v 0 c -0.71558,-1.10589 -0.97579,-2.01663 -0.91074,-2.79726 0.065,-0.78063 0.39032,-1.3661 1.04084,-1.75642 0.65053,-0.39031 1.30105,-0.45536 2.01663,-0.19515 0,0 0,0 0,0 0.71558,0.26021 1.43116,0.97579 2.08168,2.08168 0.71558,1.04084 1.04084,1.95157 0.97579,2.79726 z"
       id="path16525"
       style="clip-rule:evenodd;fill:url(#SVGID_1_);fill-rule:evenodd;stroke:url(#SVGID_2_);stroke-width:0.650526;stroke-miterlimit:10" />
    <polygon
       id="XMLID_30_"
       class="st4"
       points="76.7,87.4 67.2,72.1 70,70.4 79.6,85.7 "
       style="clip-rule:evenodd;fill:url(#XMLID_42_);fill-rule:evenodd;stroke:url(#XMLID_43_);stroke-miterlimit:10"
       transform="matrix(0.65052514,0,0,0.65052514,84.388338,68.057971)" />
    <polygon
       id="XMLID_29_"
       class="st5"
       points="95.9,61.2 97.7,64 92.6,67.2 97.2,74.5 94.4,76.3 84.8,61 95.6,54.3 97.3,57.1 89.4,62.1 90.8,64.4 "
       style="clip-rule:evenodd;fill:url(#XMLID_44_);fill-rule:evenodd;stroke:url(#XMLID_45_);stroke-miterlimit:10"
       transform="matrix(0.65052514,0,0,0.65052514,84.388338,68.057971)" />
    <circle
       id="XMLID_28_"
       class="st6"
       cx="114.18239"
       cy="121.8564"
       r="1.1058928"
       style="clip-rule:evenodd;fill:url(#XMLID_46_);fill-rule:evenodd;stroke:url(#XMLID_47_);stroke-width:0.325263;stroke-miterlimit:10" />
    <circle
       id="XMLID_27_"
       class="st7"
       cx="116.58933"
       cy="120.29514"
       r="1.1058928"
       style="clip-rule:evenodd;fill:url(#XMLID_48_);fill-rule:evenodd;stroke:url(#XMLID_49_);stroke-width:0.325263;stroke-miterlimit:10" />
  </g>
</svg>
