<?xml version="1.0" encoding="UTF-8"?>
<svg id="Calque_2" data-name="Calque 2" xmlns="http://www.w3.org/2000/svg" viewBox="0 0 340.86 490.94">
  <defs>
    <style>
      .cls-1, .cls-2 {
        fill: #e3e3e3;
      }

      .cls-3 {
        fill: #d0d0d0;
      }

      .cls-2 {
        fill-rule: evenodd;
      }

      .cls-4 {
        fill: #0158a3;
      }

      .cls-5 {
        fill: #ffe011;
      }
    </style>
  </defs>
  <g id="Calque_6" data-name="Calque 6">
    <g>
      <path class="cls-3" d="M161.01,121.82c-31.34.27-62.68,1.86-94.03,4.79,12.3-1.29,27.39-2.53,45.35-3.44,5.11-.25,10.33-.48,15.52-.66,10.71-.38,21.83-.61,33.16-.69Z"/>
      <path class="cls-3" d="M275.12,126.74c-29.82-2.83-59.66-4.45-89.48-4.86,9.33.11,18.49.32,27.37.63,5.18.18,10.4.41,15.51.66,18.57.94,34.08,2.23,46.6,3.57Z"/>
      <path class="cls-3" d="M327,7.42C275.06,2.5,222.38,0,170.43,0S65.8,2.5,13.85,7.42L0,8.73v105.56c0,.06,0,.11,0,.17.03,8.49,3.15,16.68,8.49,23.29h0c3.39,4.2,5.24,9.44,5.24,14.84v181.64c0,61.92,36.57,118.16,93.16,143.29,5.46,2.42,11.07,4.54,16.65,6.29.14.04.29.08.43.13,15.01,4.64,30.64,7,46.46,7s31.37-2.35,46.43-7c.15-.04.29-.08.4-.12,5.39-1.68,10.83-3.72,16.16-6.05.2-.09.4-.18.64-.29,56.54-25.16,93.07-81.37,93.07-143.25v-181.59c0-5.37,1.83-10.58,5.19-14.77l.14-.18c5.28-6.59,8.36-14.74,8.4-23.18,0-.07,0-.15,0-.22V8.73l-13.86-1.31ZM325.56,114.31c0,3.86-.68,7.69-2.01,11.32l-1.97,5.37-.39,1.05-.69,1.87-5.23-1.21c-.78-.18-13.73-3.12-39.58-5.91-.19-.03-.38-.05-.57-.06-29.82-2.83-59.66-4.45-89.48-4.86h-.09c-1.97-.02-3.93-.04-5.9-.06-3.06-.03-6.13-.04-9.22-.04s-6.28.01-9.42.04c-31.34.27-62.68,1.86-94.03,4.79-.07.01-.14.02-.22.02-26.91,2.84-40.38,5.89-41.18,6.08l-5.23,1.21-.68-1.87-.13-.35-2.22-6.07c-1.33-3.63-2.02-7.47-2.02-11.34V22.65c51.71-4.9,103.42-7.35,155.13-7.35s103.42,2.45,155.13,7.35v91.66Z"/>
      <path d="M161.01,121.82c-31.34.27-62.68,1.86-94.03,4.79,12.3-1.29,27.39-2.53,45.35-3.44,5.11-.25,10.33-.48,15.52-.66,10.71-.38,21.83-.61,33.16-.69Z"/>
      <path d="M275.12,126.74c-29.82-2.83-59.66-4.45-89.48-4.86,9.33.11,18.49.32,27.37.63,5.18.18,10.4.41,15.51.66,18.57.94,34.08,2.23,46.6,3.57Z"/>
      <path class="cls-3" d="M161.01,121.82c-31.34.27-62.68,1.86-94.03,4.79,12.3-1.29,27.39-2.53,45.35-3.44,5.11-.25,10.33-.48,15.52-.66,10.71-.38,21.83-.61,33.16-.69Z"/>
      <path class="cls-3" d="M275.12,126.74c-29.82-2.83-59.66-4.45-89.48-4.86,9.33.11,18.49.32,27.37.63,5.18.18,10.4.41,15.51.66,18.57.94,34.08,2.23,46.6,3.57Z"/>
      <g>
        <path class="cls-3" d="M113.1,138.45v325.09c4.88,2.17,9.9,4.07,15.06,5.68.08.02.16.04.23.07V137.8c-5.32.19-10.41.41-15.29.65Z"/>
        <path class="cls-3" d="M212.46,137.8v331.49c.08-.02.16-.04.23-.07,4.99-1.56,9.86-3.4,14.59-5.47.16-.07.31-.15.46-.21V138.45c-4.88-.25-9.97-.47-15.29-.65Z"/>
        <path d="M170.43,137.08c-15.29,0-29.29.27-42.04.72v331.49c13.28,4.12,27.4,6.35,42.04,6.35s28.75-2.23,42.04-6.35V137.8c-12.75-.45-26.75-.72-42.04-.72Z"/>
        <path class="cls-4" d="M29.03,147.62v186.61c0,57.7,34.54,107.31,84.07,129.31V138.45c-56.78,2.85-84.07,9.17-84.07,9.17Z"/>
        <path class="cls-4" d="M227.75,463.54c49.53-22,84.08-71.6,84.08-129.31v-186.61s-27.3-6.31-84.08-9.17v325.08Z"/>
      </g>
      <path d="M325.56,22.65v91.64c0,3.87-.68,7.71-2.01,11.34l-1.97,5.37-.39,1.05-.69,1.87-5.23-1.21c-.78-.18-13.73-3.12-39.58-5.91-.19-.03-.38-.05-.57-.06-12.52-1.34-28.03-2.63-46.6-3.57-5.11-.25-10.33-.48-15.51-.66-8.88-.31-18.04-.52-27.37-.63h-.09c-1.97-.02-3.93-.04-5.9-.06-3.06-.03-6.13-.04-9.22-.04s-6.28.01-9.42.04c-11.33.08-22.45.31-33.16.69-5.19.18-10.41.41-15.52.66-17.96.91-33.05,2.15-45.35,3.44-.07.01-.14.02-.22.02-26.91,2.84-40.38,5.89-41.18,6.08l-5.23,1.21-.68-1.87-.13-.35-2.22-6.07c-1.33-3.63-2.02-7.47-2.02-11.34V22.65c51.71-4.9,103.42-7.35,155.13-7.35s103.42,2.45,155.13,7.35Z"/>
      <g>
        <path class="cls-1" d="M46.43,94.09c0,6.8.73,7.8,5.6,7.32,4.14-.4,5.6-1.76,5.6-5.31s0-5.3,0-8.86c0-4.94-.85-5.74-7.91-6.98-14.24-1.39-21.15-6.31-20.69-20.93,0-2.04,0-3.06,0-5.1-.54-15.4,7.44-21.77,22.39-22.58,10.08-.54,24.33.63,23.14,14.33v9.72c-6.68.39-10.01.61-16.69,1.07v-3.94c0-7-.61-7.8-4.99-7.51-4.75.32-5.72,1.49-5.72,6.3,0,2.17,0,3.26,0,5.44,0,5.08,1.1,6.12,6.94,7.03,15.81,1.78,22.35,8.64,22.29,24.34-.06,15.62-7.97,25.3-23.63,26.67-14.44,1.26-24.41-2.42-23.73-18.5,0-2.73,0-4.1,0-6.84,6.96-.66,10.44-.99,17.4-1.64v5.95Z"/>
        <path class="cls-1" d="M86.62,30.69c7.51-.3,11.26-.42,18.77-.67v79.65c-7.51.46-11.27.75-18.77,1.39V30.69Z"/>
        <path class="cls-1" d="M117.35,29.65c9.32-.28,13.98-.43,23.3-.61,13.53-1.06,26.82,2.62,25.87,18.64v9.52c-.12,10.59-3.3,14.62-12.81,16.27v.24c10.25,1.91,12.57,4.32,12.81,12.76v21.65c-7.52.02-11.28.05-18.79.16v-22.72c0-3.45-2.08-4.62-8.42-4.49-1.27.03-1.9.04-3.17.07v27.37c-7.52.17-11.27.24-18.79.56,0-26.47,0-52.93,0-79.4ZM136.14,67.44c1.46-.03,2.2-.05,3.66-.08,6.47-.13,7.93-1.45,7.93-7.04v-11.9c0-4.16-1.71-5.93-5.86-5.85-2.29.04-3.44.07-5.73.12v24.75Z"/>
        <path class="cls-1" d="M176.9,28.76c7.52.03,11.28.07,18.79.19v79.36c-7.52-.12-11.27-.16-18.79-.19V28.76Z"/>
        <path class="cls-1" d="M254.84,92.05c0,7.72-1.64,12.6-5.12,15.31-3.41,2.65-8.96,3.22-18.78,2.88-13.93-.49-24.25-5.36-23.79-20.61,0-20.15,0-40.29,0-60.44,7.52.18,11.27.31,18.79.54v60.99c0,3.45,1.59,5.07,5.12,5.26,3.41.18,5-1.26,5-4.73,0-20.4,0-40.8,0-61.2,7.51.25,11.27.37,18.77.67,0,20.45,0,40.89,0,61.34Z"/>
        <path class="cls-1" d="M281.89,92.91c0,6.75.73,7.9,5.6,8.37,4.14.4,5.6-.67,5.6-4.24v-8.9c0-4.96-.85-5.94-7.91-8.4-13.71-3.75-21.12-9.18-20.71-23.89v-4.99c-.6-15.34,7.69-20.52,22.41-19.37,11.08.87,23.62,3.92,23.12,17.52v9.91c-6.67-.59-10-.86-16.67-1.38v-3.96c0-7.04-.61-7.92-4.99-8.22-4.75-.32-5.72.71-5.72,5.49v5.41c0,5.05,1.1,6.24,6.94,8.06,16.31,4.93,22.12,11.76,22.27,28.45.14,15.75-7.76,24.29-23.61,22.36-14.31-1.74-24.3-7-23.75-22.91v-6.69c6.97.55,10.45.85,17.42,1.47v5.91Z"/>
      </g>
      <g>
        <g id="path44">
          <path class="cls-2" d="M244.88,192.91c0,7.74,3.36,9.51,11.84,9.51s11.84-1.76,11.84-9.51v-21.92c0-8.94-3.36-10.7-11.84-10.7s-11.95,1.94-11.84,10.7v21.92ZM254.33,168.89c0-1.42.68-1.88,2.39-1.88s2.39.4,2.39,1.54v25.27c0,1.42-.68,1.88-2.39,1.88s-2.39-.46-2.39-1.88v-24.93h0"/>
        </g>
        <g id="path46">
          <path class="cls-1" d="M273.86,167.81h11.61l-9.05,34.15h9.56l8.82-34.21v-7h-20.95v7.06h0"/>
        </g>
      </g>
      <g>
        <g id="path48">
          <path class="cls-1" d="M42.82,172.13l5.07,4.95,6.09-9.28h.11v34.15h9.45v-41.21h-11.95l-8.77,11.38h0"/>
        </g>
        <g id="path50">
          <path class="cls-2" d="M72.88,194.84c0,5.35.85,7.57,10.42,7.57,10.42,0,13.49-1.02,13.49-13.89v-19.41c0-7.34-2.96-8.82-12.01-8.82-11.38,0-12.24,2.05-12.24,14.46,0,7.86.63,10.7,8.6,10.7,3.42,0,4.61-.85,5.86-2.96h.23v10.87c0,1.99-.97,2.33-2.73,2.33-2.28,0-2.5-.57-2.5-2.05v-4.1h-9.11s0,5.29,0,5.29ZM81.99,168.94c0-1.54.57-1.94,2.68-1.94s2.68.4,2.68,1.94v7.97c0,1.59-.97,2.16-2.68,2.16-2.16,0-2.68-.63-2.68-2.28v-7.85h0"/>
        </g>
      </g>
      <g id="path54">
        <path class="cls-5" d="M209.26,360.13l-24,17.44,9.17,28.22-24-17.44-24,17.44,9.17-28.22-24-17.44h29.67l9.17-28.21,9.17,28.21h29.66s0,0,0,0Z"/>
      </g>
    </g>
  </g>
</svg>