<?xml version="1.0" encoding="UTF-8"?>
<!-- Generator: Adobe Illustrator 13.0.2, SVG Export Plug-In . SVG Version: 6.00 Build 14948)  -->
<!DOCTYPE svg PUBLIC "-//W3C//DTD SVG 1.0//EN" "http://www.w3.org/TR/2001/REC-SVG-20010904/DTD/svg10.dtd">
<svg version="1.0" id="Calque_1" xmlns="http://www.w3.org/2000/svg" xmlns:xlink="http://www.w3.org/1999/xlink" x="0px" y="0px" width="456.412px" height="612.411px" viewBox="0 0 456.412 612.411" enable-background="new 0 0 456.412 612.411" xml:space="preserve">
<path d="M445.86,147.012l-5.631-27.836l-25.993,11.437c-49.648,21.846-96.007,26.322-150.345,26.322  c-58.608,0-103.667-8.087-150.666-27.045l-24.833-10.017l-6.005,26.096c-4.714,20.48-6.623,39.822-8.466,58.523l-0.807,8.084  c-0.006,0.086-0.029,0.378-0.029,0.378c-0.427,5.917-0.645,13.033-0.645,21.166c0,41.003,5.764,107.049,15.077,142.249  c25.349,98.954,83.797,180.289,164.561,229.004l11.675,7.038l11.746-6.915c64.155-37.794,116.854-102.188,148.377-181.314  C457.744,339.17,465.346,243.327,445.86,147.012"/>
<path fill="#FABB00" d="M356.766,162.577c-38.634,7.665-76.424,7.596-92.891,7.596c-16.13,0-49.717-0.1-90.819-8.379  c-38.918-7.84-75.26-23.879-75.26-23.879l6.875,13.183c54.086,21.818,103.127,28.706,159.22,28.706  c56.092,0,106.133-4.753,159.555-28.259l7.064-13.623C430.487,137.932,396.275,154.652,356.766,162.577"/>
<path fill="#FABB00" d="M430.631,138.538c7.855,38.829,12.56,67.924,12.56,116.305c0,53.893-11.469,105.013-19.913,131.419  c-16.258,50.832-32.84,80.121-51.159,108.073c-17.156,26.169-53.372,71.829-108.285,102.583l-0.06,11.387l9.934-5.85  c63.487-37.399,115.656-101.178,146.89-179.577c33.612-84.371,41.153-179.523,21.807-275.168l-4.765-23.537l-7.128,13.748  C430.511,137.92,430.548,138.131,430.631,138.538"/>
<path fill="#FFE500" d="M173.056,161.793c41.102,8.279,74.689,8.379,90.819,8.379c16.467,0,54.257,0.069,92.891-7.596  c39.521-7.925,73.745-24.657,73.745-24.657l7.128-13.748l-21.98,9.67c-50.211,22.091-96.984,26.621-151.767,26.621  c-59.088,0-104.542-8.163-151.985-27.302l-21.003-8.469l6.893,13.222C97.796,137.914,134.138,153.953,173.056,161.793"/>
<path fill="#FFE500" d="M372.118,494.335c18.319-27.952,34.901-57.241,51.159-108.073c8.444-26.406,19.913-77.526,19.913-131.419  c0-48.381-4.704-77.476-12.56-116.305c-0.083-0.406-0.12-0.617-0.12-0.617l-7.064,13.623  c39.421,194.875-41.741,364.849-159.555,434.246l-0.118,22.516l0.06-11.387C318.746,566.164,354.962,520.504,372.118,494.335"/>
<path fill="#FFE500" d="M261.945,595.913c-22.124-12.973-69.774-44.456-109.869-105.031  c-22.097-33.724-35.886-65.021-47.565-102.488c-12.815-41.119-18.882-106.685-18.882-150.695c0-37.905,6.213-76.56,12.095-99.621  l0.073-0.169l-6.893-13.216l-5.079,22.067c-4.661,20.258-6.558,39.484-8.393,58.079l-0.805,8.088l-0.021,0.298  c-0.429,5.918-0.635,13.003-0.635,20.896c0,41.994,5.837,106.862,14.96,141.347c25.125,98.076,83.002,178.65,162.972,226.882  l9.871,5.956l0.062-11.378L261.945,595.913"/>
<path fill="#FABB00" d="M104.671,151.097l-6.875-13.189l-0.073,0.169c-5.882,23.061-12.095,61.715-12.095,99.621  c0,44.01,6.067,109.576,18.882,150.695c11.68,37.468,25.468,68.765,47.565,102.488c40.095,60.575,87.745,92.059,109.869,105.031  l1.888,1.014l0.059-11.138c-72.16-43.519-129.154-117.181-154.246-215.187C99.538,332.474,93.262,250.914,95.894,214.62  C98.018,193.69,99.659,172.884,104.671,151.097"/>
<path fill="#FABB00" d="M85.677,244.516c-3.252,0.006-6.452,0.252-9.58,0.703c0.884,41.636,6.479,98.676,14.833,130.248  c0.331,1.299,0.693,2.588,1.038,3.877c3.25-0.292,6.429-0.818,9.529-1.557C91.333,338.897,86.21,284.48,85.677,244.516"/>
<path fill="#F29500" d="M101.497,377.787c3.19-0.761,6.29-1.746,9.286-2.938c-0.376-1.419-0.774-2.819-1.137-4.247  c-7.82-29.503-13.342-84.98-14.226-125.395c-3.14-0.448-6.351-0.695-9.619-0.695c-0.041,0-0.082,0.003-0.124,0.003  C86.21,284.48,91.333,338.897,101.497,377.787"/>
<path fill="#E2002B" d="M263.892,179.803c-56.093,0-105.134-6.887-159.22-28.706c-5.013,21.787-6.654,42.593-8.778,63.522  c-2.632,36.294,3.645,117.854,13.752,155.983c25.092,98.006,82.086,171.668,154.246,215.187V179.803"/>
<path fill="#003D85" d="M263.892,585.789c117.813-69.396,198.976-239.37,159.555-434.246  c-53.422,23.506-103.463,28.259-159.555,28.259V585.789"/>
<path fill="#002459" d="M263.852,228.488c25.984,0,74.899,0,74.899,0v-31.05h-74.894L263.852,228.488 M263.883,544.369  c6.047,4.038,12.258,7.941,18.621,11.7l10.057,5.933v-36.497l-3.383-1.919c-2.022-1.143-4.049-2.343-6.068-3.569  c2.706-1.281,5.583-2.642,5.583-2.642c77.125-36.524,97.066-76.511,100.212-103.621c0.321-2.763,0.479-5.522,0.479-8.265  c0-19.608-8.125-38.356-22.609-52.338c16.932-18.444,23.195-37.401,23.195-53.361c0-7.683-1.442-14.67-3.825-20.571  c-7.395-18.311-24.396-29.689-44.364-29.689h-62.605c0,0-0.02,32.828-0.022,42.284c-3.989,0-9.652,0-15.272,0l-0.053,31.016  c5.638,0,11.322,0,15.322,0c0,12.44,0.021,191.739,0.021,194.752c-5.139-3.243-10.256-6.729-15.304-10.438L263.883,544.369z   M339.48,280.448c9.657,0,16.524,5.468,18.374,14.629c0.333,1.648,0.503,3.38,0.503,5.177c0,16.568-14.449,38.782-48,55.406  c-0.003-10.836-0.006-25.215-0.006-32.821c7.344,0.009,25.832,0.034,25.832,0.034v-31.059c0,0-18.486,0-25.829,0  c0.003-4.483,0.006-6.886,0.008-11.366C319.188,280.448,339.48,280.448,339.48,280.448z M341.847,374.724  c10.364,9.581,15.643,20.169,15.643,31.584c0,1.261-0.065,2.53-0.192,3.808c-1.987,19.93-19.684,41.708-46.92,58.459  c-0.015-16.711-0.055-69.905-0.06-76.398C318.307,388.046,331.571,380.89,341.847,374.724z"/>
<path fill="#B00623" d="M263.857,197.438h-45.464c0,0-0.003,82.966-0.006,94.419c-14.534,0.281-37.671,2.467-54.462,19.249  c-12.95,12.944-19.519,32.147-19.519,57.072c0,32.885,13.55,68.199,39.183,102.121c20.575,27.23,48.071,52.557,80.285,74.067  l-0.009-37.223c-47.138-34.593-88.497-88.098-88.497-138.67c0-15.678,3.829-27.418,11.381-34.898  c9.281-9.193,22.658-10.6,31.643-10.771c0,12.093,0,137.726,0,137.726h31.05c0,0-0.035-125.622-0.038-137.7  c3.759,0,9.003,0,14.295,0l0.148-31.016c-5.333,0-10.623,0-14.405,0c0-10.06,0-53.269,0-63.326c2.361,0,7.576,0,14.357,0  L263.857,197.438"/>
<path fill="#FFE500" d="M233.925,213.009c1.636,0,89.296-0.015,89.296-0.015l9.694-9.718H224.228v251.421l9.681-9.7  C233.908,444.997,233.925,214.623,233.925,213.009"/>
<path fill="#FABB00" d="M286.725,528.905l-0.421-0.239c-31.448-17.818-60.479-43.071-81.744-71.108  c-22.914-30.217-35.027-61.022-35.027-89.083c0-17.294,4.411-30.427,13.112-39.046c12.866-12.744,31.633-12.567,40.657-12.48  c0,0,0.463,0.003,0.926,0.006l9.713-9.618h-0.032c-0.465-0.003-11.737-0.02-11.737-0.02c-15.935,0-32.87,2.229-46.243,14.444  c-9.732,8.897-16.253,25.364-16.043,46.538c0.29,29.829,13.006,62.706,35.841,92.983c21.282,28.225,51.748,54.995,80.39,72.579  l1.442,0.879L286.725,528.905"/>
<polyline fill="#FABB00" points="277.559,534.74 286.725,551.785 286.725,528.905 277.559,534.74"/>
<path fill="#FFE500" d="M224.225,297.65c-12.604-0.009-38.616,0.034-56.174,17.583c-11.816,11.81-17.806,29.623-17.806,52.945  c0,31.604,13.14,65.7,38.001,98.601c23.984,31.742,57.602,60.879,97.225,84.265l1.254,0.741l-9.166-17.045l-1.442-0.879  c-28.643-17.584-59.108-44.354-80.39-72.579c-22.835-30.277-35.551-63.154-35.841-92.983c-0.21-21.174,6.311-37.641,16.043-46.538  c13.373-12.216,30.308-14.444,46.243-14.444c0,0,1.56,0.017,2.024,0.02l9.746-0.003L224.225,297.65"/>
<polyline fill="#FFE500" points="233.94,307.333 320.649,307.316 330.348,297.652 224.225,297.65"/>
<path fill="#FABB00" d="M233.929,307.316c-0.005,64.245-0.012,137.678-0.012,137.678l-9.681,9.7h19.379  c0,0-0.035-136.052-0.035-137.703c1.572,0,86.782,0.04,86.782,0.04v-19.379l-9.704,9.664H233.929"/>
<path fill="#FABB00" d="M243.623,297.65c-0.002,0-0.005,0-0.008,0c0-1.614,0-73.383,0-74.998c1.639,0,89.314,0,89.314,0v-19.379  l-9.7,9.681c0,0-87.659,0.015-89.295,0.015c0,0.704-0.003,44.792-0.006,94.347L243.623,297.65"/>
<path fill="#FABB00" d="M340.718,265.015c0,0-14.227,0.04,1.479,0.04c15.705,0,31.954,13.173,31.954,34.1  c0,20.93-14.114,41.748-30.926,55.273c-13.851,11.149-36.932,22.033-48.462,24.106l9.712,10.072  c7.823-3.936,26.177-13.733,38.004-21.106l15.871-14.048c18.937-18.575,25.795-37.816,25.795-53.669  c0-6.872-1.284-13.11-3.408-18.379c-6.491-16.062-21.416-26.038-38.957-26.038h-56.775l9.808,9.666L340.718,265.015"/>
<polyline fill="#FABB00" points="294.807,307.316 294.789,495.635 304.551,478.665 304.537,307.316 294.807,307.316"/>
<polyline fill="#FABB00" points="304.537,297.65 304.537,274.615 294.813,265.029 294.807,307.316 304.537,297.65"/>
<path fill="#FABB00" d="M373.342,405.133c0,16.932-6.413,35.1-27.161,55.707c-20.755,20.611-51.392,34.799-51.392,34.799  l-9.787,17.023l1.191-0.56c74.711-35.382,93.94-73.375,96.915-99.019c0.293-2.535,0.439-5.068,0.439-7.583  c0-19.913-9.118-38.888-25.197-52.049l-15.387,0.953C342.964,354.405,373.342,373.888,373.342,405.133"/>
<linearGradient id="SVGID_1_" gradientUnits="userSpaceOnUse" x1="334.5752" y1="255.3657" x2="334.5752" y2="354.4082">
	<stop offset="0" style="stop-color: rgb(255, 229, 0);"/>
	<stop offset="1" style="stop-color: rgb(250, 187, 0);"/>
</linearGradient>
<path fill="url(#SVGID_1_)" d="M358.351,353.452c18.937-18.575,25.795-37.816,25.795-53.669c0-6.872-1.284-13.11-3.408-18.379  c-6.491-16.062-21.416-26.038-38.957-26.038h-56.775l9.808,9.666l45.905-0.017c0,0-14.227,0.04,1.479,0.04  c15.705,0,31.954,13.173,31.954,34.1c0,20.922-14.101,41.725-30.897,55.254"/>
<path fill="#FABB00" d="M342.972,354.635c-13.882,11.073-36.747,21.838-48.208,23.899l9.712,10.072  c7.823-3.936,26.177-13.733,38.004-21.106L342.972,354.635"/>
<path fill="#FABB00" d="M373.342,405.133c0,16.932-6.413,35.1-27.161,55.707c-20.755,20.611-51.392,34.799-51.392,34.799  l-9.787,17.023l1.191-0.56c74.711-35.382,93.94-73.375,96.915-99.019c0.293-2.535,0.439-5.068,0.439-7.583  c0-19.913-9.118-38.888-25.197-52.049l-15.387,0.953C342.964,354.405,373.342,373.888,373.342,405.133"/>
<path fill="#FFE500" d="M346.181,460.84c20.748-20.607,27.161-38.775,27.161-55.707c0-31.245-30.378-50.728-30.378-50.728  l-0.484,13.095c13.832,11.448,20.849,24.448,20.849,38.724c0,1.479-0.075,2.967-0.225,4.472  c-2.381,23.861-24.783,49.809-58.553,67.97l-9.762,16.974C294.795,495.635,325.426,481.448,346.181,460.84"/>
<linearGradient id="SVGID_2_" gradientUnits="userSpaceOnUse" x1="334.457" y1="378.5342" x2="334.457" y2="265.0151">
	<stop offset="0" style="stop-color: rgb(255, 229, 0);"/>
	<stop offset="1" style="stop-color: rgb(250, 187, 0);"/>
</linearGradient>
<path fill="url(#SVGID_2_)" d="M374.151,299.154c0-20.926-16.249-34.1-31.954-34.1c-15.706,0-1.479-0.04-1.479-0.04l-45.905,0.017  l9.725,9.583c1.587,0,34.943,0,34.943,0c12.458,0,21.69,7.395,24.095,19.305c0.416,2.079,0.635,4.245,0.635,6.482  c0,20.313-17.708,46.382-59.686,64.382l-9.761,13.751c11.53-2.073,34.611-12.957,48.462-24.106  C360.037,340.902,374.151,320.084,374.151,299.154"/>
<path fill="#FFE500" d="M285.002,317c0,37.609,0,98.164,0,195.662l9.787-17.027l0.018-188.318L285.002,317"/>
<path fill="#FFE500" d="M294.807,307.316l0.006-42.288l-9.808-9.663c0,0-0.003-9.635-0.003,51.951H294.807"/>
<path fill="#B00623" d="M153.523,304.043c-0.005-0.023-0.011-0.047-0.019-0.072c-1.605-16.386-12.064-36.127-23.095-47.164  l-9.975-10.209c-6.461-6.39-16.575-11.777-25.126-15.252c-0.3,40.551,5.576,106.206,14.336,139.257  c0.373,1.453,0.776,2.883,1.161,4.325c25.225-10.376,43.04-35.209,43.04-64.134c0-2.156-0.111-4.282-0.306-6.387  C153.546,304.289,153.541,304.165,153.523,304.043"/>
<path fill="#FFE500" d="M69.327,363.161c37.313,0,67.563-30.248,67.563-67.559c0-37.316-30.25-67.565-67.563-67.565  c-37.314,0-67.562,30.249-67.562,67.565C1.765,332.913,32.012,363.161,69.327,363.161"/>
<g>
	<path fill="none" stroke="#FFE500" stroke-width="0.7352" d="M98.905,234.84c6.858,10.571,7.52,16.758,7.52,30.295   c0,37.316-30.249,67.565-67.563,67.565c-13.539,0-21.638-4.965-32.21-11.823"/>
	<path fill="none" stroke="#FFE400" stroke-width="0.7352" d="M6.703,320.977c10.557,6.917,18.703,11.927,32.263,11.967   c4.567,0.014,9.032-0.425,13.353-1.277c25.725-5.073,46.204-24.776,52.402-50.078c1.287-5.253,1.958-10.741,1.936-16.384   c-0.043-13.542-0.783-19.78-7.689-30.329"/>
	<path fill="none" stroke="#FFE300" stroke-width="0.7352" d="M6.755,321.076c10.541,6.975,18.734,12.03,32.315,12.109   c4.578,0.029,9.058-0.398,13.397-1.242c25.827-5.029,46.392-24.825,52.536-50.232c1.275-5.275,1.929-10.782,1.885-16.438   c-0.087-13.548-0.905-19.836-7.859-30.363"/>
	<path fill="none" stroke="#FFE300" stroke-width="0.7352" d="M6.807,321.176c10.526,7.032,18.767,12.135,32.367,12.252   c4.59,0.044,9.085-0.372,13.442-1.209c25.928-4.984,46.579-24.873,52.668-50.385c1.264-5.299,1.899-10.824,1.834-16.491   c-0.13-13.553-1.026-19.892-8.028-30.397"/>
	<path fill="none" stroke="#FFE200" stroke-width="0.7352" d="M6.858,321.274c10.511,7.092,18.798,12.239,32.42,12.396   c4.601,0.058,9.111-0.347,13.487-1.176c26.03-4.939,46.766-24.921,52.802-50.538c1.252-5.322,1.871-10.865,1.784-16.545   c-0.174-13.559-1.147-19.948-8.198-30.431"/>
	<path fill="none" stroke="#FFE100" stroke-width="0.7352" d="M6.911,321.374c10.495,7.149,18.83,12.343,32.472,12.539   c4.613,0.072,9.138-0.319,13.532-1.142c26.132-4.896,46.953-24.969,52.935-50.691c1.241-5.345,1.841-10.907,1.733-16.599   c-0.218-13.564-1.269-20.003-8.367-30.464"/>
	<path fill="none" stroke="#FFE100" stroke-width="0.7352" d="M6.962,321.474c10.479,7.208,18.861,12.446,32.524,12.683   c4.624,0.087,9.165-0.294,13.577-1.108c26.233-4.851,47.141-25.017,53.068-50.845c1.23-5.369,1.812-10.948,1.682-16.653   c-0.261-13.57-1.39-20.06-8.537-30.499"/>
	<path fill="none" stroke="#FFE000" stroke-width="0.7352" d="M7.014,321.573c10.464,7.267,18.893,12.55,32.577,12.825   c4.635,0.102,9.191-0.268,13.622-1.074c26.335-4.807,47.328-25.064,53.2-50.999c1.219-5.392,1.784-10.989,1.632-16.706   c-0.305-13.575-1.511-20.116-8.707-30.533"/>
	<path fill="none" stroke="#FFE000" stroke-width="0.7352" d="M7.066,321.673c10.449,7.324,18.924,12.654,32.629,12.968   c4.646,0.116,9.218-0.24,13.667-1.041c26.437-4.761,47.516-25.112,53.333-51.151c1.208-5.415,1.742-11.031,1.582-16.76   c-0.379-13.58-1.633-20.172-8.876-30.567"/>
	<path fill="none" stroke="#FFDF00" stroke-width="0.7352" d="M7.118,321.771c10.433,7.384,18.957,12.759,32.681,13.112   c4.658,0.131,9.245-0.215,13.712-1.007c26.539-4.718,47.703-25.161,53.466-51.305c1.196-5.438,1.711-11.072,1.531-16.814   c-0.427-13.585-1.754-20.228-9.045-30.601"/>
	<path fill="none" stroke="#FFDE00" stroke-width="0.7352" d="M7.17,321.871c10.418,7.441,18.988,12.862,32.734,13.256   c4.669,0.145,9.271-0.189,13.757-0.975c26.64-4.672,47.89-25.208,53.599-51.458c1.185-5.461,1.68-11.114,1.48-16.868   c-0.473-13.59-1.875-20.284-9.215-30.634"/>
	<path fill="none" stroke="#FFDE00" stroke-width="0.7352" d="M7.222,321.971c10.402,7.499,19.02,12.966,32.786,13.398   c4.681,0.159,9.298-0.163,13.802-0.939c26.742-4.629,48.078-25.257,53.732-51.612c1.174-5.484,1.65-11.155,1.429-16.921   c-0.521-13.596-1.996-20.339-9.384-30.668"/>
	<path fill="none" stroke="#FFDD00" stroke-width="0.7352" d="M7.274,322.069c10.387,7.558,19.051,13.07,32.838,13.542   c4.692,0.175,9.325-0.137,13.847-0.905c26.843-4.585,48.265-25.306,53.865-51.766c1.163-5.507,1.619-11.196,1.378-16.975   c-0.567-13.601-2.118-20.395-9.554-30.702"/>
	<path fill="none" stroke="#FFDC00" stroke-width="0.7352" d="M7.326,322.169c10.372,7.616,19.083,13.175,32.891,13.685   c4.704,0.189,9.352-0.109,13.892-0.872c26.945-4.54,48.453-25.353,53.999-51.918c1.151-5.531,1.589-11.238,1.328-17.029   c-0.614-13.606-2.239-20.451-9.723-30.736"/>
	<path fill="none" stroke="#FFDC00" stroke-width="0.7352" d="M7.378,322.269c10.356,7.675,19.114,13.278,32.943,13.828   c4.715,0.203,9.378-0.084,13.937-0.839c27.046-4.495,48.64-25.401,54.131-52.071c1.14-5.554,1.559-11.279,1.277-17.083   c-0.661-13.611-2.36-20.507-9.893-30.771"/>
	<path fill="none" stroke="#FFDB00" stroke-width="0.7352" d="M7.43,322.368c10.341,7.732,19.146,13.382,32.995,13.972   c4.727,0.217,9.405-0.059,13.981-0.806c27.148-4.451,48.827-25.448,54.265-52.225c1.128-5.577,1.528-11.32,1.226-17.136   c-0.707-13.616-2.481-20.563-10.062-30.804"/>
	<path fill="none" stroke="#FFDB00" stroke-width="0.7352" d="M7.481,322.468c10.325,7.79,19.178,13.485,33.047,14.114   c4.739,0.232,9.432-0.031,14.027-0.771c27.25-4.406,49.015-25.497,54.397-52.378c1.117-5.6,1.498-11.361,1.175-17.19   c-0.753-13.621-2.603-20.619-10.231-30.838"/>
	<path fill="none" stroke="#FFDA00" stroke-width="0.7352" d="M7.534,322.566c10.31,7.85,19.209,13.59,33.1,14.258   c4.75,0.247,9.458-0.005,14.072-0.737c27.352-4.362,49.202-25.545,54.53-52.532c1.106-5.624,1.467-11.403,1.125-17.244   c-0.8-13.626-2.724-20.675-10.401-30.872"/>
	<path fill="none" stroke="#FFD900" stroke-width="0.7352" d="M7.585,322.666c10.294,7.907,19.241,13.694,33.152,14.401   c4.762,0.261,9.485,0.021,14.117-0.704c27.453-4.317,49.389-25.594,54.664-52.685c1.095-5.647,1.437-11.444,1.074-17.297   c-0.846-13.631-2.845-20.731-10.57-30.906"/>
	<path fill="none" stroke="#FFD900" stroke-width="0.7352" d="M7.637,322.766c10.279,7.966,19.274,13.77,33.205,14.545   c4.773,0.266,9.511,0.046,14.162-0.671c27.555-4.272,49.576-25.642,54.796-52.839c1.083-5.669,1.407-11.485,1.023-17.351   c-0.892-13.637-2.966-20.787-10.74-30.94"/>
	<path fill="none" stroke="#FFD800" stroke-width="0.7352" d="M7.689,322.865c10.263,8.024,19.306,13.871,33.256,14.688   c4.785,0.279,9.538,0.072,14.207-0.638c27.657-4.228,49.764-25.688,54.93-52.991c1.072-5.693,1.376-11.527,0.973-17.405   c-0.938-13.642-3.088-20.843-10.91-30.974"/>
	<path fill="none" stroke="#FFD700" stroke-width="0.7352" d="M7.741,322.965c10.248,8.082,19.338,13.975,33.309,14.83   c4.796,0.295,9.564,0.1,14.251-0.604c27.758-4.184,49.951-25.736,55.062-53.145c1.061-5.716,1.347-11.568,0.922-17.458   c-0.984-13.647-3.209-20.899-11.079-31.008"/>
	<path fill="none" stroke="#FFD700" stroke-width="0.7352" d="M7.793,323.064c10.233,8.141,19.37,14.076,33.361,14.973   c4.808,0.309,9.591,0.126,14.296-0.568c27.86-4.14,50.139-25.785,55.195-53.299c1.05-5.739,1.317-11.61,0.872-17.513   c-1.03-13.651-3.331-20.955-11.249-31.042"/>
	<path fill="none" stroke="#FFD600" stroke-width="0.7352" d="M7.845,323.164c10.217,8.198,19.401,14.18,33.414,15.116   c4.819,0.322,9.618,0.151,14.341-0.536c27.961-4.094,50.326-25.833,55.328-53.452c1.039-5.762,1.287-11.651,0.821-17.566   c-1.076-13.657-3.452-21.011-11.418-31.076"/>
	<path fill="none" stroke="#FFD500" stroke-width="0.7352" d="M7.897,323.263c10.202,8.257,19.434,14.282,33.466,15.261   c4.831,0.336,9.645,0.178,14.387-0.503c28.063-4.05,50.513-25.881,55.461-53.605c1.027-5.786,1.256-11.692,0.77-17.62   c-1.122-13.662-3.573-21.066-11.587-31.11"/>
	<path fill="none" stroke="#FFD500" stroke-width="0.7352" d="M7.949,323.362c10.187,8.315,19.465,14.386,33.519,15.403   c4.842,0.351,9.671,0.204,14.431-0.469c28.165-4.006,50.701-25.929,55.594-53.758c1.016-5.809,1.227-11.733,0.719-17.674   c-1.167-13.667-3.694-21.122-11.757-31.144"/>
	<path fill="none" stroke="#FFD400" stroke-width="0.7352" d="M8.001,323.462c10.171,8.374,19.497,14.489,33.57,15.546   c4.854,0.365,9.698,0.23,14.477-0.435c28.266-3.961,50.888-25.978,55.727-53.912c1.004-5.832,1.196-11.774,0.668-17.728   c-1.213-13.672-3.815-21.178-11.926-31.178"/>
	<path fill="none" stroke="#FFD300" stroke-width="0.7352" d="M8.053,323.561c10.155,8.433,19.529,14.593,33.623,15.69   c4.865,0.379,9.725,0.256,14.521-0.401c28.368-3.916,51.076-26.025,55.86-54.065c0.993-5.855,1.167-11.816,0.618-17.781   c-1.258-13.677-3.937-21.234-12.096-31.212"/>
	<path fill="none" stroke="#FFD300" stroke-width="0.7352" d="M8.104,323.661c10.14,8.49,19.561,14.695,33.675,15.833   c4.877,0.393,9.751,0.282,14.566-0.368c28.47-3.872,51.263-26.073,55.993-54.219c0.982-5.878,1.137-11.857,0.567-17.835   c-1.304-13.682-4.058-21.29-12.265-31.245"/>
	<path fill="none" stroke="#FFD300" stroke-width="0.7352" d="M8.157,323.76c10.125,8.549,19.592,14.799,33.728,15.977   c4.888,0.407,9.778,0.309,14.611-0.334c28.572-3.828,51.45-26.121,56.126-54.372c0.971-5.901,1.106-11.898,0.516-17.889   c-1.349-13.687-4.179-21.346-12.435-31.279"/>
	<path fill="none" stroke="#FFD200" stroke-width="0.7352" d="M8.208,323.859c10.109,8.606,19.625,14.902,33.78,16.119   c4.9,0.422,9.805,0.335,14.656-0.301c28.673-3.782,51.638-26.168,56.259-54.524c0.959-5.925,1.077-11.94,0.465-17.942   c-1.394-13.692-4.3-21.402-12.604-31.313"/>
	<path fill="none" stroke="#FFD100" stroke-width="0.7352" d="M8.26,323.959c10.094,8.664,19.656,15.004,33.833,16.262   c4.912,0.437,9.831,0.361,14.701-0.266c28.775-3.738,51.825-26.217,56.393-54.679c0.948-5.948,1.047-11.98,0.415-17.996   c-1.439-13.697-4.422-21.458-12.773-31.348"/>
	<path fill="none" stroke="#FFD100" stroke-width="0.7352" d="M8.313,324.059c10.078,8.723,19.688,15.106,33.884,16.405   c4.923,0.45,9.858,0.388,14.746-0.232c28.876-3.694,52.012-26.266,56.525-54.833c0.937-5.971,1.017-12.022,0.364-18.05   c-1.484-13.702-4.543-21.514-12.943-31.381"/>
	<path fill="none" stroke="#FFD000" stroke-width="0.7352" d="M8.364,324.158c10.063,8.781,19.72,15.211,33.937,16.549   c4.935,0.464,9.885,0.413,14.792-0.2c28.978-3.649,52.199-26.313,56.658-54.985c0.925-5.994,0.987-12.063,0.313-18.104   c-1.529-13.707-4.665-21.57-13.113-31.416"/>
	<path fill="none" stroke="#FFCF00" stroke-width="0.7352" d="M8.416,324.257c10.047,8.84,19.752,15.314,33.989,16.692   c4.946,0.479,9.911,0.439,14.836-0.166c29.08-3.605,52.387-26.36,56.792-55.138c0.914-6.018,0.958-12.105,0.263-18.157   c-1.574-13.712-4.786-21.626-13.282-31.449"/>
	<path fill="none" stroke="#FFCF00" stroke-width="0.7352" d="M8.468,324.356c10.032,8.897,19.783,15.418,34.041,16.835   c4.958,0.493,9.938,0.467,14.881-0.132c29.181-3.561,52.574-26.408,56.924-55.292c0.903-6.04,0.928-12.146,0.212-18.211   c-1.619-13.717-4.907-21.682-13.452-31.483"/>
	<path fill="none" stroke="#FFCE00" stroke-width="0.7352" d="M8.52,324.456c10.017,8.956,19.815,15.521,34.094,16.979   c4.969,0.507,9.964,0.492,14.926-0.099c29.283-3.517,52.762-26.457,57.057-55.445c0.892-6.063,0.898-12.188,0.162-18.265   c-1.664-13.722-5.028-21.738-13.621-31.517"/>
	<path fill="none" stroke="#FFCE00" stroke-width="0.7352" d="M8.572,324.556c10.001,9.014,19.847,15.624,34.146,17.122   c4.98,0.521,9.991,0.518,14.971-0.065c29.385-3.472,52.949-26.505,57.19-55.599c0.88-6.087,0.869-12.229,0.111-18.318   c-1.708-13.727-5.15-21.794-13.791-31.551"/>
	<path fill="none" stroke="#FFCD00" stroke-width="0.7352" d="M8.624,324.655c9.985,9.072,19.879,15.728,34.198,17.265   c4.992,0.536,10.018,0.544,15.016-0.031c29.486-3.428,53.137-26.553,57.323-55.752c0.869-6.11,0.839-12.27,0.06-18.373   c-1.753-13.732-5.271-21.849-13.96-31.585"/>
	<path fill="none" stroke="#FFCC00" stroke-width="0.7352" d="M8.676,324.754c9.97,9.132,19.911,15.832,34.25,17.408   c5.003,0.551,10.044,0.57,15.061,0.003c29.588-3.383,53.324-26.601,57.456-55.906c0.858-6.133,0.81-12.311,0.009-18.426   c-1.798-13.737-5.392-21.905-14.129-31.619"/>
	<path fill="none" stroke="#FECB00" stroke-width="0.7352" d="M8.728,324.854c9.955,9.189,19.943,15.936,34.303,17.552   c5.015,0.563,10.071,0.597,15.106,0.035c29.689-3.338,53.511-26.648,57.589-56.058c0.847-6.156,0.78-12.352-0.042-18.479   c-1.842-13.742-5.514-21.961-14.299-31.653"/>
	<path fill="none" stroke="#FECB00" stroke-width="0.7352" d="M8.78,324.953c9.939,9.248,19.974,16.038,34.355,17.694   c5.027,0.579,10.098,0.623,15.151,0.07c29.792-3.294,53.699-26.697,57.722-56.212c0.835-6.18,0.75-12.394-0.092-18.533   c-1.887-13.747-5.635-22.018-14.468-31.687"/>
	<path fill="none" stroke="#FECA00" stroke-width="0.7352" d="M8.832,325.053c9.924,9.306,20.006,16.142,34.408,17.837   c5.038,0.594,10.125,0.649,15.196,0.104c29.893-3.25,53.886-26.745,57.855-56.366c0.824-6.203,0.721-12.436-0.143-18.587   c-1.931-13.752-5.756-22.073-14.638-31.721"/>
	<path fill="none" stroke="#FEC900" stroke-width="0.7352" d="M8.883,325.152c9.909,9.363,20.038,16.245,34.46,17.98   c5.05,0.607,10.151,0.676,15.241,0.137c29.995-3.204,54.073-26.792,57.988-56.518c0.813-6.226,0.691-12.477-0.194-18.641   c-1.976-13.757-5.877-22.129-14.807-31.755"/>
	<path fill="none" stroke="#FEC900" stroke-width="0.7352" d="M8.936,325.251c9.893,9.423,20.07,16.349,34.512,18.124   c5.061,0.623,10.178,0.702,15.286,0.172c30.096-3.161,54.261-26.841,58.121-56.673c0.801-6.249,0.662-12.518-0.245-18.694   c-2.02-13.762-5.999-22.185-14.977-31.789"/>
	<path fill="none" stroke="#FEC800" stroke-width="0.7352" d="M8.987,325.351c9.877,9.481,20.102,16.453,34.564,18.268   c5.072,0.636,10.205,0.728,15.331,0.204c30.198-3.115,54.448-26.889,58.254-56.825c0.79-6.272,0.632-12.559-0.295-18.749   c-2.064-13.767-6.12-22.241-15.146-31.823"/>
	<path fill="none" stroke="#FDC700" stroke-width="0.7352" d="M9.039,325.45c9.862,9.539,20.134,16.557,34.617,18.41   c5.083,0.651,10.231,0.754,15.375,0.238c30.299-3.071,54.635-26.937,58.387-56.979c0.779-6.295,0.604-12.601-0.346-18.802   c-2.107-13.772-6.241-22.297-15.316-31.856"/>
	<path fill="none" stroke="#FDC700" stroke-width="0.7352" d="M9.091,325.549c9.847,9.599,20.165,16.662,34.669,18.555   c5.095,0.665,10.258,0.779,15.421,0.271c30.401-3.026,54.822-26.985,58.52-57.132c0.767-6.319,0.574-12.642-0.396-18.856   c-2.152-13.777-6.363-22.353-15.485-31.891"/>
	<path fill="none" stroke="#FDC600" stroke-width="0.7352" d="M9.143,325.648c9.831,9.656,20.197,16.765,34.722,18.697   c5.106,0.681,10.284,0.807,15.465,0.306c30.503-2.982,55.01-27.032,58.653-57.286c0.756-6.341,0.544-12.683-0.447-18.91   c-2.195-13.782-6.484-22.409-15.655-31.924"/>
	<path fill="none" stroke="#FDC500" stroke-width="0.7352" d="M9.195,325.748c9.816,9.714,20.229,16.867,34.774,18.841   c5.119,0.694,10.311,0.832,15.511,0.339c30.604-2.938,55.197-27.081,58.786-57.439c0.745-6.365,0.515-12.724-0.498-18.963   c-2.239-13.788-6.605-22.465-15.824-31.958"/>
	<path fill="none" stroke="#FDC500" stroke-width="0.7352" d="M9.247,325.848c9.8,9.771,20.261,16.972,34.826,18.983   c5.13,0.709,10.338,0.858,15.556,0.372c30.706-2.893,55.385-27.128,58.919-57.591c0.734-6.388,0.486-12.765-0.548-19.017   c-2.283-13.792-6.727-22.521-15.994-31.993"/>
	<path fill="none" stroke="#FDC400" stroke-width="0.7352" d="M9.299,325.947c9.785,9.83,20.292,17.075,34.878,19.126   c5.142,0.724,10.364,0.885,15.601,0.407c30.808-2.849,55.572-27.178,59.052-57.746c0.723-6.411,0.457-12.807-0.599-19.071   c-2.327-13.797-6.848-22.576-16.163-32.026"/>
	<path fill="none" stroke="#FDC300" stroke-width="0.7352" d="M9.351,326.047c9.77,9.889,20.324,17.18,34.931,19.27   c5.153,0.737,10.391,0.911,15.646,0.44c30.91-2.805,55.76-27.226,59.185-57.899c0.711-6.434,0.428-12.848-0.65-19.125   c-2.371-13.803-6.969-22.632-16.333-32.06"/>
	<path fill="none" stroke="#FCC300" stroke-width="0.7352" d="M9.403,326.146c9.754,9.946,20.356,17.283,34.983,19.413   c5.165,0.751,10.417,0.937,15.69,0.474c31.011-2.76,55.947-27.273,59.318-58.053c0.7-6.458,0.399-12.889-0.701-19.178   c-2.414-13.808-7.09-22.688-16.502-32.094"/>
	<path fill="none" stroke="#FCC200" stroke-width="0.7352" d="M9.455,326.245c9.738,10.005,20.388,17.388,35.035,19.557   c5.176,0.767,10.444,0.963,15.736,0.508c31.112-2.716,56.134-27.321,59.451-58.206c0.688-6.481,0.37-12.931-0.751-19.232   c-2.458-13.813-7.211-22.745-16.671-32.128"/>
	<path fill="none" stroke="#FCC100" stroke-width="0.7352" d="M9.506,326.345c9.723,10.063,20.42,17.491,35.088,19.699   c5.188,0.782,10.471,0.989,15.78,0.541c31.214-2.67,56.322-27.368,59.584-58.358c0.677-6.504,0.34-12.972-0.802-19.286   c-2.501-13.818-7.333-22.8-16.841-32.162"/>
	<path fill="none" stroke="#FCC100" stroke-width="0.7352" d="M9.558,326.444c9.708,10.121,20.452,17.596,35.14,19.843   c5.199,0.795,10.498,1.016,15.826,0.574c31.316-2.626,56.509-27.417,59.717-58.512c0.666-6.527,0.311-13.013-0.853-19.339   c-2.544-13.823-7.454-22.856-17.01-32.196"/>
	<path fill="none" stroke="#FCC000" stroke-width="0.7352" d="M9.61,326.544c9.692,10.18,20.483,17.699,35.192,19.986   c5.21,0.81,10.524,1.041,15.87,0.607c31.418-2.581,56.696-27.465,59.85-58.666c0.655-6.55,0.282-13.055-0.904-19.393   c-2.588-13.828-7.575-22.913-17.18-32.23"/>
	<path fill="none" stroke="#FCBF00" stroke-width="0.7352" d="M9.662,326.644c9.677,10.238,20.515,17.802,35.245,20.129   c5.222,0.824,10.551,1.067,15.916,0.642c31.519-2.537,56.884-27.513,59.983-58.819c0.643-6.573,0.253-13.096-0.954-19.447   c-2.63-13.833-7.697-22.968-17.35-32.264"/>
	<path fill="none" stroke="#FBBF00" stroke-width="0.7352" d="M9.714,326.742c9.662,10.297,20.547,17.907,35.297,20.272   c5.233,0.839,10.578,1.095,15.96,0.676c31.621-2.492,57.071-27.562,60.116-58.972c0.632-6.597,0.225-13.138-1.005-19.501   c-2.674-13.839-7.818-23.024-17.519-32.298"/>
	<path fill="none" stroke="#FBBE00" stroke-width="0.7352" d="M9.766,326.842c9.646,10.355,20.578,18.011,35.349,20.415   c5.245,0.854,10.604,1.12,16.005,0.71c31.723-2.448,57.258-27.609,60.249-59.126c0.621-6.62,0.195-13.179-1.056-19.554   c-2.717-13.844-7.939-23.08-17.688-32.332"/>
	<path fill="none" stroke="#FBBD00" stroke-width="0.7352" d="M9.818,326.941c9.63,10.413,20.61,18.115,35.402,20.559   c5.256,0.868,10.631,1.146,16.05,0.743c31.825-2.403,57.446-27.657,60.382-59.279c0.609-6.643,0.167-13.22-1.106-19.608   c-2.76-13.849-8.061-23.136-17.857-32.366"/>
	<path fill="none" stroke="#FBBC00" stroke-width="0.7352" d="M9.87,327.04c9.615,10.472,20.642,18.221,35.454,20.703   c5.268,0.882,10.658,1.172,16.095,0.776c31.926-2.359,57.633-27.705,60.515-59.433c0.598-6.666,0.138-13.262-1.157-19.662   c-2.803-13.854-8.182-23.192-18.027-32.4"/>
	<path fill="none" stroke="#FBBC00" stroke-width="0.7352" d="M9.922,327.14c9.6,10.53,20.674,18.324,35.506,20.846   c5.279,0.897,10.684,1.199,16.14,0.81c32.027-2.313,57.82-27.752,60.648-59.585c0.586-6.689,0.109-13.303-1.208-19.716   c-2.846-13.86-8.303-23.248-18.196-32.434"/>
	<path fill="none" stroke="#FABB00" stroke-width="0.7352" d="M9.974,327.239c9.584,10.588,20.706,18.429,35.559,20.988   c5.291,0.912,10.711,1.225,16.185,0.845c32.129-2.271,58.008-27.801,60.781-59.74c0.575-6.712,0.08-13.344-1.259-19.769   c-2.889-13.865-8.424-23.304-18.366-32.468"/>
	<path fill="none" stroke="#FABA00" stroke-width="0.7352" d="M10.025,327.339c9.569,10.646,20.737,18.532,35.611,21.132   c5.302,0.927,10.737,1.251,16.23,0.878c32.231-2.226,58.195-27.85,60.914-59.893c0.564-6.735,0.052-13.386-1.309-19.823   c-2.932-13.87-8.545-23.359-18.535-32.501"/>
	<path fill="none" stroke="#FABA00" stroke-width="0.7352" d="M10.078,327.438c9.553,10.705,20.769,18.638,35.663,21.275   c5.314,0.94,10.764,1.276,16.275,0.91c32.333-2.181,58.383-27.896,61.047-60.045c0.553-6.759,0.023-13.427-1.36-19.877   c-2.975-13.875-8.667-23.416-18.705-32.536"/>
	<path fill="none" stroke="#FAB900" stroke-width="0.7352" d="M10.129,327.537c9.538,10.764,20.801,18.741,35.715,21.419   c5.326,0.955,10.791,1.304,16.32,0.944c32.434-2.136,58.57-27.944,61.18-60.199c0.542-6.782-0.006-13.469-1.411-19.931   c-3.017-13.881-8.788-23.472-18.874-32.57"/>
	<path fill="none" stroke="#FAB800" stroke-width="0.7352" d="M10.181,327.637c9.522,10.821,20.833,18.845,35.768,21.562   c5.337,0.971,10.817,1.329,16.365,0.979c32.536-2.092,58.757-27.992,61.313-60.353c0.531-6.805-0.035-13.51-1.461-19.984   c-3.06-13.886-8.909-23.527-19.043-32.604"/>
	<path fill="none" stroke="#FAB700" stroke-width="0.7352" d="M10.233,327.736c9.507,10.879,20.864,18.949,35.82,21.704   c5.349,0.986,10.844,1.356,16.41,1.013c32.638-2.047,58.945-28.041,61.446-60.506c0.519-6.828-0.063-13.551-1.512-20.038   c-3.103-13.892-9.031-23.583-19.213-32.638"/>
	<path fill="none" stroke="#FAB700" stroke-width="0.7352" d="M10.285,327.836c9.492,10.938,20.896,19.054,35.873,21.848   c5.36,1,10.871,1.382,16.455,1.046c32.739-2.003,59.132-28.089,61.579-60.659c0.508-6.852-0.092-13.593-1.563-20.092   c-3.145-13.897-9.152-23.64-19.382-32.671"/>
	<path fill="none" stroke="#F9B600" stroke-width="0.7352" d="M10.337,327.936c9.477,10.996,20.927,19.158,35.925,21.991   c5.371,1.014,10.897,1.407,16.5,1.079c32.841-1.958,59.319-28.137,61.712-60.813c0.497-6.875-0.121-13.635-1.613-20.146   c-3.188-13.902-9.273-23.695-19.552-32.705"/>
	<path fill="none" stroke="#F9B500" stroke-width="0.7352" d="M10.389,328.035c9.46,11.054,20.959,19.263,35.977,22.134   c5.382,1.029,10.924,1.434,16.545,1.112c32.942-1.913,59.507-28.184,61.845-60.965c0.485-6.897-0.149-13.676-1.664-20.199   c-3.229-13.908-9.395-23.751-19.722-32.739"/>
	<path fill="none" stroke="#F9B500" stroke-width="0.7352" d="M10.441,328.135c9.445,11.112,20.991,19.367,36.029,22.276   c5.394,1.045,10.951,1.461,16.59,1.147c33.044-1.869,59.694-28.233,61.978-61.12c0.474-6.921-0.178-13.717-1.715-20.253   c-3.272-13.914-9.516-23.807-19.891-32.773"/>
	<path fill="none" stroke="#F9B400" stroke-width="0.7352" d="M10.493,328.233c9.43,11.171,21.022,19.473,36.082,22.421   c5.405,1.059,10.977,1.486,16.635,1.18c33.146-1.824,59.881-28.28,62.111-61.272c0.462-6.944-0.207-13.759-1.766-20.307   c-3.314-13.918-9.637-23.863-20.061-32.807"/>
	<path fill="none" stroke="#F9B300" stroke-width="0.7352" d="M10.545,328.333c9.414,11.229,21.054,19.575,36.134,22.563   c5.417,1.073,11.004,1.514,16.68,1.214c33.248-1.779,60.069-28.329,62.244-61.425c0.451-6.967-0.235-13.801-1.816-20.361   c-3.356-13.924-9.758-23.919-20.23-32.841"/>
	<path fill="none" stroke="#F9B300" stroke-width="0.7352" d="M10.597,328.433c9.399,11.287,21.085,19.681,36.187,22.707   c5.428,1.088,11.031,1.538,16.725,1.247c33.349-1.735,60.256-28.376,62.377-61.579c0.44-6.99-0.264-13.842-1.867-20.414   c-3.399-13.93-9.88-23.975-20.399-32.875"/>
	<path fill="none" stroke="#F9B200" stroke-width="0.7352" d="M10.648,328.531c9.384,11.346,21.117,19.785,36.239,22.851   c5.44,1.103,11.058,1.565,16.77,1.281c33.451-1.69,60.443-28.425,62.51-61.732c0.429-7.014-0.292-13.883-1.918-20.468   c-3.441-13.935-10.001-24.031-20.569-32.909"/>
	<path fill="none" stroke="#F8B100" stroke-width="0.7352" d="M10.701,328.632c9.368,11.403,21.149,19.89,36.291,22.992   c5.451,1.118,11.084,1.592,16.814,1.315c33.552-1.646,60.631-28.473,62.643-61.886c0.417-7.037-0.32-13.925-1.969-20.522   c-3.483-13.941-10.122-24.086-20.738-32.943"/>
	<path fill="none" stroke="#F8B000" stroke-width="0.7352" d="M10.752,328.73c9.353,11.463,21.181,19.994,36.343,23.137   c5.463,1.133,11.111,1.618,16.86,1.349c33.654-1.602,60.818-28.521,62.775-62.039c0.407-7.06-0.349-13.966-2.019-20.576   c-3.525-13.946-10.244-24.143-20.908-32.977"/>
	<path fill="none" stroke="#F8B000" stroke-width="0.7352" d="M10.804,328.83c9.337,11.521,21.212,20.099,36.396,23.28   c5.474,1.146,11.137,1.643,16.904,1.382c33.756-1.558,61.006-28.569,62.909-62.192c0.395-7.083-0.377-14.008-2.07-20.629   c-3.567-13.952-10.365-24.199-21.077-33.011"/>
	<path fill="none" stroke="#F8AF00" stroke-width="0.7352" d="M10.856,328.93c9.322,11.578,21.243,20.203,36.448,23.423   c5.486,1.162,11.164,1.67,16.95,1.416c33.857-1.514,61.193-28.616,63.042-62.346c0.384-7.106-0.405-14.049-2.121-20.683   c-3.609-13.957-10.486-24.254-21.247-33.045"/>
	<path fill="none" stroke="#F8AE00" stroke-width="0.7352" d="M10.908,329.029c9.306,11.637,21.275,20.309,36.5,23.566   c5.498,1.176,11.191,1.695,16.995,1.448c33.959-1.468,61.381-28.664,63.175-62.499c0.373-7.129-0.434-14.091-2.171-20.737   c-3.651-13.963-10.607-24.311-21.416-33.079"/>
	<path fill="none" stroke="#F8AD00" stroke-width="0.7352" d="M10.96,329.128c9.291,11.695,21.307,20.413,36.553,23.71   c5.508,1.191,11.217,1.723,17.04,1.482c34.061-1.424,61.568-28.712,63.308-62.652c0.361-7.153-0.462-14.133-2.222-20.791   c-3.693-13.969-10.729-24.367-21.585-33.113"/>
	<path fill="none" stroke="#F7AD00" stroke-width="0.7352" d="M11.012,329.228c9.275,11.754,21.338,20.517,36.604,23.853   c5.52,1.206,11.244,1.748,17.084,1.518c34.163-1.38,61.755-28.762,63.441-62.806c0.35-7.176-0.49-14.175-2.272-20.845   c-3.734-13.975-10.85-24.422-21.755-33.146"/>
	<path fill="none" stroke="#F7AC00" stroke-width="0.7352" d="M11.064,329.327c9.26,11.813,21.37,20.621,36.657,23.996   c5.531,1.221,11.271,1.774,17.129,1.55c34.264-1.335,61.942-28.809,63.574-62.959c0.338-7.199-0.519-14.216-2.323-20.898   c-3.776-13.98-10.972-24.478-21.925-33.181"/>
	<path fill="none" stroke="#F7AB00" stroke-width="0.7352" d="M11.116,329.427c9.245,11.87,21.402,20.727,36.709,24.139   c5.542,1.235,11.297,1.801,17.175,1.585c34.365-1.291,62.13-28.857,63.707-63.113c0.327-7.222-0.547-14.257-2.374-20.952   c-3.818-13.986-11.093-24.534-22.094-33.215"/>
	<path fill="none" stroke="#F7AA00" stroke-width="0.7352" d="M11.168,329.526c9.229,11.928,21.433,20.831,36.762,24.282   c5.554,1.25,11.324,1.827,17.219,1.617c34.467-1.246,62.317-28.904,63.84-63.266c0.316-7.246-0.575-14.299-2.425-21.005   c-3.859-13.992-11.214-24.59-22.264-33.249"/>
	<path fill="none" stroke="#F7AA00" stroke-width="0.7352" d="M11.22,329.625c9.214,11.986,21.458,20.967,36.814,24.426   c5.563,1.276,11.351,1.854,17.265,1.651c34.569-1.202,62.504-28.952,63.973-63.419c0.305-7.269-0.603-14.341-2.476-21.06   c-3.901-13.998-11.335-24.646-22.433-33.282"/>
	<path fill="none" stroke="#F7A900" stroke-width="0.7352" d="M11.271,329.725c9.198,12.045,21.489,21.07,36.867,24.569   c5.574,1.29,11.377,1.879,17.309,1.685c34.671-1.157,62.692-29.001,64.106-63.573c0.293-7.292-0.631-14.382-2.526-21.113   c-3.943-14.003-11.457-24.702-22.603-33.316"/>
	<path fill="none" stroke="#F6A800" stroke-width="0.7352" d="M11.324,329.824c9.183,12.104,21.521,21.174,36.918,24.712   c5.586,1.305,11.404,1.905,17.354,1.719c34.772-1.112,62.879-29.049,64.239-63.726c0.282-7.315-0.66-14.424-2.577-21.167   c-3.984-14.009-11.578-24.758-22.772-33.351"/>
	<path fill="none" stroke="#F6A700" stroke-width="0.7352" d="M11.375,329.924c9.167,12.161,21.553,21.278,36.971,24.855   c5.597,1.319,11.431,1.932,17.399,1.752c34.874-1.068,63.067-29.097,64.372-63.879c0.271-7.338-0.688-14.466-2.628-21.221   c-4.026-14.015-11.699-24.814-22.941-33.384"/>
	<path fill="none" stroke="#F6A700" stroke-width="0.7352" d="M11.427,330.023c9.152,12.22,21.584,21.382,37.023,24.998   c5.609,1.334,11.458,1.957,17.444,1.785c34.976-1.023,63.254-29.145,64.505-64.032c0.259-7.361-0.716-14.508-2.679-21.274   c-4.067-14.021-11.82-24.87-23.111-33.418"/>
	<path fill="none" stroke="#F6A600" stroke-width="0.7352" d="M11.479,330.123c9.136,12.277,21.616,21.485,37.076,25.141   c5.62,1.349,11.484,1.984,17.489,1.819c35.077-0.979,63.441-29.192,64.638-64.186c0.248-7.384-0.744-14.549-2.729-21.328   c-4.108-14.027-11.941-24.926-23.28-33.453"/>
	<path fill="none" stroke="#F6A500" stroke-width="0.7352" d="M11.531,330.222c9.121,12.337,21.647,21.591,37.128,25.285   c5.632,1.362,11.511,2.01,17.534,1.854c35.179-0.935,63.629-29.241,64.771-64.34c0.237-7.407-0.771-14.591-2.78-21.382   c-4.149-14.032-12.063-24.981-23.45-33.486"/>
	<path fill="none" stroke="#F6A400" stroke-width="0.7352" d="M11.583,330.321c9.106,12.395,21.68,21.693,37.181,25.428   c5.643,1.378,11.537,2.037,17.579,1.887c35.28-0.89,63.816-29.288,64.903-64.492c0.226-7.431-0.799-14.633-2.831-21.436   c-4.191-14.039-12.184-25.038-23.619-33.52"/>
	<path fill="none" stroke="#F5A400" stroke-width="0.7352" d="M11.635,330.421c9.09,12.452,21.711,21.798,37.232,25.571   c5.654,1.392,11.564,2.063,17.624,1.92c35.382-0.846,64.004-29.336,65.037-64.646c0.214-7.454-0.827-14.675-2.881-21.489   c-4.232-14.045-12.306-25.094-23.789-33.554"/>
	<path fill="none" stroke="#F5A300" stroke-width="0.7352" d="M11.687,330.52c9.075,12.512,21.743,21.902,37.285,25.715   c5.666,1.406,11.59,2.089,17.669,1.954c35.484-0.801,64.191-29.384,65.169-64.799c0.203-7.477-0.855-14.716-2.932-21.543   c-4.273-14.051-12.427-25.149-23.958-33.588"/>
	<path fill="none" stroke="#F5A200" stroke-width="0.7352" d="M11.739,330.619c9.06,12.57,21.774,22.006,37.337,25.858   c5.677,1.421,11.617,2.114,17.714,1.987c35.585-0.757,64.378-29.433,65.303-64.953c0.192-7.5-0.883-14.758-2.982-21.597   c-4.314-14.057-12.548-25.206-24.128-33.622"/>
	<path fill="none" stroke="#F5A100" stroke-width="0.7352" d="M11.791,330.719c9.044,12.628,21.806,22.109,37.389,26.001   c5.689,1.436,11.644,2.141,17.759,2.021c35.687-0.712,64.565-29.48,65.436-65.106c0.181-7.523-0.912-14.8-3.033-21.65   c-4.356-14.063-12.669-25.261-24.297-33.656"/>
	<path fill="none" stroke="#F5A100" stroke-width="0.7352" d="M11.843,330.818c9.028,12.686,21.837,22.213,37.442,26.145   c5.7,1.449,11.67,2.166,17.804,2.055c35.789-0.668,64.753-29.528,65.568-65.259c0.169-7.547-0.939-14.842-3.084-21.704   c-4.397-14.069-12.791-25.317-24.467-33.69"/>
	<path fill="none" stroke="#F5A000" stroke-width="0.7352" d="M11.895,330.918c9.013,12.744,21.87,22.317,37.494,26.287   c5.712,1.464,11.697,2.193,17.849,2.089c35.891-0.623,64.94-29.576,65.702-65.413c0.158-7.569-0.967-14.883-3.135-21.758   c-4.438-14.075-12.912-25.373-24.636-33.724"/>
	<path fill="none" stroke="#F59F00" stroke-width="0.7352" d="M11.947,331.018c8.998,12.802,21.901,22.421,37.546,26.43   c5.723,1.479,11.724,2.22,17.894,2.122c35.992-0.577,65.127-29.624,65.834-65.565c0.146-7.593-0.995-14.925-3.186-21.812   c-4.479-14.081-13.033-25.429-24.806-33.758"/>
	<path fill="none" stroke="#F49E00" stroke-width="0.7352" d="M11.999,331.117c8.982,12.86,21.933,22.524,37.599,26.572   c5.735,1.494,11.75,2.246,17.939,2.156c36.094-0.533,65.315-29.672,65.968-65.719c0.135-7.616-1.023-14.967-3.236-21.865   c-4.52-14.087-13.154-25.485-24.975-33.792"/>
	<path fill="none" stroke="#F49E00" stroke-width="0.7352" d="M12.05,331.216c8.967,12.92,21.964,22.63,37.651,26.717   c5.746,1.508,11.777,2.272,17.984,2.19c36.195-0.49,65.502-29.721,66.101-65.873c0.124-7.639-1.051-15.009-3.287-21.919   c-4.561-14.093-13.276-25.541-25.145-33.826"/>
	<path fill="none" stroke="#F49D00" stroke-width="0.7352" d="M12.103,331.315c8.951,12.978,21.996,22.732,37.703,26.86   c5.758,1.522,11.804,2.298,18.029,2.223c36.297-0.445,65.69-29.768,66.234-66.026c0.113-7.662-1.079-15.051-3.338-21.973   c-4.602-14.1-13.397-25.597-25.314-33.86"/>
	<path fill="none" stroke="#F49C00" stroke-width="0.7352" d="M12.154,331.415c8.936,13.035,22.027,22.837,37.756,27.003   c5.769,1.537,11.83,2.324,18.074,2.258c36.398-0.401,65.877-29.817,66.367-66.18c0.102-7.686-1.094-15.097-3.389-22.026   c-4.617-14.115-13.518-25.653-25.483-33.894"/>
	<path fill="none" stroke="#F49B00" stroke-width="0.7352" d="M12.206,331.515c8.92,13.093,22.06,22.94,37.808,27.146   c5.781,1.551,11.857,2.35,18.119,2.291c36.5-0.356,66.065-29.865,66.5-66.333c0.09-7.708-1.123-15.138-3.439-22.081   c-4.66-14.12-13.639-25.708-25.653-33.927"/>
	<path fill="none" stroke="#F49A00" stroke-width="0.7352" d="M12.258,331.614c8.905,13.151,22.091,23.044,37.86,27.289   c5.792,1.565,11.884,2.377,18.164,2.324c36.602-0.312,66.252-29.913,66.632-66.486c0.079-7.732-1.151-15.18-3.49-22.134   c-4.704-14.125-13.761-25.765-25.822-33.961"/>
	<path fill="none" stroke="#F39A00" stroke-width="0.7352" d="M12.31,331.713c8.89,13.21,22.123,23.148,37.913,27.434   c5.803,1.58,11.911,2.402,18.209,2.357c36.704-0.268,66.439-29.96,66.765-66.64c0.068-7.755-1.181-15.221-3.54-22.188   c-4.748-14.131-13.882-25.821-25.992-33.996"/>
	<path fill="none" stroke="#F39900" stroke-width="0.7352" d="M12.362,331.813c8.874,13.269,22.154,23.252,37.965,27.576   c5.814,1.595,11.937,2.429,18.253,2.392c36.805-0.223,66.627-30.009,66.898-66.793c0.057-7.778-1.209-15.263-3.591-22.241   c-4.791-14.137-14.003-25.877-26.162-34.03"/>
	<path fill="none" stroke="#F39800" stroke-width="0.7352" d="M12.414,331.912c8.858,13.327,22.186,23.356,38.017,27.719   c5.826,1.609,11.964,2.455,18.299,2.426c36.907-0.179,66.814-30.057,67.031-66.946c0.045-7.801-1.239-15.304-3.642-22.295   c-4.835-14.142-14.125-25.933-26.331-34.063"/>
	<path fill="none" stroke="#F39700" stroke-width="0.7352" d="M12.466,332.011c8.843,13.386,22.217,23.461,38.07,27.862   c5.837,1.625,11.99,2.482,18.343,2.46c37.009-0.134,67.001-30.105,67.165-67.1c0.034-7.825-1.268-15.346-3.692-22.349   c-4.878-14.147-14.246-25.988-26.5-34.097"/>
	<path fill="none" stroke="#F39600" stroke-width="0.7352" d="M12.518,332.11c8.828,13.444,22.25,23.564,38.122,28.006   c5.849,1.639,12.017,2.508,18.389,2.493c37.11-0.09,67.188-30.152,67.297-67.253c0.022-7.848-1.297-15.387-3.743-22.402   c-4.922-14.153-14.367-26.044-26.67-34.131"/>
	<path fill="none" stroke="#F39600" stroke-width="0.7352" d="M12.57,332.21c8.812,13.502,22.281,23.668,38.174,28.149   c5.86,1.652,12.043,2.533,18.433,2.526c37.212-0.045,67.376-30.201,67.431-67.407c0.011-7.871-1.326-15.429-3.794-22.457   c-4.965-14.158-14.489-26.1-26.839-34.165"/>
	<path fill="none" stroke="#F29500" stroke-width="0.7352" d="M12.622,332.31c12.043,18.563,32.929,30.852,56.705,30.852   c37.313,0,67.563-30.248,67.563-67.559c0-23.775-12.292-44.668-30.854-56.709"/>
</g>
<path d="M138.333,288.896c-0.002-0.015,0-0.029-0.002-0.044h0c0-0.001,0-0.001,0-0.002c-1.534-15.968-8.491-30.781-19.98-42.271  c-13.094-13.095-30.504-20.306-49.022-20.306c-14.628,0-28.554,4.517-40.218,12.861c-0.042,0.029-0.088,0.051-0.129,0.084  c-0.013,0.01-0.023,0.022-0.036,0.032c-3.042,2.19-5.937,4.626-8.639,7.329C7.211,259.673,0,277.083,0,295.602  c0,27.867,16.537,51.93,40.306,62.934c0.113,0.078,0.233,0.147,0.366,0.199c0.09,0.034,0.183,0.059,0.274,0.091  c8.669,3.906,18.271,6.101,28.381,6.101c38.228,0,69.328-31.1,69.328-69.325C138.655,293.348,138.544,291.111,138.333,288.896z   M122.86,257.347c5.016,6.988,8.574,14.835,10.521,23.171c-2.333-1.89-5.338-3.213-8.786-3.734  c-7.312-1.105-16.978,1.568-23.019,12.047c-5.763-4.313-11.372-6.209-16.697-5.622c-5.761,0.635-11.098,4.078-16.292,10.496  c-7.181-1.137-12.073-3.582-14.923-7.464c-2.837-3.863-3.702-9.354-2.599-16.306c14.905-20.034,40.991-24.644,71.662-12.625  C122.771,257.326,122.816,257.333,122.86,257.347z M31.115,242.037c11.079-7.938,24.312-12.235,38.212-12.235  c17.575,0,34.099,6.844,46.527,19.272c0.975,0.975,1.903,1.984,2.809,3.008c-29.79-10.027-55.106-4.529-70.174,15.412  c-11.032,0.444-17.463-5.656-19.808-11.639C26.587,250.513,27.569,244.98,31.115,242.037z M22.8,249.074  c0.467-0.467,0.951-0.911,1.43-1.362c-0.46,2.953-0.101,6.202,1.165,9.431c2.699,6.885,9.848,13.92,21.946,13.913  c-0.855,7.147,0.307,12.954,3.478,17.272c3.43,4.672,9.08,7.573,17.234,8.863c2.607,6.786,2.937,12.244,1,16.653  c-1.927,4.387-6.239,7.884-12.811,10.405c-24.808-2.881-41.847-23.169-46.775-55.748c-0.009-0.059-0.029-0.112-0.043-0.168  C12.648,261.257,17.137,254.737,22.8,249.074z M42.247,355.543C19.44,345.198,3.529,322.231,3.529,295.602  c0-7.26,1.186-14.334,3.432-21.021c6.203,30.846,23.627,50.042,48.442,53.118c5.903,9.334,3.835,17.956-0.174,22.979  C51.705,355.092,46.531,357.011,42.247,355.543z M75.695,361.083c-2.097,0.203-4.219,0.314-6.368,0.314  c-6.582,0-12.936-0.983-18.937-2.791c2.792-1.076,5.431-3.013,7.598-5.729c4.614-5.78,7.139-15.491,1.08-25.968  c6.616-2.833,11.063-6.742,13.216-11.646c2.331-5.307,2.018-11.648-0.944-19.354c4.575-5.65,9.138-8.666,13.926-9.193  c4.762-0.525,9.948,1.46,15.415,5.888c9.906,22.929,0.856,47.832-24.893,68.389C75.753,361.021,75.727,361.054,75.695,361.083z   M82.331,360.102c23.59-20.79,31.493-45.47,21.756-68.496c5.13-9.775,13.628-12.294,19.981-11.333  c5.684,0.859,9.991,4.486,10.757,9.04c0.196,2.078,0.3,4.176,0.3,6.29C135.125,327.432,112.405,354.048,82.331,360.102z"/>
<path d="M323.021,43.158c0,0-41.617,0.059-45.438,0.064C276.406,39.588,263.579,0,263.579,0l-2.795,8.643  c0,0-10.011,30.954-11.185,34.588c-3.819-0.003-45.44-0.034-45.44-0.034s33.704,24.41,36.798,26.652  c-1.186,3.634-14.079,43.199-14.079,43.199s33.639-24.508,36.728-26.758c3.087,2.247,36.735,26.735,36.735,26.735  s-12.917-39.559-14.101-43.19C289.333,67.592,323.021,43.158,323.021,43.158"/>
<polyline fill="#FFE500" points="275.445,46.166 313.941,46.11 282.779,68.709 294.729,105.302 263.607,82.652 232.487,105.322 244.414,68.724 213.241,46.143 251.737,46.171 263.583,9.547 275.445,46.166"/>
<polyline fill="#FABB00" points="263.583,9.547 275.445,46.166 263.579,62.505 263.583,9.547"/>
<polyline fill="#FABB00" points="213.217,46.14 251.708,46.171 263.579,62.505 213.217,46.14"/>
<polyline fill="#FABB00" points="232.452,105.345 244.377,68.748 263.579,62.505 232.452,105.345"/>
<polyline fill="#FABB00" points="294.709,105.348 263.586,82.699 263.579,62.505 294.709,105.348"/>
<polyline fill="#FABB00" points="313.947,46.143 282.784,68.742 263.579,62.505 313.947,46.143"/>
</svg>